<?xml version="1.0" encoding="utf-8" standalone="no"?>
<!DOCTYPE svg PUBLIC "-//W3C//DTD SVG 1.1//EN"
  "http://www.w3.org/Graphics/SVG/1.1/DTD/svg11.dtd">
<svg xmlns:xlink="http://www.w3.org/1999/xlink" width="864pt" height="576pt" viewBox="0 0 864 576" xmlns="http://www.w3.org/2000/svg" version="1.1">
 <metadata>
  <rdf:RDF xmlns:dc="http://purl.org/dc/elements/1.1/" xmlns:cc="http://creativecommons.org/ns#" xmlns:rdf="http://www.w3.org/1999/02/22-rdf-syntax-ns#">
   <cc:Work>
    <dc:type rdf:resource="http://purl.org/dc/dcmitype/StillImage"/>
    <dc:date>2024-12-30T10:04:13.412894</dc:date>
    <dc:format>image/svg+xml</dc:format>
    <dc:creator>
     <cc:Agent>
      <dc:title>Matplotlib v3.9.2, https://matplotlib.org/</dc:title>
     </cc:Agent>
    </dc:creator>
   </cc:Work>
  </rdf:RDF>
 </metadata>
 <defs>
  <style type="text/css">*{stroke-linejoin: round; stroke-linecap: butt}</style>
 </defs>
 <g id="figure_1">
  <g id="patch_1">
   <path d="M 0 576 
L 864 576 
L 864 0 
L 0 0 
L 0 576 
z
" style="fill: none"/>
  </g>
  <g id="axes_1">
   <g id="patch_2">
    <path d="M 73.46 519.64 
L 853.2 519.64 
L 853.2 32.64 
L 73.46 32.64 
L 73.46 519.64 
z
" style="fill: none"/>
   </g>
   <g id="matplotlib.axis_1">
    <g id="xtick_1">
     <g id="line2d_1">
      <defs>
       <path id="m7d771ce567" d="M 0 0 
L 0 3.5 
" style="stroke: #000000; stroke-width: 0.8"/>
      </defs>
      <g>
       <use xlink:href="#m7d771ce567" x="78.738704" y="519.64" style="stroke: #000000; stroke-width: 0.8"/>
      </g>
     </g>
     <g id="text_1">
      <!-- 0 -->
      <g transform="translate(73.012454 540.317188) scale(0.18 -0.18)">
       <defs>
        <path id="DejaVuSans-30" d="M 2034 4250 
Q 1547 4250 1301 3770 
Q 1056 3291 1056 2328 
Q 1056 1369 1301 889 
Q 1547 409 2034 409 
Q 2525 409 2770 889 
Q 3016 1369 3016 2328 
Q 3016 3291 2770 3770 
Q 2525 4250 2034 4250 
z
M 2034 4750 
Q 2819 4750 3233 4129 
Q 3647 3509 3647 2328 
Q 3647 1150 3233 529 
Q 2819 -91 2034 -91 
Q 1250 -91 836 529 
Q 422 1150 422 2328 
Q 422 3509 836 4129 
Q 1250 4750 2034 4750 
z
" transform="scale(0.015625)"/>
       </defs>
       <use xlink:href="#DejaVuSans-30"/>
      </g>
     </g>
    </g>
    <g id="xtick_2">
     <g id="line2d_2">
      <g>
       <use xlink:href="#m7d771ce567" x="229.55882" y="519.64" style="stroke: #000000; stroke-width: 0.8"/>
      </g>
     </g>
     <g id="text_2">
      <!-- 10 -->
      <g transform="translate(218.10632 540.317188) scale(0.18 -0.18)">
       <defs>
        <path id="DejaVuSans-31" d="M 794 531 
L 1825 531 
L 1825 4091 
L 703 3866 
L 703 4441 
L 1819 4666 
L 2450 4666 
L 2450 531 
L 3481 531 
L 3481 0 
L 794 0 
L 794 531 
z
" transform="scale(0.015625)"/>
       </defs>
       <use xlink:href="#DejaVuSans-31"/>
       <use xlink:href="#DejaVuSans-30" x="63.623047"/>
      </g>
     </g>
    </g>
    <g id="xtick_3">
     <g id="line2d_3">
      <g>
       <use xlink:href="#m7d771ce567" x="380.378936" y="519.64" style="stroke: #000000; stroke-width: 0.8"/>
      </g>
     </g>
     <g id="text_3">
      <!-- 20 -->
      <g transform="translate(368.926436 540.317188) scale(0.18 -0.18)">
       <defs>
        <path id="DejaVuSans-32" d="M 1228 531 
L 3431 531 
L 3431 0 
L 469 0 
L 469 531 
Q 828 903 1448 1529 
Q 2069 2156 2228 2338 
Q 2531 2678 2651 2914 
Q 2772 3150 2772 3378 
Q 2772 3750 2511 3984 
Q 2250 4219 1831 4219 
Q 1534 4219 1204 4116 
Q 875 4013 500 3803 
L 500 4441 
Q 881 4594 1212 4672 
Q 1544 4750 1819 4750 
Q 2544 4750 2975 4387 
Q 3406 4025 3406 3419 
Q 3406 3131 3298 2873 
Q 3191 2616 2906 2266 
Q 2828 2175 2409 1742 
Q 1991 1309 1228 531 
z
" transform="scale(0.015625)"/>
       </defs>
       <use xlink:href="#DejaVuSans-32"/>
       <use xlink:href="#DejaVuSans-30" x="63.623047"/>
      </g>
     </g>
    </g>
    <g id="xtick_4">
     <g id="line2d_4">
      <g>
       <use xlink:href="#m7d771ce567" x="531.199052" y="519.64" style="stroke: #000000; stroke-width: 0.8"/>
      </g>
     </g>
     <g id="text_4">
      <!-- 30 -->
      <g transform="translate(519.746552 540.317188) scale(0.18 -0.18)">
       <defs>
        <path id="DejaVuSans-33" d="M 2597 2516 
Q 3050 2419 3304 2112 
Q 3559 1806 3559 1356 
Q 3559 666 3084 287 
Q 2609 -91 1734 -91 
Q 1441 -91 1130 -33 
Q 819 25 488 141 
L 488 750 
Q 750 597 1062 519 
Q 1375 441 1716 441 
Q 2309 441 2620 675 
Q 2931 909 2931 1356 
Q 2931 1769 2642 2001 
Q 2353 2234 1838 2234 
L 1294 2234 
L 1294 2753 
L 1863 2753 
Q 2328 2753 2575 2939 
Q 2822 3125 2822 3475 
Q 2822 3834 2567 4026 
Q 2313 4219 1838 4219 
Q 1578 4219 1281 4162 
Q 984 4106 628 3988 
L 628 4550 
Q 988 4650 1302 4700 
Q 1616 4750 1894 4750 
Q 2613 4750 3031 4423 
Q 3450 4097 3450 3541 
Q 3450 3153 3228 2886 
Q 3006 2619 2597 2516 
z
" transform="scale(0.015625)"/>
       </defs>
       <use xlink:href="#DejaVuSans-33"/>
       <use xlink:href="#DejaVuSans-30" x="63.623047"/>
      </g>
     </g>
    </g>
    <g id="xtick_5">
     <g id="line2d_5">
      <g>
       <use xlink:href="#m7d771ce567" x="682.019168" y="519.64" style="stroke: #000000; stroke-width: 0.8"/>
      </g>
     </g>
     <g id="text_5">
      <!-- 40 -->
      <g transform="translate(670.566668 540.317188) scale(0.18 -0.18)">
       <defs>
        <path id="DejaVuSans-34" d="M 2419 4116 
L 825 1625 
L 2419 1625 
L 2419 4116 
z
M 2253 4666 
L 3047 4666 
L 3047 1625 
L 3713 1625 
L 3713 1100 
L 3047 1100 
L 3047 0 
L 2419 0 
L 2419 1100 
L 313 1100 
L 313 1709 
L 2253 4666 
z
" transform="scale(0.015625)"/>
       </defs>
       <use xlink:href="#DejaVuSans-34"/>
       <use xlink:href="#DejaVuSans-30" x="63.623047"/>
      </g>
     </g>
    </g>
    <g id="xtick_6">
     <g id="line2d_6">
      <g>
       <use xlink:href="#m7d771ce567" x="832.839284" y="519.64" style="stroke: #000000; stroke-width: 0.8"/>
      </g>
     </g>
     <g id="text_6">
      <!-- 50 -->
      <g transform="translate(821.386784 540.317188) scale(0.18 -0.18)">
       <defs>
        <path id="DejaVuSans-35" d="M 691 4666 
L 3169 4666 
L 3169 4134 
L 1269 4134 
L 1269 2991 
Q 1406 3038 1543 3061 
Q 1681 3084 1819 3084 
Q 2600 3084 3056 2656 
Q 3513 2228 3513 1497 
Q 3513 744 3044 326 
Q 2575 -91 1722 -91 
Q 1428 -91 1123 -41 
Q 819 9 494 109 
L 494 744 
Q 775 591 1075 516 
Q 1375 441 1709 441 
Q 2250 441 2565 725 
Q 2881 1009 2881 1497 
Q 2881 1984 2565 2268 
Q 2250 2553 1709 2553 
Q 1456 2553 1204 2497 
Q 953 2441 691 2322 
L 691 4666 
z
" transform="scale(0.015625)"/>
       </defs>
       <use xlink:href="#DejaVuSans-35"/>
       <use xlink:href="#DejaVuSans-30" x="63.623047"/>
      </g>
     </g>
    </g>
    <g id="text_7">
     <!-- Number of clusters (K) -->
     <g transform="translate(361.698906 561.737813) scale(0.18 -0.18)">
      <defs>
       <path id="DejaVuSans-4e" d="M 628 4666 
L 1478 4666 
L 3547 763 
L 3547 4666 
L 4159 4666 
L 4159 0 
L 3309 0 
L 1241 3903 
L 1241 0 
L 628 0 
L 628 4666 
z
" transform="scale(0.015625)"/>
       <path id="DejaVuSans-75" d="M 544 1381 
L 544 3500 
L 1119 3500 
L 1119 1403 
Q 1119 906 1312 657 
Q 1506 409 1894 409 
Q 2359 409 2629 706 
Q 2900 1003 2900 1516 
L 2900 3500 
L 3475 3500 
L 3475 0 
L 2900 0 
L 2900 538 
Q 2691 219 2414 64 
Q 2138 -91 1772 -91 
Q 1169 -91 856 284 
Q 544 659 544 1381 
z
M 1991 3584 
L 1991 3584 
z
" transform="scale(0.015625)"/>
       <path id="DejaVuSans-6d" d="M 3328 2828 
Q 3544 3216 3844 3400 
Q 4144 3584 4550 3584 
Q 5097 3584 5394 3201 
Q 5691 2819 5691 2113 
L 5691 0 
L 5113 0 
L 5113 2094 
Q 5113 2597 4934 2840 
Q 4756 3084 4391 3084 
Q 3944 3084 3684 2787 
Q 3425 2491 3425 1978 
L 3425 0 
L 2847 0 
L 2847 2094 
Q 2847 2600 2669 2842 
Q 2491 3084 2119 3084 
Q 1678 3084 1418 2786 
Q 1159 2488 1159 1978 
L 1159 0 
L 581 0 
L 581 3500 
L 1159 3500 
L 1159 2956 
Q 1356 3278 1631 3431 
Q 1906 3584 2284 3584 
Q 2666 3584 2933 3390 
Q 3200 3197 3328 2828 
z
" transform="scale(0.015625)"/>
       <path id="DejaVuSans-62" d="M 3116 1747 
Q 3116 2381 2855 2742 
Q 2594 3103 2138 3103 
Q 1681 3103 1420 2742 
Q 1159 2381 1159 1747 
Q 1159 1113 1420 752 
Q 1681 391 2138 391 
Q 2594 391 2855 752 
Q 3116 1113 3116 1747 
z
M 1159 2969 
Q 1341 3281 1617 3432 
Q 1894 3584 2278 3584 
Q 2916 3584 3314 3078 
Q 3713 2572 3713 1747 
Q 3713 922 3314 415 
Q 2916 -91 2278 -91 
Q 1894 -91 1617 61 
Q 1341 213 1159 525 
L 1159 0 
L 581 0 
L 581 4863 
L 1159 4863 
L 1159 2969 
z
" transform="scale(0.015625)"/>
       <path id="DejaVuSans-65" d="M 3597 1894 
L 3597 1613 
L 953 1613 
Q 991 1019 1311 708 
Q 1631 397 2203 397 
Q 2534 397 2845 478 
Q 3156 559 3463 722 
L 3463 178 
Q 3153 47 2828 -22 
Q 2503 -91 2169 -91 
Q 1331 -91 842 396 
Q 353 884 353 1716 
Q 353 2575 817 3079 
Q 1281 3584 2069 3584 
Q 2775 3584 3186 3129 
Q 3597 2675 3597 1894 
z
M 3022 2063 
Q 3016 2534 2758 2815 
Q 2500 3097 2075 3097 
Q 1594 3097 1305 2825 
Q 1016 2553 972 2059 
L 3022 2063 
z
" transform="scale(0.015625)"/>
       <path id="DejaVuSans-72" d="M 2631 2963 
Q 2534 3019 2420 3045 
Q 2306 3072 2169 3072 
Q 1681 3072 1420 2755 
Q 1159 2438 1159 1844 
L 1159 0 
L 581 0 
L 581 3500 
L 1159 3500 
L 1159 2956 
Q 1341 3275 1631 3429 
Q 1922 3584 2338 3584 
Q 2397 3584 2469 3576 
Q 2541 3569 2628 3553 
L 2631 2963 
z
" transform="scale(0.015625)"/>
       <path id="DejaVuSans-20" transform="scale(0.015625)"/>
       <path id="DejaVuSans-6f" d="M 1959 3097 
Q 1497 3097 1228 2736 
Q 959 2375 959 1747 
Q 959 1119 1226 758 
Q 1494 397 1959 397 
Q 2419 397 2687 759 
Q 2956 1122 2956 1747 
Q 2956 2369 2687 2733 
Q 2419 3097 1959 3097 
z
M 1959 3584 
Q 2709 3584 3137 3096 
Q 3566 2609 3566 1747 
Q 3566 888 3137 398 
Q 2709 -91 1959 -91 
Q 1206 -91 779 398 
Q 353 888 353 1747 
Q 353 2609 779 3096 
Q 1206 3584 1959 3584 
z
" transform="scale(0.015625)"/>
       <path id="DejaVuSans-66" d="M 2375 4863 
L 2375 4384 
L 1825 4384 
Q 1516 4384 1395 4259 
Q 1275 4134 1275 3809 
L 1275 3500 
L 2222 3500 
L 2222 3053 
L 1275 3053 
L 1275 0 
L 697 0 
L 697 3053 
L 147 3053 
L 147 3500 
L 697 3500 
L 697 3744 
Q 697 4328 969 4595 
Q 1241 4863 1831 4863 
L 2375 4863 
z
" transform="scale(0.015625)"/>
       <path id="DejaVuSans-63" d="M 3122 3366 
L 3122 2828 
Q 2878 2963 2633 3030 
Q 2388 3097 2138 3097 
Q 1578 3097 1268 2742 
Q 959 2388 959 1747 
Q 959 1106 1268 751 
Q 1578 397 2138 397 
Q 2388 397 2633 464 
Q 2878 531 3122 666 
L 3122 134 
Q 2881 22 2623 -34 
Q 2366 -91 2075 -91 
Q 1284 -91 818 406 
Q 353 903 353 1747 
Q 353 2603 823 3093 
Q 1294 3584 2113 3584 
Q 2378 3584 2631 3529 
Q 2884 3475 3122 3366 
z
" transform="scale(0.015625)"/>
       <path id="DejaVuSans-6c" d="M 603 4863 
L 1178 4863 
L 1178 0 
L 603 0 
L 603 4863 
z
" transform="scale(0.015625)"/>
       <path id="DejaVuSans-73" d="M 2834 3397 
L 2834 2853 
Q 2591 2978 2328 3040 
Q 2066 3103 1784 3103 
Q 1356 3103 1142 2972 
Q 928 2841 928 2578 
Q 928 2378 1081 2264 
Q 1234 2150 1697 2047 
L 1894 2003 
Q 2506 1872 2764 1633 
Q 3022 1394 3022 966 
Q 3022 478 2636 193 
Q 2250 -91 1575 -91 
Q 1294 -91 989 -36 
Q 684 19 347 128 
L 347 722 
Q 666 556 975 473 
Q 1284 391 1588 391 
Q 1994 391 2212 530 
Q 2431 669 2431 922 
Q 2431 1156 2273 1281 
Q 2116 1406 1581 1522 
L 1381 1569 
Q 847 1681 609 1914 
Q 372 2147 372 2553 
Q 372 3047 722 3315 
Q 1072 3584 1716 3584 
Q 2034 3584 2315 3537 
Q 2597 3491 2834 3397 
z
" transform="scale(0.015625)"/>
       <path id="DejaVuSans-74" d="M 1172 4494 
L 1172 3500 
L 2356 3500 
L 2356 3053 
L 1172 3053 
L 1172 1153 
Q 1172 725 1289 603 
Q 1406 481 1766 481 
L 2356 481 
L 2356 0 
L 1766 0 
Q 1100 0 847 248 
Q 594 497 594 1153 
L 594 3053 
L 172 3053 
L 172 3500 
L 594 3500 
L 594 4494 
L 1172 4494 
z
" transform="scale(0.015625)"/>
       <path id="DejaVuSans-28" d="M 1984 4856 
Q 1566 4138 1362 3434 
Q 1159 2731 1159 2009 
Q 1159 1288 1364 580 
Q 1569 -128 1984 -844 
L 1484 -844 
Q 1016 -109 783 600 
Q 550 1309 550 2009 
Q 550 2706 781 3412 
Q 1013 4119 1484 4856 
L 1984 4856 
z
" transform="scale(0.015625)"/>
       <path id="DejaVuSans-4b" d="M 628 4666 
L 1259 4666 
L 1259 2694 
L 3353 4666 
L 4166 4666 
L 1850 2491 
L 4331 0 
L 3500 0 
L 1259 2247 
L 1259 0 
L 628 0 
L 628 4666 
z
" transform="scale(0.015625)"/>
       <path id="DejaVuSans-29" d="M 513 4856 
L 1013 4856 
Q 1481 4119 1714 3412 
Q 1947 2706 1947 2009 
Q 1947 1309 1714 600 
Q 1481 -109 1013 -844 
L 513 -844 
Q 928 -128 1133 580 
Q 1338 1288 1338 2009 
Q 1338 2731 1133 3434 
Q 928 4138 513 4856 
z
" transform="scale(0.015625)"/>
      </defs>
      <use xlink:href="#DejaVuSans-4e"/>
      <use xlink:href="#DejaVuSans-75" x="74.804688"/>
      <use xlink:href="#DejaVuSans-6d" x="138.183594"/>
      <use xlink:href="#DejaVuSans-62" x="235.595703"/>
      <use xlink:href="#DejaVuSans-65" x="299.072266"/>
      <use xlink:href="#DejaVuSans-72" x="360.595703"/>
      <use xlink:href="#DejaVuSans-20" x="401.708984"/>
      <use xlink:href="#DejaVuSans-6f" x="433.496094"/>
      <use xlink:href="#DejaVuSans-66" x="494.677734"/>
      <use xlink:href="#DejaVuSans-20" x="529.882812"/>
      <use xlink:href="#DejaVuSans-63" x="561.669922"/>
      <use xlink:href="#DejaVuSans-6c" x="616.650391"/>
      <use xlink:href="#DejaVuSans-75" x="644.433594"/>
      <use xlink:href="#DejaVuSans-73" x="707.8125"/>
      <use xlink:href="#DejaVuSans-74" x="759.912109"/>
      <use xlink:href="#DejaVuSans-65" x="799.121094"/>
      <use xlink:href="#DejaVuSans-72" x="860.644531"/>
      <use xlink:href="#DejaVuSans-73" x="901.757812"/>
      <use xlink:href="#DejaVuSans-20" x="953.857422"/>
      <use xlink:href="#DejaVuSans-28" x="985.644531"/>
      <use xlink:href="#DejaVuSans-4b" x="1024.658203"/>
      <use xlink:href="#DejaVuSans-29" x="1090.234375"/>
     </g>
    </g>
   </g>
   <g id="matplotlib.axis_2">
    <g id="ytick_1">
     <g id="line2d_7">
      <defs>
       <path id="m08f95e4b0c" d="M 0 0 
L -3.5 0 
" style="stroke: #000000; stroke-width: 0.8"/>
      </defs>
      <g>
       <use xlink:href="#m08f95e4b0c" x="73.46" y="499.051389" style="stroke: #000000; stroke-width: 0.8"/>
      </g>
     </g>
     <g id="text_8">
      <!-- 70 -->
      <g transform="translate(43.555 505.889983) scale(0.18 -0.18)">
       <defs>
        <path id="DejaVuSans-37" d="M 525 4666 
L 3525 4666 
L 3525 4397 
L 1831 0 
L 1172 0 
L 2766 4134 
L 525 4134 
L 525 4666 
z
" transform="scale(0.015625)"/>
       </defs>
       <use xlink:href="#DejaVuSans-37"/>
       <use xlink:href="#DejaVuSans-30" x="63.623047"/>
      </g>
     </g>
    </g>
    <g id="ytick_2">
     <g id="line2d_8">
      <g>
       <use xlink:href="#m08f95e4b0c" x="73.46" y="436.971428" style="stroke: #000000; stroke-width: 0.8"/>
      </g>
     </g>
     <g id="text_9">
      <!-- 80 -->
      <g transform="translate(43.555 443.810021) scale(0.18 -0.18)">
       <defs>
        <path id="DejaVuSans-38" d="M 2034 2216 
Q 1584 2216 1326 1975 
Q 1069 1734 1069 1313 
Q 1069 891 1326 650 
Q 1584 409 2034 409 
Q 2484 409 2743 651 
Q 3003 894 3003 1313 
Q 3003 1734 2745 1975 
Q 2488 2216 2034 2216 
z
M 1403 2484 
Q 997 2584 770 2862 
Q 544 3141 544 3541 
Q 544 4100 942 4425 
Q 1341 4750 2034 4750 
Q 2731 4750 3128 4425 
Q 3525 4100 3525 3541 
Q 3525 3141 3298 2862 
Q 3072 2584 2669 2484 
Q 3125 2378 3379 2068 
Q 3634 1759 3634 1313 
Q 3634 634 3220 271 
Q 2806 -91 2034 -91 
Q 1263 -91 848 271 
Q 434 634 434 1313 
Q 434 1759 690 2068 
Q 947 2378 1403 2484 
z
M 1172 3481 
Q 1172 3119 1398 2916 
Q 1625 2713 2034 2713 
Q 2441 2713 2670 2916 
Q 2900 3119 2900 3481 
Q 2900 3844 2670 4047 
Q 2441 4250 2034 4250 
Q 1625 4250 1398 4047 
Q 1172 3844 1172 3481 
z
" transform="scale(0.015625)"/>
       </defs>
       <use xlink:href="#DejaVuSans-38"/>
       <use xlink:href="#DejaVuSans-30" x="63.623047"/>
      </g>
     </g>
    </g>
    <g id="ytick_3">
     <g id="line2d_9">
      <g>
       <use xlink:href="#m08f95e4b0c" x="73.46" y="374.891466" style="stroke: #000000; stroke-width: 0.8"/>
      </g>
     </g>
     <g id="text_10">
      <!-- 90 -->
      <g transform="translate(43.555 381.73006) scale(0.18 -0.18)">
       <defs>
        <path id="DejaVuSans-39" d="M 703 97 
L 703 672 
Q 941 559 1184 500 
Q 1428 441 1663 441 
Q 2288 441 2617 861 
Q 2947 1281 2994 2138 
Q 2813 1869 2534 1725 
Q 2256 1581 1919 1581 
Q 1219 1581 811 2004 
Q 403 2428 403 3163 
Q 403 3881 828 4315 
Q 1253 4750 1959 4750 
Q 2769 4750 3195 4129 
Q 3622 3509 3622 2328 
Q 3622 1225 3098 567 
Q 2575 -91 1691 -91 
Q 1453 -91 1209 -44 
Q 966 3 703 97 
z
M 1959 2075 
Q 2384 2075 2632 2365 
Q 2881 2656 2881 3163 
Q 2881 3666 2632 3958 
Q 2384 4250 1959 4250 
Q 1534 4250 1286 3958 
Q 1038 3666 1038 3163 
Q 1038 2656 1286 2365 
Q 1534 2075 1959 2075 
z
" transform="scale(0.015625)"/>
       </defs>
       <use xlink:href="#DejaVuSans-39"/>
       <use xlink:href="#DejaVuSans-30" x="63.623047"/>
      </g>
     </g>
    </g>
    <g id="ytick_4">
     <g id="line2d_10">
      <g>
       <use xlink:href="#m08f95e4b0c" x="73.46" y="312.811505" style="stroke: #000000; stroke-width: 0.8"/>
      </g>
     </g>
     <g id="text_11">
      <!-- 100 -->
      <g transform="translate(32.1025 319.650099) scale(0.18 -0.18)">
       <use xlink:href="#DejaVuSans-31"/>
       <use xlink:href="#DejaVuSans-30" x="63.623047"/>
       <use xlink:href="#DejaVuSans-30" x="127.246094"/>
      </g>
     </g>
    </g>
    <g id="ytick_5">
     <g id="line2d_11">
      <g>
       <use xlink:href="#m08f95e4b0c" x="73.46" y="250.731544" style="stroke: #000000; stroke-width: 0.8"/>
      </g>
     </g>
     <g id="text_12">
      <!-- 110 -->
      <g transform="translate(32.1025 257.570138) scale(0.18 -0.18)">
       <use xlink:href="#DejaVuSans-31"/>
       <use xlink:href="#DejaVuSans-31" x="63.623047"/>
       <use xlink:href="#DejaVuSans-30" x="127.246094"/>
      </g>
     </g>
    </g>
    <g id="ytick_6">
     <g id="line2d_12">
      <g>
       <use xlink:href="#m08f95e4b0c" x="73.46" y="188.651583" style="stroke: #000000; stroke-width: 0.8"/>
      </g>
     </g>
     <g id="text_13">
      <!-- 120 -->
      <g transform="translate(32.1025 195.490177) scale(0.18 -0.18)">
       <use xlink:href="#DejaVuSans-31"/>
       <use xlink:href="#DejaVuSans-32" x="63.623047"/>
       <use xlink:href="#DejaVuSans-30" x="127.246094"/>
      </g>
     </g>
    </g>
    <g id="ytick_7">
     <g id="line2d_13">
      <g>
       <use xlink:href="#m08f95e4b0c" x="73.46" y="126.571622" style="stroke: #000000; stroke-width: 0.8"/>
      </g>
     </g>
     <g id="text_14">
      <!-- 130 -->
      <g transform="translate(32.1025 133.410215) scale(0.18 -0.18)">
       <use xlink:href="#DejaVuSans-31"/>
       <use xlink:href="#DejaVuSans-33" x="63.623047"/>
       <use xlink:href="#DejaVuSans-30" x="127.246094"/>
      </g>
     </g>
    </g>
    <g id="ytick_8">
     <g id="line2d_14">
      <g>
       <use xlink:href="#m08f95e4b0c" x="73.46" y="64.49166" style="stroke: #000000; stroke-width: 0.8"/>
      </g>
     </g>
     <g id="text_15">
      <!-- 140 -->
      <g transform="translate(32.1025 71.330254) scale(0.18 -0.18)">
       <use xlink:href="#DejaVuSans-31"/>
       <use xlink:href="#DejaVuSans-34" x="63.623047"/>
       <use xlink:href="#DejaVuSans-30" x="127.246094"/>
      </g>
     </g>
    </g>
    <g id="text_16">
     <!-- Calinski-Harabasz Index -->
     <g transform="translate(24.359063 384.071094) rotate(-90) scale(0.18 -0.18)">
      <defs>
       <path id="DejaVuSans-43" d="M 4122 4306 
L 4122 3641 
Q 3803 3938 3442 4084 
Q 3081 4231 2675 4231 
Q 1875 4231 1450 3742 
Q 1025 3253 1025 2328 
Q 1025 1406 1450 917 
Q 1875 428 2675 428 
Q 3081 428 3442 575 
Q 3803 722 4122 1019 
L 4122 359 
Q 3791 134 3420 21 
Q 3050 -91 2638 -91 
Q 1578 -91 968 557 
Q 359 1206 359 2328 
Q 359 3453 968 4101 
Q 1578 4750 2638 4750 
Q 3056 4750 3426 4639 
Q 3797 4528 4122 4306 
z
" transform="scale(0.015625)"/>
       <path id="DejaVuSans-61" d="M 2194 1759 
Q 1497 1759 1228 1600 
Q 959 1441 959 1056 
Q 959 750 1161 570 
Q 1363 391 1709 391 
Q 2188 391 2477 730 
Q 2766 1069 2766 1631 
L 2766 1759 
L 2194 1759 
z
M 3341 1997 
L 3341 0 
L 2766 0 
L 2766 531 
Q 2569 213 2275 61 
Q 1981 -91 1556 -91 
Q 1019 -91 701 211 
Q 384 513 384 1019 
Q 384 1609 779 1909 
Q 1175 2209 1959 2209 
L 2766 2209 
L 2766 2266 
Q 2766 2663 2505 2880 
Q 2244 3097 1772 3097 
Q 1472 3097 1187 3025 
Q 903 2953 641 2809 
L 641 3341 
Q 956 3463 1253 3523 
Q 1550 3584 1831 3584 
Q 2591 3584 2966 3190 
Q 3341 2797 3341 1997 
z
" transform="scale(0.015625)"/>
       <path id="DejaVuSans-69" d="M 603 3500 
L 1178 3500 
L 1178 0 
L 603 0 
L 603 3500 
z
M 603 4863 
L 1178 4863 
L 1178 4134 
L 603 4134 
L 603 4863 
z
" transform="scale(0.015625)"/>
       <path id="DejaVuSans-6e" d="M 3513 2113 
L 3513 0 
L 2938 0 
L 2938 2094 
Q 2938 2591 2744 2837 
Q 2550 3084 2163 3084 
Q 1697 3084 1428 2787 
Q 1159 2491 1159 1978 
L 1159 0 
L 581 0 
L 581 3500 
L 1159 3500 
L 1159 2956 
Q 1366 3272 1645 3428 
Q 1925 3584 2291 3584 
Q 2894 3584 3203 3211 
Q 3513 2838 3513 2113 
z
" transform="scale(0.015625)"/>
       <path id="DejaVuSans-6b" d="M 581 4863 
L 1159 4863 
L 1159 1991 
L 2875 3500 
L 3609 3500 
L 1753 1863 
L 3688 0 
L 2938 0 
L 1159 1709 
L 1159 0 
L 581 0 
L 581 4863 
z
" transform="scale(0.015625)"/>
       <path id="DejaVuSans-2d" d="M 313 2009 
L 1997 2009 
L 1997 1497 
L 313 1497 
L 313 2009 
z
" transform="scale(0.015625)"/>
       <path id="DejaVuSans-48" d="M 628 4666 
L 1259 4666 
L 1259 2753 
L 3553 2753 
L 3553 4666 
L 4184 4666 
L 4184 0 
L 3553 0 
L 3553 2222 
L 1259 2222 
L 1259 0 
L 628 0 
L 628 4666 
z
" transform="scale(0.015625)"/>
       <path id="DejaVuSans-7a" d="M 353 3500 
L 3084 3500 
L 3084 2975 
L 922 459 
L 3084 459 
L 3084 0 
L 275 0 
L 275 525 
L 2438 3041 
L 353 3041 
L 353 3500 
z
" transform="scale(0.015625)"/>
       <path id="DejaVuSans-49" d="M 628 4666 
L 1259 4666 
L 1259 0 
L 628 0 
L 628 4666 
z
" transform="scale(0.015625)"/>
       <path id="DejaVuSans-64" d="M 2906 2969 
L 2906 4863 
L 3481 4863 
L 3481 0 
L 2906 0 
L 2906 525 
Q 2725 213 2448 61 
Q 2172 -91 1784 -91 
Q 1150 -91 751 415 
Q 353 922 353 1747 
Q 353 2572 751 3078 
Q 1150 3584 1784 3584 
Q 2172 3584 2448 3432 
Q 2725 3281 2906 2969 
z
M 947 1747 
Q 947 1113 1208 752 
Q 1469 391 1925 391 
Q 2381 391 2643 752 
Q 2906 1113 2906 1747 
Q 2906 2381 2643 2742 
Q 2381 3103 1925 3103 
Q 1469 3103 1208 2742 
Q 947 2381 947 1747 
z
" transform="scale(0.015625)"/>
       <path id="DejaVuSans-78" d="M 3513 3500 
L 2247 1797 
L 3578 0 
L 2900 0 
L 1881 1375 
L 863 0 
L 184 0 
L 1544 1831 
L 300 3500 
L 978 3500 
L 1906 2253 
L 2834 3500 
L 3513 3500 
z
" transform="scale(0.015625)"/>
      </defs>
      <use xlink:href="#DejaVuSans-43"/>
      <use xlink:href="#DejaVuSans-61" x="69.824219"/>
      <use xlink:href="#DejaVuSans-6c" x="131.103516"/>
      <use xlink:href="#DejaVuSans-69" x="158.886719"/>
      <use xlink:href="#DejaVuSans-6e" x="186.669922"/>
      <use xlink:href="#DejaVuSans-73" x="250.048828"/>
      <use xlink:href="#DejaVuSans-6b" x="302.148438"/>
      <use xlink:href="#DejaVuSans-69" x="360.058594"/>
      <use xlink:href="#DejaVuSans-2d" x="387.841797"/>
      <use xlink:href="#DejaVuSans-48" x="423.925781"/>
      <use xlink:href="#DejaVuSans-61" x="499.121094"/>
      <use xlink:href="#DejaVuSans-72" x="560.400391"/>
      <use xlink:href="#DejaVuSans-61" x="601.513672"/>
      <use xlink:href="#DejaVuSans-62" x="662.792969"/>
      <use xlink:href="#DejaVuSans-61" x="726.269531"/>
      <use xlink:href="#DejaVuSans-73" x="787.548828"/>
      <use xlink:href="#DejaVuSans-7a" x="839.648438"/>
      <use xlink:href="#DejaVuSans-20" x="892.138672"/>
      <use xlink:href="#DejaVuSans-49" x="923.925781"/>
      <use xlink:href="#DejaVuSans-6e" x="953.417969"/>
      <use xlink:href="#DejaVuSans-64" x="1016.796875"/>
      <use xlink:href="#DejaVuSans-65" x="1080.273438"/>
      <use xlink:href="#DejaVuSans-78" x="1140.046875"/>
     </g>
    </g>
   </g>
   <g id="line2d_15">
    <path d="M 108.902727 273.600951 
L 123.984739 54.776364 
L 139.06675 91.601079 
L 154.148762 141.08337 
L 169.230774 214.253201 
L 184.312785 258.007918 
L 199.394797 195.024098 
L 214.476809 226.154041 
L 229.55882 212.493971 
L 244.640832 257.121085 
L 259.722843 237.400536 
L 274.804855 247.578336 
L 289.886867 289.896605 
L 304.968878 320.81495 
L 320.05089 314.697372 
L 335.132901 283.693796 
L 350.214913 295.820838 
L 365.296925 307.292282 
L 380.378936 329.025785 
L 395.460948 390.21682 
L 410.542959 397.002624 
L 425.624971 378.725689 
L 440.706983 386.47118 
L 455.788994 349.407714 
L 470.871006 365.071776 
L 485.953017 351.76845 
L 501.035029 355.673253 
L 516.117041 366.587532 
L 531.199052 372.016655 
L 546.281064 374.849861 
L 561.363075 372.999221 
L 576.445087 381.438865 
L 591.527099 387.314508 
L 606.60911 380.67088 
L 621.691122 377.991245 
L 636.773133 372.980431 
L 651.855145 376.139563 
L 666.937157 377.071459 
L 682.019168 376.329748 
L 697.10118 372.129177 
L 712.183191 378.458416 
L 727.265203 383.759053 
L 742.347215 380.019184 
L 757.429226 379.692445 
L 772.511238 375.594569 
L 787.59325 369.026487 
L 802.675261 368.324755 
L 817.757273 357.51732 
" clip-path="url(#p5fa4681183)" style="fill: none; stroke: #4db5bc; stroke-width: 1.5; stroke-linecap: square"/>
    <defs>
     <path id="me48aa1f314" d="M 0 3 
C 0.795609 3 1.55874 2.683901 2.12132 2.12132 
C 2.683901 1.55874 3 0.795609 3 0 
C 3 -0.795609 2.683901 -1.55874 2.12132 -2.12132 
C 1.55874 -2.683901 0.795609 -3 0 -3 
C -0.795609 -3 -1.55874 -2.683901 -2.12132 -2.12132 
C -2.683901 -1.55874 -3 -0.795609 -3 0 
C -3 0.795609 -2.683901 1.55874 -2.12132 2.12132 
C -1.55874 2.683901 -0.795609 3 0 3 
z
" style="stroke: #4db5bc"/>
    </defs>
    <g clip-path="url(#p5fa4681183)">
     <use xlink:href="#me48aa1f314" x="108.902727" y="273.600951" style="fill: #4db5bc; stroke: #4db5bc"/>
     <use xlink:href="#me48aa1f314" x="123.984739" y="54.776364" style="fill: #4db5bc; stroke: #4db5bc"/>
     <use xlink:href="#me48aa1f314" x="139.06675" y="91.601079" style="fill: #4db5bc; stroke: #4db5bc"/>
     <use xlink:href="#me48aa1f314" x="154.148762" y="141.08337" style="fill: #4db5bc; stroke: #4db5bc"/>
     <use xlink:href="#me48aa1f314" x="169.230774" y="214.253201" style="fill: #4db5bc; stroke: #4db5bc"/>
     <use xlink:href="#me48aa1f314" x="184.312785" y="258.007918" style="fill: #4db5bc; stroke: #4db5bc"/>
     <use xlink:href="#me48aa1f314" x="199.394797" y="195.024098" style="fill: #4db5bc; stroke: #4db5bc"/>
     <use xlink:href="#me48aa1f314" x="214.476809" y="226.154041" style="fill: #4db5bc; stroke: #4db5bc"/>
     <use xlink:href="#me48aa1f314" x="229.55882" y="212.493971" style="fill: #4db5bc; stroke: #4db5bc"/>
     <use xlink:href="#me48aa1f314" x="244.640832" y="257.121085" style="fill: #4db5bc; stroke: #4db5bc"/>
     <use xlink:href="#me48aa1f314" x="259.722843" y="237.400536" style="fill: #4db5bc; stroke: #4db5bc"/>
     <use xlink:href="#me48aa1f314" x="274.804855" y="247.578336" style="fill: #4db5bc; stroke: #4db5bc"/>
     <use xlink:href="#me48aa1f314" x="289.886867" y="289.896605" style="fill: #4db5bc; stroke: #4db5bc"/>
     <use xlink:href="#me48aa1f314" x="304.968878" y="320.81495" style="fill: #4db5bc; stroke: #4db5bc"/>
     <use xlink:href="#me48aa1f314" x="320.05089" y="314.697372" style="fill: #4db5bc; stroke: #4db5bc"/>
     <use xlink:href="#me48aa1f314" x="335.132901" y="283.693796" style="fill: #4db5bc; stroke: #4db5bc"/>
     <use xlink:href="#me48aa1f314" x="350.214913" y="295.820838" style="fill: #4db5bc; stroke: #4db5bc"/>
     <use xlink:href="#me48aa1f314" x="365.296925" y="307.292282" style="fill: #4db5bc; stroke: #4db5bc"/>
     <use xlink:href="#me48aa1f314" x="380.378936" y="329.025785" style="fill: #4db5bc; stroke: #4db5bc"/>
     <use xlink:href="#me48aa1f314" x="395.460948" y="390.21682" style="fill: #4db5bc; stroke: #4db5bc"/>
     <use xlink:href="#me48aa1f314" x="410.542959" y="397.002624" style="fill: #4db5bc; stroke: #4db5bc"/>
     <use xlink:href="#me48aa1f314" x="425.624971" y="378.725689" style="fill: #4db5bc; stroke: #4db5bc"/>
     <use xlink:href="#me48aa1f314" x="440.706983" y="386.47118" style="fill: #4db5bc; stroke: #4db5bc"/>
     <use xlink:href="#me48aa1f314" x="455.788994" y="349.407714" style="fill: #4db5bc; stroke: #4db5bc"/>
     <use xlink:href="#me48aa1f314" x="470.871006" y="365.071776" style="fill: #4db5bc; stroke: #4db5bc"/>
     <use xlink:href="#me48aa1f314" x="485.953017" y="351.76845" style="fill: #4db5bc; stroke: #4db5bc"/>
     <use xlink:href="#me48aa1f314" x="501.035029" y="355.673253" style="fill: #4db5bc; stroke: #4db5bc"/>
     <use xlink:href="#me48aa1f314" x="516.117041" y="366.587532" style="fill: #4db5bc; stroke: #4db5bc"/>
     <use xlink:href="#me48aa1f314" x="531.199052" y="372.016655" style="fill: #4db5bc; stroke: #4db5bc"/>
     <use xlink:href="#me48aa1f314" x="546.281064" y="374.849861" style="fill: #4db5bc; stroke: #4db5bc"/>
     <use xlink:href="#me48aa1f314" x="561.363075" y="372.999221" style="fill: #4db5bc; stroke: #4db5bc"/>
     <use xlink:href="#me48aa1f314" x="576.445087" y="381.438865" style="fill: #4db5bc; stroke: #4db5bc"/>
     <use xlink:href="#me48aa1f314" x="591.527099" y="387.314508" style="fill: #4db5bc; stroke: #4db5bc"/>
     <use xlink:href="#me48aa1f314" x="606.60911" y="380.67088" style="fill: #4db5bc; stroke: #4db5bc"/>
     <use xlink:href="#me48aa1f314" x="621.691122" y="377.991245" style="fill: #4db5bc; stroke: #4db5bc"/>
     <use xlink:href="#me48aa1f314" x="636.773133" y="372.980431" style="fill: #4db5bc; stroke: #4db5bc"/>
     <use xlink:href="#me48aa1f314" x="651.855145" y="376.139563" style="fill: #4db5bc; stroke: #4db5bc"/>
     <use xlink:href="#me48aa1f314" x="666.937157" y="377.071459" style="fill: #4db5bc; stroke: #4db5bc"/>
     <use xlink:href="#me48aa1f314" x="682.019168" y="376.329748" style="fill: #4db5bc; stroke: #4db5bc"/>
     <use xlink:href="#me48aa1f314" x="697.10118" y="372.129177" style="fill: #4db5bc; stroke: #4db5bc"/>
     <use xlink:href="#me48aa1f314" x="712.183191" y="378.458416" style="fill: #4db5bc; stroke: #4db5bc"/>
     <use xlink:href="#me48aa1f314" x="727.265203" y="383.759053" style="fill: #4db5bc; stroke: #4db5bc"/>
     <use xlink:href="#me48aa1f314" x="742.347215" y="380.019184" style="fill: #4db5bc; stroke: #4db5bc"/>
     <use xlink:href="#me48aa1f314" x="757.429226" y="379.692445" style="fill: #4db5bc; stroke: #4db5bc"/>
     <use xlink:href="#me48aa1f314" x="772.511238" y="375.594569" style="fill: #4db5bc; stroke: #4db5bc"/>
     <use xlink:href="#me48aa1f314" x="787.59325" y="369.026487" style="fill: #4db5bc; stroke: #4db5bc"/>
     <use xlink:href="#me48aa1f314" x="802.675261" y="368.324755" style="fill: #4db5bc; stroke: #4db5bc"/>
     <use xlink:href="#me48aa1f314" x="817.757273" y="357.51732" style="fill: #4db5bc; stroke: #4db5bc"/>
    </g>
   </g>
   <g id="line2d_16">
    <path d="M 108.902727 276.234517 
L 123.984739 376.447582 
L 139.06675 359.396224 
L 154.148762 381.740437 
L 169.230774 336.155008 
L 184.312785 321.790135 
L 199.394797 326.220106 
L 214.476809 316.472161 
L 229.55882 311.63967 
L 244.640832 310.336716 
L 259.722843 348.600789 
L 274.804855 365.879417 
L 289.886867 361.946563 
L 304.968878 394.746116 
L 320.05089 397.484121 
L 335.132901 409.800657 
L 350.214913 403.278635 
L 365.296925 410.740481 
L 380.378936 416.337856 
L 395.460948 416.593772 
L 410.542959 422.136096 
L 425.624971 421.768243 
L 440.706983 434.436718 
L 455.788994 446.698025 
L 470.871006 456.083924 
L 485.953017 459.399148 
L 501.035029 441.27158 
L 516.117041 438.455932 
L 531.199052 445.756515 
L 546.281064 452.014442 
L 561.363075 454.038976 
L 576.445087 461.130869 
L 591.527099 468.134951 
L 606.60911 474.922144 
L 621.691122 471.27368 
L 636.773133 475.248873 
L 651.855145 482.467499 
L 666.937157 486.219043 
L 682.019168 483.420973 
L 697.10118 488.591713 
L 712.183191 493.922664 
L 727.265203 494.057 
L 742.347215 490.942676 
L 757.429226 489.241661 
L 772.511238 489.848056 
L 787.59325 482.989329 
L 802.675261 484.529543 
L 817.757273 497.503636 
" clip-path="url(#p5fa4681183)" style="fill: none; stroke: #870052; stroke-width: 1.5; stroke-linecap: square"/>
    <defs>
     <path id="m907a41979a" d="M 0 3 
C 0.795609 3 1.55874 2.683901 2.12132 2.12132 
C 2.683901 1.55874 3 0.795609 3 0 
C 3 -0.795609 2.683901 -1.55874 2.12132 -2.12132 
C 1.55874 -2.683901 0.795609 -3 0 -3 
C -0.795609 -3 -1.55874 -2.683901 -2.12132 -2.12132 
C -2.683901 -1.55874 -3 -0.795609 -3 0 
C -3 0.795609 -2.683901 1.55874 -2.12132 2.12132 
C -1.55874 2.683901 -0.795609 3 0 3 
z
" style="stroke: #870052"/>
    </defs>
    <g clip-path="url(#p5fa4681183)">
     <use xlink:href="#m907a41979a" x="108.902727" y="276.234517" style="fill: #870052; stroke: #870052"/>
     <use xlink:href="#m907a41979a" x="123.984739" y="376.447582" style="fill: #870052; stroke: #870052"/>
     <use xlink:href="#m907a41979a" x="139.06675" y="359.396224" style="fill: #870052; stroke: #870052"/>
     <use xlink:href="#m907a41979a" x="154.148762" y="381.740437" style="fill: #870052; stroke: #870052"/>
     <use xlink:href="#m907a41979a" x="169.230774" y="336.155008" style="fill: #870052; stroke: #870052"/>
     <use xlink:href="#m907a41979a" x="184.312785" y="321.790135" style="fill: #870052; stroke: #870052"/>
     <use xlink:href="#m907a41979a" x="199.394797" y="326.220106" style="fill: #870052; stroke: #870052"/>
     <use xlink:href="#m907a41979a" x="214.476809" y="316.472161" style="fill: #870052; stroke: #870052"/>
     <use xlink:href="#m907a41979a" x="229.55882" y="311.63967" style="fill: #870052; stroke: #870052"/>
     <use xlink:href="#m907a41979a" x="244.640832" y="310.336716" style="fill: #870052; stroke: #870052"/>
     <use xlink:href="#m907a41979a" x="259.722843" y="348.600789" style="fill: #870052; stroke: #870052"/>
     <use xlink:href="#m907a41979a" x="274.804855" y="365.879417" style="fill: #870052; stroke: #870052"/>
     <use xlink:href="#m907a41979a" x="289.886867" y="361.946563" style="fill: #870052; stroke: #870052"/>
     <use xlink:href="#m907a41979a" x="304.968878" y="394.746116" style="fill: #870052; stroke: #870052"/>
     <use xlink:href="#m907a41979a" x="320.05089" y="397.484121" style="fill: #870052; stroke: #870052"/>
     <use xlink:href="#m907a41979a" x="335.132901" y="409.800657" style="fill: #870052; stroke: #870052"/>
     <use xlink:href="#m907a41979a" x="350.214913" y="403.278635" style="fill: #870052; stroke: #870052"/>
     <use xlink:href="#m907a41979a" x="365.296925" y="410.740481" style="fill: #870052; stroke: #870052"/>
     <use xlink:href="#m907a41979a" x="380.378936" y="416.337856" style="fill: #870052; stroke: #870052"/>
     <use xlink:href="#m907a41979a" x="395.460948" y="416.593772" style="fill: #870052; stroke: #870052"/>
     <use xlink:href="#m907a41979a" x="410.542959" y="422.136096" style="fill: #870052; stroke: #870052"/>
     <use xlink:href="#m907a41979a" x="425.624971" y="421.768243" style="fill: #870052; stroke: #870052"/>
     <use xlink:href="#m907a41979a" x="440.706983" y="434.436718" style="fill: #870052; stroke: #870052"/>
     <use xlink:href="#m907a41979a" x="455.788994" y="446.698025" style="fill: #870052; stroke: #870052"/>
     <use xlink:href="#m907a41979a" x="470.871006" y="456.083924" style="fill: #870052; stroke: #870052"/>
     <use xlink:href="#m907a41979a" x="485.953017" y="459.399148" style="fill: #870052; stroke: #870052"/>
     <use xlink:href="#m907a41979a" x="501.035029" y="441.27158" style="fill: #870052; stroke: #870052"/>
     <use xlink:href="#m907a41979a" x="516.117041" y="438.455932" style="fill: #870052; stroke: #870052"/>
     <use xlink:href="#m907a41979a" x="531.199052" y="445.756515" style="fill: #870052; stroke: #870052"/>
     <use xlink:href="#m907a41979a" x="546.281064" y="452.014442" style="fill: #870052; stroke: #870052"/>
     <use xlink:href="#m907a41979a" x="561.363075" y="454.038976" style="fill: #870052; stroke: #870052"/>
     <use xlink:href="#m907a41979a" x="576.445087" y="461.130869" style="fill: #870052; stroke: #870052"/>
     <use xlink:href="#m907a41979a" x="591.527099" y="468.134951" style="fill: #870052; stroke: #870052"/>
     <use xlink:href="#m907a41979a" x="606.60911" y="474.922144" style="fill: #870052; stroke: #870052"/>
     <use xlink:href="#m907a41979a" x="621.691122" y="471.27368" style="fill: #870052; stroke: #870052"/>
     <use xlink:href="#m907a41979a" x="636.773133" y="475.248873" style="fill: #870052; stroke: #870052"/>
     <use xlink:href="#m907a41979a" x="651.855145" y="482.467499" style="fill: #870052; stroke: #870052"/>
     <use xlink:href="#m907a41979a" x="666.937157" y="486.219043" style="fill: #870052; stroke: #870052"/>
     <use xlink:href="#m907a41979a" x="682.019168" y="483.420973" style="fill: #870052; stroke: #870052"/>
     <use xlink:href="#m907a41979a" x="697.10118" y="488.591713" style="fill: #870052; stroke: #870052"/>
     <use xlink:href="#m907a41979a" x="712.183191" y="493.922664" style="fill: #870052; stroke: #870052"/>
     <use xlink:href="#m907a41979a" x="727.265203" y="494.057" style="fill: #870052; stroke: #870052"/>
     <use xlink:href="#m907a41979a" x="742.347215" y="490.942676" style="fill: #870052; stroke: #870052"/>
     <use xlink:href="#m907a41979a" x="757.429226" y="489.241661" style="fill: #870052; stroke: #870052"/>
     <use xlink:href="#m907a41979a" x="772.511238" y="489.848056" style="fill: #870052; stroke: #870052"/>
     <use xlink:href="#m907a41979a" x="787.59325" y="482.989329" style="fill: #870052; stroke: #870052"/>
     <use xlink:href="#m907a41979a" x="802.675261" y="484.529543" style="fill: #870052; stroke: #870052"/>
     <use xlink:href="#m907a41979a" x="817.757273" y="497.503636" style="fill: #870052; stroke: #870052"/>
    </g>
   </g>
   <g id="line2d_17">
    <path d="M 108.902727 320.30992 
L 123.984739 368.856018 
L 139.06675 342.625846 
L 154.148762 380.126795 
L 169.230774 331.691675 
L 184.312785 322.202161 
L 199.394797 389.175592 
L 214.476809 327.699532 
L 229.55882 322.153903 
L 244.640832 310.577292 
L 259.722843 333.283687 
L 274.804855 339.273212 
L 289.886867 351.386988 
L 304.968878 376.105837 
L 320.05089 387.384056 
L 335.132901 398.8209 
L 350.214913 395.552872 
L 365.296925 403.871735 
L 380.378936 416.817442 
L 395.460948 405.582591 
L 410.542959 401.868685 
L 425.624971 401.461425 
L 440.706983 409.125284 
L 455.788994 413.350344 
L 470.871006 427.846788 
L 485.953017 439.33392 
L 501.035029 441.860688 
L 516.117041 449.719761 
L 531.199052 454.951682 
L 546.281064 456.302766 
L 561.363075 458.790755 
L 576.445087 456.656563 
L 591.527099 458.866284 
L 606.60911 458.880529 
L 621.691122 457.786703 
L 636.773133 452.777048 
L 651.855145 454.783207 
L 666.937157 453.762062 
L 682.019168 452.409992 
L 697.10118 456.599863 
L 712.183191 459.964048 
L 727.265203 459.185458 
L 742.347215 461.435856 
L 757.429226 469.767497 
L 772.511238 471.170081 
L 787.59325 473.12136 
L 802.675261 468.719271 
L 817.757273 470.505916 
" clip-path="url(#p5fa4681183)" style="fill: none; stroke: #ff876f; stroke-width: 1.5; stroke-linecap: square"/>
    <defs>
     <path id="m198e183660" d="M 0 3 
C 0.795609 3 1.55874 2.683901 2.12132 2.12132 
C 2.683901 1.55874 3 0.795609 3 0 
C 3 -0.795609 2.683901 -1.55874 2.12132 -2.12132 
C 1.55874 -2.683901 0.795609 -3 0 -3 
C -0.795609 -3 -1.55874 -2.683901 -2.12132 -2.12132 
C -2.683901 -1.55874 -3 -0.795609 -3 0 
C -3 0.795609 -2.683901 1.55874 -2.12132 2.12132 
C -1.55874 2.683901 -0.795609 3 0 3 
z
" style="stroke: #ff876f"/>
    </defs>
    <g clip-path="url(#p5fa4681183)">
     <use xlink:href="#m198e183660" x="108.902727" y="320.30992" style="fill: #ff876f; stroke: #ff876f"/>
     <use xlink:href="#m198e183660" x="123.984739" y="368.856018" style="fill: #ff876f; stroke: #ff876f"/>
     <use xlink:href="#m198e183660" x="139.06675" y="342.625846" style="fill: #ff876f; stroke: #ff876f"/>
     <use xlink:href="#m198e183660" x="154.148762" y="380.126795" style="fill: #ff876f; stroke: #ff876f"/>
     <use xlink:href="#m198e183660" x="169.230774" y="331.691675" style="fill: #ff876f; stroke: #ff876f"/>
     <use xlink:href="#m198e183660" x="184.312785" y="322.202161" style="fill: #ff876f; stroke: #ff876f"/>
     <use xlink:href="#m198e183660" x="199.394797" y="389.175592" style="fill: #ff876f; stroke: #ff876f"/>
     <use xlink:href="#m198e183660" x="214.476809" y="327.699532" style="fill: #ff876f; stroke: #ff876f"/>
     <use xlink:href="#m198e183660" x="229.55882" y="322.153903" style="fill: #ff876f; stroke: #ff876f"/>
     <use xlink:href="#m198e183660" x="244.640832" y="310.577292" style="fill: #ff876f; stroke: #ff876f"/>
     <use xlink:href="#m198e183660" x="259.722843" y="333.283687" style="fill: #ff876f; stroke: #ff876f"/>
     <use xlink:href="#m198e183660" x="274.804855" y="339.273212" style="fill: #ff876f; stroke: #ff876f"/>
     <use xlink:href="#m198e183660" x="289.886867" y="351.386988" style="fill: #ff876f; stroke: #ff876f"/>
     <use xlink:href="#m198e183660" x="304.968878" y="376.105837" style="fill: #ff876f; stroke: #ff876f"/>
     <use xlink:href="#m198e183660" x="320.05089" y="387.384056" style="fill: #ff876f; stroke: #ff876f"/>
     <use xlink:href="#m198e183660" x="335.132901" y="398.8209" style="fill: #ff876f; stroke: #ff876f"/>
     <use xlink:href="#m198e183660" x="350.214913" y="395.552872" style="fill: #ff876f; stroke: #ff876f"/>
     <use xlink:href="#m198e183660" x="365.296925" y="403.871735" style="fill: #ff876f; stroke: #ff876f"/>
     <use xlink:href="#m198e183660" x="380.378936" y="416.817442" style="fill: #ff876f; stroke: #ff876f"/>
     <use xlink:href="#m198e183660" x="395.460948" y="405.582591" style="fill: #ff876f; stroke: #ff876f"/>
     <use xlink:href="#m198e183660" x="410.542959" y="401.868685" style="fill: #ff876f; stroke: #ff876f"/>
     <use xlink:href="#m198e183660" x="425.624971" y="401.461425" style="fill: #ff876f; stroke: #ff876f"/>
     <use xlink:href="#m198e183660" x="440.706983" y="409.125284" style="fill: #ff876f; stroke: #ff876f"/>
     <use xlink:href="#m198e183660" x="455.788994" y="413.350344" style="fill: #ff876f; stroke: #ff876f"/>
     <use xlink:href="#m198e183660" x="470.871006" y="427.846788" style="fill: #ff876f; stroke: #ff876f"/>
     <use xlink:href="#m198e183660" x="485.953017" y="439.33392" style="fill: #ff876f; stroke: #ff876f"/>
     <use xlink:href="#m198e183660" x="501.035029" y="441.860688" style="fill: #ff876f; stroke: #ff876f"/>
     <use xlink:href="#m198e183660" x="516.117041" y="449.719761" style="fill: #ff876f; stroke: #ff876f"/>
     <use xlink:href="#m198e183660" x="531.199052" y="454.951682" style="fill: #ff876f; stroke: #ff876f"/>
     <use xlink:href="#m198e183660" x="546.281064" y="456.302766" style="fill: #ff876f; stroke: #ff876f"/>
     <use xlink:href="#m198e183660" x="561.363075" y="458.790755" style="fill: #ff876f; stroke: #ff876f"/>
     <use xlink:href="#m198e183660" x="576.445087" y="456.656563" style="fill: #ff876f; stroke: #ff876f"/>
     <use xlink:href="#m198e183660" x="591.527099" y="458.866284" style="fill: #ff876f; stroke: #ff876f"/>
     <use xlink:href="#m198e183660" x="606.60911" y="458.880529" style="fill: #ff876f; stroke: #ff876f"/>
     <use xlink:href="#m198e183660" x="621.691122" y="457.786703" style="fill: #ff876f; stroke: #ff876f"/>
     <use xlink:href="#m198e183660" x="636.773133" y="452.777048" style="fill: #ff876f; stroke: #ff876f"/>
     <use xlink:href="#m198e183660" x="651.855145" y="454.783207" style="fill: #ff876f; stroke: #ff876f"/>
     <use xlink:href="#m198e183660" x="666.937157" y="453.762062" style="fill: #ff876f; stroke: #ff876f"/>
     <use xlink:href="#m198e183660" x="682.019168" y="452.409992" style="fill: #ff876f; stroke: #ff876f"/>
     <use xlink:href="#m198e183660" x="697.10118" y="456.599863" style="fill: #ff876f; stroke: #ff876f"/>
     <use xlink:href="#m198e183660" x="712.183191" y="459.964048" style="fill: #ff876f; stroke: #ff876f"/>
     <use xlink:href="#m198e183660" x="727.265203" y="459.185458" style="fill: #ff876f; stroke: #ff876f"/>
     <use xlink:href="#m198e183660" x="742.347215" y="461.435856" style="fill: #ff876f; stroke: #ff876f"/>
     <use xlink:href="#m198e183660" x="757.429226" y="469.767497" style="fill: #ff876f; stroke: #ff876f"/>
     <use xlink:href="#m198e183660" x="772.511238" y="471.170081" style="fill: #ff876f; stroke: #ff876f"/>
     <use xlink:href="#m198e183660" x="787.59325" y="473.12136" style="fill: #ff876f; stroke: #ff876f"/>
     <use xlink:href="#m198e183660" x="802.675261" y="468.719271" style="fill: #ff876f; stroke: #ff876f"/>
     <use xlink:href="#m198e183660" x="817.757273" y="470.505916" style="fill: #ff876f; stroke: #ff876f"/>
    </g>
   </g>
   <g id="patch_3">
    <path d="M 73.46 519.64 
L 73.46 32.64 
" style="fill: none; stroke: #000000; stroke-width: 0.8; stroke-linejoin: miter; stroke-linecap: square"/>
   </g>
   <g id="patch_4">
    <path d="M 853.2 519.64 
L 853.2 32.64 
" style="fill: none; stroke: #000000; stroke-width: 0.8; stroke-linejoin: miter; stroke-linecap: square"/>
   </g>
   <g id="patch_5">
    <path d="M 73.46 519.64 
L 853.2 519.64 
" style="fill: none; stroke: #000000; stroke-width: 0.8; stroke-linejoin: miter; stroke-linecap: square"/>
   </g>
   <g id="patch_6">
    <path d="M 73.46 32.64 
L 853.2 32.64 
" style="fill: none; stroke: #000000; stroke-width: 0.8; stroke-linejoin: miter; stroke-linecap: square"/>
   </g>
   <g id="text_17">
    <!-- Calinski-Harabasz Index for Different Values of K across Different DataFrames -->
    <g transform="translate(75.13 26.64) scale(0.2 -0.2)">
     <defs>
      <path id="DejaVuSans-44" d="M 1259 4147 
L 1259 519 
L 2022 519 
Q 2988 519 3436 956 
Q 3884 1394 3884 2338 
Q 3884 3275 3436 3711 
Q 2988 4147 2022 4147 
L 1259 4147 
z
M 628 4666 
L 1925 4666 
Q 3281 4666 3915 4102 
Q 4550 3538 4550 2338 
Q 4550 1131 3912 565 
Q 3275 0 1925 0 
L 628 0 
L 628 4666 
z
" transform="scale(0.015625)"/>
      <path id="DejaVuSans-56" d="M 1831 0 
L 50 4666 
L 709 4666 
L 2188 738 
L 3669 4666 
L 4325 4666 
L 2547 0 
L 1831 0 
z
" transform="scale(0.015625)"/>
      <path id="DejaVuSans-46" d="M 628 4666 
L 3309 4666 
L 3309 4134 
L 1259 4134 
L 1259 2759 
L 3109 2759 
L 3109 2228 
L 1259 2228 
L 1259 0 
L 628 0 
L 628 4666 
z
" transform="scale(0.015625)"/>
     </defs>
     <use xlink:href="#DejaVuSans-43"/>
     <use xlink:href="#DejaVuSans-61" x="69.824219"/>
     <use xlink:href="#DejaVuSans-6c" x="131.103516"/>
     <use xlink:href="#DejaVuSans-69" x="158.886719"/>
     <use xlink:href="#DejaVuSans-6e" x="186.669922"/>
     <use xlink:href="#DejaVuSans-73" x="250.048828"/>
     <use xlink:href="#DejaVuSans-6b" x="302.148438"/>
     <use xlink:href="#DejaVuSans-69" x="360.058594"/>
     <use xlink:href="#DejaVuSans-2d" x="387.841797"/>
     <use xlink:href="#DejaVuSans-48" x="423.925781"/>
     <use xlink:href="#DejaVuSans-61" x="499.121094"/>
     <use xlink:href="#DejaVuSans-72" x="560.400391"/>
     <use xlink:href="#DejaVuSans-61" x="601.513672"/>
     <use xlink:href="#DejaVuSans-62" x="662.792969"/>
     <use xlink:href="#DejaVuSans-61" x="726.269531"/>
     <use xlink:href="#DejaVuSans-73" x="787.548828"/>
     <use xlink:href="#DejaVuSans-7a" x="839.648438"/>
     <use xlink:href="#DejaVuSans-20" x="892.138672"/>
     <use xlink:href="#DejaVuSans-49" x="923.925781"/>
     <use xlink:href="#DejaVuSans-6e" x="953.417969"/>
     <use xlink:href="#DejaVuSans-64" x="1016.796875"/>
     <use xlink:href="#DejaVuSans-65" x="1080.273438"/>
     <use xlink:href="#DejaVuSans-78" x="1140.046875"/>
     <use xlink:href="#DejaVuSans-20" x="1199.226562"/>
     <use xlink:href="#DejaVuSans-66" x="1231.013672"/>
     <use xlink:href="#DejaVuSans-6f" x="1266.21875"/>
     <use xlink:href="#DejaVuSans-72" x="1327.400391"/>
     <use xlink:href="#DejaVuSans-20" x="1368.513672"/>
     <use xlink:href="#DejaVuSans-44" x="1400.300781"/>
     <use xlink:href="#DejaVuSans-69" x="1477.302734"/>
     <use xlink:href="#DejaVuSans-66" x="1505.085938"/>
     <use xlink:href="#DejaVuSans-66" x="1540.291016"/>
     <use xlink:href="#DejaVuSans-65" x="1575.496094"/>
     <use xlink:href="#DejaVuSans-72" x="1637.019531"/>
     <use xlink:href="#DejaVuSans-65" x="1675.882812"/>
     <use xlink:href="#DejaVuSans-6e" x="1737.40625"/>
     <use xlink:href="#DejaVuSans-74" x="1800.785156"/>
     <use xlink:href="#DejaVuSans-20" x="1839.994141"/>
     <use xlink:href="#DejaVuSans-56" x="1871.78125"/>
     <use xlink:href="#DejaVuSans-61" x="1932.439453"/>
     <use xlink:href="#DejaVuSans-6c" x="1993.71875"/>
     <use xlink:href="#DejaVuSans-75" x="2021.501953"/>
     <use xlink:href="#DejaVuSans-65" x="2084.880859"/>
     <use xlink:href="#DejaVuSans-73" x="2146.404297"/>
     <use xlink:href="#DejaVuSans-20" x="2198.503906"/>
     <use xlink:href="#DejaVuSans-6f" x="2230.291016"/>
     <use xlink:href="#DejaVuSans-66" x="2291.472656"/>
     <use xlink:href="#DejaVuSans-20" x="2326.677734"/>
     <use xlink:href="#DejaVuSans-4b" x="2358.464844"/>
     <use xlink:href="#DejaVuSans-20" x="2424.041016"/>
     <use xlink:href="#DejaVuSans-61" x="2455.828125"/>
     <use xlink:href="#DejaVuSans-63" x="2517.107422"/>
     <use xlink:href="#DejaVuSans-72" x="2572.087891"/>
     <use xlink:href="#DejaVuSans-6f" x="2610.951172"/>
     <use xlink:href="#DejaVuSans-73" x="2672.132812"/>
     <use xlink:href="#DejaVuSans-73" x="2724.232422"/>
     <use xlink:href="#DejaVuSans-20" x="2776.332031"/>
     <use xlink:href="#DejaVuSans-44" x="2808.119141"/>
     <use xlink:href="#DejaVuSans-69" x="2885.121094"/>
     <use xlink:href="#DejaVuSans-66" x="2912.904297"/>
     <use xlink:href="#DejaVuSans-66" x="2948.109375"/>
     <use xlink:href="#DejaVuSans-65" x="2983.314453"/>
     <use xlink:href="#DejaVuSans-72" x="3044.837891"/>
     <use xlink:href="#DejaVuSans-65" x="3083.701172"/>
     <use xlink:href="#DejaVuSans-6e" x="3145.224609"/>
     <use xlink:href="#DejaVuSans-74" x="3208.603516"/>
     <use xlink:href="#DejaVuSans-20" x="3247.8125"/>
     <use xlink:href="#DejaVuSans-44" x="3279.599609"/>
     <use xlink:href="#DejaVuSans-61" x="3356.601562"/>
     <use xlink:href="#DejaVuSans-74" x="3417.880859"/>
     <use xlink:href="#DejaVuSans-61" x="3457.089844"/>
     <use xlink:href="#DejaVuSans-46" x="3518.369141"/>
     <use xlink:href="#DejaVuSans-72" x="3568.638672"/>
     <use xlink:href="#DejaVuSans-61" x="3609.751953"/>
     <use xlink:href="#DejaVuSans-6d" x="3671.03125"/>
     <use xlink:href="#DejaVuSans-65" x="3768.443359"/>
     <use xlink:href="#DejaVuSans-73" x="3829.966797"/>
    </g>
   </g>
   <g id="legend_1">
    <g id="patch_7">
     <path d="M 562.3875 116.785 
L 842 116.785 
Q 845.2 116.785 845.2 113.585 
L 845.2 43.84 
Q 845.2 40.64 842 40.64 
L 562.3875 40.64 
Q 559.1875 40.64 559.1875 43.84 
L 559.1875 113.585 
Q 559.1875 116.785 562.3875 116.785 
z
" style="fill: #ffffff; opacity: 0.8; stroke: #cccccc; stroke-linejoin: miter"/>
    </g>
    <g id="line2d_18">
     <path d="M 565.5875 53.5975 
L 581.5875 53.5975 
L 597.5875 53.5975 
" style="fill: none; stroke: #4db5bc; stroke-width: 1.5; stroke-linecap: square"/>
     <g>
      <use xlink:href="#me48aa1f314" x="581.5875" y="53.5975" style="fill: #4db5bc; stroke: #4db5bc"/>
     </g>
    </g>
    <g id="text_18">
     <!-- CHI Score (rosc) -->
     <g transform="translate(610.3875 59.1975) scale(0.16 -0.16)">
      <defs>
       <path id="DejaVuSans-53" d="M 3425 4513 
L 3425 3897 
Q 3066 4069 2747 4153 
Q 2428 4238 2131 4238 
Q 1616 4238 1336 4038 
Q 1056 3838 1056 3469 
Q 1056 3159 1242 3001 
Q 1428 2844 1947 2747 
L 2328 2669 
Q 3034 2534 3370 2195 
Q 3706 1856 3706 1288 
Q 3706 609 3251 259 
Q 2797 -91 1919 -91 
Q 1588 -91 1214 -16 
Q 841 59 441 206 
L 441 856 
Q 825 641 1194 531 
Q 1563 422 1919 422 
Q 2459 422 2753 634 
Q 3047 847 3047 1241 
Q 3047 1584 2836 1778 
Q 2625 1972 2144 2069 
L 1759 2144 
Q 1053 2284 737 2584 
Q 422 2884 422 3419 
Q 422 4038 858 4394 
Q 1294 4750 2059 4750 
Q 2388 4750 2728 4690 
Q 3069 4631 3425 4513 
z
" transform="scale(0.015625)"/>
      </defs>
      <use xlink:href="#DejaVuSans-43"/>
      <use xlink:href="#DejaVuSans-48" x="69.824219"/>
      <use xlink:href="#DejaVuSans-49" x="145.019531"/>
      <use xlink:href="#DejaVuSans-20" x="174.511719"/>
      <use xlink:href="#DejaVuSans-53" x="206.298828"/>
      <use xlink:href="#DejaVuSans-63" x="269.775391"/>
      <use xlink:href="#DejaVuSans-6f" x="324.755859"/>
      <use xlink:href="#DejaVuSans-72" x="385.9375"/>
      <use xlink:href="#DejaVuSans-65" x="424.800781"/>
      <use xlink:href="#DejaVuSans-20" x="486.324219"/>
      <use xlink:href="#DejaVuSans-28" x="518.111328"/>
      <use xlink:href="#DejaVuSans-72" x="557.125"/>
      <use xlink:href="#DejaVuSans-6f" x="595.988281"/>
      <use xlink:href="#DejaVuSans-73" x="657.169922"/>
      <use xlink:href="#DejaVuSans-63" x="709.269531"/>
      <use xlink:href="#DejaVuSans-29" x="764.25"/>
     </g>
    </g>
    <g id="line2d_19">
     <path d="M 565.5875 77.0825 
L 581.5875 77.0825 
L 597.5875 77.0825 
" style="fill: none; stroke: #870052; stroke-width: 1.5; stroke-linecap: square"/>
     <g>
      <use xlink:href="#m907a41979a" x="581.5875" y="77.0825" style="fill: #870052; stroke: #870052"/>
     </g>
    </g>
    <g id="text_19">
     <!-- CHI Score (rosc_boxcox) -->
     <g transform="translate(610.3875 82.6825) scale(0.16 -0.16)">
      <defs>
       <path id="DejaVuSans-5f" d="M 3263 -1063 
L 3263 -1509 
L -63 -1509 
L -63 -1063 
L 3263 -1063 
z
" transform="scale(0.015625)"/>
      </defs>
      <use xlink:href="#DejaVuSans-43"/>
      <use xlink:href="#DejaVuSans-48" x="69.824219"/>
      <use xlink:href="#DejaVuSans-49" x="145.019531"/>
      <use xlink:href="#DejaVuSans-20" x="174.511719"/>
      <use xlink:href="#DejaVuSans-53" x="206.298828"/>
      <use xlink:href="#DejaVuSans-63" x="269.775391"/>
      <use xlink:href="#DejaVuSans-6f" x="324.755859"/>
      <use xlink:href="#DejaVuSans-72" x="385.9375"/>
      <use xlink:href="#DejaVuSans-65" x="424.800781"/>
      <use xlink:href="#DejaVuSans-20" x="486.324219"/>
      <use xlink:href="#DejaVuSans-28" x="518.111328"/>
      <use xlink:href="#DejaVuSans-72" x="557.125"/>
      <use xlink:href="#DejaVuSans-6f" x="595.988281"/>
      <use xlink:href="#DejaVuSans-73" x="657.169922"/>
      <use xlink:href="#DejaVuSans-63" x="709.269531"/>
      <use xlink:href="#DejaVuSans-5f" x="764.25"/>
      <use xlink:href="#DejaVuSans-62" x="814.25"/>
      <use xlink:href="#DejaVuSans-6f" x="877.726562"/>
      <use xlink:href="#DejaVuSans-78" x="935.783203"/>
      <use xlink:href="#DejaVuSans-63" x="993.212891"/>
      <use xlink:href="#DejaVuSans-6f" x="1048.193359"/>
      <use xlink:href="#DejaVuSans-78" x="1106.25"/>
      <use xlink:href="#DejaVuSans-29" x="1165.429688"/>
     </g>
    </g>
    <g id="line2d_20">
     <path d="M 565.5875 101.0125 
L 581.5875 101.0125 
L 597.5875 101.0125 
" style="fill: none; stroke: #ff876f; stroke-width: 1.5; stroke-linecap: square"/>
     <g>
      <use xlink:href="#m198e183660" x="581.5875" y="101.0125" style="fill: #ff876f; stroke: #ff876f"/>
     </g>
    </g>
    <g id="text_20">
     <!-- CHI Score (rosc_yeojohnson) -->
     <g transform="translate(610.3875 106.6125) scale(0.16 -0.16)">
      <defs>
       <path id="DejaVuSans-79" d="M 2059 -325 
Q 1816 -950 1584 -1140 
Q 1353 -1331 966 -1331 
L 506 -1331 
L 506 -850 
L 844 -850 
Q 1081 -850 1212 -737 
Q 1344 -625 1503 -206 
L 1606 56 
L 191 3500 
L 800 3500 
L 1894 763 
L 2988 3500 
L 3597 3500 
L 2059 -325 
z
" transform="scale(0.015625)"/>
       <path id="DejaVuSans-6a" d="M 603 3500 
L 1178 3500 
L 1178 -63 
Q 1178 -731 923 -1031 
Q 669 -1331 103 -1331 
L -116 -1331 
L -116 -844 
L 38 -844 
Q 366 -844 484 -692 
Q 603 -541 603 -63 
L 603 3500 
z
M 603 4863 
L 1178 4863 
L 1178 4134 
L 603 4134 
L 603 4863 
z
" transform="scale(0.015625)"/>
       <path id="DejaVuSans-68" d="M 3513 2113 
L 3513 0 
L 2938 0 
L 2938 2094 
Q 2938 2591 2744 2837 
Q 2550 3084 2163 3084 
Q 1697 3084 1428 2787 
Q 1159 2491 1159 1978 
L 1159 0 
L 581 0 
L 581 4863 
L 1159 4863 
L 1159 2956 
Q 1366 3272 1645 3428 
Q 1925 3584 2291 3584 
Q 2894 3584 3203 3211 
Q 3513 2838 3513 2113 
z
" transform="scale(0.015625)"/>
      </defs>
      <use xlink:href="#DejaVuSans-43"/>
      <use xlink:href="#DejaVuSans-48" x="69.824219"/>
      <use xlink:href="#DejaVuSans-49" x="145.019531"/>
      <use xlink:href="#DejaVuSans-20" x="174.511719"/>
      <use xlink:href="#DejaVuSans-53" x="206.298828"/>
      <use xlink:href="#DejaVuSans-63" x="269.775391"/>
      <use xlink:href="#DejaVuSans-6f" x="324.755859"/>
      <use xlink:href="#DejaVuSans-72" x="385.9375"/>
      <use xlink:href="#DejaVuSans-65" x="424.800781"/>
      <use xlink:href="#DejaVuSans-20" x="486.324219"/>
      <use xlink:href="#DejaVuSans-28" x="518.111328"/>
      <use xlink:href="#DejaVuSans-72" x="557.125"/>
      <use xlink:href="#DejaVuSans-6f" x="595.988281"/>
      <use xlink:href="#DejaVuSans-73" x="657.169922"/>
      <use xlink:href="#DejaVuSans-63" x="709.269531"/>
      <use xlink:href="#DejaVuSans-5f" x="764.25"/>
      <use xlink:href="#DejaVuSans-79" x="814.25"/>
      <use xlink:href="#DejaVuSans-65" x="873.429688"/>
      <use xlink:href="#DejaVuSans-6f" x="934.953125"/>
      <use xlink:href="#DejaVuSans-6a" x="996.134766"/>
      <use xlink:href="#DejaVuSans-6f" x="1023.917969"/>
      <use xlink:href="#DejaVuSans-68" x="1085.099609"/>
      <use xlink:href="#DejaVuSans-6e" x="1148.478516"/>
      <use xlink:href="#DejaVuSans-73" x="1211.857422"/>
      <use xlink:href="#DejaVuSans-6f" x="1263.957031"/>
      <use xlink:href="#DejaVuSans-6e" x="1325.138672"/>
      <use xlink:href="#DejaVuSans-29" x="1388.517578"/>
     </g>
    </g>
   </g>
  </g>
 </g>
 <defs>
  <clipPath id="p5fa4681183">
   <rect x="73.46" y="32.64" width="779.74" height="487"/>
  </clipPath>
 </defs>
</svg>
