<?xml version="1.0" encoding="utf-8" standalone="no"?>
<!DOCTYPE svg PUBLIC "-//W3C//DTD SVG 1.1//EN"
  "http://www.w3.org/Graphics/SVG/1.1/DTD/svg11.dtd">
<svg xmlns:xlink="http://www.w3.org/1999/xlink" width="1008pt" height="720pt" viewBox="0 0 1008 720" xmlns="http://www.w3.org/2000/svg" version="1.1">
 <metadata>
  <rdf:RDF xmlns:dc="http://purl.org/dc/elements/1.1/" xmlns:cc="http://creativecommons.org/ns#" xmlns:rdf="http://www.w3.org/1999/02/22-rdf-syntax-ns#">
   <cc:Work>
    <dc:type rdf:resource="http://purl.org/dc/dcmitype/StillImage"/>
    <dc:date>2024-12-27T18:53:11.028719</dc:date>
    <dc:format>image/svg+xml</dc:format>
    <dc:creator>
     <cc:Agent>
      <dc:title>Matplotlib v3.9.2, https://matplotlib.org/</dc:title>
     </cc:Agent>
    </dc:creator>
   </cc:Work>
  </rdf:RDF>
 </metadata>
 <defs>
  <style type="text/css">*{stroke-linejoin: round; stroke-linecap: butt}</style>
 </defs>
 <g id="figure_1">
  <g id="patch_1">
   <path d="M 0 720 
L 1008 720 
L 1008 0 
L 0 0 
z
" style="fill: #ffffff"/>
  </g>
  <g id="axes_1">
   <g id="patch_2">
    <path d="M 54.47 513.34 
L 997.2 513.34 
L 997.2 28.32 
L 54.47 28.32 
z
" style="fill: #ffffff"/>
   </g>
   <g id="patch_3">
    <path d="M 97.321364 513.34 
L 135.839443 513.34 
L 135.839443 359.365397 
L 97.321364 359.365397 
z
" clip-path="url(#pbe4c2f3dbf)" style="fill: #4db5bc"/>
   </g>
   <g id="patch_4">
    <path d="M 145.468963 513.34 
L 183.987043 513.34 
L 183.987043 507.902829 
L 145.468963 507.902829 
z
" clip-path="url(#pbe4c2f3dbf)" style="fill: #4db5bc"/>
   </g>
   <g id="patch_5">
    <path d="M 193.616563 513.34 
L 232.134642 513.34 
L 232.134642 459.055581 
L 193.616563 459.055581 
z
" clip-path="url(#pbe4c2f3dbf)" style="fill: #4db5bc"/>
   </g>
   <g id="patch_6">
    <path d="M 241.764162 513.34 
L 280.282242 513.34 
L 280.282242 477.716811 
L 241.764162 477.716811 
z
" clip-path="url(#pbe4c2f3dbf)" style="fill: #4db5bc"/>
   </g>
   <g id="patch_7">
    <path d="M 289.911762 513.34 
L 328.429842 513.34 
L 328.429842 478.368601 
L 289.911762 478.368601 
z
" clip-path="url(#pbe4c2f3dbf)" style="fill: #4db5bc"/>
   </g>
   <g id="patch_8">
    <path d="M 338.059362 513.34 
L 376.577441 513.34 
L 376.577441 491.567659 
L 338.059362 491.567659 
z
" clip-path="url(#pbe4c2f3dbf)" style="fill: #4db5bc"/>
   </g>
   <g id="patch_9">
    <path d="M 386.206961 513.34 
L 424.725041 513.34 
L 424.725041 495.202537 
L 386.206961 495.202537 
z
" clip-path="url(#pbe4c2f3dbf)" style="fill: #4db5bc"/>
   </g>
   <g id="patch_10">
    <path d="M 434.354561 513.34 
L 472.87264 513.34 
L 472.87264 513.34 
L 434.354561 513.34 
z
" clip-path="url(#pbe4c2f3dbf)" style="fill: #4db5bc"/>
   </g>
   <g id="patch_11">
    <path d="M 482.50216 513.34 
L 521.02024 513.34 
L 521.02024 505.055538 
L 482.50216 505.055538 
z
" clip-path="url(#pbe4c2f3dbf)" style="fill: #4db5bc"/>
   </g>
   <g id="patch_12">
    <path d="M 530.64976 513.34 
L 569.16784 513.34 
L 569.16784 513.34 
L 530.64976 513.34 
z
" clip-path="url(#pbe4c2f3dbf)" style="fill: #4db5bc"/>
   </g>
   <g id="patch_13">
    <path d="M 578.79736 513.34 
L 617.315439 513.34 
L 617.315439 513.34 
L 578.79736 513.34 
z
" clip-path="url(#pbe4c2f3dbf)" style="fill: #4db5bc"/>
   </g>
   <g id="patch_14">
    <path d="M 626.944959 513.34 
L 665.463039 513.34 
L 665.463039 513.34 
L 626.944959 513.34 
z
" clip-path="url(#pbe4c2f3dbf)" style="fill: #4db5bc"/>
   </g>
   <g id="patch_15">
    <path d="M 675.092559 513.34 
L 713.610638 513.34 
L 713.610638 513.34 
L 675.092559 513.34 
z
" clip-path="url(#pbe4c2f3dbf)" style="fill: #4db5bc"/>
   </g>
   <g id="patch_16">
    <path d="M 723.240158 513.34 
L 761.758238 513.34 
L 761.758238 513.34 
L 723.240158 513.34 
z
" clip-path="url(#pbe4c2f3dbf)" style="fill: #4db5bc"/>
   </g>
   <g id="patch_17">
    <path d="M 771.387758 513.34 
L 809.905838 513.34 
L 809.905838 513.34 
L 771.387758 513.34 
z
" clip-path="url(#pbe4c2f3dbf)" style="fill: #4db5bc"/>
   </g>
   <g id="patch_18">
    <path d="M 819.535358 513.34 
L 858.053437 513.34 
L 858.053437 513.34 
L 819.535358 513.34 
z
" clip-path="url(#pbe4c2f3dbf)" style="fill: #4db5bc"/>
   </g>
   <g id="patch_19">
    <path d="M 867.682957 513.34 
L 906.201037 513.34 
L 906.201037 510.912581 
L 867.682957 510.912581 
z
" clip-path="url(#pbe4c2f3dbf)" style="fill: #4db5bc"/>
   </g>
   <g id="patch_20">
    <path d="M 915.830557 513.34 
L 954.348636 513.34 
L 954.348636 513.34 
L 915.830557 513.34 
z
" clip-path="url(#pbe4c2f3dbf)" style="fill: #4db5bc"/>
   </g>
   <g id="patch_21">
    <path d="M 97.321364 359.365397 
L 135.839443 359.365397 
L 135.839443 205.390794 
L 97.321364 205.390794 
z
" clip-path="url(#pbe4c2f3dbf)" style="fill: #c7ecdc"/>
   </g>
   <g id="patch_22">
    <path d="M 145.468963 507.902829 
L 183.987043 507.902829 
L 183.987043 426.281595 
L 145.468963 426.281595 
z
" clip-path="url(#pbe4c2f3dbf)" style="fill: #c7ecdc"/>
   </g>
   <g id="patch_23">
    <path d="M 193.616563 459.055581 
L 232.134642 459.055581 
L 232.134642 434.536782 
L 193.616563 434.536782 
z
" clip-path="url(#pbe4c2f3dbf)" style="fill: #c7ecdc"/>
   </g>
   <g id="patch_24">
    <path d="M 241.764162 477.716811 
L 280.282242 477.716811 
L 280.282242 451.732552 
L 241.764162 451.732552 
z
" clip-path="url(#pbe4c2f3dbf)" style="fill: #c7ecdc"/>
   </g>
   <g id="patch_25">
    <path d="M 289.911762 478.368601 
L 328.429842 478.368601 
L 328.429842 469.356139 
L 289.911762 469.356139 
z
" clip-path="url(#pbe4c2f3dbf)" style="fill: #c7ecdc"/>
   </g>
   <g id="patch_26">
    <path d="M 338.059362 491.567659 
L 376.577441 491.567659 
L 376.577441 488.23498 
L 338.059362 488.23498 
z
" clip-path="url(#pbe4c2f3dbf)" style="fill: #c7ecdc"/>
   </g>
   <g id="patch_27">
    <path d="M 386.206961 495.202537 
L 424.725041 495.202537 
L 424.725041 492.52197 
L 386.206961 492.52197 
z
" clip-path="url(#pbe4c2f3dbf)" style="fill: #c7ecdc"/>
   </g>
   <g id="patch_28">
    <path d="M 434.354561 513.34 
L 472.87264 513.34 
L 472.87264 506.061514 
L 434.354561 506.061514 
z
" clip-path="url(#pbe4c2f3dbf)" style="fill: #c7ecdc"/>
   </g>
   <g id="patch_29">
    <path d="M 482.50216 505.055538 
L 521.02024 505.055538 
L 521.02024 504.285882 
L 482.50216 504.285882 
z
" clip-path="url(#pbe4c2f3dbf)" style="fill: #c7ecdc"/>
   </g>
   <g id="patch_30">
    <path d="M 530.64976 513.34 
L 569.16784 513.34 
L 569.16784 508.478294 
L 530.64976 508.478294 
z
" clip-path="url(#pbe4c2f3dbf)" style="fill: #c7ecdc"/>
   </g>
   <g id="patch_31">
    <path d="M 578.79736 513.34 
L 617.315439 513.34 
L 617.315439 507.987415 
L 578.79736 507.987415 
z
" clip-path="url(#pbe4c2f3dbf)" style="fill: #c7ecdc"/>
   </g>
   <g id="patch_32">
    <path d="M 626.944959 513.34 
L 665.463039 513.34 
L 665.463039 509.889756 
L 626.944959 509.889756 
z
" clip-path="url(#pbe4c2f3dbf)" style="fill: #c7ecdc"/>
   </g>
   <g id="patch_33">
    <path d="M 675.092559 513.34 
L 713.610638 513.34 
L 713.610638 509.243361 
L 675.092559 509.243361 
z
" clip-path="url(#pbe4c2f3dbf)" style="fill: #c7ecdc"/>
   </g>
   <g id="patch_34">
    <path d="M 723.240158 513.34 
L 761.758238 513.34 
L 761.758238 510.434023 
L 723.240158 510.434023 
z
" clip-path="url(#pbe4c2f3dbf)" style="fill: #c7ecdc"/>
   </g>
   <g id="patch_35">
    <path d="M 771.387758 513.34 
L 809.905838 513.34 
L 809.905838 511.368052 
L 771.387758 511.368052 
z
" clip-path="url(#pbe4c2f3dbf)" style="fill: #c7ecdc"/>
   </g>
   <g id="patch_36">
    <path d="M 819.535358 513.34 
L 858.053437 513.34 
L 858.053437 510.217438 
L 819.535358 510.217438 
z
" clip-path="url(#pbe4c2f3dbf)" style="fill: #c7ecdc"/>
   </g>
   <g id="patch_37">
    <path d="M 867.682957 510.912581 
L 906.201037 510.912581 
L 906.201037 510.021647 
L 867.682957 510.021647 
z
" clip-path="url(#pbe4c2f3dbf)" style="fill: #c7ecdc"/>
   </g>
   <g id="patch_38">
    <path d="M 915.830557 513.34 
L 954.348636 513.34 
L 954.348636 513.34 
L 915.830557 513.34 
z
" clip-path="url(#pbe4c2f3dbf)" style="fill: #c7ecdc"/>
   </g>
   <g id="patch_39">
    <path d="M 97.321364 205.390794 
L 135.839443 205.390794 
L 135.839443 51.41619 
L 97.321364 51.41619 
z
" clip-path="url(#pbe4c2f3dbf)" style="fill: #ff876f"/>
   </g>
   <g id="patch_40">
    <path d="M 145.468963 426.281595 
L 183.987043 426.281595 
L 183.987043 372.259255 
L 145.468963 372.259255 
z
" clip-path="url(#pbe4c2f3dbf)" style="fill: #ff876f"/>
   </g>
   <g id="patch_41">
    <path d="M 193.616563 434.536782 
L 232.134642 434.536782 
L 232.134642 412.446676 
L 193.616563 412.446676 
z
" clip-path="url(#pbe4c2f3dbf)" style="fill: #ff876f"/>
   </g>
   <g id="patch_42">
    <path d="M 241.764162 451.732552 
L 280.282242 451.732552 
L 280.282242 434.454152 
L 241.764162 434.454152 
z
" clip-path="url(#pbe4c2f3dbf)" style="fill: #ff876f"/>
   </g>
   <g id="patch_43">
    <path d="M 289.911762 469.356139 
L 328.429842 469.356139 
L 328.429842 451.202883 
L 289.911762 451.202883 
z
" clip-path="url(#pbe4c2f3dbf)" style="fill: #ff876f"/>
   </g>
   <g id="patch_44">
    <path d="M 338.059362 488.23498 
L 376.577441 488.23498 
L 376.577441 484.079415 
L 338.059362 484.079415 
z
" clip-path="url(#pbe4c2f3dbf)" style="fill: #ff876f"/>
   </g>
   <g id="patch_45">
    <path d="M 386.206961 492.52197 
L 424.725041 492.52197 
L 424.725041 487.491549 
L 386.206961 487.491549 
z
" clip-path="url(#pbe4c2f3dbf)" style="fill: #ff876f"/>
   </g>
   <g id="patch_46">
    <path d="M 434.354561 506.061514 
L 472.87264 506.061514 
L 472.87264 499.500096 
L 434.354561 499.500096 
z
" clip-path="url(#pbe4c2f3dbf)" style="fill: #ff876f"/>
   </g>
   <g id="patch_47">
    <path d="M 482.50216 504.285882 
L 521.02024 504.285882 
L 521.02024 499.911603 
L 482.50216 499.911603 
z
" clip-path="url(#pbe4c2f3dbf)" style="fill: #ff876f"/>
   </g>
   <g id="patch_48">
    <path d="M 530.64976 508.478294 
L 569.16784 508.478294 
L 569.16784 500.604592 
L 530.64976 500.604592 
z
" clip-path="url(#pbe4c2f3dbf)" style="fill: #ff876f"/>
   </g>
   <g id="patch_49">
    <path d="M 578.79736 507.987415 
L 617.315439 507.987415 
L 617.315439 503.175709 
L 578.79736 503.175709 
z
" clip-path="url(#pbe4c2f3dbf)" style="fill: #ff876f"/>
   </g>
   <g id="patch_50">
    <path d="M 626.944959 509.889756 
L 665.463039 509.889756 
L 665.463039 505.734192 
L 626.944959 505.734192 
z
" clip-path="url(#pbe4c2f3dbf)" style="fill: #ff876f"/>
   </g>
   <g id="patch_51">
    <path d="M 675.092559 509.243361 
L 713.610638 509.243361 
L 713.610638 506.181367 
L 675.092559 506.181367 
z
" clip-path="url(#pbe4c2f3dbf)" style="fill: #ff876f"/>
   </g>
   <g id="patch_52">
    <path d="M 723.240158 510.434023 
L 761.758238 510.434023 
L 761.758238 506.278459 
L 723.240158 506.278459 
z
" clip-path="url(#pbe4c2f3dbf)" style="fill: #ff876f"/>
   </g>
   <g id="patch_53">
    <path d="M 771.387758 511.368052 
L 809.905838 511.368052 
L 809.905838 507.649915 
L 771.387758 507.649915 
z
" clip-path="url(#pbe4c2f3dbf)" style="fill: #ff876f"/>
   </g>
   <g id="patch_54">
    <path d="M 819.535358 510.217438 
L 858.053437 510.217438 
L 858.053437 507.811585 
L 819.535358 507.811585 
z
" clip-path="url(#pbe4c2f3dbf)" style="fill: #ff876f"/>
   </g>
   <g id="patch_55">
    <path d="M 867.682957 510.021647 
L 906.201037 510.021647 
L 906.201037 510.021647 
L 867.682957 510.021647 
z
" clip-path="url(#pbe4c2f3dbf)" style="fill: #ff876f"/>
   </g>
   <g id="patch_56">
    <path d="M 915.830557 513.34 
L 954.348636 513.34 
L 954.348636 512.902572 
L 915.830557 512.902572 
z
" clip-path="url(#pbe4c2f3dbf)" style="fill: #ff876f"/>
   </g>
   <g id="matplotlib.axis_1">
    <g id="xtick_1">
     <g id="line2d_1">
      <defs>
       <path id="m235e5807ea" d="M 0 0 
L 0 3.5 
" style="stroke: #000000; stroke-width: 0.8"/>
      </defs>
      <g>
       <use xlink:href="#m235e5807ea" x="116.580403" y="513.34" style="stroke: #000000; stroke-width: 0.8"/>
      </g>
     </g>
     <g id="text_1">
      <!-- rosc -->
      <g transform="translate(119.891653 545.195) rotate(-90) scale(0.12 -0.12)">
       <defs>
        <path id="DejaVuSans-72" d="M 2631 2963 
Q 2534 3019 2420 3045 
Q 2306 3072 2169 3072 
Q 1681 3072 1420 2755 
Q 1159 2438 1159 1844 
L 1159 0 
L 581 0 
L 581 3500 
L 1159 3500 
L 1159 2956 
Q 1341 3275 1631 3429 
Q 1922 3584 2338 3584 
Q 2397 3584 2469 3576 
Q 2541 3569 2628 3553 
L 2631 2963 
z
" transform="scale(0.015625)"/>
        <path id="DejaVuSans-6f" d="M 1959 3097 
Q 1497 3097 1228 2736 
Q 959 2375 959 1747 
Q 959 1119 1226 758 
Q 1494 397 1959 397 
Q 2419 397 2687 759 
Q 2956 1122 2956 1747 
Q 2956 2369 2687 2733 
Q 2419 3097 1959 3097 
z
M 1959 3584 
Q 2709 3584 3137 3096 
Q 3566 2609 3566 1747 
Q 3566 888 3137 398 
Q 2709 -91 1959 -91 
Q 1206 -91 779 398 
Q 353 888 353 1747 
Q 353 2609 779 3096 
Q 1206 3584 1959 3584 
z
" transform="scale(0.015625)"/>
        <path id="DejaVuSans-73" d="M 2834 3397 
L 2834 2853 
Q 2591 2978 2328 3040 
Q 2066 3103 1784 3103 
Q 1356 3103 1142 2972 
Q 928 2841 928 2578 
Q 928 2378 1081 2264 
Q 1234 2150 1697 2047 
L 1894 2003 
Q 2506 1872 2764 1633 
Q 3022 1394 3022 966 
Q 3022 478 2636 193 
Q 2250 -91 1575 -91 
Q 1294 -91 989 -36 
Q 684 19 347 128 
L 347 722 
Q 666 556 975 473 
Q 1284 391 1588 391 
Q 1994 391 2212 530 
Q 2431 669 2431 922 
Q 2431 1156 2273 1281 
Q 2116 1406 1581 1522 
L 1381 1569 
Q 847 1681 609 1914 
Q 372 2147 372 2553 
Q 372 3047 722 3315 
Q 1072 3584 1716 3584 
Q 2034 3584 2315 3537 
Q 2597 3491 2834 3397 
z
" transform="scale(0.015625)"/>
        <path id="DejaVuSans-63" d="M 3122 3366 
L 3122 2828 
Q 2878 2963 2633 3030 
Q 2388 3097 2138 3097 
Q 1578 3097 1268 2742 
Q 959 2388 959 1747 
Q 959 1106 1268 751 
Q 1578 397 2138 397 
Q 2388 397 2633 464 
Q 2878 531 3122 666 
L 3122 134 
Q 2881 22 2623 -34 
Q 2366 -91 2075 -91 
Q 1284 -91 818 406 
Q 353 903 353 1747 
Q 353 2603 823 3093 
Q 1294 3584 2113 3584 
Q 2378 3584 2631 3529 
Q 2884 3475 3122 3366 
z
" transform="scale(0.015625)"/>
       </defs>
       <use xlink:href="#DejaVuSans-72"/>
       <use xlink:href="#DejaVuSans-6f" x="38.863281"/>
       <use xlink:href="#DejaVuSans-73" x="100.044922"/>
       <use xlink:href="#DejaVuSans-63" x="152.144531"/>
      </g>
     </g>
    </g>
    <g id="xtick_2">
     <g id="line2d_2">
      <g>
       <use xlink:href="#m235e5807ea" x="164.728003" y="513.34" style="stroke: #000000; stroke-width: 0.8"/>
      </g>
     </g>
     <g id="text_2">
      <!-- age -->
      <g transform="translate(168.039253 542.695625) rotate(-90) scale(0.12 -0.12)">
       <defs>
        <path id="DejaVuSans-61" d="M 2194 1759 
Q 1497 1759 1228 1600 
Q 959 1441 959 1056 
Q 959 750 1161 570 
Q 1363 391 1709 391 
Q 2188 391 2477 730 
Q 2766 1069 2766 1631 
L 2766 1759 
L 2194 1759 
z
M 3341 1997 
L 3341 0 
L 2766 0 
L 2766 531 
Q 2569 213 2275 61 
Q 1981 -91 1556 -91 
Q 1019 -91 701 211 
Q 384 513 384 1019 
Q 384 1609 779 1909 
Q 1175 2209 1959 2209 
L 2766 2209 
L 2766 2266 
Q 2766 2663 2505 2880 
Q 2244 3097 1772 3097 
Q 1472 3097 1187 3025 
Q 903 2953 641 2809 
L 641 3341 
Q 956 3463 1253 3523 
Q 1550 3584 1831 3584 
Q 2591 3584 2966 3190 
Q 3341 2797 3341 1997 
z
" transform="scale(0.015625)"/>
        <path id="DejaVuSans-67" d="M 2906 1791 
Q 2906 2416 2648 2759 
Q 2391 3103 1925 3103 
Q 1463 3103 1205 2759 
Q 947 2416 947 1791 
Q 947 1169 1205 825 
Q 1463 481 1925 481 
Q 2391 481 2648 825 
Q 2906 1169 2906 1791 
z
M 3481 434 
Q 3481 -459 3084 -895 
Q 2688 -1331 1869 -1331 
Q 1566 -1331 1297 -1286 
Q 1028 -1241 775 -1147 
L 775 -588 
Q 1028 -725 1275 -790 
Q 1522 -856 1778 -856 
Q 2344 -856 2625 -561 
Q 2906 -266 2906 331 
L 2906 616 
Q 2728 306 2450 153 
Q 2172 0 1784 0 
Q 1141 0 747 490 
Q 353 981 353 1791 
Q 353 2603 747 3093 
Q 1141 3584 1784 3584 
Q 2172 3584 2450 3431 
Q 2728 3278 2906 2969 
L 2906 3500 
L 3481 3500 
L 3481 434 
z
" transform="scale(0.015625)"/>
        <path id="DejaVuSans-65" d="M 3597 1894 
L 3597 1613 
L 953 1613 
Q 991 1019 1311 708 
Q 1631 397 2203 397 
Q 2534 397 2845 478 
Q 3156 559 3463 722 
L 3463 178 
Q 3153 47 2828 -22 
Q 2503 -91 2169 -91 
Q 1331 -91 842 396 
Q 353 884 353 1716 
Q 353 2575 817 3079 
Q 1281 3584 2069 3584 
Q 2775 3584 3186 3129 
Q 3597 2675 3597 1894 
z
M 3022 2063 
Q 3016 2534 2758 2815 
Q 2500 3097 2075 3097 
Q 1594 3097 1305 2825 
Q 1016 2553 972 2059 
L 3022 2063 
z
" transform="scale(0.015625)"/>
       </defs>
       <use xlink:href="#DejaVuSans-61"/>
       <use xlink:href="#DejaVuSans-67" x="61.279297"/>
       <use xlink:href="#DejaVuSans-65" x="124.755859"/>
      </g>
     </g>
    </g>
    <g id="xtick_3">
     <g id="line2d_3">
      <g>
       <use xlink:href="#m235e5807ea" x="212.875603" y="513.34" style="stroke: #000000; stroke-width: 0.8"/>
      </g>
     </g>
     <g id="text_3">
      <!-- shockable_rhythm_False -->
      <g transform="translate(216.019978 666.123125) rotate(-90) scale(0.12 -0.12)">
       <defs>
        <path id="DejaVuSans-68" d="M 3513 2113 
L 3513 0 
L 2938 0 
L 2938 2094 
Q 2938 2591 2744 2837 
Q 2550 3084 2163 3084 
Q 1697 3084 1428 2787 
Q 1159 2491 1159 1978 
L 1159 0 
L 581 0 
L 581 4863 
L 1159 4863 
L 1159 2956 
Q 1366 3272 1645 3428 
Q 1925 3584 2291 3584 
Q 2894 3584 3203 3211 
Q 3513 2838 3513 2113 
z
" transform="scale(0.015625)"/>
        <path id="DejaVuSans-6b" d="M 581 4863 
L 1159 4863 
L 1159 1991 
L 2875 3500 
L 3609 3500 
L 1753 1863 
L 3688 0 
L 2938 0 
L 1159 1709 
L 1159 0 
L 581 0 
L 581 4863 
z
" transform="scale(0.015625)"/>
        <path id="DejaVuSans-62" d="M 3116 1747 
Q 3116 2381 2855 2742 
Q 2594 3103 2138 3103 
Q 1681 3103 1420 2742 
Q 1159 2381 1159 1747 
Q 1159 1113 1420 752 
Q 1681 391 2138 391 
Q 2594 391 2855 752 
Q 3116 1113 3116 1747 
z
M 1159 2969 
Q 1341 3281 1617 3432 
Q 1894 3584 2278 3584 
Q 2916 3584 3314 3078 
Q 3713 2572 3713 1747 
Q 3713 922 3314 415 
Q 2916 -91 2278 -91 
Q 1894 -91 1617 61 
Q 1341 213 1159 525 
L 1159 0 
L 581 0 
L 581 4863 
L 1159 4863 
L 1159 2969 
z
" transform="scale(0.015625)"/>
        <path id="DejaVuSans-6c" d="M 603 4863 
L 1178 4863 
L 1178 0 
L 603 0 
L 603 4863 
z
" transform="scale(0.015625)"/>
        <path id="DejaVuSans-5f" d="M 3263 -1063 
L 3263 -1509 
L -63 -1509 
L -63 -1063 
L 3263 -1063 
z
" transform="scale(0.015625)"/>
        <path id="DejaVuSans-79" d="M 2059 -325 
Q 1816 -950 1584 -1140 
Q 1353 -1331 966 -1331 
L 506 -1331 
L 506 -850 
L 844 -850 
Q 1081 -850 1212 -737 
Q 1344 -625 1503 -206 
L 1606 56 
L 191 3500 
L 800 3500 
L 1894 763 
L 2988 3500 
L 3597 3500 
L 2059 -325 
z
" transform="scale(0.015625)"/>
        <path id="DejaVuSans-74" d="M 1172 4494 
L 1172 3500 
L 2356 3500 
L 2356 3053 
L 1172 3053 
L 1172 1153 
Q 1172 725 1289 603 
Q 1406 481 1766 481 
L 2356 481 
L 2356 0 
L 1766 0 
Q 1100 0 847 248 
Q 594 497 594 1153 
L 594 3053 
L 172 3053 
L 172 3500 
L 594 3500 
L 594 4494 
L 1172 4494 
z
" transform="scale(0.015625)"/>
        <path id="DejaVuSans-6d" d="M 3328 2828 
Q 3544 3216 3844 3400 
Q 4144 3584 4550 3584 
Q 5097 3584 5394 3201 
Q 5691 2819 5691 2113 
L 5691 0 
L 5113 0 
L 5113 2094 
Q 5113 2597 4934 2840 
Q 4756 3084 4391 3084 
Q 3944 3084 3684 2787 
Q 3425 2491 3425 1978 
L 3425 0 
L 2847 0 
L 2847 2094 
Q 2847 2600 2669 2842 
Q 2491 3084 2119 3084 
Q 1678 3084 1418 2786 
Q 1159 2488 1159 1978 
L 1159 0 
L 581 0 
L 581 3500 
L 1159 3500 
L 1159 2956 
Q 1356 3278 1631 3431 
Q 1906 3584 2284 3584 
Q 2666 3584 2933 3390 
Q 3200 3197 3328 2828 
z
" transform="scale(0.015625)"/>
        <path id="DejaVuSans-46" d="M 628 4666 
L 3309 4666 
L 3309 4134 
L 1259 4134 
L 1259 2759 
L 3109 2759 
L 3109 2228 
L 1259 2228 
L 1259 0 
L 628 0 
L 628 4666 
z
" transform="scale(0.015625)"/>
       </defs>
       <use xlink:href="#DejaVuSans-73"/>
       <use xlink:href="#DejaVuSans-68" x="52.099609"/>
       <use xlink:href="#DejaVuSans-6f" x="115.478516"/>
       <use xlink:href="#DejaVuSans-63" x="176.660156"/>
       <use xlink:href="#DejaVuSans-6b" x="231.640625"/>
       <use xlink:href="#DejaVuSans-61" x="287.800781"/>
       <use xlink:href="#DejaVuSans-62" x="349.080078"/>
       <use xlink:href="#DejaVuSans-6c" x="412.556641"/>
       <use xlink:href="#DejaVuSans-65" x="440.339844"/>
       <use xlink:href="#DejaVuSans-5f" x="501.863281"/>
       <use xlink:href="#DejaVuSans-72" x="551.863281"/>
       <use xlink:href="#DejaVuSans-68" x="591.226562"/>
       <use xlink:href="#DejaVuSans-79" x="654.605469"/>
       <use xlink:href="#DejaVuSans-74" x="713.785156"/>
       <use xlink:href="#DejaVuSans-68" x="752.994141"/>
       <use xlink:href="#DejaVuSans-6d" x="816.373047"/>
       <use xlink:href="#DejaVuSans-5f" x="913.785156"/>
       <use xlink:href="#DejaVuSans-46" x="963.785156"/>
       <use xlink:href="#DejaVuSans-61" x="1012.179688"/>
       <use xlink:href="#DejaVuSans-6c" x="1073.458984"/>
       <use xlink:href="#DejaVuSans-73" x="1101.242188"/>
       <use xlink:href="#DejaVuSans-65" x="1153.341797"/>
      </g>
     </g>
    </g>
    <g id="xtick_4">
     <g id="line2d_4">
      <g>
       <use xlink:href="#m235e5807ea" x="261.023202" y="513.34" style="stroke: #000000; stroke-width: 0.8"/>
      </g>
     </g>
     <g id="text_4">
      <!-- shockable_rhythm_True -->
      <g transform="translate(264.167577 661.475) rotate(-90) scale(0.12 -0.12)">
       <defs>
        <path id="DejaVuSans-54" d="M -19 4666 
L 3928 4666 
L 3928 4134 
L 2272 4134 
L 2272 0 
L 1638 0 
L 1638 4134 
L -19 4134 
L -19 4666 
z
" transform="scale(0.015625)"/>
        <path id="DejaVuSans-75" d="M 544 1381 
L 544 3500 
L 1119 3500 
L 1119 1403 
Q 1119 906 1312 657 
Q 1506 409 1894 409 
Q 2359 409 2629 706 
Q 2900 1003 2900 1516 
L 2900 3500 
L 3475 3500 
L 3475 0 
L 2900 0 
L 2900 538 
Q 2691 219 2414 64 
Q 2138 -91 1772 -91 
Q 1169 -91 856 284 
Q 544 659 544 1381 
z
M 1991 3584 
L 1991 3584 
z
" transform="scale(0.015625)"/>
       </defs>
       <use xlink:href="#DejaVuSans-73"/>
       <use xlink:href="#DejaVuSans-68" x="52.099609"/>
       <use xlink:href="#DejaVuSans-6f" x="115.478516"/>
       <use xlink:href="#DejaVuSans-63" x="176.660156"/>
       <use xlink:href="#DejaVuSans-6b" x="231.640625"/>
       <use xlink:href="#DejaVuSans-61" x="287.800781"/>
       <use xlink:href="#DejaVuSans-62" x="349.080078"/>
       <use xlink:href="#DejaVuSans-6c" x="412.556641"/>
       <use xlink:href="#DejaVuSans-65" x="440.339844"/>
       <use xlink:href="#DejaVuSans-5f" x="501.863281"/>
       <use xlink:href="#DejaVuSans-72" x="551.863281"/>
       <use xlink:href="#DejaVuSans-68" x="591.226562"/>
       <use xlink:href="#DejaVuSans-79" x="654.605469"/>
       <use xlink:href="#DejaVuSans-74" x="713.785156"/>
       <use xlink:href="#DejaVuSans-68" x="752.994141"/>
       <use xlink:href="#DejaVuSans-6d" x="816.373047"/>
       <use xlink:href="#DejaVuSans-5f" x="913.785156"/>
       <use xlink:href="#DejaVuSans-54" x="963.785156"/>
       <use xlink:href="#DejaVuSans-72" x="1010.119141"/>
       <use xlink:href="#DejaVuSans-75" x="1051.232422"/>
       <use xlink:href="#DejaVuSans-65" x="1114.611328"/>
      </g>
     </g>
    </g>
    <g id="xtick_5">
     <g id="line2d_5">
      <g>
       <use xlink:href="#m235e5807ea" x="309.170802" y="513.34" style="stroke: #000000; stroke-width: 0.8"/>
      </g>
     </g>
     <g id="text_5">
      <!-- hospital_A -->
      <g transform="translate(312.315177 582.09125) rotate(-90) scale(0.12 -0.12)">
       <defs>
        <path id="DejaVuSans-70" d="M 1159 525 
L 1159 -1331 
L 581 -1331 
L 581 3500 
L 1159 3500 
L 1159 2969 
Q 1341 3281 1617 3432 
Q 1894 3584 2278 3584 
Q 2916 3584 3314 3078 
Q 3713 2572 3713 1747 
Q 3713 922 3314 415 
Q 2916 -91 2278 -91 
Q 1894 -91 1617 61 
Q 1341 213 1159 525 
z
M 3116 1747 
Q 3116 2381 2855 2742 
Q 2594 3103 2138 3103 
Q 1681 3103 1420 2742 
Q 1159 2381 1159 1747 
Q 1159 1113 1420 752 
Q 1681 391 2138 391 
Q 2594 391 2855 752 
Q 3116 1113 3116 1747 
z
" transform="scale(0.015625)"/>
        <path id="DejaVuSans-69" d="M 603 3500 
L 1178 3500 
L 1178 0 
L 603 0 
L 603 3500 
z
M 603 4863 
L 1178 4863 
L 1178 4134 
L 603 4134 
L 603 4863 
z
" transform="scale(0.015625)"/>
        <path id="DejaVuSans-41" d="M 2188 4044 
L 1331 1722 
L 3047 1722 
L 2188 4044 
z
M 1831 4666 
L 2547 4666 
L 4325 0 
L 3669 0 
L 3244 1197 
L 1141 1197 
L 716 0 
L 50 0 
L 1831 4666 
z
" transform="scale(0.015625)"/>
       </defs>
       <use xlink:href="#DejaVuSans-68"/>
       <use xlink:href="#DejaVuSans-6f" x="63.378906"/>
       <use xlink:href="#DejaVuSans-73" x="124.560547"/>
       <use xlink:href="#DejaVuSans-70" x="176.660156"/>
       <use xlink:href="#DejaVuSans-69" x="240.136719"/>
       <use xlink:href="#DejaVuSans-74" x="267.919922"/>
       <use xlink:href="#DejaVuSans-61" x="307.128906"/>
       <use xlink:href="#DejaVuSans-6c" x="368.408203"/>
       <use xlink:href="#DejaVuSans-5f" x="396.191406"/>
       <use xlink:href="#DejaVuSans-41" x="446.191406"/>
      </g>
     </g>
    </g>
    <g id="xtick_6">
     <g id="line2d_6">
      <g>
       <use xlink:href="#m235e5807ea" x="357.318401" y="513.34" style="stroke: #000000; stroke-width: 0.8"/>
      </g>
     </g>
     <g id="text_6">
      <!-- hospital_D -->
      <g transform="translate(360.462776 583.1225) rotate(-90) scale(0.12 -0.12)">
       <defs>
        <path id="DejaVuSans-44" d="M 1259 4147 
L 1259 519 
L 2022 519 
Q 2988 519 3436 956 
Q 3884 1394 3884 2338 
Q 3884 3275 3436 3711 
Q 2988 4147 2022 4147 
L 1259 4147 
z
M 628 4666 
L 1925 4666 
Q 3281 4666 3915 4102 
Q 4550 3538 4550 2338 
Q 4550 1131 3912 565 
Q 3275 0 1925 0 
L 628 0 
L 628 4666 
z
" transform="scale(0.015625)"/>
       </defs>
       <use xlink:href="#DejaVuSans-68"/>
       <use xlink:href="#DejaVuSans-6f" x="63.378906"/>
       <use xlink:href="#DejaVuSans-73" x="124.560547"/>
       <use xlink:href="#DejaVuSans-70" x="176.660156"/>
       <use xlink:href="#DejaVuSans-69" x="240.136719"/>
       <use xlink:href="#DejaVuSans-74" x="267.919922"/>
       <use xlink:href="#DejaVuSans-61" x="307.128906"/>
       <use xlink:href="#DejaVuSans-6c" x="368.408203"/>
       <use xlink:href="#DejaVuSans-5f" x="396.191406"/>
       <use xlink:href="#DejaVuSans-44" x="446.191406"/>
      </g>
     </g>
    </g>
    <g id="xtick_7">
     <g id="line2d_7">
      <g>
       <use xlink:href="#m235e5807ea" x="405.466001" y="513.34" style="stroke: #000000; stroke-width: 0.8"/>
      </g>
     </g>
     <g id="text_7">
      <!-- hospital_E -->
      <g transform="translate(408.610376 581.465) rotate(-90) scale(0.12 -0.12)">
       <defs>
        <path id="DejaVuSans-45" d="M 628 4666 
L 3578 4666 
L 3578 4134 
L 1259 4134 
L 1259 2753 
L 3481 2753 
L 3481 2222 
L 1259 2222 
L 1259 531 
L 3634 531 
L 3634 0 
L 628 0 
L 628 4666 
z
" transform="scale(0.015625)"/>
       </defs>
       <use xlink:href="#DejaVuSans-68"/>
       <use xlink:href="#DejaVuSans-6f" x="63.378906"/>
       <use xlink:href="#DejaVuSans-73" x="124.560547"/>
       <use xlink:href="#DejaVuSans-70" x="176.660156"/>
       <use xlink:href="#DejaVuSans-69" x="240.136719"/>
       <use xlink:href="#DejaVuSans-74" x="267.919922"/>
       <use xlink:href="#DejaVuSans-61" x="307.128906"/>
       <use xlink:href="#DejaVuSans-6c" x="368.408203"/>
       <use xlink:href="#DejaVuSans-5f" x="396.191406"/>
       <use xlink:href="#DejaVuSans-45" x="446.191406"/>
      </g>
     </g>
    </g>
    <g id="xtick_8">
     <g id="line2d_8">
      <g>
       <use xlink:href="#m235e5807ea" x="453.613601" y="513.34" style="stroke: #000000; stroke-width: 0.8"/>
      </g>
     </g>
     <g id="text_8">
      <!-- ohca_True -->
      <g transform="translate(456.757976 580.720625) rotate(-90) scale(0.12 -0.12)">
       <use xlink:href="#DejaVuSans-6f"/>
       <use xlink:href="#DejaVuSans-68" x="61.181641"/>
       <use xlink:href="#DejaVuSans-63" x="124.560547"/>
       <use xlink:href="#DejaVuSans-61" x="179.541016"/>
       <use xlink:href="#DejaVuSans-5f" x="240.820312"/>
       <use xlink:href="#DejaVuSans-54" x="290.820312"/>
       <use xlink:href="#DejaVuSans-72" x="337.154297"/>
       <use xlink:href="#DejaVuSans-75" x="378.267578"/>
       <use xlink:href="#DejaVuSans-65" x="441.646484"/>
      </g>
     </g>
    </g>
    <g id="xtick_9">
     <g id="line2d_9">
      <g>
       <use xlink:href="#m235e5807ea" x="501.7612" y="513.34" style="stroke: #000000; stroke-width: 0.8"/>
      </g>
     </g>
     <g id="text_9">
      <!-- ohca_Unknown -->
      <g transform="translate(504.905575 610.941875) rotate(-90) scale(0.12 -0.12)">
       <defs>
        <path id="DejaVuSans-55" d="M 556 4666 
L 1191 4666 
L 1191 1831 
Q 1191 1081 1462 751 
Q 1734 422 2344 422 
Q 2950 422 3222 751 
Q 3494 1081 3494 1831 
L 3494 4666 
L 4128 4666 
L 4128 1753 
Q 4128 841 3676 375 
Q 3225 -91 2344 -91 
Q 1459 -91 1007 375 
Q 556 841 556 1753 
L 556 4666 
z
" transform="scale(0.015625)"/>
        <path id="DejaVuSans-6e" d="M 3513 2113 
L 3513 0 
L 2938 0 
L 2938 2094 
Q 2938 2591 2744 2837 
Q 2550 3084 2163 3084 
Q 1697 3084 1428 2787 
Q 1159 2491 1159 1978 
L 1159 0 
L 581 0 
L 581 3500 
L 1159 3500 
L 1159 2956 
Q 1366 3272 1645 3428 
Q 1925 3584 2291 3584 
Q 2894 3584 3203 3211 
Q 3513 2838 3513 2113 
z
" transform="scale(0.015625)"/>
        <path id="DejaVuSans-77" d="M 269 3500 
L 844 3500 
L 1563 769 
L 2278 3500 
L 2956 3500 
L 3675 769 
L 4391 3500 
L 4966 3500 
L 4050 0 
L 3372 0 
L 2619 2869 
L 1863 0 
L 1184 0 
L 269 3500 
z
" transform="scale(0.015625)"/>
       </defs>
       <use xlink:href="#DejaVuSans-6f"/>
       <use xlink:href="#DejaVuSans-68" x="61.181641"/>
       <use xlink:href="#DejaVuSans-63" x="124.560547"/>
       <use xlink:href="#DejaVuSans-61" x="179.541016"/>
       <use xlink:href="#DejaVuSans-5f" x="240.820312"/>
       <use xlink:href="#DejaVuSans-55" x="290.820312"/>
       <use xlink:href="#DejaVuSans-6e" x="364.013672"/>
       <use xlink:href="#DejaVuSans-6b" x="427.392578"/>
       <use xlink:href="#DejaVuSans-6e" x="485.302734"/>
       <use xlink:href="#DejaVuSans-6f" x="548.681641"/>
       <use xlink:href="#DejaVuSans-77" x="609.863281"/>
       <use xlink:href="#DejaVuSans-6e" x="691.650391"/>
      </g>
     </g>
    </g>
    <g id="xtick_10">
     <g id="line2d_10">
      <g>
       <use xlink:href="#m235e5807ea" x="549.9088" y="513.34" style="stroke: #000000; stroke-width: 0.8"/>
      </g>
     </g>
     <g id="text_10">
      <!-- hospital_B -->
      <g transform="translate(553.053175 582.115625) rotate(-90) scale(0.12 -0.12)">
       <defs>
        <path id="DejaVuSans-42" d="M 1259 2228 
L 1259 519 
L 2272 519 
Q 2781 519 3026 730 
Q 3272 941 3272 1375 
Q 3272 1813 3026 2020 
Q 2781 2228 2272 2228 
L 1259 2228 
z
M 1259 4147 
L 1259 2741 
L 2194 2741 
Q 2656 2741 2882 2914 
Q 3109 3088 3109 3444 
Q 3109 3797 2882 3972 
Q 2656 4147 2194 4147 
L 1259 4147 
z
M 628 4666 
L 2241 4666 
Q 2963 4666 3353 4366 
Q 3744 4066 3744 3513 
Q 3744 3084 3544 2831 
Q 3344 2578 2956 2516 
Q 3422 2416 3680 2098 
Q 3938 1781 3938 1306 
Q 3938 681 3513 340 
Q 3088 0 2303 0 
L 628 0 
L 628 4666 
z
" transform="scale(0.015625)"/>
       </defs>
       <use xlink:href="#DejaVuSans-68"/>
       <use xlink:href="#DejaVuSans-6f" x="63.378906"/>
       <use xlink:href="#DejaVuSans-73" x="124.560547"/>
       <use xlink:href="#DejaVuSans-70" x="176.660156"/>
       <use xlink:href="#DejaVuSans-69" x="240.136719"/>
       <use xlink:href="#DejaVuSans-74" x="267.919922"/>
       <use xlink:href="#DejaVuSans-61" x="307.128906"/>
       <use xlink:href="#DejaVuSans-6c" x="368.408203"/>
       <use xlink:href="#DejaVuSans-5f" x="396.191406"/>
       <use xlink:href="#DejaVuSans-42" x="446.191406"/>
      </g>
     </g>
    </g>
    <g id="xtick_11">
     <g id="line2d_11">
      <g>
       <use xlink:href="#m235e5807ea" x="598.056399" y="513.34" style="stroke: #000000; stroke-width: 0.8"/>
      </g>
     </g>
     <g id="text_11">
      <!-- ohca_False -->
      <g transform="translate(601.200774 585.36875) rotate(-90) scale(0.12 -0.12)">
       <use xlink:href="#DejaVuSans-6f"/>
       <use xlink:href="#DejaVuSans-68" x="61.181641"/>
       <use xlink:href="#DejaVuSans-63" x="124.560547"/>
       <use xlink:href="#DejaVuSans-61" x="179.541016"/>
       <use xlink:href="#DejaVuSans-5f" x="240.820312"/>
       <use xlink:href="#DejaVuSans-46" x="290.820312"/>
       <use xlink:href="#DejaVuSans-61" x="339.214844"/>
       <use xlink:href="#DejaVuSans-6c" x="400.494141"/>
       <use xlink:href="#DejaVuSans-73" x="428.277344"/>
       <use xlink:href="#DejaVuSans-65" x="480.376953"/>
      </g>
     </g>
    </g>
    <g id="xtick_12">
     <g id="line2d_12">
      <g>
       <use xlink:href="#m235e5807ea" x="646.203999" y="513.34" style="stroke: #000000; stroke-width: 0.8"/>
      </g>
     </g>
     <g id="text_12">
      <!-- sex_Male -->
      <g transform="translate(649.348374 575.2925) rotate(-90) scale(0.12 -0.12)">
       <defs>
        <path id="DejaVuSans-78" d="M 3513 3500 
L 2247 1797 
L 3578 0 
L 2900 0 
L 1881 1375 
L 863 0 
L 184 0 
L 1544 1831 
L 300 3500 
L 978 3500 
L 1906 2253 
L 2834 3500 
L 3513 3500 
z
" transform="scale(0.015625)"/>
        <path id="DejaVuSans-4d" d="M 628 4666 
L 1569 4666 
L 2759 1491 
L 3956 4666 
L 4897 4666 
L 4897 0 
L 4281 0 
L 4281 4097 
L 3078 897 
L 2444 897 
L 1241 4097 
L 1241 0 
L 628 0 
L 628 4666 
z
" transform="scale(0.015625)"/>
       </defs>
       <use xlink:href="#DejaVuSans-73"/>
       <use xlink:href="#DejaVuSans-65" x="52.099609"/>
       <use xlink:href="#DejaVuSans-78" x="111.873047"/>
       <use xlink:href="#DejaVuSans-5f" x="171.052734"/>
       <use xlink:href="#DejaVuSans-4d" x="221.052734"/>
       <use xlink:href="#DejaVuSans-61" x="307.332031"/>
       <use xlink:href="#DejaVuSans-6c" x="368.611328"/>
       <use xlink:href="#DejaVuSans-65" x="396.394531"/>
      </g>
     </g>
    </g>
    <g id="xtick_13">
     <g id="line2d_13">
      <g>
       <use xlink:href="#m235e5807ea" x="694.351599" y="513.34" style="stroke: #000000; stroke-width: 0.8"/>
      </g>
     </g>
     <g id="text_13">
      <!-- sex_Female -->
      <g transform="translate(697.495974 590.253125) rotate(-90) scale(0.12 -0.12)">
       <use xlink:href="#DejaVuSans-73"/>
       <use xlink:href="#DejaVuSans-65" x="52.099609"/>
       <use xlink:href="#DejaVuSans-78" x="111.873047"/>
       <use xlink:href="#DejaVuSans-5f" x="171.052734"/>
       <use xlink:href="#DejaVuSans-46" x="221.052734"/>
       <use xlink:href="#DejaVuSans-65" x="273.072266"/>
       <use xlink:href="#DejaVuSans-6d" x="334.595703"/>
       <use xlink:href="#DejaVuSans-61" x="432.007812"/>
       <use xlink:href="#DejaVuSans-6c" x="493.287109"/>
       <use xlink:href="#DejaVuSans-65" x="521.070312"/>
      </g>
     </g>
    </g>
    <g id="xtick_14">
     <g id="line2d_14">
      <g>
       <use xlink:href="#m235e5807ea" x="742.499198" y="513.34" style="stroke: #000000; stroke-width: 0.8"/>
      </g>
     </g>
     <g id="text_14">
      <!-- hospital_F -->
      <g transform="translate(745.643573 580.784375) rotate(-90) scale(0.12 -0.12)">
       <use xlink:href="#DejaVuSans-68"/>
       <use xlink:href="#DejaVuSans-6f" x="63.378906"/>
       <use xlink:href="#DejaVuSans-73" x="124.560547"/>
       <use xlink:href="#DejaVuSans-70" x="176.660156"/>
       <use xlink:href="#DejaVuSans-69" x="240.136719"/>
       <use xlink:href="#DejaVuSans-74" x="267.919922"/>
       <use xlink:href="#DejaVuSans-61" x="307.128906"/>
       <use xlink:href="#DejaVuSans-6c" x="368.408203"/>
       <use xlink:href="#DejaVuSans-5f" x="396.191406"/>
       <use xlink:href="#DejaVuSans-46" x="446.191406"/>
      </g>
     </g>
    </g>
    <g id="xtick_15">
     <g id="line2d_15">
      <g>
       <use xlink:href="#m235e5807ea" x="790.646798" y="513.34" style="stroke: #000000; stroke-width: 0.8"/>
      </g>
     </g>
     <g id="text_15">
      <!-- ttm_No TTM -->
      <g transform="translate(793.624298 592.37375) rotate(-90) scale(0.12 -0.12)">
       <defs>
        <path id="DejaVuSans-4e" d="M 628 4666 
L 1478 4666 
L 3547 763 
L 3547 4666 
L 4159 4666 
L 4159 0 
L 3309 0 
L 1241 3903 
L 1241 0 
L 628 0 
L 628 4666 
z
" transform="scale(0.015625)"/>
        <path id="DejaVuSans-20" transform="scale(0.015625)"/>
       </defs>
       <use xlink:href="#DejaVuSans-74"/>
       <use xlink:href="#DejaVuSans-74" x="39.208984"/>
       <use xlink:href="#DejaVuSans-6d" x="78.417969"/>
       <use xlink:href="#DejaVuSans-5f" x="175.830078"/>
       <use xlink:href="#DejaVuSans-4e" x="225.830078"/>
       <use xlink:href="#DejaVuSans-6f" x="300.634766"/>
       <use xlink:href="#DejaVuSans-20" x="361.816406"/>
       <use xlink:href="#DejaVuSans-54" x="393.603516"/>
       <use xlink:href="#DejaVuSans-54" x="452.9375"/>
       <use xlink:href="#DejaVuSans-4d" x="514.021484"/>
      </g>
     </g>
    </g>
    <g id="xtick_16">
     <g id="line2d_16">
      <g>
       <use xlink:href="#m235e5807ea" x="838.794397" y="513.34" style="stroke: #000000; stroke-width: 0.8"/>
      </g>
     </g>
     <g id="text_16">
      <!-- ttm_33.0 -->
      <g transform="translate(841.832835 574.15625) rotate(-90) scale(0.12 -0.12)">
       <defs>
        <path id="DejaVuSans-33" d="M 2597 2516 
Q 3050 2419 3304 2112 
Q 3559 1806 3559 1356 
Q 3559 666 3084 287 
Q 2609 -91 1734 -91 
Q 1441 -91 1130 -33 
Q 819 25 488 141 
L 488 750 
Q 750 597 1062 519 
Q 1375 441 1716 441 
Q 2309 441 2620 675 
Q 2931 909 2931 1356 
Q 2931 1769 2642 2001 
Q 2353 2234 1838 2234 
L 1294 2234 
L 1294 2753 
L 1863 2753 
Q 2328 2753 2575 2939 
Q 2822 3125 2822 3475 
Q 2822 3834 2567 4026 
Q 2313 4219 1838 4219 
Q 1578 4219 1281 4162 
Q 984 4106 628 3988 
L 628 4550 
Q 988 4650 1302 4700 
Q 1616 4750 1894 4750 
Q 2613 4750 3031 4423 
Q 3450 4097 3450 3541 
Q 3450 3153 3228 2886 
Q 3006 2619 2597 2516 
z
" transform="scale(0.015625)"/>
        <path id="DejaVuSans-2e" d="M 684 794 
L 1344 794 
L 1344 0 
L 684 0 
L 684 794 
z
" transform="scale(0.015625)"/>
        <path id="DejaVuSans-30" d="M 2034 4250 
Q 1547 4250 1301 3770 
Q 1056 3291 1056 2328 
Q 1056 1369 1301 889 
Q 1547 409 2034 409 
Q 2525 409 2770 889 
Q 3016 1369 3016 2328 
Q 3016 3291 2770 3770 
Q 2525 4250 2034 4250 
z
M 2034 4750 
Q 2819 4750 3233 4129 
Q 3647 3509 3647 2328 
Q 3647 1150 3233 529 
Q 2819 -91 2034 -91 
Q 1250 -91 836 529 
Q 422 1150 422 2328 
Q 422 3509 836 4129 
Q 1250 4750 2034 4750 
z
" transform="scale(0.015625)"/>
       </defs>
       <use xlink:href="#DejaVuSans-74"/>
       <use xlink:href="#DejaVuSans-74" x="39.208984"/>
       <use xlink:href="#DejaVuSans-6d" x="78.417969"/>
       <use xlink:href="#DejaVuSans-5f" x="175.830078"/>
       <use xlink:href="#DejaVuSans-33" x="225.830078"/>
       <use xlink:href="#DejaVuSans-33" x="289.453125"/>
       <use xlink:href="#DejaVuSans-2e" x="353.076172"/>
       <use xlink:href="#DejaVuSans-30" x="384.863281"/>
      </g>
     </g>
    </g>
    <g id="xtick_17">
     <g id="line2d_17">
      <g>
       <use xlink:href="#m235e5807ea" x="886.941997" y="513.34" style="stroke: #000000; stroke-width: 0.8"/>
      </g>
     </g>
     <g id="text_17">
      <!-- ttm_36.0 -->
      <g transform="translate(889.980434 574.15625) rotate(-90) scale(0.12 -0.12)">
       <defs>
        <path id="DejaVuSans-36" d="M 2113 2584 
Q 1688 2584 1439 2293 
Q 1191 2003 1191 1497 
Q 1191 994 1439 701 
Q 1688 409 2113 409 
Q 2538 409 2786 701 
Q 3034 994 3034 1497 
Q 3034 2003 2786 2293 
Q 2538 2584 2113 2584 
z
M 3366 4563 
L 3366 3988 
Q 3128 4100 2886 4159 
Q 2644 4219 2406 4219 
Q 1781 4219 1451 3797 
Q 1122 3375 1075 2522 
Q 1259 2794 1537 2939 
Q 1816 3084 2150 3084 
Q 2853 3084 3261 2657 
Q 3669 2231 3669 1497 
Q 3669 778 3244 343 
Q 2819 -91 2113 -91 
Q 1303 -91 875 529 
Q 447 1150 447 2328 
Q 447 3434 972 4092 
Q 1497 4750 2381 4750 
Q 2619 4750 2861 4703 
Q 3103 4656 3366 4563 
z
" transform="scale(0.015625)"/>
       </defs>
       <use xlink:href="#DejaVuSans-74"/>
       <use xlink:href="#DejaVuSans-74" x="39.208984"/>
       <use xlink:href="#DejaVuSans-6d" x="78.417969"/>
       <use xlink:href="#DejaVuSans-5f" x="175.830078"/>
       <use xlink:href="#DejaVuSans-33" x="225.830078"/>
       <use xlink:href="#DejaVuSans-36" x="289.453125"/>
       <use xlink:href="#DejaVuSans-2e" x="353.076172"/>
       <use xlink:href="#DejaVuSans-30" x="384.863281"/>
      </g>
     </g>
    </g>
    <g id="xtick_18">
     <g id="line2d_18">
      <g>
       <use xlink:href="#m235e5807ea" x="935.089597" y="513.34" style="stroke: #000000; stroke-width: 0.8"/>
      </g>
     </g>
     <g id="text_18">
      <!-- shockable_rhythm_Unknown -->
      <g transform="translate(938.233972 691.69625) rotate(-90) scale(0.12 -0.12)">
       <use xlink:href="#DejaVuSans-73"/>
       <use xlink:href="#DejaVuSans-68" x="52.099609"/>
       <use xlink:href="#DejaVuSans-6f" x="115.478516"/>
       <use xlink:href="#DejaVuSans-63" x="176.660156"/>
       <use xlink:href="#DejaVuSans-6b" x="231.640625"/>
       <use xlink:href="#DejaVuSans-61" x="287.800781"/>
       <use xlink:href="#DejaVuSans-62" x="349.080078"/>
       <use xlink:href="#DejaVuSans-6c" x="412.556641"/>
       <use xlink:href="#DejaVuSans-65" x="440.339844"/>
       <use xlink:href="#DejaVuSans-5f" x="501.863281"/>
       <use xlink:href="#DejaVuSans-72" x="551.863281"/>
       <use xlink:href="#DejaVuSans-68" x="591.226562"/>
       <use xlink:href="#DejaVuSans-79" x="654.605469"/>
       <use xlink:href="#DejaVuSans-74" x="713.785156"/>
       <use xlink:href="#DejaVuSans-68" x="752.994141"/>
       <use xlink:href="#DejaVuSans-6d" x="816.373047"/>
       <use xlink:href="#DejaVuSans-5f" x="913.785156"/>
       <use xlink:href="#DejaVuSans-55" x="963.785156"/>
       <use xlink:href="#DejaVuSans-6e" x="1036.978516"/>
       <use xlink:href="#DejaVuSans-6b" x="1100.357422"/>
       <use xlink:href="#DejaVuSans-6e" x="1158.267578"/>
       <use xlink:href="#DejaVuSans-6f" x="1221.646484"/>
       <use xlink:href="#DejaVuSans-77" x="1282.828125"/>
       <use xlink:href="#DejaVuSans-6e" x="1364.615234"/>
      </g>
     </g>
    </g>
    <g id="text_19">
     <!-- Features -->
     <g transform="translate(495.742656 706.334062) scale(0.14 -0.14)">
      <use xlink:href="#DejaVuSans-46"/>
      <use xlink:href="#DejaVuSans-65" x="52.019531"/>
      <use xlink:href="#DejaVuSans-61" x="113.542969"/>
      <use xlink:href="#DejaVuSans-74" x="174.822266"/>
      <use xlink:href="#DejaVuSans-75" x="214.03125"/>
      <use xlink:href="#DejaVuSans-72" x="277.410156"/>
      <use xlink:href="#DejaVuSans-65" x="316.273438"/>
      <use xlink:href="#DejaVuSans-73" x="377.796875"/>
     </g>
    </g>
   </g>
   <g id="matplotlib.axis_2">
    <g id="ytick_1">
     <g id="line2d_19">
      <defs>
       <path id="me69d1740d7" d="M 0 0 
L -3.5 0 
" style="stroke: #000000; stroke-width: 0.8"/>
      </defs>
      <g>
       <use xlink:href="#me69d1740d7" x="54.47" y="513.34" style="stroke: #000000; stroke-width: 0.8"/>
      </g>
     </g>
     <g id="text_20">
      <!-- 0.0 -->
      <g transform="translate(28.38625 517.899063) scale(0.12 -0.12)">
       <use xlink:href="#DejaVuSans-30"/>
       <use xlink:href="#DejaVuSans-2e" x="63.623047"/>
       <use xlink:href="#DejaVuSans-30" x="95.410156"/>
      </g>
     </g>
    </g>
    <g id="ytick_2">
     <g id="line2d_20">
      <g>
       <use xlink:href="#me69d1740d7" x="54.47" y="436.352698" style="stroke: #000000; stroke-width: 0.8"/>
      </g>
     </g>
     <g id="text_21">
      <!-- 0.5 -->
      <g transform="translate(28.38625 440.911761) scale(0.12 -0.12)">
       <defs>
        <path id="DejaVuSans-35" d="M 691 4666 
L 3169 4666 
L 3169 4134 
L 1269 4134 
L 1269 2991 
Q 1406 3038 1543 3061 
Q 1681 3084 1819 3084 
Q 2600 3084 3056 2656 
Q 3513 2228 3513 1497 
Q 3513 744 3044 326 
Q 2575 -91 1722 -91 
Q 1428 -91 1123 -41 
Q 819 9 494 109 
L 494 744 
Q 775 591 1075 516 
Q 1375 441 1709 441 
Q 2250 441 2565 725 
Q 2881 1009 2881 1497 
Q 2881 1984 2565 2268 
Q 2250 2553 1709 2553 
Q 1456 2553 1204 2497 
Q 953 2441 691 2322 
L 691 4666 
z
" transform="scale(0.015625)"/>
       </defs>
       <use xlink:href="#DejaVuSans-30"/>
       <use xlink:href="#DejaVuSans-2e" x="63.623047"/>
       <use xlink:href="#DejaVuSans-35" x="95.410156"/>
      </g>
     </g>
    </g>
    <g id="ytick_3">
     <g id="line2d_21">
      <g>
       <use xlink:href="#me69d1740d7" x="54.47" y="359.365397" style="stroke: #000000; stroke-width: 0.8"/>
      </g>
     </g>
     <g id="text_22">
      <!-- 1.0 -->
      <g transform="translate(28.38625 363.924459) scale(0.12 -0.12)">
       <defs>
        <path id="DejaVuSans-31" d="M 794 531 
L 1825 531 
L 1825 4091 
L 703 3866 
L 703 4441 
L 1819 4666 
L 2450 4666 
L 2450 531 
L 3481 531 
L 3481 0 
L 794 0 
L 794 531 
z
" transform="scale(0.015625)"/>
       </defs>
       <use xlink:href="#DejaVuSans-31"/>
       <use xlink:href="#DejaVuSans-2e" x="63.623047"/>
       <use xlink:href="#DejaVuSans-30" x="95.410156"/>
      </g>
     </g>
    </g>
    <g id="ytick_4">
     <g id="line2d_22">
      <g>
       <use xlink:href="#me69d1740d7" x="54.47" y="282.378095" style="stroke: #000000; stroke-width: 0.8"/>
      </g>
     </g>
     <g id="text_23">
      <!-- 1.5 -->
      <g transform="translate(28.38625 286.937158) scale(0.12 -0.12)">
       <use xlink:href="#DejaVuSans-31"/>
       <use xlink:href="#DejaVuSans-2e" x="63.623047"/>
       <use xlink:href="#DejaVuSans-35" x="95.410156"/>
      </g>
     </g>
    </g>
    <g id="ytick_5">
     <g id="line2d_23">
      <g>
       <use xlink:href="#me69d1740d7" x="54.47" y="205.390794" style="stroke: #000000; stroke-width: 0.8"/>
      </g>
     </g>
     <g id="text_24">
      <!-- 2.0 -->
      <g transform="translate(28.38625 209.949856) scale(0.12 -0.12)">
       <defs>
        <path id="DejaVuSans-32" d="M 1228 531 
L 3431 531 
L 3431 0 
L 469 0 
L 469 531 
Q 828 903 1448 1529 
Q 2069 2156 2228 2338 
Q 2531 2678 2651 2914 
Q 2772 3150 2772 3378 
Q 2772 3750 2511 3984 
Q 2250 4219 1831 4219 
Q 1534 4219 1204 4116 
Q 875 4013 500 3803 
L 500 4441 
Q 881 4594 1212 4672 
Q 1544 4750 1819 4750 
Q 2544 4750 2975 4387 
Q 3406 4025 3406 3419 
Q 3406 3131 3298 2873 
Q 3191 2616 2906 2266 
Q 2828 2175 2409 1742 
Q 1991 1309 1228 531 
z
" transform="scale(0.015625)"/>
       </defs>
       <use xlink:href="#DejaVuSans-32"/>
       <use xlink:href="#DejaVuSans-2e" x="63.623047"/>
       <use xlink:href="#DejaVuSans-30" x="95.410156"/>
      </g>
     </g>
    </g>
    <g id="ytick_6">
     <g id="line2d_24">
      <g>
       <use xlink:href="#me69d1740d7" x="54.47" y="128.403492" style="stroke: #000000; stroke-width: 0.8"/>
      </g>
     </g>
     <g id="text_25">
      <!-- 2.5 -->
      <g transform="translate(28.38625 132.962555) scale(0.12 -0.12)">
       <use xlink:href="#DejaVuSans-32"/>
       <use xlink:href="#DejaVuSans-2e" x="63.623047"/>
       <use xlink:href="#DejaVuSans-35" x="95.410156"/>
      </g>
     </g>
    </g>
    <g id="ytick_7">
     <g id="line2d_25">
      <g>
       <use xlink:href="#me69d1740d7" x="54.47" y="51.41619" style="stroke: #000000; stroke-width: 0.8"/>
      </g>
     </g>
     <g id="text_26">
      <!-- 3.0 -->
      <g transform="translate(28.38625 55.975253) scale(0.12 -0.12)">
       <use xlink:href="#DejaVuSans-33"/>
       <use xlink:href="#DejaVuSans-2e" x="63.623047"/>
       <use xlink:href="#DejaVuSans-30" x="95.410156"/>
      </g>
     </g>
    </g>
    <g id="text_27">
     <!-- Normalized Importance Score -->
     <g transform="translate(21.474687 374.694688) rotate(-90) scale(0.14 -0.14)">
      <defs>
       <path id="DejaVuSans-7a" d="M 353 3500 
L 3084 3500 
L 3084 2975 
L 922 459 
L 3084 459 
L 3084 0 
L 275 0 
L 275 525 
L 2438 3041 
L 353 3041 
L 353 3500 
z
" transform="scale(0.015625)"/>
       <path id="DejaVuSans-64" d="M 2906 2969 
L 2906 4863 
L 3481 4863 
L 3481 0 
L 2906 0 
L 2906 525 
Q 2725 213 2448 61 
Q 2172 -91 1784 -91 
Q 1150 -91 751 415 
Q 353 922 353 1747 
Q 353 2572 751 3078 
Q 1150 3584 1784 3584 
Q 2172 3584 2448 3432 
Q 2725 3281 2906 2969 
z
M 947 1747 
Q 947 1113 1208 752 
Q 1469 391 1925 391 
Q 2381 391 2643 752 
Q 2906 1113 2906 1747 
Q 2906 2381 2643 2742 
Q 2381 3103 1925 3103 
Q 1469 3103 1208 2742 
Q 947 2381 947 1747 
z
" transform="scale(0.015625)"/>
       <path id="DejaVuSans-49" d="M 628 4666 
L 1259 4666 
L 1259 0 
L 628 0 
L 628 4666 
z
" transform="scale(0.015625)"/>
       <path id="DejaVuSans-53" d="M 3425 4513 
L 3425 3897 
Q 3066 4069 2747 4153 
Q 2428 4238 2131 4238 
Q 1616 4238 1336 4038 
Q 1056 3838 1056 3469 
Q 1056 3159 1242 3001 
Q 1428 2844 1947 2747 
L 2328 2669 
Q 3034 2534 3370 2195 
Q 3706 1856 3706 1288 
Q 3706 609 3251 259 
Q 2797 -91 1919 -91 
Q 1588 -91 1214 -16 
Q 841 59 441 206 
L 441 856 
Q 825 641 1194 531 
Q 1563 422 1919 422 
Q 2459 422 2753 634 
Q 3047 847 3047 1241 
Q 3047 1584 2836 1778 
Q 2625 1972 2144 2069 
L 1759 2144 
Q 1053 2284 737 2584 
Q 422 2884 422 3419 
Q 422 4038 858 4394 
Q 1294 4750 2059 4750 
Q 2388 4750 2728 4690 
Q 3069 4631 3425 4513 
z
" transform="scale(0.015625)"/>
      </defs>
      <use xlink:href="#DejaVuSans-4e"/>
      <use xlink:href="#DejaVuSans-6f" x="74.804688"/>
      <use xlink:href="#DejaVuSans-72" x="135.986328"/>
      <use xlink:href="#DejaVuSans-6d" x="175.349609"/>
      <use xlink:href="#DejaVuSans-61" x="272.761719"/>
      <use xlink:href="#DejaVuSans-6c" x="334.041016"/>
      <use xlink:href="#DejaVuSans-69" x="361.824219"/>
      <use xlink:href="#DejaVuSans-7a" x="389.607422"/>
      <use xlink:href="#DejaVuSans-65" x="442.097656"/>
      <use xlink:href="#DejaVuSans-64" x="503.621094"/>
      <use xlink:href="#DejaVuSans-20" x="567.097656"/>
      <use xlink:href="#DejaVuSans-49" x="598.884766"/>
      <use xlink:href="#DejaVuSans-6d" x="628.376953"/>
      <use xlink:href="#DejaVuSans-70" x="725.789062"/>
      <use xlink:href="#DejaVuSans-6f" x="789.265625"/>
      <use xlink:href="#DejaVuSans-72" x="850.447266"/>
      <use xlink:href="#DejaVuSans-74" x="891.560547"/>
      <use xlink:href="#DejaVuSans-61" x="930.769531"/>
      <use xlink:href="#DejaVuSans-6e" x="992.048828"/>
      <use xlink:href="#DejaVuSans-63" x="1055.427734"/>
      <use xlink:href="#DejaVuSans-65" x="1110.408203"/>
      <use xlink:href="#DejaVuSans-20" x="1171.931641"/>
      <use xlink:href="#DejaVuSans-53" x="1203.71875"/>
      <use xlink:href="#DejaVuSans-63" x="1267.195312"/>
      <use xlink:href="#DejaVuSans-6f" x="1322.175781"/>
      <use xlink:href="#DejaVuSans-72" x="1383.357422"/>
      <use xlink:href="#DejaVuSans-65" x="1422.220703"/>
     </g>
    </g>
   </g>
   <g id="patch_57">
    <path d="M 54.47 513.34 
L 54.47 28.32 
" style="fill: none; stroke: #000000; stroke-width: 0.8; stroke-linejoin: miter; stroke-linecap: square"/>
   </g>
   <g id="patch_58">
    <path d="M 997.2 513.34 
L 997.2 28.32 
" style="fill: none; stroke: #000000; stroke-width: 0.8; stroke-linejoin: miter; stroke-linecap: square"/>
   </g>
   <g id="patch_59">
    <path d="M 54.47 513.34 
L 997.2 513.34 
" style="fill: none; stroke: #000000; stroke-width: 0.8; stroke-linejoin: miter; stroke-linecap: square"/>
   </g>
   <g id="patch_60">
    <path d="M 54.47 28.32 
L 997.2 28.32 
" style="fill: none; stroke: #000000; stroke-width: 0.8; stroke-linejoin: miter; stroke-linecap: square"/>
   </g>
   <g id="text_28">
    <!-- 3.00 -->
    <g transform="translate(105.447591 43.71746) scale(0.1 -0.1)">
     <use xlink:href="#DejaVuSans-33"/>
     <use xlink:href="#DejaVuSans-2e" x="63.623047"/>
     <use xlink:href="#DejaVuSans-30" x="95.410156"/>
     <use xlink:href="#DejaVuSans-30" x="159.033203"/>
    </g>
   </g>
   <g id="text_29">
    <!-- 0.92 -->
    <g transform="translate(153.595191 364.560525) scale(0.1 -0.1)">
     <defs>
      <path id="DejaVuSans-39" d="M 703 97 
L 703 672 
Q 941 559 1184 500 
Q 1428 441 1663 441 
Q 2288 441 2617 861 
Q 2947 1281 2994 2138 
Q 2813 1869 2534 1725 
Q 2256 1581 1919 1581 
Q 1219 1581 811 2004 
Q 403 2428 403 3163 
Q 403 3881 828 4315 
Q 1253 4750 1959 4750 
Q 2769 4750 3195 4129 
Q 3622 3509 3622 2328 
Q 3622 1225 3098 567 
Q 2575 -91 1691 -91 
Q 1453 -91 1209 -44 
Q 966 3 703 97 
z
M 1959 2075 
Q 2384 2075 2632 2365 
Q 2881 2656 2881 3163 
Q 2881 3666 2632 3958 
Q 2384 4250 1959 4250 
Q 1534 4250 1286 3958 
Q 1038 3666 1038 3163 
Q 1038 2656 1286 2365 
Q 1534 2075 1959 2075 
z
" transform="scale(0.015625)"/>
     </defs>
     <use xlink:href="#DejaVuSans-30"/>
     <use xlink:href="#DejaVuSans-2e" x="63.623047"/>
     <use xlink:href="#DejaVuSans-39" x="95.410156"/>
     <use xlink:href="#DejaVuSans-32" x="159.033203"/>
    </g>
   </g>
   <g id="text_30">
    <!-- 0.66 -->
    <g transform="translate(201.74279 404.747945) scale(0.1 -0.1)">
     <use xlink:href="#DejaVuSans-30"/>
     <use xlink:href="#DejaVuSans-2e" x="63.623047"/>
     <use xlink:href="#DejaVuSans-36" x="95.410156"/>
     <use xlink:href="#DejaVuSans-36" x="159.033203"/>
    </g>
   </g>
   <g id="text_31">
    <!-- 0.51 -->
    <g transform="translate(249.89039 426.755422) scale(0.1 -0.1)">
     <use xlink:href="#DejaVuSans-30"/>
     <use xlink:href="#DejaVuSans-2e" x="63.623047"/>
     <use xlink:href="#DejaVuSans-35" x="95.410156"/>
     <use xlink:href="#DejaVuSans-31" x="159.033203"/>
    </g>
   </g>
   <g id="text_32">
    <!-- 0.40 -->
    <g transform="translate(298.037989 443.504153) scale(0.1 -0.1)">
     <defs>
      <path id="DejaVuSans-34" d="M 2419 4116 
L 825 1625 
L 2419 1625 
L 2419 4116 
z
M 2253 4666 
L 3047 4666 
L 3047 1625 
L 3713 1625 
L 3713 1100 
L 3047 1100 
L 3047 0 
L 2419 0 
L 2419 1100 
L 313 1100 
L 313 1709 
L 2253 4666 
z
" transform="scale(0.015625)"/>
     </defs>
     <use xlink:href="#DejaVuSans-30"/>
     <use xlink:href="#DejaVuSans-2e" x="63.623047"/>
     <use xlink:href="#DejaVuSans-34" x="95.410156"/>
     <use xlink:href="#DejaVuSans-30" x="159.033203"/>
    </g>
   </g>
   <g id="text_33">
    <!-- Feature Importance Aggregated from Multiple Methods -->
    <g transform="translate(305.71125 22.32) scale(0.16 -0.16)">
     <defs>
      <path id="DejaVuSans-66" d="M 2375 4863 
L 2375 4384 
L 1825 4384 
Q 1516 4384 1395 4259 
Q 1275 4134 1275 3809 
L 1275 3500 
L 2222 3500 
L 2222 3053 
L 1275 3053 
L 1275 0 
L 697 0 
L 697 3053 
L 147 3053 
L 147 3500 
L 697 3500 
L 697 3744 
Q 697 4328 969 4595 
Q 1241 4863 1831 4863 
L 2375 4863 
z
" transform="scale(0.015625)"/>
     </defs>
     <use xlink:href="#DejaVuSans-46"/>
     <use xlink:href="#DejaVuSans-65" x="52.019531"/>
     <use xlink:href="#DejaVuSans-61" x="113.542969"/>
     <use xlink:href="#DejaVuSans-74" x="174.822266"/>
     <use xlink:href="#DejaVuSans-75" x="214.03125"/>
     <use xlink:href="#DejaVuSans-72" x="277.410156"/>
     <use xlink:href="#DejaVuSans-65" x="316.273438"/>
     <use xlink:href="#DejaVuSans-20" x="377.796875"/>
     <use xlink:href="#DejaVuSans-49" x="409.583984"/>
     <use xlink:href="#DejaVuSans-6d" x="439.076172"/>
     <use xlink:href="#DejaVuSans-70" x="536.488281"/>
     <use xlink:href="#DejaVuSans-6f" x="599.964844"/>
     <use xlink:href="#DejaVuSans-72" x="661.146484"/>
     <use xlink:href="#DejaVuSans-74" x="702.259766"/>
     <use xlink:href="#DejaVuSans-61" x="741.46875"/>
     <use xlink:href="#DejaVuSans-6e" x="802.748047"/>
     <use xlink:href="#DejaVuSans-63" x="866.126953"/>
     <use xlink:href="#DejaVuSans-65" x="921.107422"/>
     <use xlink:href="#DejaVuSans-20" x="982.630859"/>
     <use xlink:href="#DejaVuSans-41" x="1014.417969"/>
     <use xlink:href="#DejaVuSans-67" x="1082.826172"/>
     <use xlink:href="#DejaVuSans-67" x="1146.302734"/>
     <use xlink:href="#DejaVuSans-72" x="1209.779297"/>
     <use xlink:href="#DejaVuSans-65" x="1248.642578"/>
     <use xlink:href="#DejaVuSans-67" x="1310.166016"/>
     <use xlink:href="#DejaVuSans-61" x="1373.642578"/>
     <use xlink:href="#DejaVuSans-74" x="1434.921875"/>
     <use xlink:href="#DejaVuSans-65" x="1474.130859"/>
     <use xlink:href="#DejaVuSans-64" x="1535.654297"/>
     <use xlink:href="#DejaVuSans-20" x="1599.130859"/>
     <use xlink:href="#DejaVuSans-66" x="1630.917969"/>
     <use xlink:href="#DejaVuSans-72" x="1666.123047"/>
     <use xlink:href="#DejaVuSans-6f" x="1704.986328"/>
     <use xlink:href="#DejaVuSans-6d" x="1766.167969"/>
     <use xlink:href="#DejaVuSans-20" x="1863.580078"/>
     <use xlink:href="#DejaVuSans-4d" x="1895.367188"/>
     <use xlink:href="#DejaVuSans-75" x="1981.646484"/>
     <use xlink:href="#DejaVuSans-6c" x="2045.025391"/>
     <use xlink:href="#DejaVuSans-74" x="2072.808594"/>
     <use xlink:href="#DejaVuSans-69" x="2112.017578"/>
     <use xlink:href="#DejaVuSans-70" x="2139.800781"/>
     <use xlink:href="#DejaVuSans-6c" x="2203.277344"/>
     <use xlink:href="#DejaVuSans-65" x="2231.060547"/>
     <use xlink:href="#DejaVuSans-20" x="2292.583984"/>
     <use xlink:href="#DejaVuSans-4d" x="2324.371094"/>
     <use xlink:href="#DejaVuSans-65" x="2410.650391"/>
     <use xlink:href="#DejaVuSans-74" x="2472.173828"/>
     <use xlink:href="#DejaVuSans-68" x="2511.382812"/>
     <use xlink:href="#DejaVuSans-6f" x="2574.761719"/>
     <use xlink:href="#DejaVuSans-64" x="2635.943359"/>
     <use xlink:href="#DejaVuSans-73" x="2699.419922"/>
    </g>
   </g>
   <g id="legend_1">
    <g id="patch_61">
     <path d="M 804.57375 90.76125 
L 988.8 90.76125 
Q 991.2 90.76125 991.2 88.36125 
L 991.2 36.72 
Q 991.2 34.32 988.8 34.32 
L 804.57375 34.32 
Q 802.17375 34.32 802.17375 36.72 
L 802.17375 88.36125 
Q 802.17375 90.76125 804.57375 90.76125 
z
" style="fill: #ffffff; opacity: 0.8; stroke: #cccccc; stroke-linejoin: miter"/>
    </g>
    <g id="patch_62">
     <path d="M 806.97375 48.238125 
L 830.97375 48.238125 
L 830.97375 39.838125 
L 806.97375 39.838125 
z
" style="fill: #4db5bc"/>
    </g>
    <g id="text_34">
     <!-- Mutual Information -->
     <g transform="translate(840.57375 48.238125) scale(0.12 -0.12)">
      <use xlink:href="#DejaVuSans-4d"/>
      <use xlink:href="#DejaVuSans-75" x="86.279297"/>
      <use xlink:href="#DejaVuSans-74" x="149.658203"/>
      <use xlink:href="#DejaVuSans-75" x="188.867188"/>
      <use xlink:href="#DejaVuSans-61" x="252.246094"/>
      <use xlink:href="#DejaVuSans-6c" x="313.525391"/>
      <use xlink:href="#DejaVuSans-20" x="341.308594"/>
      <use xlink:href="#DejaVuSans-49" x="373.095703"/>
      <use xlink:href="#DejaVuSans-6e" x="402.587891"/>
      <use xlink:href="#DejaVuSans-66" x="465.966797"/>
      <use xlink:href="#DejaVuSans-6f" x="501.171875"/>
      <use xlink:href="#DejaVuSans-72" x="562.353516"/>
      <use xlink:href="#DejaVuSans-6d" x="601.716797"/>
      <use xlink:href="#DejaVuSans-61" x="699.128906"/>
      <use xlink:href="#DejaVuSans-74" x="760.408203"/>
      <use xlink:href="#DejaVuSans-69" x="799.617188"/>
      <use xlink:href="#DejaVuSans-6f" x="827.400391"/>
      <use xlink:href="#DejaVuSans-6e" x="888.582031"/>
     </g>
    </g>
    <g id="patch_63">
     <path d="M 806.97375 65.851875 
L 830.97375 65.851875 
L 830.97375 57.451875 
L 806.97375 57.451875 
z
" style="fill: #c7ecdc"/>
    </g>
    <g id="text_35">
     <!-- Random Forest -->
     <g transform="translate(840.57375 65.851875) scale(0.12 -0.12)">
      <defs>
       <path id="DejaVuSans-52" d="M 2841 2188 
Q 3044 2119 3236 1894 
Q 3428 1669 3622 1275 
L 4263 0 
L 3584 0 
L 2988 1197 
Q 2756 1666 2539 1819 
Q 2322 1972 1947 1972 
L 1259 1972 
L 1259 0 
L 628 0 
L 628 4666 
L 2053 4666 
Q 2853 4666 3247 4331 
Q 3641 3997 3641 3322 
Q 3641 2881 3436 2590 
Q 3231 2300 2841 2188 
z
M 1259 4147 
L 1259 2491 
L 2053 2491 
Q 2509 2491 2742 2702 
Q 2975 2913 2975 3322 
Q 2975 3731 2742 3939 
Q 2509 4147 2053 4147 
L 1259 4147 
z
" transform="scale(0.015625)"/>
      </defs>
      <use xlink:href="#DejaVuSans-52"/>
      <use xlink:href="#DejaVuSans-61" x="67.232422"/>
      <use xlink:href="#DejaVuSans-6e" x="128.511719"/>
      <use xlink:href="#DejaVuSans-64" x="191.890625"/>
      <use xlink:href="#DejaVuSans-6f" x="255.367188"/>
      <use xlink:href="#DejaVuSans-6d" x="316.548828"/>
      <use xlink:href="#DejaVuSans-20" x="413.960938"/>
      <use xlink:href="#DejaVuSans-46" x="445.748047"/>
      <use xlink:href="#DejaVuSans-6f" x="499.642578"/>
      <use xlink:href="#DejaVuSans-72" x="560.824219"/>
      <use xlink:href="#DejaVuSans-65" x="599.6875"/>
      <use xlink:href="#DejaVuSans-73" x="661.210938"/>
      <use xlink:href="#DejaVuSans-74" x="713.310547"/>
     </g>
    </g>
    <g id="patch_64">
     <path d="M 806.97375 83.465625 
L 830.97375 83.465625 
L 830.97375 75.065625 
L 806.97375 75.065625 
z
" style="fill: #ff876f"/>
    </g>
    <g id="text_36">
     <!-- Permutation Importance -->
     <g transform="translate(840.57375 83.465625) scale(0.12 -0.12)">
      <defs>
       <path id="DejaVuSans-50" d="M 1259 4147 
L 1259 2394 
L 2053 2394 
Q 2494 2394 2734 2622 
Q 2975 2850 2975 3272 
Q 2975 3691 2734 3919 
Q 2494 4147 2053 4147 
L 1259 4147 
z
M 628 4666 
L 2053 4666 
Q 2838 4666 3239 4311 
Q 3641 3956 3641 3272 
Q 3641 2581 3239 2228 
Q 2838 1875 2053 1875 
L 1259 1875 
L 1259 0 
L 628 0 
L 628 4666 
z
" transform="scale(0.015625)"/>
      </defs>
      <use xlink:href="#DejaVuSans-50"/>
      <use xlink:href="#DejaVuSans-65" x="56.677734"/>
      <use xlink:href="#DejaVuSans-72" x="118.201172"/>
      <use xlink:href="#DejaVuSans-6d" x="157.564453"/>
      <use xlink:href="#DejaVuSans-75" x="254.976562"/>
      <use xlink:href="#DejaVuSans-74" x="318.355469"/>
      <use xlink:href="#DejaVuSans-61" x="357.564453"/>
      <use xlink:href="#DejaVuSans-74" x="418.84375"/>
      <use xlink:href="#DejaVuSans-69" x="458.052734"/>
      <use xlink:href="#DejaVuSans-6f" x="485.835938"/>
      <use xlink:href="#DejaVuSans-6e" x="547.017578"/>
      <use xlink:href="#DejaVuSans-20" x="610.396484"/>
      <use xlink:href="#DejaVuSans-49" x="642.183594"/>
      <use xlink:href="#DejaVuSans-6d" x="671.675781"/>
      <use xlink:href="#DejaVuSans-70" x="769.087891"/>
      <use xlink:href="#DejaVuSans-6f" x="832.564453"/>
      <use xlink:href="#DejaVuSans-72" x="893.746094"/>
      <use xlink:href="#DejaVuSans-74" x="934.859375"/>
      <use xlink:href="#DejaVuSans-61" x="974.068359"/>
      <use xlink:href="#DejaVuSans-6e" x="1035.347656"/>
      <use xlink:href="#DejaVuSans-63" x="1098.726562"/>
      <use xlink:href="#DejaVuSans-65" x="1153.707031"/>
     </g>
    </g>
   </g>
  </g>
 </g>
 <defs>
  <clipPath id="pbe4c2f3dbf">
   <rect x="54.47" y="28.32" width="942.73" height="485.02"/>
  </clipPath>
 </defs>
</svg>
