<?xml version="1.0" encoding="UTF-8" standalone="no"?>
<!DOCTYPE svg PUBLIC "-//W3C//DTD SVG 1.1//EN"
 "http://www.w3.org/Graphics/SVG/1.1/DTD/svg11.dtd">
<!-- Generated by graphviz version 12.1.2 (20240928.0832)
 -->
<!-- Title: G Pages: 1 -->
<svg width="810pt" height="1532pt"
 viewBox="0.00 0.00 809.50 1532.00" xmlns="http://www.w3.org/2000/svg" xmlns:xlink="http://www.w3.org/1999/xlink">
<g id="graph0" class="graph" transform="scale(1 1) rotate(0) translate(4 1528)">
<title>G</title>
<polygon fill="white" stroke="none" points="-4,4 -4,-1528 805.5,-1528 805.5,4 -4,4"/>
<!-- dpi -->
<g id="node1" class="node">
<title>dpi</title>
<ellipse fill="none" stroke="black" cx="239.5" cy="-1482" rx="27" ry="18"/>
<text text-anchor="middle" x="239.5" y="-1476.95" font-family="Times New Roman,serif" font-size="14.00">dpi</text>
</g>
<!-- 1947959397840 -->
<g id="node2" class="node">
<title>1947959397840</title>
<polygon fill="none" stroke="black" points="284.5,-1440.5 284.5,-1523.5 540.5,-1523.5 540.5,-1440.5 284.5,-1440.5"/>
<polygon fill="black" stroke="none" points="284.5,-1440.5 284.5,-1523.5 540.5,-1523.5 540.5,-1440.5 284.5,-1440.5"/>
<polygon fill="black" stroke="none" points="286.5,-1481.5 286.5,-1521.5 538.5,-1521.5 538.5,-1481.5 286.5,-1481.5"/>
<polygon fill="none" stroke="black" points="286.5,-1481.5 286.5,-1521.5 538.5,-1521.5 538.5,-1481.5 286.5,-1481.5"/>
<text text-anchor="start" x="298.5" y="-1496.3" font-family="Helvetica,sans-Serif" font-weight="bold" font-size="16.00" fill="white">time_series_input</text>
<text text-anchor="start" x="435" y="-1496.3" font-family="Helvetica,sans-Serif" font-size="16.00" fill="white"> (InputLayer)</text>
<polygon fill="white" stroke="none" points="286.5,-1442.5 286.5,-1479.5 510.5,-1479.5 510.5,-1442.5 286.5,-1442.5"/>
<polygon fill="none" stroke="black" points="286.5,-1442.5 286.5,-1479.5 510.5,-1479.5 510.5,-1442.5 286.5,-1442.5"/>
<text text-anchor="start" x="310" y="-1456.2" font-family="Helvetica,sans-Serif" font-size="14.00">Output shape: </text>
<text text-anchor="start" x="399.25" y="-1456.2" font-family="Helvetica,sans-Serif" font-weight="bold" font-size="14.00">(None, 288, 3)</text>
</g>
<!-- 1947959397984 -->
<g id="node3" class="node">
<title>1947959397984</title>
<polygon fill="none" stroke="black" points="81.5,-1320.5 81.5,-1403.5 473.5,-1403.5 473.5,-1320.5 81.5,-1320.5"/>
<polygon fill="black" stroke="none" points="81.5,-1320.5 81.5,-1403.5 473.5,-1403.5 473.5,-1320.5 81.5,-1320.5"/>
<polygon fill="black" stroke="none" points="83.5,-1361.5 83.5,-1401.5 471.5,-1401.5 471.5,-1361.5 83.5,-1361.5"/>
<polygon fill="none" stroke="black" points="83.5,-1361.5 83.5,-1401.5 471.5,-1401.5 471.5,-1361.5 83.5,-1361.5"/>
<text text-anchor="start" x="190.12" y="-1376.3" font-family="Helvetica,sans-Serif" font-weight="bold" font-size="16.00" fill="white">not_equal_2</text>
<text text-anchor="start" x="283.88" y="-1376.3" font-family="Helvetica,sans-Serif" font-size="16.00" fill="white"> (NotEqual)</text>
<polygon fill="white" stroke="none" points="83.5,-1322.5 83.5,-1359.5 270.5,-1359.5 270.5,-1322.5 83.5,-1322.5"/>
<polygon fill="none" stroke="black" points="83.5,-1322.5 83.5,-1359.5 270.5,-1359.5 270.5,-1322.5 83.5,-1322.5"/>
<text text-anchor="start" x="94.12" y="-1336.2" font-family="Helvetica,sans-Serif" font-size="14.00">Input shape: </text>
<text text-anchor="start" x="172.12" y="-1336.2" font-family="Helvetica,sans-Serif" font-weight="bold" font-size="14.00">(None, 288, 3)</text>
<polygon fill="white" stroke="none" points="272.5,-1322.5 272.5,-1359.5 471.5,-1359.5 471.5,-1322.5 272.5,-1322.5"/>
<polygon fill="none" stroke="black" points="272.5,-1322.5 272.5,-1359.5 471.5,-1359.5 471.5,-1322.5 272.5,-1322.5"/>
<text text-anchor="start" x="283.5" y="-1336.2" font-family="Helvetica,sans-Serif" font-size="14.00">Output shape: </text>
<text text-anchor="start" x="372.75" y="-1336.2" font-family="Helvetica,sans-Serif" font-weight="bold" font-size="14.00">(None, 288, 3)</text>
</g>
<!-- 1947959397840&#45;&gt;1947959397984 -->
<g id="edge1" class="edge">
<title>1947959397840&#45;&gt;1947959397984</title>
<path fill="none" stroke="black" stroke-width="2" d="M379,-1440.03C379,-1440.03 379,-1416.77 379,-1416.77"/>
<polygon fill="black" stroke="black" stroke-width="2" points="382.5,-1416.77 379,-1406.77 375.5,-1416.77 382.5,-1416.77"/>
</g>
<!-- 1947959397504 -->
<g id="node4" class="node">
<title>1947959397504</title>
<polygon fill="none" stroke="black" points="395.5,-1200.5 395.5,-1283.5 787.5,-1283.5 787.5,-1200.5 395.5,-1200.5"/>
<polygon fill="black" stroke="none" points="395.5,-1200.5 395.5,-1283.5 787.5,-1283.5 787.5,-1200.5 395.5,-1200.5"/>
<polygon fill="black" stroke="none" points="397.5,-1241.5 397.5,-1281.5 785.5,-1281.5 785.5,-1241.5 397.5,-1241.5"/>
<polygon fill="none" stroke="black" points="397.5,-1241.5 397.5,-1281.5 785.5,-1281.5 785.5,-1241.5 397.5,-1241.5"/>
<text text-anchor="start" x="512" y="-1256.3" font-family="Helvetica,sans-Serif" font-weight="bold" font-size="16.00" fill="white">masking_2</text>
<text text-anchor="start" x="595.25" y="-1256.3" font-family="Helvetica,sans-Serif" font-size="16.00" fill="white"> (Masking)</text>
<polygon fill="white" stroke="none" points="397.5,-1202.5 397.5,-1239.5 584.5,-1239.5 584.5,-1202.5 397.5,-1202.5"/>
<polygon fill="none" stroke="black" points="397.5,-1202.5 397.5,-1239.5 584.5,-1239.5 584.5,-1202.5 397.5,-1202.5"/>
<text text-anchor="start" x="408.12" y="-1216.2" font-family="Helvetica,sans-Serif" font-size="14.00">Input shape: </text>
<text text-anchor="start" x="486.12" y="-1216.2" font-family="Helvetica,sans-Serif" font-weight="bold" font-size="14.00">(None, 288, 3)</text>
<polygon fill="white" stroke="none" points="586.5,-1202.5 586.5,-1239.5 785.5,-1239.5 785.5,-1202.5 586.5,-1202.5"/>
<polygon fill="none" stroke="black" points="586.5,-1202.5 586.5,-1239.5 785.5,-1239.5 785.5,-1202.5 586.5,-1202.5"/>
<text text-anchor="start" x="597.5" y="-1216.2" font-family="Helvetica,sans-Serif" font-size="14.00">Output shape: </text>
<text text-anchor="start" x="686.75" y="-1216.2" font-family="Helvetica,sans-Serif" font-weight="bold" font-size="14.00">(None, 288, 3)</text>
</g>
<!-- 1947959397840&#45;&gt;1947959397504 -->
<g id="edge2" class="edge">
<title>1947959397840&#45;&gt;1947959397504</title>
<path fill="none" stroke="black" stroke-width="2" d="M507,-1440.2C507,-1440.2 507,-1296.75 507,-1296.75"/>
<polygon fill="black" stroke="black" stroke-width="2" points="510.5,-1296.75 507,-1286.75 503.5,-1296.75 510.5,-1296.75"/>
</g>
<!-- 1947928458928 -->
<g id="node5" class="node">
<title>1947928458928</title>
<polygon fill="none" stroke="black" points="0,-1200.5 0,-1283.5 377,-1283.5 377,-1200.5 0,-1200.5"/>
<polygon fill="black" stroke="none" points="0,-1200.5 0,-1283.5 377,-1283.5 377,-1200.5 0,-1200.5"/>
<polygon fill="black" stroke="none" points="2,-1241.5 2,-1281.5 375,-1281.5 375,-1241.5 2,-1241.5"/>
<polygon fill="none" stroke="black" points="2,-1241.5 2,-1281.5 375,-1281.5 375,-1241.5 2,-1241.5"/>
<text text-anchor="start" x="153.25" y="-1256.3" font-family="Helvetica,sans-Serif" font-weight="bold" font-size="16.00" fill="white">any</text>
<text text-anchor="start" x="181" y="-1256.3" font-family="Helvetica,sans-Serif" font-size="16.00" fill="white"> (Any)</text>
<polygon fill="white" stroke="none" points="2,-1202.5 2,-1239.5 189,-1239.5 189,-1202.5 2,-1202.5"/>
<polygon fill="none" stroke="black" points="2,-1202.5 2,-1239.5 189,-1239.5 189,-1202.5 2,-1202.5"/>
<text text-anchor="start" x="12.62" y="-1216.2" font-family="Helvetica,sans-Serif" font-size="14.00">Input shape: </text>
<text text-anchor="start" x="90.62" y="-1216.2" font-family="Helvetica,sans-Serif" font-weight="bold" font-size="14.00">(None, 288, 3)</text>
<polygon fill="white" stroke="none" points="191,-1202.5 191,-1239.5 375,-1239.5 375,-1202.5 191,-1202.5"/>
<polygon fill="none" stroke="black" points="191,-1202.5 191,-1239.5 375,-1239.5 375,-1202.5 191,-1202.5"/>
<text text-anchor="start" x="202" y="-1216.2" font-family="Helvetica,sans-Serif" font-size="14.00">Output shape: </text>
<text text-anchor="start" x="291.25" y="-1216.2" font-family="Helvetica,sans-Serif" font-weight="bold" font-size="14.00">(None, 288)</text>
</g>
<!-- 1947959397984&#45;&gt;1947928458928 -->
<g id="edge3" class="edge">
<title>1947959397984&#45;&gt;1947928458928</title>
<path fill="none" stroke="black" stroke-width="2" d="M229.25,-1320.03C229.25,-1320.03 229.25,-1296.77 229.25,-1296.77"/>
<polygon fill="black" stroke="black" stroke-width="2" points="232.75,-1296.77 229.25,-1286.77 225.75,-1296.77 232.75,-1296.77"/>
</g>
<!-- 1947959399184 -->
<g id="node6" class="node">
<title>1947959399184</title>
<polygon fill="none" stroke="black" points="217,-1080.5 217,-1163.5 714,-1163.5 714,-1080.5 217,-1080.5"/>
<polygon fill="black" stroke="none" points="217,-1080.5 217,-1163.5 714,-1163.5 714,-1080.5 217,-1080.5"/>
<polygon fill="black" stroke="none" points="219,-1121.5 219,-1161.5 712,-1161.5 712,-1121.5 219,-1121.5"/>
<polygon fill="none" stroke="black" points="219,-1121.5 219,-1161.5 712,-1161.5 712,-1121.5 219,-1121.5"/>
<text text-anchor="start" x="411.12" y="-1136.3" font-family="Helvetica,sans-Serif" font-weight="bold" font-size="16.00" fill="white">lstm_4</text>
<text text-anchor="start" x="462.12" y="-1136.3" font-family="Helvetica,sans-Serif" font-size="16.00" fill="white"> (LSTM)</text>
<polygon fill="white" stroke="none" points="219,-1082.5 219,-1119.5 496,-1119.5 496,-1082.5 219,-1082.5"/>
<polygon fill="none" stroke="black" points="219,-1082.5 219,-1119.5 496,-1119.5 496,-1082.5 219,-1082.5"/>
<text text-anchor="start" x="230" y="-1096.2" font-family="Helvetica,sans-Serif" font-size="14.00">Input shape: </text>
<text text-anchor="start" x="308" y="-1096.2" font-family="Helvetica,sans-Serif" font-weight="bold" font-size="14.00">[(None, 288, 3), (None, 288)]</text>
<polygon fill="white" stroke="none" points="498,-1082.5 498,-1119.5 712,-1119.5 712,-1082.5 498,-1082.5"/>
<polygon fill="none" stroke="black" points="498,-1082.5 498,-1119.5 712,-1119.5 712,-1082.5 498,-1082.5"/>
<text text-anchor="start" x="509" y="-1096.2" font-family="Helvetica,sans-Serif" font-size="14.00">Output shape: </text>
<text text-anchor="start" x="598.25" y="-1096.2" font-family="Helvetica,sans-Serif" font-weight="bold" font-size="14.00">(None, 288, 128)</text>
</g>
<!-- 1947959397504&#45;&gt;1947959399184 -->
<g id="edge4" class="edge">
<title>1947959397504&#45;&gt;1947959399184</title>
<path fill="none" stroke="black" stroke-width="2" d="M554.75,-1200.03C554.75,-1200.03 554.75,-1176.77 554.75,-1176.77"/>
<polygon fill="black" stroke="black" stroke-width="2" points="558.25,-1176.77 554.75,-1166.77 551.25,-1176.77 558.25,-1176.77"/>
</g>
<!-- 1947928458928&#45;&gt;1947959399184 -->
<g id="edge5" class="edge">
<title>1947928458928&#45;&gt;1947959399184</title>
<path fill="none" stroke="black" stroke-width="2" d="M297,-1200.03C297,-1200.03 297,-1176.77 297,-1176.77"/>
<polygon fill="black" stroke="black" stroke-width="2" points="300.5,-1176.77 297,-1166.77 293.5,-1176.77 300.5,-1176.77"/>
</g>
<!-- 1947959378960 -->
<g id="node8" class="node">
<title>1947959378960</title>
<polygon fill="none" stroke="black" points="89.5,-960.5 89.5,-1043.5 563.5,-1043.5 563.5,-960.5 89.5,-960.5"/>
<polygon fill="black" stroke="none" points="89.5,-960.5 89.5,-1043.5 563.5,-1043.5 563.5,-960.5 89.5,-960.5"/>
<polygon fill="black" stroke="none" points="91.5,-1001.5 91.5,-1041.5 561.5,-1041.5 561.5,-1001.5 91.5,-1001.5"/>
<polygon fill="none" stroke="black" points="91.5,-1001.5 91.5,-1041.5 561.5,-1041.5 561.5,-1001.5 91.5,-1001.5"/>
<text text-anchor="start" x="272.12" y="-1016.3" font-family="Helvetica,sans-Serif" font-weight="bold" font-size="16.00" fill="white">lstm_5</text>
<text text-anchor="start" x="323.12" y="-1016.3" font-family="Helvetica,sans-Serif" font-size="16.00" fill="white"> (LSTM)</text>
<polygon fill="white" stroke="none" points="91.5,-962.5 91.5,-999.5 383.5,-999.5 383.5,-962.5 91.5,-962.5"/>
<polygon fill="none" stroke="black" points="91.5,-962.5 91.5,-999.5 383.5,-999.5 383.5,-962.5 91.5,-962.5"/>
<text text-anchor="start" x="102.5" y="-976.2" font-family="Helvetica,sans-Serif" font-size="14.00">Input shape: </text>
<text text-anchor="start" x="180.5" y="-976.2" font-family="Helvetica,sans-Serif" font-weight="bold" font-size="14.00">[(None, 288, 128), (None, 288)]</text>
<polygon fill="white" stroke="none" points="385.5,-962.5 385.5,-999.5 561.5,-999.5 561.5,-962.5 385.5,-962.5"/>
<polygon fill="none" stroke="black" points="385.5,-962.5 385.5,-999.5 561.5,-999.5 561.5,-962.5 385.5,-962.5"/>
<text text-anchor="start" x="396.25" y="-976.2" font-family="Helvetica,sans-Serif" font-size="14.00">Output shape: </text>
<text text-anchor="start" x="485.5" y="-976.2" font-family="Helvetica,sans-Serif" font-weight="bold" font-size="14.00">(None, 64)</text>
</g>
<!-- 1947928458928&#45;&gt;1947959378960 -->
<g id="edge7" class="edge">
<title>1947928458928&#45;&gt;1947959378960</title>
<path fill="none" stroke="black" stroke-width="2" d="M153.25,-1200.2C153.25,-1200.2 153.25,-1056.75 153.25,-1056.75"/>
<polygon fill="black" stroke="black" stroke-width="2" points="156.75,-1056.75 153.25,-1046.75 149.75,-1056.75 156.75,-1056.75"/>
</g>
<!-- 1947959399184&#45;&gt;1947959378960 -->
<g id="edge6" class="edge">
<title>1947959399184&#45;&gt;1947959378960</title>
<path fill="none" stroke="black" stroke-width="2" d="M390.25,-1080.03C390.25,-1080.03 390.25,-1056.77 390.25,-1056.77"/>
<polygon fill="black" stroke="black" stroke-width="2" points="393.75,-1056.77 390.25,-1046.77 386.75,-1056.77 393.75,-1056.77"/>
</g>
<!-- 1947928461136 -->
<g id="node7" class="node">
<title>1947928461136</title>
<polygon fill="none" stroke="black" points="581.5,-960.5 581.5,-1043.5 801.5,-1043.5 801.5,-960.5 581.5,-960.5"/>
<polygon fill="black" stroke="none" points="581.5,-960.5 581.5,-1043.5 801.5,-1043.5 801.5,-960.5 581.5,-960.5"/>
<polygon fill="black" stroke="none" points="583.5,-1001.5 583.5,-1041.5 799.5,-1041.5 799.5,-1001.5 583.5,-1001.5"/>
<polygon fill="none" stroke="black" points="583.5,-1001.5 583.5,-1041.5 799.5,-1041.5 799.5,-1001.5 583.5,-1001.5"/>
<text text-anchor="start" x="595.12" y="-1016.3" font-family="Helvetica,sans-Serif" font-weight="bold" font-size="16.00" fill="white">tabular_input</text>
<text text-anchor="start" x="696.38" y="-1016.3" font-family="Helvetica,sans-Serif" font-size="16.00" fill="white"> (InputLayer)</text>
<polygon fill="white" stroke="none" points="583.5,-962.5 583.5,-999.5 778.5,-999.5 778.5,-962.5 583.5,-962.5"/>
<polygon fill="none" stroke="black" points="583.5,-962.5 583.5,-999.5 778.5,-999.5 778.5,-962.5 583.5,-962.5"/>
<text text-anchor="start" x="603.75" y="-976.2" font-family="Helvetica,sans-Serif" font-size="14.00">Output shape: </text>
<text text-anchor="start" x="693" y="-976.2" font-family="Helvetica,sans-Serif" font-weight="bold" font-size="14.00">(None, 13)</text>
</g>
<!-- 1947959401584 -->
<g id="node9" class="node">
<title>1947959401584</title>
<polygon fill="none" stroke="black" points="294,-840.5 294,-923.5 723,-923.5 723,-840.5 294,-840.5"/>
<polygon fill="black" stroke="none" points="294,-840.5 294,-923.5 723,-923.5 723,-840.5 294,-840.5"/>
<polygon fill="black" stroke="none" points="296,-881.5 296,-921.5 721,-921.5 721,-881.5 296,-881.5"/>
<polygon fill="none" stroke="black" points="296,-881.5 296,-921.5 721,-921.5 721,-881.5 296,-881.5"/>
<text text-anchor="start" x="399.38" y="-896.3" font-family="Helvetica,sans-Serif" font-weight="bold" font-size="16.00" fill="white">concatenate_2</text>
<text text-anchor="start" x="511.12" y="-896.3" font-family="Helvetica,sans-Serif" font-size="16.00" fill="white"> (Concatenate)</text>
<polygon fill="white" stroke="none" points="296,-842.5 296,-879.5 543,-879.5 543,-842.5 296,-842.5"/>
<polygon fill="none" stroke="black" points="296,-842.5 296,-879.5 543,-879.5 543,-842.5 296,-842.5"/>
<text text-anchor="start" x="307" y="-856.2" font-family="Helvetica,sans-Serif" font-size="14.00">Input shape: </text>
<text text-anchor="start" x="385" y="-856.2" font-family="Helvetica,sans-Serif" font-weight="bold" font-size="14.00">[(None, 13), (None, 64)]</text>
<polygon fill="white" stroke="none" points="545,-842.5 545,-879.5 721,-879.5 721,-842.5 545,-842.5"/>
<polygon fill="none" stroke="black" points="545,-842.5 545,-879.5 721,-879.5 721,-842.5 545,-842.5"/>
<text text-anchor="start" x="555.75" y="-856.2" font-family="Helvetica,sans-Serif" font-size="14.00">Output shape: </text>
<text text-anchor="start" x="645" y="-856.2" font-family="Helvetica,sans-Serif" font-weight="bold" font-size="14.00">(None, 77)</text>
</g>
<!-- 1947928461136&#45;&gt;1947959401584 -->
<g id="edge8" class="edge">
<title>1947928461136&#45;&gt;1947959401584</title>
<path fill="none" stroke="black" stroke-width="2" d="M652.25,-960.03C652.25,-960.03 652.25,-936.77 652.25,-936.77"/>
<polygon fill="black" stroke="black" stroke-width="2" points="655.75,-936.77 652.25,-926.77 648.75,-936.77 655.75,-936.77"/>
</g>
<!-- 1947959378960&#45;&gt;1947959401584 -->
<g id="edge9" class="edge">
<title>1947959378960&#45;&gt;1947959401584</title>
<path fill="none" stroke="black" stroke-width="2" d="M428.75,-960.03C428.75,-960.03 428.75,-936.77 428.75,-936.77"/>
<polygon fill="black" stroke="black" stroke-width="2" points="432.25,-936.77 428.75,-926.77 425.25,-936.77 432.25,-936.77"/>
</g>
<!-- 1947959382944 -->
<g id="node10" class="node">
<title>1947959382944</title>
<polygon fill="none" stroke="black" points="335,-720.5 335,-803.5 682,-803.5 682,-720.5 335,-720.5"/>
<polygon fill="black" stroke="none" points="335,-720.5 335,-803.5 682,-803.5 682,-720.5 335,-720.5"/>
<polygon fill="black" stroke="none" points="337,-761.5 337,-801.5 680,-801.5 680,-761.5 337,-761.5"/>
<polygon fill="none" stroke="black" points="337,-761.5 337,-801.5 680,-801.5 680,-761.5 337,-761.5"/>
<text text-anchor="start" x="445.5" y="-776.3" font-family="Helvetica,sans-Serif" font-weight="bold" font-size="16.00" fill="white">dense_6</text>
<text text-anchor="start" x="510" y="-776.3" font-family="Helvetica,sans-Serif" font-size="16.00" fill="white"> (Dense)</text>
<polygon fill="white" stroke="none" points="337,-722.5 337,-759.5 502,-759.5 502,-722.5 337,-722.5"/>
<polygon fill="none" stroke="black" points="337,-722.5 337,-759.5 502,-759.5 502,-722.5 337,-722.5"/>
<text text-anchor="start" x="347.88" y="-736.2" font-family="Helvetica,sans-Serif" font-size="14.00">Input shape: </text>
<text text-anchor="start" x="425.88" y="-736.2" font-family="Helvetica,sans-Serif" font-weight="bold" font-size="14.00">(None, 77)</text>
<polygon fill="white" stroke="none" points="504,-722.5 504,-759.5 680,-759.5 680,-722.5 504,-722.5"/>
<polygon fill="none" stroke="black" points="504,-722.5 504,-759.5 680,-759.5 680,-722.5 504,-722.5"/>
<text text-anchor="start" x="514.75" y="-736.2" font-family="Helvetica,sans-Serif" font-size="14.00">Output shape: </text>
<text text-anchor="start" x="604" y="-736.2" font-family="Helvetica,sans-Serif" font-weight="bold" font-size="14.00">(None, 32)</text>
</g>
<!-- 1947959401584&#45;&gt;1947959382944 -->
<g id="edge10" class="edge">
<title>1947959401584&#45;&gt;1947959382944</title>
<path fill="none" stroke="black" stroke-width="2" d="M508.5,-840.03C508.5,-840.03 508.5,-816.77 508.5,-816.77"/>
<polygon fill="black" stroke="black" stroke-width="2" points="512,-816.77 508.5,-806.77 505,-816.77 512,-816.77"/>
</g>
<!-- 1947959400864 -->
<g id="node11" class="node">
<title>1947959400864</title>
<polygon fill="none" stroke="black" points="335,-600.5 335,-683.5 682,-683.5 682,-600.5 335,-600.5"/>
<polygon fill="black" stroke="none" points="335,-600.5 335,-683.5 682,-683.5 682,-600.5 335,-600.5"/>
<polygon fill="black" stroke="none" points="337,-641.5 337,-681.5 680,-681.5 680,-641.5 337,-641.5"/>
<polygon fill="none" stroke="black" points="337,-641.5 337,-681.5 680,-681.5 680,-641.5 337,-641.5"/>
<text text-anchor="start" x="433.5" y="-656.3" font-family="Helvetica,sans-Serif" font-weight="bold" font-size="16.00" fill="white">dropout_3</text>
<text text-anchor="start" x="511.5" y="-656.3" font-family="Helvetica,sans-Serif" font-size="16.00" fill="white"> (Dropout)</text>
<polygon fill="white" stroke="none" points="337,-602.5 337,-639.5 502,-639.5 502,-602.5 337,-602.5"/>
<polygon fill="none" stroke="black" points="337,-602.5 337,-639.5 502,-639.5 502,-602.5 337,-602.5"/>
<text text-anchor="start" x="347.88" y="-616.2" font-family="Helvetica,sans-Serif" font-size="14.00">Input shape: </text>
<text text-anchor="start" x="425.88" y="-616.2" font-family="Helvetica,sans-Serif" font-weight="bold" font-size="14.00">(None, 32)</text>
<polygon fill="white" stroke="none" points="504,-602.5 504,-639.5 680,-639.5 680,-602.5 504,-602.5"/>
<polygon fill="none" stroke="black" points="504,-602.5 504,-639.5 680,-639.5 680,-602.5 504,-602.5"/>
<text text-anchor="start" x="514.75" y="-616.2" font-family="Helvetica,sans-Serif" font-size="14.00">Output shape: </text>
<text text-anchor="start" x="604" y="-616.2" font-family="Helvetica,sans-Serif" font-weight="bold" font-size="14.00">(None, 32)</text>
</g>
<!-- 1947959382944&#45;&gt;1947959400864 -->
<g id="edge11" class="edge">
<title>1947959382944&#45;&gt;1947959400864</title>
<path fill="none" stroke="black" stroke-width="2" d="M508.5,-720.03C508.5,-720.03 508.5,-696.77 508.5,-696.77"/>
<polygon fill="black" stroke="black" stroke-width="2" points="512,-696.77 508.5,-686.77 505,-696.77 512,-696.77"/>
</g>
<!-- 1947959405328 -->
<g id="node12" class="node">
<title>1947959405328</title>
<polygon fill="none" stroke="black" points="335,-480.5 335,-563.5 682,-563.5 682,-480.5 335,-480.5"/>
<polygon fill="black" stroke="none" points="335,-480.5 335,-563.5 682,-563.5 682,-480.5 335,-480.5"/>
<polygon fill="black" stroke="none" points="337,-521.5 337,-561.5 680,-561.5 680,-521.5 337,-521.5"/>
<polygon fill="none" stroke="black" points="337,-521.5 337,-561.5 680,-561.5 680,-521.5 337,-521.5"/>
<text text-anchor="start" x="445.5" y="-536.3" font-family="Helvetica,sans-Serif" font-weight="bold" font-size="16.00" fill="white">dense_7</text>
<text text-anchor="start" x="510" y="-536.3" font-family="Helvetica,sans-Serif" font-size="16.00" fill="white"> (Dense)</text>
<polygon fill="white" stroke="none" points="337,-482.5 337,-519.5 502,-519.5 502,-482.5 337,-482.5"/>
<polygon fill="none" stroke="black" points="337,-482.5 337,-519.5 502,-519.5 502,-482.5 337,-482.5"/>
<text text-anchor="start" x="347.88" y="-496.2" font-family="Helvetica,sans-Serif" font-size="14.00">Input shape: </text>
<text text-anchor="start" x="425.88" y="-496.2" font-family="Helvetica,sans-Serif" font-weight="bold" font-size="14.00">(None, 32)</text>
<polygon fill="white" stroke="none" points="504,-482.5 504,-519.5 680,-519.5 680,-482.5 504,-482.5"/>
<polygon fill="none" stroke="black" points="504,-482.5 504,-519.5 680,-519.5 680,-482.5 504,-482.5"/>
<text text-anchor="start" x="514.75" y="-496.2" font-family="Helvetica,sans-Serif" font-size="14.00">Output shape: </text>
<text text-anchor="start" x="604" y="-496.2" font-family="Helvetica,sans-Serif" font-weight="bold" font-size="14.00">(None, 16)</text>
</g>
<!-- 1947959400864&#45;&gt;1947959405328 -->
<g id="edge12" class="edge">
<title>1947959400864&#45;&gt;1947959405328</title>
<path fill="none" stroke="black" stroke-width="2" d="M508.5,-600.03C508.5,-600.03 508.5,-576.77 508.5,-576.77"/>
<polygon fill="black" stroke="black" stroke-width="2" points="512,-576.77 508.5,-566.77 505,-576.77 512,-576.77"/>
</g>
<!-- 1947959405424 -->
<g id="node13" class="node">
<title>1947959405424</title>
<polygon fill="none" stroke="black" points="335,-360.5 335,-443.5 682,-443.5 682,-360.5 335,-360.5"/>
<polygon fill="black" stroke="none" points="335,-360.5 335,-443.5 682,-443.5 682,-360.5 335,-360.5"/>
<polygon fill="black" stroke="none" points="337,-401.5 337,-441.5 680,-441.5 680,-401.5 337,-401.5"/>
<polygon fill="none" stroke="black" points="337,-401.5 337,-441.5 680,-441.5 680,-401.5 337,-401.5"/>
<text text-anchor="start" x="433.5" y="-416.3" font-family="Helvetica,sans-Serif" font-weight="bold" font-size="16.00" fill="white">dropout_4</text>
<text text-anchor="start" x="511.5" y="-416.3" font-family="Helvetica,sans-Serif" font-size="16.00" fill="white"> (Dropout)</text>
<polygon fill="white" stroke="none" points="337,-362.5 337,-399.5 502,-399.5 502,-362.5 337,-362.5"/>
<polygon fill="none" stroke="black" points="337,-362.5 337,-399.5 502,-399.5 502,-362.5 337,-362.5"/>
<text text-anchor="start" x="347.88" y="-376.2" font-family="Helvetica,sans-Serif" font-size="14.00">Input shape: </text>
<text text-anchor="start" x="425.88" y="-376.2" font-family="Helvetica,sans-Serif" font-weight="bold" font-size="14.00">(None, 16)</text>
<polygon fill="white" stroke="none" points="504,-362.5 504,-399.5 680,-399.5 680,-362.5 504,-362.5"/>
<polygon fill="none" stroke="black" points="504,-362.5 504,-399.5 680,-399.5 680,-362.5 504,-362.5"/>
<text text-anchor="start" x="514.75" y="-376.2" font-family="Helvetica,sans-Serif" font-size="14.00">Output shape: </text>
<text text-anchor="start" x="604" y="-376.2" font-family="Helvetica,sans-Serif" font-weight="bold" font-size="14.00">(None, 16)</text>
</g>
<!-- 1947959405328&#45;&gt;1947959405424 -->
<g id="edge13" class="edge">
<title>1947959405328&#45;&gt;1947959405424</title>
<path fill="none" stroke="black" stroke-width="2" d="M508.5,-480.03C508.5,-480.03 508.5,-456.77 508.5,-456.77"/>
<polygon fill="black" stroke="black" stroke-width="2" points="512,-456.77 508.5,-446.77 505,-456.77 512,-456.77"/>
</g>
<!-- 1947959407200 -->
<g id="node14" class="node">
<title>1947959407200</title>
<polygon fill="none" stroke="black" points="338.5,-240.5 338.5,-323.5 678.5,-323.5 678.5,-240.5 338.5,-240.5"/>
<polygon fill="black" stroke="none" points="338.5,-240.5 338.5,-323.5 678.5,-323.5 678.5,-240.5 338.5,-240.5"/>
<polygon fill="black" stroke="none" points="340.5,-281.5 340.5,-321.5 676.5,-321.5 676.5,-281.5 340.5,-281.5"/>
<polygon fill="none" stroke="black" points="340.5,-281.5 340.5,-321.5 676.5,-321.5 676.5,-281.5 340.5,-281.5"/>
<text text-anchor="start" x="445.5" y="-296.3" font-family="Helvetica,sans-Serif" font-weight="bold" font-size="16.00" fill="white">dense_8</text>
<text text-anchor="start" x="510" y="-296.3" font-family="Helvetica,sans-Serif" font-size="16.00" fill="white"> (Dense)</text>
<polygon fill="white" stroke="none" points="340.5,-242.5 340.5,-279.5 505.5,-279.5 505.5,-242.5 340.5,-242.5"/>
<polygon fill="none" stroke="black" points="340.5,-242.5 340.5,-279.5 505.5,-279.5 505.5,-242.5 340.5,-242.5"/>
<text text-anchor="start" x="351.38" y="-256.2" font-family="Helvetica,sans-Serif" font-size="14.00">Input shape: </text>
<text text-anchor="start" x="429.38" y="-256.2" font-family="Helvetica,sans-Serif" font-weight="bold" font-size="14.00">(None, 16)</text>
<polygon fill="white" stroke="none" points="507.5,-242.5 507.5,-279.5 676.5,-279.5 676.5,-242.5 507.5,-242.5"/>
<polygon fill="none" stroke="black" points="507.5,-242.5 507.5,-279.5 676.5,-279.5 676.5,-242.5 507.5,-242.5"/>
<text text-anchor="start" x="518.5" y="-256.2" font-family="Helvetica,sans-Serif" font-size="14.00">Output shape: </text>
<text text-anchor="start" x="607.75" y="-256.2" font-family="Helvetica,sans-Serif" font-weight="bold" font-size="14.00">(None, 8)</text>
</g>
<!-- 1947959405424&#45;&gt;1947959407200 -->
<g id="edge14" class="edge">
<title>1947959405424&#45;&gt;1947959407200</title>
<path fill="none" stroke="black" stroke-width="2" d="M508.5,-360.03C508.5,-360.03 508.5,-336.77 508.5,-336.77"/>
<polygon fill="black" stroke="black" stroke-width="2" points="512,-336.77 508.5,-326.77 505,-336.77 512,-336.77"/>
</g>
<!-- 1947959407824 -->
<g id="node15" class="node">
<title>1947959407824</title>
<polygon fill="none" stroke="black" points="342.5,-120.5 342.5,-203.5 674.5,-203.5 674.5,-120.5 342.5,-120.5"/>
<polygon fill="black" stroke="none" points="342.5,-120.5 342.5,-203.5 674.5,-203.5 674.5,-120.5 342.5,-120.5"/>
<polygon fill="black" stroke="none" points="344.5,-161.5 344.5,-201.5 672.5,-201.5 672.5,-161.5 344.5,-161.5"/>
<polygon fill="none" stroke="black" points="344.5,-161.5 344.5,-201.5 672.5,-201.5 672.5,-161.5 344.5,-161.5"/>
<text text-anchor="start" x="433.5" y="-176.3" font-family="Helvetica,sans-Serif" font-weight="bold" font-size="16.00" fill="white">dropout_5</text>
<text text-anchor="start" x="511.5" y="-176.3" font-family="Helvetica,sans-Serif" font-size="16.00" fill="white"> (Dropout)</text>
<polygon fill="white" stroke="none" points="344.5,-122.5 344.5,-159.5 501.5,-159.5 501.5,-122.5 344.5,-122.5"/>
<polygon fill="none" stroke="black" points="344.5,-122.5 344.5,-159.5 501.5,-159.5 501.5,-122.5 344.5,-122.5"/>
<text text-anchor="start" x="355.12" y="-136.2" font-family="Helvetica,sans-Serif" font-size="14.00">Input shape: </text>
<text text-anchor="start" x="433.12" y="-136.2" font-family="Helvetica,sans-Serif" font-weight="bold" font-size="14.00">(None, 8)</text>
<polygon fill="white" stroke="none" points="503.5,-122.5 503.5,-159.5 672.5,-159.5 672.5,-122.5 503.5,-122.5"/>
<polygon fill="none" stroke="black" points="503.5,-122.5 503.5,-159.5 672.5,-159.5 672.5,-122.5 503.5,-122.5"/>
<text text-anchor="start" x="514.5" y="-136.2" font-family="Helvetica,sans-Serif" font-size="14.00">Output shape: </text>
<text text-anchor="start" x="603.75" y="-136.2" font-family="Helvetica,sans-Serif" font-weight="bold" font-size="14.00">(None, 8)</text>
</g>
<!-- 1947959407200&#45;&gt;1947959407824 -->
<g id="edge15" class="edge">
<title>1947959407200&#45;&gt;1947959407824</title>
<path fill="none" stroke="black" stroke-width="2" d="M508.5,-240.03C508.5,-240.03 508.5,-216.77 508.5,-216.77"/>
<polygon fill="black" stroke="black" stroke-width="2" points="512,-216.77 508.5,-206.77 505,-216.77 512,-216.77"/>
</g>
<!-- 1947959409360 -->
<g id="node16" class="node">
<title>1947959409360</title>
<polygon fill="none" stroke="black" points="342.5,-0.5 342.5,-83.5 674.5,-83.5 674.5,-0.5 342.5,-0.5"/>
<polygon fill="black" stroke="none" points="342.5,-0.5 342.5,-83.5 674.5,-83.5 674.5,-0.5 342.5,-0.5"/>
<polygon fill="black" stroke="none" points="344.5,-41.5 344.5,-81.5 672.5,-81.5 672.5,-41.5 344.5,-41.5"/>
<polygon fill="none" stroke="black" points="344.5,-41.5 344.5,-81.5 672.5,-81.5 672.5,-41.5 344.5,-41.5"/>
<text text-anchor="start" x="445.5" y="-56.3" font-family="Helvetica,sans-Serif" font-weight="bold" font-size="16.00" fill="white">dense_9</text>
<text text-anchor="start" x="510" y="-56.3" font-family="Helvetica,sans-Serif" font-size="16.00" fill="white"> (Dense)</text>
<polygon fill="white" stroke="none" points="344.5,-2.5 344.5,-39.5 501.5,-39.5 501.5,-2.5 344.5,-2.5"/>
<polygon fill="none" stroke="black" points="344.5,-2.5 344.5,-39.5 501.5,-39.5 501.5,-2.5 344.5,-2.5"/>
<text text-anchor="start" x="355.12" y="-16.2" font-family="Helvetica,sans-Serif" font-size="14.00">Input shape: </text>
<text text-anchor="start" x="433.12" y="-16.2" font-family="Helvetica,sans-Serif" font-weight="bold" font-size="14.00">(None, 8)</text>
<polygon fill="white" stroke="none" points="503.5,-2.5 503.5,-39.5 672.5,-39.5 672.5,-2.5 503.5,-2.5"/>
<polygon fill="none" stroke="black" points="503.5,-2.5 503.5,-39.5 672.5,-39.5 672.5,-2.5 503.5,-2.5"/>
<text text-anchor="start" x="514.5" y="-16.2" font-family="Helvetica,sans-Serif" font-size="14.00">Output shape: </text>
<text text-anchor="start" x="603.75" y="-16.2" font-family="Helvetica,sans-Serif" font-weight="bold" font-size="14.00">(None, 1)</text>
</g>
<!-- 1947959407824&#45;&gt;1947959409360 -->
<g id="edge16" class="edge">
<title>1947959407824&#45;&gt;1947959409360</title>
<path fill="none" stroke="black" stroke-width="2" d="M508.5,-120.03C508.5,-120.03 508.5,-96.77 508.5,-96.77"/>
<polygon fill="black" stroke="black" stroke-width="2" points="512,-96.77 508.5,-86.77 505,-96.77 512,-96.77"/>
</g>
</g>
</svg>
