<?xml version="1.0" encoding="utf-8" standalone="no"?>
<!DOCTYPE svg PUBLIC "-//W3C//DTD SVG 1.1//EN"
  "http://www.w3.org/Graphics/SVG/1.1/DTD/svg11.dtd">
<svg xmlns:xlink="http://www.w3.org/1999/xlink" width="1008pt" height="720pt" viewBox="0 0 1008 720" xmlns="http://www.w3.org/2000/svg" version="1.1">
 <metadata>
  <rdf:RDF xmlns:dc="http://purl.org/dc/elements/1.1/" xmlns:cc="http://creativecommons.org/ns#" xmlns:rdf="http://www.w3.org/1999/02/22-rdf-syntax-ns#">
   <cc:Work>
    <dc:type rdf:resource="http://purl.org/dc/dcmitype/StillImage"/>
    <dc:date>2024-12-29T14:08:09.760512</dc:date>
    <dc:format>image/svg+xml</dc:format>
    <dc:creator>
     <cc:Agent>
      <dc:title>Matplotlib v3.9.2, https://matplotlib.org/</dc:title>
     </cc:Agent>
    </dc:creator>
   </cc:Work>
  </rdf:RDF>
 </metadata>
 <defs>
  <style type="text/css">*{stroke-linejoin: round; stroke-linecap: butt}</style>
 </defs>
 <g id="figure_1">
  <g id="patch_1">
   <path d="M 0 720 
L 1008 720 
L 1008 0 
L 0 0 
z
" style="fill: #ffffff"/>
  </g>
  <g id="axes_1">
   <g id="text_1">
    <!-- Decision Tree for TTM 36 Group -->
    <g style="fill: #262626" transform="translate(373.4 80.4) scale(0.2 -0.2)">
     <defs>
      <path id="ArialMT-44" d="M 494 0 
L 494 4581 
L 2072 4581 
Q 2606 4581 2888 4516 
Q 3281 4425 3559 4188 
Q 3922 3881 4101 3404 
Q 4281 2928 4281 2316 
Q 4281 1794 4159 1391 
Q 4038 988 3847 723 
Q 3656 459 3429 307 
Q 3203 156 2883 78 
Q 2563 0 2147 0 
L 494 0 
z
M 1100 541 
L 2078 541 
Q 2531 541 2789 625 
Q 3047 709 3200 863 
Q 3416 1078 3536 1442 
Q 3656 1806 3656 2325 
Q 3656 3044 3420 3430 
Q 3184 3816 2847 3947 
Q 2603 4041 2063 4041 
L 1100 4041 
L 1100 541 
z
" transform="scale(0.015625)"/>
      <path id="ArialMT-65" d="M 2694 1069 
L 3275 997 
Q 3138 488 2766 206 
Q 2394 -75 1816 -75 
Q 1088 -75 661 373 
Q 234 822 234 1631 
Q 234 2469 665 2931 
Q 1097 3394 1784 3394 
Q 2450 3394 2872 2941 
Q 3294 2488 3294 1666 
Q 3294 1616 3291 1516 
L 816 1516 
Q 847 969 1125 678 
Q 1403 388 1819 388 
Q 2128 388 2347 550 
Q 2566 713 2694 1069 
z
M 847 1978 
L 2700 1978 
Q 2663 2397 2488 2606 
Q 2219 2931 1791 2931 
Q 1403 2931 1139 2672 
Q 875 2413 847 1978 
z
" transform="scale(0.015625)"/>
      <path id="ArialMT-63" d="M 2588 1216 
L 3141 1144 
Q 3050 572 2676 248 
Q 2303 -75 1759 -75 
Q 1078 -75 664 370 
Q 250 816 250 1647 
Q 250 2184 428 2587 
Q 606 2991 970 3192 
Q 1334 3394 1763 3394 
Q 2303 3394 2647 3120 
Q 2991 2847 3088 2344 
L 2541 2259 
Q 2463 2594 2264 2762 
Q 2066 2931 1784 2931 
Q 1359 2931 1093 2626 
Q 828 2322 828 1663 
Q 828 994 1084 691 
Q 1341 388 1753 388 
Q 2084 388 2306 591 
Q 2528 794 2588 1216 
z
" transform="scale(0.015625)"/>
      <path id="ArialMT-69" d="M 425 3934 
L 425 4581 
L 988 4581 
L 988 3934 
L 425 3934 
z
M 425 0 
L 425 3319 
L 988 3319 
L 988 0 
L 425 0 
z
" transform="scale(0.015625)"/>
      <path id="ArialMT-73" d="M 197 991 
L 753 1078 
Q 800 744 1014 566 
Q 1228 388 1613 388 
Q 2000 388 2187 545 
Q 2375 703 2375 916 
Q 2375 1106 2209 1216 
Q 2094 1291 1634 1406 
Q 1016 1563 777 1677 
Q 538 1791 414 1992 
Q 291 2194 291 2438 
Q 291 2659 392 2848 
Q 494 3038 669 3163 
Q 800 3259 1026 3326 
Q 1253 3394 1513 3394 
Q 1903 3394 2198 3281 
Q 2494 3169 2634 2976 
Q 2775 2784 2828 2463 
L 2278 2388 
Q 2241 2644 2061 2787 
Q 1881 2931 1553 2931 
Q 1166 2931 1000 2803 
Q 834 2675 834 2503 
Q 834 2394 903 2306 
Q 972 2216 1119 2156 
Q 1203 2125 1616 2013 
Q 2213 1853 2448 1751 
Q 2684 1650 2818 1456 
Q 2953 1263 2953 975 
Q 2953 694 2789 445 
Q 2625 197 2315 61 
Q 2006 -75 1616 -75 
Q 969 -75 630 194 
Q 291 463 197 991 
z
" transform="scale(0.015625)"/>
      <path id="ArialMT-6f" d="M 213 1659 
Q 213 2581 725 3025 
Q 1153 3394 1769 3394 
Q 2453 3394 2887 2945 
Q 3322 2497 3322 1706 
Q 3322 1066 3130 698 
Q 2938 331 2570 128 
Q 2203 -75 1769 -75 
Q 1072 -75 642 372 
Q 213 819 213 1659 
z
M 791 1659 
Q 791 1022 1069 705 
Q 1347 388 1769 388 
Q 2188 388 2466 706 
Q 2744 1025 2744 1678 
Q 2744 2294 2464 2611 
Q 2184 2928 1769 2928 
Q 1347 2928 1069 2612 
Q 791 2297 791 1659 
z
" transform="scale(0.015625)"/>
      <path id="ArialMT-6e" d="M 422 0 
L 422 3319 
L 928 3319 
L 928 2847 
Q 1294 3394 1984 3394 
Q 2284 3394 2536 3286 
Q 2788 3178 2913 3003 
Q 3038 2828 3088 2588 
Q 3119 2431 3119 2041 
L 3119 0 
L 2556 0 
L 2556 2019 
Q 2556 2363 2490 2533 
Q 2425 2703 2258 2804 
Q 2091 2906 1866 2906 
Q 1506 2906 1245 2678 
Q 984 2450 984 1813 
L 984 0 
L 422 0 
z
" transform="scale(0.015625)"/>
      <path id="ArialMT-20" transform="scale(0.015625)"/>
      <path id="ArialMT-54" d="M 1659 0 
L 1659 4041 
L 150 4041 
L 150 4581 
L 3781 4581 
L 3781 4041 
L 2266 4041 
L 2266 0 
L 1659 0 
z
" transform="scale(0.015625)"/>
      <path id="ArialMT-72" d="M 416 0 
L 416 3319 
L 922 3319 
L 922 2816 
Q 1116 3169 1280 3281 
Q 1444 3394 1641 3394 
Q 1925 3394 2219 3213 
L 2025 2691 
Q 1819 2813 1613 2813 
Q 1428 2813 1281 2702 
Q 1134 2591 1072 2394 
Q 978 2094 978 1738 
L 978 0 
L 416 0 
z
" transform="scale(0.015625)"/>
      <path id="ArialMT-66" d="M 556 0 
L 556 2881 
L 59 2881 
L 59 3319 
L 556 3319 
L 556 3672 
Q 556 4006 616 4169 
Q 697 4388 901 4523 
Q 1106 4659 1475 4659 
Q 1713 4659 2000 4603 
L 1916 4113 
Q 1741 4144 1584 4144 
Q 1328 4144 1222 4034 
Q 1116 3925 1116 3625 
L 1116 3319 
L 1763 3319 
L 1763 2881 
L 1116 2881 
L 1116 0 
L 556 0 
z
" transform="scale(0.015625)"/>
      <path id="ArialMT-4d" d="M 475 0 
L 475 4581 
L 1388 4581 
L 2472 1338 
Q 2622 884 2691 659 
Q 2769 909 2934 1394 
L 4031 4581 
L 4847 4581 
L 4847 0 
L 4263 0 
L 4263 3834 
L 2931 0 
L 2384 0 
L 1059 3900 
L 1059 0 
L 475 0 
z
" transform="scale(0.015625)"/>
      <path id="ArialMT-33" d="M 269 1209 
L 831 1284 
Q 928 806 1161 595 
Q 1394 384 1728 384 
Q 2125 384 2398 659 
Q 2672 934 2672 1341 
Q 2672 1728 2419 1979 
Q 2166 2231 1775 2231 
Q 1616 2231 1378 2169 
L 1441 2663 
Q 1497 2656 1531 2656 
Q 1891 2656 2178 2843 
Q 2466 3031 2466 3422 
Q 2466 3731 2256 3934 
Q 2047 4138 1716 4138 
Q 1388 4138 1169 3931 
Q 950 3725 888 3313 
L 325 3413 
Q 428 3978 793 4289 
Q 1159 4600 1703 4600 
Q 2078 4600 2393 4439 
Q 2709 4278 2876 4000 
Q 3044 3722 3044 3409 
Q 3044 3113 2884 2869 
Q 2725 2625 2413 2481 
Q 2819 2388 3044 2092 
Q 3269 1797 3269 1353 
Q 3269 753 2831 336 
Q 2394 -81 1725 -81 
Q 1122 -81 723 278 
Q 325 638 269 1209 
z
" transform="scale(0.015625)"/>
      <path id="ArialMT-36" d="M 3184 3459 
L 2625 3416 
Q 2550 3747 2413 3897 
Q 2184 4138 1850 4138 
Q 1581 4138 1378 3988 
Q 1113 3794 959 3422 
Q 806 3050 800 2363 
Q 1003 2672 1297 2822 
Q 1591 2972 1913 2972 
Q 2475 2972 2870 2558 
Q 3266 2144 3266 1488 
Q 3266 1056 3080 686 
Q 2894 316 2569 119 
Q 2244 -78 1831 -78 
Q 1128 -78 684 439 
Q 241 956 241 2144 
Q 241 3472 731 4075 
Q 1159 4600 1884 4600 
Q 2425 4600 2770 4297 
Q 3116 3994 3184 3459 
z
M 888 1484 
Q 888 1194 1011 928 
Q 1134 663 1356 523 
Q 1578 384 1822 384 
Q 2178 384 2434 671 
Q 2691 959 2691 1453 
Q 2691 1928 2437 2201 
Q 2184 2475 1800 2475 
Q 1419 2475 1153 2201 
Q 888 1928 888 1484 
z
" transform="scale(0.015625)"/>
      <path id="ArialMT-47" d="M 2638 1797 
L 2638 2334 
L 4578 2338 
L 4578 638 
Q 4131 281 3656 101 
Q 3181 -78 2681 -78 
Q 2006 -78 1454 211 
Q 903 500 622 1047 
Q 341 1594 341 2269 
Q 341 2938 620 3517 
Q 900 4097 1425 4378 
Q 1950 4659 2634 4659 
Q 3131 4659 3532 4498 
Q 3934 4338 4162 4050 
Q 4391 3763 4509 3300 
L 3963 3150 
Q 3859 3500 3706 3700 
Q 3553 3900 3268 4020 
Q 2984 4141 2638 4141 
Q 2222 4141 1919 4014 
Q 1616 3888 1430 3681 
Q 1244 3475 1141 3228 
Q 966 2803 966 2306 
Q 966 1694 1177 1281 
Q 1388 869 1791 669 
Q 2194 469 2647 469 
Q 3041 469 3416 620 
Q 3791 772 3984 944 
L 3984 1797 
L 2638 1797 
z
" transform="scale(0.015625)"/>
      <path id="ArialMT-75" d="M 2597 0 
L 2597 488 
Q 2209 -75 1544 -75 
Q 1250 -75 995 37 
Q 741 150 617 320 
Q 494 491 444 738 
Q 409 903 409 1263 
L 409 3319 
L 972 3319 
L 972 1478 
Q 972 1038 1006 884 
Q 1059 663 1231 536 
Q 1403 409 1656 409 
Q 1909 409 2131 539 
Q 2353 669 2445 892 
Q 2538 1116 2538 1541 
L 2538 3319 
L 3100 3319 
L 3100 0 
L 2597 0 
z
" transform="scale(0.015625)"/>
      <path id="ArialMT-70" d="M 422 -1272 
L 422 3319 
L 934 3319 
L 934 2888 
Q 1116 3141 1344 3267 
Q 1572 3394 1897 3394 
Q 2322 3394 2647 3175 
Q 2972 2956 3137 2557 
Q 3303 2159 3303 1684 
Q 3303 1175 3120 767 
Q 2938 359 2589 142 
Q 2241 -75 1856 -75 
Q 1575 -75 1351 44 
Q 1128 163 984 344 
L 984 -1272 
L 422 -1272 
z
M 931 1641 
Q 931 1000 1190 694 
Q 1450 388 1819 388 
Q 2194 388 2461 705 
Q 2728 1022 2728 1688 
Q 2728 2322 2467 2637 
Q 2206 2953 1844 2953 
Q 1484 2953 1207 2617 
Q 931 2281 931 1641 
z
" transform="scale(0.015625)"/>
     </defs>
     <use xlink:href="#ArialMT-44"/>
     <use xlink:href="#ArialMT-65" x="72.216797"/>
     <use xlink:href="#ArialMT-63" x="127.832031"/>
     <use xlink:href="#ArialMT-69" x="177.832031"/>
     <use xlink:href="#ArialMT-73" x="200.048828"/>
     <use xlink:href="#ArialMT-69" x="250.048828"/>
     <use xlink:href="#ArialMT-6f" x="272.265625"/>
     <use xlink:href="#ArialMT-6e" x="327.880859"/>
     <use xlink:href="#ArialMT-20" x="383.496094"/>
     <use xlink:href="#ArialMT-54" x="409.529297"/>
     <use xlink:href="#ArialMT-72" x="466.863281"/>
     <use xlink:href="#ArialMT-65" x="500.164062"/>
     <use xlink:href="#ArialMT-65" x="555.779297"/>
     <use xlink:href="#ArialMT-20" x="611.394531"/>
     <use xlink:href="#ArialMT-66" x="639.177734"/>
     <use xlink:href="#ArialMT-6f" x="666.960938"/>
     <use xlink:href="#ArialMT-72" x="722.576172"/>
     <use xlink:href="#ArialMT-20" x="755.876953"/>
     <use xlink:href="#ArialMT-54" x="781.910156"/>
     <use xlink:href="#ArialMT-54" x="842.994141"/>
     <use xlink:href="#ArialMT-4d" x="904.078125"/>
     <use xlink:href="#ArialMT-20" x="987.378906"/>
     <use xlink:href="#ArialMT-33" x="1015.162109"/>
     <use xlink:href="#ArialMT-36" x="1070.777344"/>
     <use xlink:href="#ArialMT-20" x="1126.392578"/>
     <use xlink:href="#ArialMT-47" x="1154.175781"/>
     <use xlink:href="#ArialMT-72" x="1231.958984"/>
     <use xlink:href="#ArialMT-6f" x="1265.259766"/>
     <use xlink:href="#ArialMT-75" x="1320.875"/>
     <use xlink:href="#ArialMT-70" x="1376.490234"/>
    </g>
   </g>
   <g id="patch_2">
    <path d="M 242.079923 563.43105 
Q 269.773293 533.951011 298.232153 503.656095 
" style="fill: none; stroke: #262626; stroke-linecap: round"/>
    <path d="M 247.1156 561.575801 
L 242.079923 563.43105 
L 243.617129 558.289358 
" style="fill: none; stroke: #262626; stroke-linecap: round"/>
   </g>
   <g id="text_2">
    <g id="patch_3">
     <path d="M 178.278437 622.856437 
L 247.321563 622.856437 
Q 250.921562 622.856437 250.921562 619.256437 
L 250.921562 569.802937 
Q 250.921562 566.202937 247.321563 566.202937 
L 178.278437 566.202937 
Q 174.678438 566.202937 174.678438 569.802937 
L 174.678438 619.256437 
Q 174.678438 622.856437 178.278437 622.856437 
z
" style="fill: #e58139; stroke: #ffffff; stroke-linejoin: miter"/>
    </g>
    <!-- gini = 0.0 -->
    <g style="fill: #262626" transform="translate(188.2825 578.568562) scale(0.12 -0.12)">
     <defs>
      <path id="ArialMT-67" d="M 319 -275 
L 866 -356 
Q 900 -609 1056 -725 
Q 1266 -881 1628 -881 
Q 2019 -881 2231 -725 
Q 2444 -569 2519 -288 
Q 2563 -116 2559 434 
Q 2191 0 1641 0 
Q 956 0 581 494 
Q 206 988 206 1678 
Q 206 2153 378 2554 
Q 550 2956 876 3175 
Q 1203 3394 1644 3394 
Q 2231 3394 2613 2919 
L 2613 3319 
L 3131 3319 
L 3131 450 
Q 3131 -325 2973 -648 
Q 2816 -972 2473 -1159 
Q 2131 -1347 1631 -1347 
Q 1038 -1347 672 -1080 
Q 306 -813 319 -275 
z
M 784 1719 
Q 784 1066 1043 766 
Q 1303 466 1694 466 
Q 2081 466 2343 764 
Q 2606 1063 2606 1700 
Q 2606 2309 2336 2618 
Q 2066 2928 1684 2928 
Q 1309 2928 1046 2623 
Q 784 2319 784 1719 
z
" transform="scale(0.015625)"/>
      <path id="ArialMT-3d" d="M 3381 2694 
L 356 2694 
L 356 3219 
L 3381 3219 
L 3381 2694 
z
M 3381 1303 
L 356 1303 
L 356 1828 
L 3381 1828 
L 3381 1303 
z
" transform="scale(0.015625)"/>
      <path id="ArialMT-30" d="M 266 2259 
Q 266 3072 433 3567 
Q 600 4063 929 4331 
Q 1259 4600 1759 4600 
Q 2128 4600 2406 4451 
Q 2684 4303 2865 4023 
Q 3047 3744 3150 3342 
Q 3253 2941 3253 2259 
Q 3253 1453 3087 958 
Q 2922 463 2592 192 
Q 2263 -78 1759 -78 
Q 1097 -78 719 397 
Q 266 969 266 2259 
z
M 844 2259 
Q 844 1131 1108 757 
Q 1372 384 1759 384 
Q 2147 384 2411 759 
Q 2675 1134 2675 2259 
Q 2675 3391 2411 3762 
Q 2147 4134 1753 4134 
Q 1366 4134 1134 3806 
Q 844 3388 844 2259 
z
" transform="scale(0.015625)"/>
      <path id="ArialMT-2e" d="M 581 0 
L 581 641 
L 1222 641 
L 1222 0 
L 581 0 
z
" transform="scale(0.015625)"/>
     </defs>
     <use xlink:href="#ArialMT-67"/>
     <use xlink:href="#ArialMT-69" x="55.615234"/>
     <use xlink:href="#ArialMT-6e" x="77.832031"/>
     <use xlink:href="#ArialMT-69" x="133.447266"/>
     <use xlink:href="#ArialMT-20" x="155.664062"/>
     <use xlink:href="#ArialMT-3d" x="183.447266"/>
     <use xlink:href="#ArialMT-20" x="241.845703"/>
     <use xlink:href="#ArialMT-30" x="269.628906"/>
     <use xlink:href="#ArialMT-2e" x="325.244141"/>
     <use xlink:href="#ArialMT-30" x="353.027344"/>
    </g>
    <!-- samples = 1 -->
    <g style="fill: #262626" transform="translate(180.284688 591.444187) scale(0.12 -0.12)">
     <defs>
      <path id="ArialMT-61" d="M 2588 409 
Q 2275 144 1986 34 
Q 1697 -75 1366 -75 
Q 819 -75 525 192 
Q 231 459 231 875 
Q 231 1119 342 1320 
Q 453 1522 633 1644 
Q 813 1766 1038 1828 
Q 1203 1872 1538 1913 
Q 2219 1994 2541 2106 
Q 2544 2222 2544 2253 
Q 2544 2597 2384 2738 
Q 2169 2928 1744 2928 
Q 1347 2928 1158 2789 
Q 969 2650 878 2297 
L 328 2372 
Q 403 2725 575 2942 
Q 747 3159 1072 3276 
Q 1397 3394 1825 3394 
Q 2250 3394 2515 3294 
Q 2781 3194 2906 3042 
Q 3031 2891 3081 2659 
Q 3109 2516 3109 2141 
L 3109 1391 
Q 3109 606 3145 398 
Q 3181 191 3288 0 
L 2700 0 
Q 2613 175 2588 409 
z
M 2541 1666 
Q 2234 1541 1622 1453 
Q 1275 1403 1131 1340 
Q 988 1278 909 1158 
Q 831 1038 831 891 
Q 831 666 1001 516 
Q 1172 366 1500 366 
Q 1825 366 2078 508 
Q 2331 650 2450 897 
Q 2541 1088 2541 1459 
L 2541 1666 
z
" transform="scale(0.015625)"/>
      <path id="ArialMT-6d" d="M 422 0 
L 422 3319 
L 925 3319 
L 925 2853 
Q 1081 3097 1340 3245 
Q 1600 3394 1931 3394 
Q 2300 3394 2536 3241 
Q 2772 3088 2869 2813 
Q 3263 3394 3894 3394 
Q 4388 3394 4653 3120 
Q 4919 2847 4919 2278 
L 4919 0 
L 4359 0 
L 4359 2091 
Q 4359 2428 4304 2576 
Q 4250 2725 4106 2815 
Q 3963 2906 3769 2906 
Q 3419 2906 3187 2673 
Q 2956 2441 2956 1928 
L 2956 0 
L 2394 0 
L 2394 2156 
Q 2394 2531 2256 2718 
Q 2119 2906 1806 2906 
Q 1569 2906 1367 2781 
Q 1166 2656 1075 2415 
Q 984 2175 984 1722 
L 984 0 
L 422 0 
z
" transform="scale(0.015625)"/>
      <path id="ArialMT-6c" d="M 409 0 
L 409 4581 
L 972 4581 
L 972 0 
L 409 0 
z
" transform="scale(0.015625)"/>
      <path id="ArialMT-31" d="M 2384 0 
L 1822 0 
L 1822 3584 
Q 1619 3391 1289 3197 
Q 959 3003 697 2906 
L 697 3450 
Q 1169 3672 1522 3987 
Q 1875 4303 2022 4600 
L 2384 4600 
L 2384 0 
z
" transform="scale(0.015625)"/>
     </defs>
     <use xlink:href="#ArialMT-73"/>
     <use xlink:href="#ArialMT-61" x="50"/>
     <use xlink:href="#ArialMT-6d" x="105.615234"/>
     <use xlink:href="#ArialMT-70" x="188.916016"/>
     <use xlink:href="#ArialMT-6c" x="244.53125"/>
     <use xlink:href="#ArialMT-65" x="266.748047"/>
     <use xlink:href="#ArialMT-73" x="322.363281"/>
     <use xlink:href="#ArialMT-20" x="372.363281"/>
     <use xlink:href="#ArialMT-3d" x="400.146484"/>
     <use xlink:href="#ArialMT-20" x="458.544922"/>
     <use xlink:href="#ArialMT-31" x="486.328125"/>
    </g>
    <!-- value = [1, 0] -->
    <g style="fill: #262626" transform="translate(178.278437 604.179188) scale(0.12 -0.12)">
     <defs>
      <path id="ArialMT-76" d="M 1344 0 
L 81 3319 
L 675 3319 
L 1388 1331 
Q 1503 1009 1600 663 
Q 1675 925 1809 1294 
L 2547 3319 
L 3125 3319 
L 1869 0 
L 1344 0 
z
" transform="scale(0.015625)"/>
      <path id="ArialMT-5b" d="M 434 -1272 
L 434 4581 
L 1675 4581 
L 1675 4116 
L 997 4116 
L 997 -806 
L 1675 -806 
L 1675 -1272 
L 434 -1272 
z
" transform="scale(0.015625)"/>
      <path id="ArialMT-2c" d="M 569 0 
L 569 641 
L 1209 641 
L 1209 0 
Q 1209 -353 1084 -570 
Q 959 -788 688 -906 
L 531 -666 
Q 709 -588 793 -436 
Q 878 -284 888 0 
L 569 0 
z
" transform="scale(0.015625)"/>
      <path id="ArialMT-5d" d="M 1363 -1272 
L 122 -1272 
L 122 -806 
L 800 -806 
L 800 4116 
L 122 4116 
L 122 4581 
L 1363 4581 
L 1363 -1272 
z
" transform="scale(0.015625)"/>
     </defs>
     <use xlink:href="#ArialMT-76"/>
     <use xlink:href="#ArialMT-61" x="50"/>
     <use xlink:href="#ArialMT-6c" x="105.615234"/>
     <use xlink:href="#ArialMT-75" x="127.832031"/>
     <use xlink:href="#ArialMT-65" x="183.447266"/>
     <use xlink:href="#ArialMT-20" x="239.0625"/>
     <use xlink:href="#ArialMT-3d" x="266.845703"/>
     <use xlink:href="#ArialMT-20" x="325.244141"/>
     <use xlink:href="#ArialMT-5b" x="353.027344"/>
     <use xlink:href="#ArialMT-31" x="380.810547"/>
     <use xlink:href="#ArialMT-2c" x="436.425781"/>
     <use xlink:href="#ArialMT-20" x="464.208984"/>
     <use xlink:href="#ArialMT-30" x="491.992188"/>
     <use xlink:href="#ArialMT-5d" x="547.607422"/>
    </g>
    <!-- class = 33 -->
    <g style="fill: #262626" transform="translate(185.619063 616.871437) scale(0.12 -0.12)">
     <use xlink:href="#ArialMT-63"/>
     <use xlink:href="#ArialMT-6c" x="50"/>
     <use xlink:href="#ArialMT-61" x="72.216797"/>
     <use xlink:href="#ArialMT-73" x="127.832031"/>
     <use xlink:href="#ArialMT-73" x="177.832031"/>
     <use xlink:href="#ArialMT-20" x="227.832031"/>
     <use xlink:href="#ArialMT-3d" x="255.615234"/>
     <use xlink:href="#ArialMT-20" x="314.013672"/>
     <use xlink:href="#ArialMT-33" x="341.796875"/>
     <use xlink:href="#ArialMT-33" x="397.412109"/>
    </g>
   </g>
   <g id="patch_4">
    <path d="M 357.120077 563.43105 
Q 329.426707 533.951011 300.967847 503.656095 
" style="fill: none; stroke: #262626; stroke-linecap: round"/>
    <path d="M 355.582871 558.289358 
L 357.120077 563.43105 
L 352.0844 561.575801 
" style="fill: none; stroke: #262626; stroke-linecap: round"/>
   </g>
   <g id="text_3">
    <g id="patch_5">
     <path d="M 351.878437 622.856437 
L 420.921562 622.856437 
Q 424.521562 622.856437 424.521562 619.256437 
L 424.521562 569.802937 
Q 424.521562 566.202937 420.921562 566.202937 
L 351.878437 566.202937 
Q 348.278437 566.202937 348.278437 569.802937 
L 348.278437 619.256437 
Q 348.278437 622.856437 351.878437 622.856437 
z
" style="fill: #399de5; stroke: #ffffff; stroke-linejoin: miter"/>
    </g>
    <!-- gini = 0.0 -->
    <g style="fill: #262626" transform="translate(361.8825 578.568562) scale(0.12 -0.12)">
     <use xlink:href="#ArialMT-67"/>
     <use xlink:href="#ArialMT-69" x="55.615234"/>
     <use xlink:href="#ArialMT-6e" x="77.832031"/>
     <use xlink:href="#ArialMT-69" x="133.447266"/>
     <use xlink:href="#ArialMT-20" x="155.664062"/>
     <use xlink:href="#ArialMT-3d" x="183.447266"/>
     <use xlink:href="#ArialMT-20" x="241.845703"/>
     <use xlink:href="#ArialMT-30" x="269.628906"/>
     <use xlink:href="#ArialMT-2e" x="325.244141"/>
     <use xlink:href="#ArialMT-30" x="353.027344"/>
    </g>
    <!-- samples = 1 -->
    <g style="fill: #262626" transform="translate(353.884687 591.444187) scale(0.12 -0.12)">
     <use xlink:href="#ArialMT-73"/>
     <use xlink:href="#ArialMT-61" x="50"/>
     <use xlink:href="#ArialMT-6d" x="105.615234"/>
     <use xlink:href="#ArialMT-70" x="188.916016"/>
     <use xlink:href="#ArialMT-6c" x="244.53125"/>
     <use xlink:href="#ArialMT-65" x="266.748047"/>
     <use xlink:href="#ArialMT-73" x="322.363281"/>
     <use xlink:href="#ArialMT-20" x="372.363281"/>
     <use xlink:href="#ArialMT-3d" x="400.146484"/>
     <use xlink:href="#ArialMT-20" x="458.544922"/>
     <use xlink:href="#ArialMT-31" x="486.328125"/>
    </g>
    <!-- value = [0, 1] -->
    <g style="fill: #262626" transform="translate(351.878437 604.179188) scale(0.12 -0.12)">
     <use xlink:href="#ArialMT-76"/>
     <use xlink:href="#ArialMT-61" x="50"/>
     <use xlink:href="#ArialMT-6c" x="105.615234"/>
     <use xlink:href="#ArialMT-75" x="127.832031"/>
     <use xlink:href="#ArialMT-65" x="183.447266"/>
     <use xlink:href="#ArialMT-20" x="239.0625"/>
     <use xlink:href="#ArialMT-3d" x="266.845703"/>
     <use xlink:href="#ArialMT-20" x="325.244141"/>
     <use xlink:href="#ArialMT-5b" x="353.027344"/>
     <use xlink:href="#ArialMT-30" x="380.810547"/>
     <use xlink:href="#ArialMT-2c" x="436.425781"/>
     <use xlink:href="#ArialMT-20" x="464.208984"/>
     <use xlink:href="#ArialMT-31" x="491.992188"/>
     <use xlink:href="#ArialMT-5d" x="547.607422"/>
    </g>
    <!-- class = 36 -->
    <g style="fill: #262626" transform="translate(359.219062 616.871437) scale(0.12 -0.12)">
     <use xlink:href="#ArialMT-63"/>
     <use xlink:href="#ArialMT-6c" x="50"/>
     <use xlink:href="#ArialMT-61" x="72.216797"/>
     <use xlink:href="#ArialMT-73" x="127.832031"/>
     <use xlink:href="#ArialMT-73" x="177.832031"/>
     <use xlink:href="#ArialMT-20" x="227.832031"/>
     <use xlink:href="#ArialMT-3d" x="255.615234"/>
     <use xlink:href="#ArialMT-20" x="314.013672"/>
     <use xlink:href="#ArialMT-33" x="341.796875"/>
     <use xlink:href="#ArialMT-36" x="397.412109"/>
    </g>
   </g>
   <g id="patch_6">
    <path d="M 589.279923 563.43105 
Q 616.973293 533.951011 645.432153 503.656095 
" style="fill: none; stroke: #262626; stroke-linecap: round"/>
    <path d="M 594.3156 561.575801 
L 589.279923 563.43105 
L 590.817129 558.289358 
" style="fill: none; stroke: #262626; stroke-linecap: round"/>
   </g>
   <g id="text_4">
    <g id="patch_7">
     <path d="M 525.478438 622.856437 
L 594.521563 622.856437 
Q 598.121563 622.856437 598.121563 619.256437 
L 598.121563 569.802937 
Q 598.121563 566.202937 594.521563 566.202937 
L 525.478438 566.202937 
Q 521.878438 566.202937 521.878438 569.802937 
L 521.878438 619.256437 
Q 521.878438 622.856437 525.478438 622.856437 
z
" style="fill: #e58139; stroke: #ffffff; stroke-linejoin: miter"/>
    </g>
    <!-- gini = 0.0 -->
    <g style="fill: #262626" transform="translate(535.4825 578.568562) scale(0.12 -0.12)">
     <use xlink:href="#ArialMT-67"/>
     <use xlink:href="#ArialMT-69" x="55.615234"/>
     <use xlink:href="#ArialMT-6e" x="77.832031"/>
     <use xlink:href="#ArialMT-69" x="133.447266"/>
     <use xlink:href="#ArialMT-20" x="155.664062"/>
     <use xlink:href="#ArialMT-3d" x="183.447266"/>
     <use xlink:href="#ArialMT-20" x="241.845703"/>
     <use xlink:href="#ArialMT-30" x="269.628906"/>
     <use xlink:href="#ArialMT-2e" x="325.244141"/>
     <use xlink:href="#ArialMT-30" x="353.027344"/>
    </g>
    <!-- samples = 1 -->
    <g style="fill: #262626" transform="translate(527.484687 591.444187) scale(0.12 -0.12)">
     <use xlink:href="#ArialMT-73"/>
     <use xlink:href="#ArialMT-61" x="50"/>
     <use xlink:href="#ArialMT-6d" x="105.615234"/>
     <use xlink:href="#ArialMT-70" x="188.916016"/>
     <use xlink:href="#ArialMT-6c" x="244.53125"/>
     <use xlink:href="#ArialMT-65" x="266.748047"/>
     <use xlink:href="#ArialMT-73" x="322.363281"/>
     <use xlink:href="#ArialMT-20" x="372.363281"/>
     <use xlink:href="#ArialMT-3d" x="400.146484"/>
     <use xlink:href="#ArialMT-20" x="458.544922"/>
     <use xlink:href="#ArialMT-31" x="486.328125"/>
    </g>
    <!-- value = [1, 0] -->
    <g style="fill: #262626" transform="translate(525.478438 604.179188) scale(0.12 -0.12)">
     <use xlink:href="#ArialMT-76"/>
     <use xlink:href="#ArialMT-61" x="50"/>
     <use xlink:href="#ArialMT-6c" x="105.615234"/>
     <use xlink:href="#ArialMT-75" x="127.832031"/>
     <use xlink:href="#ArialMT-65" x="183.447266"/>
     <use xlink:href="#ArialMT-20" x="239.0625"/>
     <use xlink:href="#ArialMT-3d" x="266.845703"/>
     <use xlink:href="#ArialMT-20" x="325.244141"/>
     <use xlink:href="#ArialMT-5b" x="353.027344"/>
     <use xlink:href="#ArialMT-31" x="380.810547"/>
     <use xlink:href="#ArialMT-2c" x="436.425781"/>
     <use xlink:href="#ArialMT-20" x="464.208984"/>
     <use xlink:href="#ArialMT-30" x="491.992188"/>
     <use xlink:href="#ArialMT-5d" x="547.607422"/>
    </g>
    <!-- class = 33 -->
    <g style="fill: #262626" transform="translate(532.819062 616.871437) scale(0.12 -0.12)">
     <use xlink:href="#ArialMT-63"/>
     <use xlink:href="#ArialMT-6c" x="50"/>
     <use xlink:href="#ArialMT-61" x="72.216797"/>
     <use xlink:href="#ArialMT-73" x="127.832031"/>
     <use xlink:href="#ArialMT-73" x="177.832031"/>
     <use xlink:href="#ArialMT-20" x="227.832031"/>
     <use xlink:href="#ArialMT-3d" x="255.615234"/>
     <use xlink:href="#ArialMT-20" x="314.013672"/>
     <use xlink:href="#ArialMT-33" x="341.796875"/>
     <use xlink:href="#ArialMT-33" x="397.412109"/>
    </g>
   </g>
   <g id="patch_8">
    <path d="M 704.339248 563.451457 
Q 676.636517 533.961454 648.168297 503.656574 
" style="fill: none; stroke: #262626; stroke-linecap: round"/>
    <path d="M 702.802041 558.309766 
L 704.339248 563.451457 
L 699.30357 561.596208 
" style="fill: none; stroke: #262626; stroke-linecap: round"/>
   </g>
   <g id="text_5">
    <g id="patch_9">
     <path d="M 699.078438 622.835063 
L 768.121563 622.835063 
Q 771.721563 622.835063 771.721563 619.235063 
L 771.721563 569.824313 
Q 771.721563 566.224312 768.121563 566.224312 
L 699.078438 566.224312 
Q 695.478438 566.224312 695.478438 569.824313 
L 695.478438 619.235063 
Q 695.478438 622.835063 699.078438 622.835063 
z
" style="fill: #fae6d7; stroke: #ffffff; stroke-linejoin: miter"/>
    </g>
    <!-- gini = 0.494 -->
    <g style="fill: #262626" transform="translate(702.409375 578.589938) scale(0.12 -0.12)">
     <defs>
      <path id="ArialMT-34" d="M 2069 0 
L 2069 1097 
L 81 1097 
L 81 1613 
L 2172 4581 
L 2631 4581 
L 2631 1613 
L 3250 1613 
L 3250 1097 
L 2631 1097 
L 2631 0 
L 2069 0 
z
M 2069 1613 
L 2069 3678 
L 634 1613 
L 2069 1613 
z
" transform="scale(0.015625)"/>
      <path id="ArialMT-39" d="M 350 1059 
L 891 1109 
Q 959 728 1153 556 
Q 1347 384 1650 384 
Q 1909 384 2104 503 
Q 2300 622 2425 820 
Q 2550 1019 2634 1356 
Q 2719 1694 2719 2044 
Q 2719 2081 2716 2156 
Q 2547 1888 2255 1720 
Q 1963 1553 1622 1553 
Q 1053 1553 659 1965 
Q 266 2378 266 3053 
Q 266 3750 677 4175 
Q 1088 4600 1706 4600 
Q 2153 4600 2523 4359 
Q 2894 4119 3086 3673 
Q 3278 3228 3278 2384 
Q 3278 1506 3087 986 
Q 2897 466 2520 194 
Q 2144 -78 1638 -78 
Q 1100 -78 759 220 
Q 419 519 350 1059 
z
M 2653 3081 
Q 2653 3566 2395 3850 
Q 2138 4134 1775 4134 
Q 1400 4134 1122 3828 
Q 844 3522 844 3034 
Q 844 2597 1108 2323 
Q 1372 2050 1759 2050 
Q 2150 2050 2401 2323 
Q 2653 2597 2653 3081 
z
" transform="scale(0.015625)"/>
     </defs>
     <use xlink:href="#ArialMT-67"/>
     <use xlink:href="#ArialMT-69" x="55.615234"/>
     <use xlink:href="#ArialMT-6e" x="77.832031"/>
     <use xlink:href="#ArialMT-69" x="133.447266"/>
     <use xlink:href="#ArialMT-20" x="155.664062"/>
     <use xlink:href="#ArialMT-3d" x="183.447266"/>
     <use xlink:href="#ArialMT-20" x="241.845703"/>
     <use xlink:href="#ArialMT-30" x="269.628906"/>
     <use xlink:href="#ArialMT-2e" x="325.244141"/>
     <use xlink:href="#ArialMT-34" x="353.027344"/>
     <use xlink:href="#ArialMT-39" x="408.642578"/>
     <use xlink:href="#ArialMT-34" x="464.257812"/>
    </g>
    <!-- samples = 9 -->
    <g style="fill: #262626" transform="translate(701.084687 591.465563) scale(0.12 -0.12)">
     <use xlink:href="#ArialMT-73"/>
     <use xlink:href="#ArialMT-61" x="50"/>
     <use xlink:href="#ArialMT-6d" x="105.615234"/>
     <use xlink:href="#ArialMT-70" x="188.916016"/>
     <use xlink:href="#ArialMT-6c" x="244.53125"/>
     <use xlink:href="#ArialMT-65" x="266.748047"/>
     <use xlink:href="#ArialMT-73" x="322.363281"/>
     <use xlink:href="#ArialMT-20" x="372.363281"/>
     <use xlink:href="#ArialMT-3d" x="400.146484"/>
     <use xlink:href="#ArialMT-20" x="458.544922"/>
     <use xlink:href="#ArialMT-39" x="486.328125"/>
    </g>
    <!-- value = [5, 4] -->
    <g style="fill: #262626" transform="translate(699.078438 604.157812) scale(0.12 -0.12)">
     <defs>
      <path id="ArialMT-35" d="M 266 1200 
L 856 1250 
Q 922 819 1161 601 
Q 1400 384 1738 384 
Q 2144 384 2425 690 
Q 2706 997 2706 1503 
Q 2706 1984 2436 2262 
Q 2166 2541 1728 2541 
Q 1456 2541 1237 2417 
Q 1019 2294 894 2097 
L 366 2166 
L 809 4519 
L 3088 4519 
L 3088 3981 
L 1259 3981 
L 1013 2750 
Q 1425 3038 1878 3038 
Q 2478 3038 2890 2622 
Q 3303 2206 3303 1553 
Q 3303 931 2941 478 
Q 2500 -78 1738 -78 
Q 1113 -78 717 272 
Q 322 622 266 1200 
z
" transform="scale(0.015625)"/>
     </defs>
     <use xlink:href="#ArialMT-76"/>
     <use xlink:href="#ArialMT-61" x="50"/>
     <use xlink:href="#ArialMT-6c" x="105.615234"/>
     <use xlink:href="#ArialMT-75" x="127.832031"/>
     <use xlink:href="#ArialMT-65" x="183.447266"/>
     <use xlink:href="#ArialMT-20" x="239.0625"/>
     <use xlink:href="#ArialMT-3d" x="266.845703"/>
     <use xlink:href="#ArialMT-20" x="325.244141"/>
     <use xlink:href="#ArialMT-5b" x="353.027344"/>
     <use xlink:href="#ArialMT-35" x="380.810547"/>
     <use xlink:href="#ArialMT-2c" x="436.425781"/>
     <use xlink:href="#ArialMT-20" x="464.208984"/>
     <use xlink:href="#ArialMT-34" x="491.992188"/>
     <use xlink:href="#ArialMT-5d" x="547.607422"/>
    </g>
    <!-- class = 33 -->
    <g style="fill: #262626" transform="translate(706.419062 616.850063) scale(0.12 -0.12)">
     <use xlink:href="#ArialMT-63"/>
     <use xlink:href="#ArialMT-6c" x="50"/>
     <use xlink:href="#ArialMT-61" x="72.216797"/>
     <use xlink:href="#ArialMT-73" x="127.832031"/>
     <use xlink:href="#ArialMT-73" x="177.832031"/>
     <use xlink:href="#ArialMT-20" x="227.832031"/>
     <use xlink:href="#ArialMT-3d" x="255.615234"/>
     <use xlink:href="#ArialMT-20" x="314.013672"/>
     <use xlink:href="#ArialMT-33" x="341.796875"/>
     <use xlink:href="#ArialMT-33" x="397.412109"/>
    </g>
   </g>
   <g id="patch_10">
    <path d="M 334.914606 464.607033 
Q 359.590487 438.339159 385.031859 411.256409 
" style="fill: none; stroke: #262626; stroke-linecap: round"/>
    <path d="M 339.950283 462.751783 
L 334.914606 464.607033 
L 336.451812 459.465341 
" style="fill: none; stroke: #262626; stroke-linecap: round"/>
   </g>
   <g id="text_6">
    <g id="patch_11">
     <path d="M 265.078438 536.876437 
L 334.121563 536.876437 
Q 337.721563 536.876437 337.721563 533.276437 
L 337.721563 470.982937 
Q 337.721563 467.382937 334.121563 467.382937 
L 265.078438 467.382937 
Q 261.478437 467.382937 261.478437 470.982937 
L 261.478437 533.276437 
Q 261.478437 536.876437 265.078438 536.876437 
z
" style="fill: #ffffff; stroke: #ffffff; stroke-linejoin: miter"/>
    </g>
    <!-- age &lt;= 47.5 -->
    <g style="fill: #262626" transform="translate(267.57125 479.712937) scale(0.12 -0.12)">
     <defs>
      <path id="ArialMT-3c" d="M 350 2003 
L 350 2528 
L 3384 3809 
L 3384 3250 
L 978 2263 
L 3384 1266 
L 3384 706 
L 350 2003 
z
" transform="scale(0.015625)"/>
      <path id="ArialMT-37" d="M 303 3981 
L 303 4522 
L 3269 4522 
L 3269 4084 
Q 2831 3619 2401 2847 
Q 1972 2075 1738 1259 
Q 1569 684 1522 0 
L 944 0 
Q 953 541 1156 1306 
Q 1359 2072 1739 2783 
Q 2119 3494 2547 3981 
L 303 3981 
z
" transform="scale(0.015625)"/>
     </defs>
     <use xlink:href="#ArialMT-61"/>
     <use xlink:href="#ArialMT-67" x="55.615234"/>
     <use xlink:href="#ArialMT-65" x="111.230469"/>
     <use xlink:href="#ArialMT-20" x="166.845703"/>
     <use xlink:href="#ArialMT-3c" x="194.628906"/>
     <use xlink:href="#ArialMT-3d" x="253.027344"/>
     <use xlink:href="#ArialMT-20" x="311.425781"/>
     <use xlink:href="#ArialMT-34" x="339.208984"/>
     <use xlink:href="#ArialMT-37" x="394.824219"/>
     <use xlink:href="#ArialMT-2e" x="450.439453"/>
     <use xlink:href="#ArialMT-35" x="478.222656"/>
    </g>
    <!-- gini = 0.5 -->
    <g style="fill: #262626" transform="translate(275.0825 492.588562) scale(0.12 -0.12)">
     <use xlink:href="#ArialMT-67"/>
     <use xlink:href="#ArialMT-69" x="55.615234"/>
     <use xlink:href="#ArialMT-6e" x="77.832031"/>
     <use xlink:href="#ArialMT-69" x="133.447266"/>
     <use xlink:href="#ArialMT-20" x="155.664062"/>
     <use xlink:href="#ArialMT-3d" x="183.447266"/>
     <use xlink:href="#ArialMT-20" x="241.845703"/>
     <use xlink:href="#ArialMT-30" x="269.628906"/>
     <use xlink:href="#ArialMT-2e" x="325.244141"/>
     <use xlink:href="#ArialMT-35" x="353.027344"/>
    </g>
    <!-- samples = 2 -->
    <g style="fill: #262626" transform="translate(267.084688 505.464187) scale(0.12 -0.12)">
     <defs>
      <path id="ArialMT-32" d="M 3222 541 
L 3222 0 
L 194 0 
Q 188 203 259 391 
Q 375 700 629 1000 
Q 884 1300 1366 1694 
Q 2113 2306 2375 2664 
Q 2638 3022 2638 3341 
Q 2638 3675 2398 3904 
Q 2159 4134 1775 4134 
Q 1369 4134 1125 3890 
Q 881 3647 878 3216 
L 300 3275 
Q 359 3922 746 4261 
Q 1134 4600 1788 4600 
Q 2447 4600 2831 4234 
Q 3216 3869 3216 3328 
Q 3216 3053 3103 2787 
Q 2991 2522 2730 2228 
Q 2469 1934 1863 1422 
Q 1356 997 1212 845 
Q 1069 694 975 541 
L 3222 541 
z
" transform="scale(0.015625)"/>
     </defs>
     <use xlink:href="#ArialMT-73"/>
     <use xlink:href="#ArialMT-61" x="50"/>
     <use xlink:href="#ArialMT-6d" x="105.615234"/>
     <use xlink:href="#ArialMT-70" x="188.916016"/>
     <use xlink:href="#ArialMT-6c" x="244.53125"/>
     <use xlink:href="#ArialMT-65" x="266.748047"/>
     <use xlink:href="#ArialMT-73" x="322.363281"/>
     <use xlink:href="#ArialMT-20" x="372.363281"/>
     <use xlink:href="#ArialMT-3d" x="400.146484"/>
     <use xlink:href="#ArialMT-20" x="458.544922"/>
     <use xlink:href="#ArialMT-32" x="486.328125"/>
    </g>
    <!-- value = [1, 1] -->
    <g style="fill: #262626" transform="translate(265.078438 518.199187) scale(0.12 -0.12)">
     <use xlink:href="#ArialMT-76"/>
     <use xlink:href="#ArialMT-61" x="50"/>
     <use xlink:href="#ArialMT-6c" x="105.615234"/>
     <use xlink:href="#ArialMT-75" x="127.832031"/>
     <use xlink:href="#ArialMT-65" x="183.447266"/>
     <use xlink:href="#ArialMT-20" x="239.0625"/>
     <use xlink:href="#ArialMT-3d" x="266.845703"/>
     <use xlink:href="#ArialMT-20" x="325.244141"/>
     <use xlink:href="#ArialMT-5b" x="353.027344"/>
     <use xlink:href="#ArialMT-31" x="380.810547"/>
     <use xlink:href="#ArialMT-2c" x="436.425781"/>
     <use xlink:href="#ArialMT-20" x="464.208984"/>
     <use xlink:href="#ArialMT-31" x="491.992188"/>
     <use xlink:href="#ArialMT-5d" x="547.607422"/>
    </g>
    <!-- class = 33 -->
    <g style="fill: #262626" transform="translate(272.419062 530.891437) scale(0.12 -0.12)">
     <use xlink:href="#ArialMT-63"/>
     <use xlink:href="#ArialMT-6c" x="50"/>
     <use xlink:href="#ArialMT-61" x="72.216797"/>
     <use xlink:href="#ArialMT-73" x="127.832031"/>
     <use xlink:href="#ArialMT-73" x="177.832031"/>
     <use xlink:href="#ArialMT-20" x="227.832031"/>
     <use xlink:href="#ArialMT-3d" x="255.615234"/>
     <use xlink:href="#ArialMT-20" x="314.013672"/>
     <use xlink:href="#ArialMT-33" x="341.796875"/>
     <use xlink:href="#ArialMT-33" x="397.412109"/>
    </g>
   </g>
   <g id="patch_12">
    <path d="M 443.920077 471.03105 
Q 416.226707 441.551011 387.767847 411.256095 
" style="fill: none; stroke: #262626; stroke-linecap: round"/>
    <path d="M 442.382871 465.889358 
L 443.920077 471.03105 
L 438.8844 469.175801 
" style="fill: none; stroke: #262626; stroke-linecap: round"/>
   </g>
   <g id="text_7">
    <g id="patch_13">
     <path d="M 438.678437 530.456437 
L 507.721563 530.456437 
Q 511.321562 530.456437 511.321562 526.856437 
L 511.321562 477.402937 
Q 511.321562 473.802937 507.721563 473.802937 
L 438.678437 473.802937 
Q 435.078437 473.802937 435.078437 477.402937 
L 435.078437 526.856437 
Q 435.078437 530.456437 438.678437 530.456437 
z
" style="fill: #e58139; stroke: #ffffff; stroke-linejoin: miter"/>
    </g>
    <!-- gini = 0.0 -->
    <g style="fill: #262626" transform="translate(448.6825 486.168563) scale(0.12 -0.12)">
     <use xlink:href="#ArialMT-67"/>
     <use xlink:href="#ArialMT-69" x="55.615234"/>
     <use xlink:href="#ArialMT-6e" x="77.832031"/>
     <use xlink:href="#ArialMT-69" x="133.447266"/>
     <use xlink:href="#ArialMT-20" x="155.664062"/>
     <use xlink:href="#ArialMT-3d" x="183.447266"/>
     <use xlink:href="#ArialMT-20" x="241.845703"/>
     <use xlink:href="#ArialMT-30" x="269.628906"/>
     <use xlink:href="#ArialMT-2e" x="325.244141"/>
     <use xlink:href="#ArialMT-30" x="353.027344"/>
    </g>
    <!-- samples = 3 -->
    <g style="fill: #262626" transform="translate(440.684687 499.044188) scale(0.12 -0.12)">
     <use xlink:href="#ArialMT-73"/>
     <use xlink:href="#ArialMT-61" x="50"/>
     <use xlink:href="#ArialMT-6d" x="105.615234"/>
     <use xlink:href="#ArialMT-70" x="188.916016"/>
     <use xlink:href="#ArialMT-6c" x="244.53125"/>
     <use xlink:href="#ArialMT-65" x="266.748047"/>
     <use xlink:href="#ArialMT-73" x="322.363281"/>
     <use xlink:href="#ArialMT-20" x="372.363281"/>
     <use xlink:href="#ArialMT-3d" x="400.146484"/>
     <use xlink:href="#ArialMT-20" x="458.544922"/>
     <use xlink:href="#ArialMT-33" x="486.328125"/>
    </g>
    <!-- value = [3, 0] -->
    <g style="fill: #262626" transform="translate(438.678437 511.779187) scale(0.12 -0.12)">
     <use xlink:href="#ArialMT-76"/>
     <use xlink:href="#ArialMT-61" x="50"/>
     <use xlink:href="#ArialMT-6c" x="105.615234"/>
     <use xlink:href="#ArialMT-75" x="127.832031"/>
     <use xlink:href="#ArialMT-65" x="183.447266"/>
     <use xlink:href="#ArialMT-20" x="239.0625"/>
     <use xlink:href="#ArialMT-3d" x="266.845703"/>
     <use xlink:href="#ArialMT-20" x="325.244141"/>
     <use xlink:href="#ArialMT-5b" x="353.027344"/>
     <use xlink:href="#ArialMT-33" x="380.810547"/>
     <use xlink:href="#ArialMT-2c" x="436.425781"/>
     <use xlink:href="#ArialMT-20" x="464.208984"/>
     <use xlink:href="#ArialMT-30" x="491.992188"/>
     <use xlink:href="#ArialMT-5d" x="547.607422"/>
    </g>
    <!-- class = 33 -->
    <g style="fill: #262626" transform="translate(446.019063 524.471437) scale(0.12 -0.12)">
     <use xlink:href="#ArialMT-63"/>
     <use xlink:href="#ArialMT-6c" x="50"/>
     <use xlink:href="#ArialMT-61" x="72.216797"/>
     <use xlink:href="#ArialMT-73" x="127.832031"/>
     <use xlink:href="#ArialMT-73" x="177.832031"/>
     <use xlink:href="#ArialMT-20" x="227.832031"/>
     <use xlink:href="#ArialMT-3d" x="255.615234"/>
     <use xlink:href="#ArialMT-20" x="314.013672"/>
     <use xlink:href="#ArialMT-33" x="341.796875"/>
     <use xlink:href="#ArialMT-33" x="397.412109"/>
    </g>
   </g>
   <g id="patch_14">
    <path d="M 682.130093 464.590546 
Q 706.798433 438.3307 732.232264 411.255977 
" style="fill: none; stroke: #262626; stroke-linecap: round"/>
    <path d="M 687.16577 462.735297 
L 682.130093 464.590546 
L 683.6673 459.448855 
" style="fill: none; stroke: #262626; stroke-linecap: round"/>
   </g>
   <g id="text_8">
    <g id="patch_15">
     <path d="M 610.948125 536.89425 
L 682.651875 536.89425 
Q 686.251875 536.89425 686.251875 533.29425 
L 686.251875 470.965125 
Q 686.251875 467.365125 682.651875 467.365125 
L 610.948125 467.365125 
Q 607.348125 467.365125 607.348125 470.965125 
L 607.348125 533.29425 
Q 607.348125 536.89425 610.948125 536.89425 
z
" style="fill: #f6d5bd; stroke: #ffffff; stroke-linejoin: miter"/>
    </g>
    <!-- age &lt;= 58.0 -->
    <g style="fill: #262626" transform="translate(614.77125 479.73075) scale(0.12 -0.12)">
     <defs>
      <path id="ArialMT-38" d="M 1131 2484 
Q 781 2613 612 2850 
Q 444 3088 444 3419 
Q 444 3919 803 4259 
Q 1163 4600 1759 4600 
Q 2359 4600 2725 4251 
Q 3091 3903 3091 3403 
Q 3091 3084 2923 2848 
Q 2756 2613 2416 2484 
Q 2838 2347 3058 2040 
Q 3278 1734 3278 1309 
Q 3278 722 2862 322 
Q 2447 -78 1769 -78 
Q 1091 -78 675 323 
Q 259 725 259 1325 
Q 259 1772 486 2073 
Q 713 2375 1131 2484 
z
M 1019 3438 
Q 1019 3113 1228 2906 
Q 1438 2700 1772 2700 
Q 2097 2700 2305 2904 
Q 2513 3109 2513 3406 
Q 2513 3716 2298 3927 
Q 2084 4138 1766 4138 
Q 1444 4138 1231 3931 
Q 1019 3725 1019 3438 
z
M 838 1322 
Q 838 1081 952 856 
Q 1066 631 1291 507 
Q 1516 384 1775 384 
Q 2178 384 2440 643 
Q 2703 903 2703 1303 
Q 2703 1709 2433 1975 
Q 2163 2241 1756 2241 
Q 1359 2241 1098 1978 
Q 838 1716 838 1322 
z
" transform="scale(0.015625)"/>
     </defs>
     <use xlink:href="#ArialMT-61"/>
     <use xlink:href="#ArialMT-67" x="55.615234"/>
     <use xlink:href="#ArialMT-65" x="111.230469"/>
     <use xlink:href="#ArialMT-20" x="166.845703"/>
     <use xlink:href="#ArialMT-3c" x="194.628906"/>
     <use xlink:href="#ArialMT-3d" x="253.027344"/>
     <use xlink:href="#ArialMT-20" x="311.425781"/>
     <use xlink:href="#ArialMT-35" x="339.208984"/>
     <use xlink:href="#ArialMT-38" x="394.824219"/>
     <use xlink:href="#ArialMT-2e" x="450.439453"/>
     <use xlink:href="#ArialMT-30" x="478.222656"/>
    </g>
    <!-- gini = 0.48 -->
    <g style="fill: #262626" transform="translate(618.945937 492.606375) scale(0.12 -0.12)">
     <use xlink:href="#ArialMT-67"/>
     <use xlink:href="#ArialMT-69" x="55.615234"/>
     <use xlink:href="#ArialMT-6e" x="77.832031"/>
     <use xlink:href="#ArialMT-69" x="133.447266"/>
     <use xlink:href="#ArialMT-20" x="155.664062"/>
     <use xlink:href="#ArialMT-3d" x="183.447266"/>
     <use xlink:href="#ArialMT-20" x="241.845703"/>
     <use xlink:href="#ArialMT-30" x="269.628906"/>
     <use xlink:href="#ArialMT-2e" x="325.244141"/>
     <use xlink:href="#ArialMT-34" x="353.027344"/>
     <use xlink:href="#ArialMT-38" x="408.642578"/>
    </g>
    <!-- samples = 10 -->
    <g style="fill: #262626" transform="translate(610.948125 505.482) scale(0.12 -0.12)">
     <use xlink:href="#ArialMT-73"/>
     <use xlink:href="#ArialMT-61" x="50"/>
     <use xlink:href="#ArialMT-6d" x="105.615234"/>
     <use xlink:href="#ArialMT-70" x="188.916016"/>
     <use xlink:href="#ArialMT-6c" x="244.53125"/>
     <use xlink:href="#ArialMT-65" x="266.748047"/>
     <use xlink:href="#ArialMT-73" x="322.363281"/>
     <use xlink:href="#ArialMT-20" x="372.363281"/>
     <use xlink:href="#ArialMT-3d" x="400.146484"/>
     <use xlink:href="#ArialMT-20" x="458.544922"/>
     <use xlink:href="#ArialMT-31" x="486.328125"/>
     <use xlink:href="#ArialMT-30" x="541.943359"/>
    </g>
    <!-- value = [6, 4] -->
    <g style="fill: #262626" transform="translate(612.278437 518.217) scale(0.12 -0.12)">
     <use xlink:href="#ArialMT-76"/>
     <use xlink:href="#ArialMT-61" x="50"/>
     <use xlink:href="#ArialMT-6c" x="105.615234"/>
     <use xlink:href="#ArialMT-75" x="127.832031"/>
     <use xlink:href="#ArialMT-65" x="183.447266"/>
     <use xlink:href="#ArialMT-20" x="239.0625"/>
     <use xlink:href="#ArialMT-3d" x="266.845703"/>
     <use xlink:href="#ArialMT-20" x="325.244141"/>
     <use xlink:href="#ArialMT-5b" x="353.027344"/>
     <use xlink:href="#ArialMT-36" x="380.810547"/>
     <use xlink:href="#ArialMT-2c" x="436.425781"/>
     <use xlink:href="#ArialMT-20" x="464.208984"/>
     <use xlink:href="#ArialMT-34" x="491.992188"/>
     <use xlink:href="#ArialMT-5d" x="547.607422"/>
    </g>
    <!-- class = 33 -->
    <g style="fill: #262626" transform="translate(619.619062 530.90925) scale(0.12 -0.12)">
     <use xlink:href="#ArialMT-63"/>
     <use xlink:href="#ArialMT-6c" x="50"/>
     <use xlink:href="#ArialMT-61" x="72.216797"/>
     <use xlink:href="#ArialMT-73" x="127.832031"/>
     <use xlink:href="#ArialMT-73" x="177.832031"/>
     <use xlink:href="#ArialMT-20" x="227.832031"/>
     <use xlink:href="#ArialMT-3d" x="255.615234"/>
     <use xlink:href="#ArialMT-20" x="314.013672"/>
     <use xlink:href="#ArialMT-33" x="341.796875"/>
     <use xlink:href="#ArialMT-33" x="397.412109"/>
    </g>
   </g>
   <g id="patch_16">
    <path d="M 791.120077 471.03105 
Q 763.426707 441.551011 734.967847 411.256095 
" style="fill: none; stroke: #262626; stroke-linecap: round"/>
    <path d="M 789.582871 465.889358 
L 791.120077 471.03105 
L 786.0844 469.175801 
" style="fill: none; stroke: #262626; stroke-linecap: round"/>
   </g>
   <g id="text_9">
    <g id="patch_17">
     <path d="M 785.878438 530.456437 
L 854.921563 530.456437 
Q 858.521563 530.456437 858.521563 526.856437 
L 858.521563 477.402937 
Q 858.521563 473.802937 854.921563 473.802937 
L 785.878438 473.802937 
Q 782.278437 473.802937 782.278437 477.402937 
L 782.278437 526.856437 
Q 782.278437 530.456437 785.878438 530.456437 
z
" style="fill: #399de5; stroke: #ffffff; stroke-linejoin: miter"/>
    </g>
    <!-- gini = 0.0 -->
    <g style="fill: #262626" transform="translate(795.8825 486.168563) scale(0.12 -0.12)">
     <use xlink:href="#ArialMT-67"/>
     <use xlink:href="#ArialMT-69" x="55.615234"/>
     <use xlink:href="#ArialMT-6e" x="77.832031"/>
     <use xlink:href="#ArialMT-69" x="133.447266"/>
     <use xlink:href="#ArialMT-20" x="155.664062"/>
     <use xlink:href="#ArialMT-3d" x="183.447266"/>
     <use xlink:href="#ArialMT-20" x="241.845703"/>
     <use xlink:href="#ArialMT-30" x="269.628906"/>
     <use xlink:href="#ArialMT-2e" x="325.244141"/>
     <use xlink:href="#ArialMT-30" x="353.027344"/>
    </g>
    <!-- samples = 3 -->
    <g style="fill: #262626" transform="translate(787.884687 499.044188) scale(0.12 -0.12)">
     <use xlink:href="#ArialMT-73"/>
     <use xlink:href="#ArialMT-61" x="50"/>
     <use xlink:href="#ArialMT-6d" x="105.615234"/>
     <use xlink:href="#ArialMT-70" x="188.916016"/>
     <use xlink:href="#ArialMT-6c" x="244.53125"/>
     <use xlink:href="#ArialMT-65" x="266.748047"/>
     <use xlink:href="#ArialMT-73" x="322.363281"/>
     <use xlink:href="#ArialMT-20" x="372.363281"/>
     <use xlink:href="#ArialMT-3d" x="400.146484"/>
     <use xlink:href="#ArialMT-20" x="458.544922"/>
     <use xlink:href="#ArialMT-33" x="486.328125"/>
    </g>
    <!-- value = [0, 3] -->
    <g style="fill: #262626" transform="translate(785.878438 511.779187) scale(0.12 -0.12)">
     <use xlink:href="#ArialMT-76"/>
     <use xlink:href="#ArialMT-61" x="50"/>
     <use xlink:href="#ArialMT-6c" x="105.615234"/>
     <use xlink:href="#ArialMT-75" x="127.832031"/>
     <use xlink:href="#ArialMT-65" x="183.447266"/>
     <use xlink:href="#ArialMT-20" x="239.0625"/>
     <use xlink:href="#ArialMT-3d" x="266.845703"/>
     <use xlink:href="#ArialMT-20" x="325.244141"/>
     <use xlink:href="#ArialMT-5b" x="353.027344"/>
     <use xlink:href="#ArialMT-30" x="380.810547"/>
     <use xlink:href="#ArialMT-2c" x="436.425781"/>
     <use xlink:href="#ArialMT-20" x="464.208984"/>
     <use xlink:href="#ArialMT-33" x="491.992188"/>
     <use xlink:href="#ArialMT-5d" x="547.607422"/>
    </g>
    <!-- class = 36 -->
    <g style="fill: #262626" transform="translate(793.219062 524.471437) scale(0.12 -0.12)">
     <use xlink:href="#ArialMT-63"/>
     <use xlink:href="#ArialMT-6c" x="50"/>
     <use xlink:href="#ArialMT-61" x="72.216797"/>
     <use xlink:href="#ArialMT-73" x="127.832031"/>
     <use xlink:href="#ArialMT-73" x="177.832031"/>
     <use xlink:href="#ArialMT-20" x="227.832031"/>
     <use xlink:href="#ArialMT-3d" x="255.615234"/>
     <use xlink:href="#ArialMT-20" x="314.013672"/>
     <use xlink:href="#ArialMT-33" x="341.796875"/>
     <use xlink:href="#ArialMT-36" x="397.412109"/>
    </g>
   </g>
   <g id="patch_18">
    <path d="M 427.778039 387.776205 
Q 492.511365 353.32137 558.231632 318.341228 
" style="fill: none; stroke: #262626; stroke-linecap: round"/>
    <path d="M 433.142861 387.639522 
L 427.778039 387.776205 
L 430.887586 383.402337 
" style="fill: none; stroke: #262626; stroke-linecap: round"/>
   </g>
   <g id="text_10">
    <g id="patch_19">
     <path d="M 351.878437 444.472875 
L 420.921562 444.472875 
Q 424.521562 444.472875 424.521562 440.872875 
L 424.521562 378.5865 
Q 424.521562 374.9865 420.921562 374.9865 
L 351.878437 374.9865 
Q 348.278437 374.9865 348.278437 378.5865 
L 348.278437 440.872875 
Q 348.278437 444.472875 351.878437 444.472875 
z
" style="fill: #eca06a; stroke: #ffffff; stroke-linejoin: miter"/>
    </g>
    <!-- age &lt;= 50.0 -->
    <g style="fill: #262626" transform="translate(354.37125 387.352125) scale(0.12 -0.12)">
     <use xlink:href="#ArialMT-61"/>
     <use xlink:href="#ArialMT-67" x="55.615234"/>
     <use xlink:href="#ArialMT-65" x="111.230469"/>
     <use xlink:href="#ArialMT-20" x="166.845703"/>
     <use xlink:href="#ArialMT-3c" x="194.628906"/>
     <use xlink:href="#ArialMT-3d" x="253.027344"/>
     <use xlink:href="#ArialMT-20" x="311.425781"/>
     <use xlink:href="#ArialMT-35" x="339.208984"/>
     <use xlink:href="#ArialMT-30" x="394.824219"/>
     <use xlink:href="#ArialMT-2e" x="450.439453"/>
     <use xlink:href="#ArialMT-30" x="478.222656"/>
    </g>
    <!-- gini = 0.32 -->
    <g style="fill: #262626" transform="translate(358.545937 400.22775) scale(0.12 -0.12)">
     <use xlink:href="#ArialMT-67"/>
     <use xlink:href="#ArialMT-69" x="55.615234"/>
     <use xlink:href="#ArialMT-6e" x="77.832031"/>
     <use xlink:href="#ArialMT-69" x="133.447266"/>
     <use xlink:href="#ArialMT-20" x="155.664062"/>
     <use xlink:href="#ArialMT-3d" x="183.447266"/>
     <use xlink:href="#ArialMT-20" x="241.845703"/>
     <use xlink:href="#ArialMT-30" x="269.628906"/>
     <use xlink:href="#ArialMT-2e" x="325.244141"/>
     <use xlink:href="#ArialMT-33" x="353.027344"/>
     <use xlink:href="#ArialMT-32" x="408.642578"/>
    </g>
    <!-- samples = 5 -->
    <g style="fill: #262626" transform="translate(353.884687 413.060625) scale(0.12 -0.12)">
     <use xlink:href="#ArialMT-73"/>
     <use xlink:href="#ArialMT-61" x="50"/>
     <use xlink:href="#ArialMT-6d" x="105.615234"/>
     <use xlink:href="#ArialMT-70" x="188.916016"/>
     <use xlink:href="#ArialMT-6c" x="244.53125"/>
     <use xlink:href="#ArialMT-65" x="266.748047"/>
     <use xlink:href="#ArialMT-73" x="322.363281"/>
     <use xlink:href="#ArialMT-20" x="372.363281"/>
     <use xlink:href="#ArialMT-3d" x="400.146484"/>
     <use xlink:href="#ArialMT-20" x="458.544922"/>
     <use xlink:href="#ArialMT-35" x="486.328125"/>
    </g>
    <!-- value = [4, 1] -->
    <g style="fill: #262626" transform="translate(351.878437 425.795625) scale(0.12 -0.12)">
     <use xlink:href="#ArialMT-76"/>
     <use xlink:href="#ArialMT-61" x="50"/>
     <use xlink:href="#ArialMT-6c" x="105.615234"/>
     <use xlink:href="#ArialMT-75" x="127.832031"/>
     <use xlink:href="#ArialMT-65" x="183.447266"/>
     <use xlink:href="#ArialMT-20" x="239.0625"/>
     <use xlink:href="#ArialMT-3d" x="266.845703"/>
     <use xlink:href="#ArialMT-20" x="325.244141"/>
     <use xlink:href="#ArialMT-5b" x="353.027344"/>
     <use xlink:href="#ArialMT-34" x="380.810547"/>
     <use xlink:href="#ArialMT-2c" x="436.425781"/>
     <use xlink:href="#ArialMT-20" x="464.208984"/>
     <use xlink:href="#ArialMT-31" x="491.992188"/>
     <use xlink:href="#ArialMT-5d" x="547.607422"/>
    </g>
    <!-- class = 33 -->
    <g style="fill: #262626" transform="translate(359.219062 438.487875) scale(0.12 -0.12)">
     <use xlink:href="#ArialMT-63"/>
     <use xlink:href="#ArialMT-6c" x="50"/>
     <use xlink:href="#ArialMT-61" x="72.216797"/>
     <use xlink:href="#ArialMT-73" x="127.832031"/>
     <use xlink:href="#ArialMT-73" x="177.832031"/>
     <use xlink:href="#ArialMT-20" x="227.832031"/>
     <use xlink:href="#ArialMT-3d" x="255.615234"/>
     <use xlink:href="#ArialMT-20" x="314.013672"/>
     <use xlink:href="#ArialMT-33" x="341.796875"/>
     <use xlink:href="#ArialMT-33" x="397.412109"/>
    </g>
   </g>
   <g id="patch_20">
    <path d="M 675.389494 378.816989 
Q 619.070772 348.840895 561.765109 318.339493 
" style="fill: none; stroke: #262626; stroke-linecap: round"/>
    <path d="M 672.279947 374.443121 
L 675.389494 378.816989 
L 670.024672 378.680305 
" style="fill: none; stroke: #262626; stroke-linecap: round"/>
   </g>
   <g id="text_11">
    <g id="patch_21">
     <path d="M 682.239063 444.423937 
L 784.960938 444.423937 
Q 788.560938 444.423937 788.560938 440.823937 
L 788.560938 378.776062 
Q 788.560938 375.176062 784.960938 375.176062 
L 682.239063 375.176062 
Q 678.639063 375.176062 678.639063 378.776062 
L 678.639063 440.823937 
Q 678.639063 444.423937 682.239063 444.423937 
z
" style="fill: #e3f1fb; stroke: #ffffff; stroke-linejoin: miter"/>
    </g>
    <!-- sex_Female &lt;= 0.5 -->
    <g style="fill: #262626" transform="translate(682.239063 387.401062) scale(0.12 -0.12)">
     <defs>
      <path id="ArialMT-78" d="M 47 0 
L 1259 1725 
L 138 3319 
L 841 3319 
L 1350 2541 
Q 1494 2319 1581 2169 
Q 1719 2375 1834 2534 
L 2394 3319 
L 3066 3319 
L 1919 1756 
L 3153 0 
L 2463 0 
L 1781 1031 
L 1600 1309 
L 728 0 
L 47 0 
z
" transform="scale(0.015625)"/>
      <path id="ArialMT-5f" d="M -97 -1272 
L -97 -866 
L 3631 -866 
L 3631 -1272 
L -97 -1272 
z
" transform="scale(0.015625)"/>
      <path id="ArialMT-46" d="M 525 0 
L 525 4581 
L 3616 4581 
L 3616 4041 
L 1131 4041 
L 1131 2622 
L 3281 2622 
L 3281 2081 
L 1131 2081 
L 1131 0 
L 525 0 
z
" transform="scale(0.015625)"/>
     </defs>
     <use xlink:href="#ArialMT-73"/>
     <use xlink:href="#ArialMT-65" x="50"/>
     <use xlink:href="#ArialMT-78" x="105.615234"/>
     <use xlink:href="#ArialMT-5f" x="155.615234"/>
     <use xlink:href="#ArialMT-46" x="211.230469"/>
     <use xlink:href="#ArialMT-65" x="272.314453"/>
     <use xlink:href="#ArialMT-6d" x="327.929688"/>
     <use xlink:href="#ArialMT-61" x="411.230469"/>
     <use xlink:href="#ArialMT-6c" x="466.845703"/>
     <use xlink:href="#ArialMT-65" x="489.0625"/>
     <use xlink:href="#ArialMT-20" x="544.677734"/>
     <use xlink:href="#ArialMT-3c" x="572.460938"/>
     <use xlink:href="#ArialMT-3d" x="630.859375"/>
     <use xlink:href="#ArialMT-20" x="689.257812"/>
     <use xlink:href="#ArialMT-30" x="717.041016"/>
     <use xlink:href="#ArialMT-2e" x="772.65625"/>
     <use xlink:href="#ArialMT-35" x="800.439453"/>
    </g>
    <!-- gini = 0.497 -->
    <g style="fill: #262626" transform="translate(702.409375 400.136062) scale(0.12 -0.12)">
     <use xlink:href="#ArialMT-67"/>
     <use xlink:href="#ArialMT-69" x="55.615234"/>
     <use xlink:href="#ArialMT-6e" x="77.832031"/>
     <use xlink:href="#ArialMT-69" x="133.447266"/>
     <use xlink:href="#ArialMT-20" x="155.664062"/>
     <use xlink:href="#ArialMT-3d" x="183.447266"/>
     <use xlink:href="#ArialMT-20" x="241.845703"/>
     <use xlink:href="#ArialMT-30" x="269.628906"/>
     <use xlink:href="#ArialMT-2e" x="325.244141"/>
     <use xlink:href="#ArialMT-34" x="353.027344"/>
     <use xlink:href="#ArialMT-39" x="408.642578"/>
     <use xlink:href="#ArialMT-37" x="464.257812"/>
    </g>
    <!-- samples = 13 -->
    <g style="fill: #262626" transform="translate(697.748125 413.011687) scale(0.12 -0.12)">
     <use xlink:href="#ArialMT-73"/>
     <use xlink:href="#ArialMT-61" x="50"/>
     <use xlink:href="#ArialMT-6d" x="105.615234"/>
     <use xlink:href="#ArialMT-70" x="188.916016"/>
     <use xlink:href="#ArialMT-6c" x="244.53125"/>
     <use xlink:href="#ArialMT-65" x="266.748047"/>
     <use xlink:href="#ArialMT-73" x="322.363281"/>
     <use xlink:href="#ArialMT-20" x="372.363281"/>
     <use xlink:href="#ArialMT-3d" x="400.146484"/>
     <use xlink:href="#ArialMT-20" x="458.544922"/>
     <use xlink:href="#ArialMT-31" x="486.328125"/>
     <use xlink:href="#ArialMT-33" x="541.943359"/>
    </g>
    <!-- value = [6, 7] -->
    <g style="fill: #262626" transform="translate(699.078438 425.746687) scale(0.12 -0.12)">
     <use xlink:href="#ArialMT-76"/>
     <use xlink:href="#ArialMT-61" x="50"/>
     <use xlink:href="#ArialMT-6c" x="105.615234"/>
     <use xlink:href="#ArialMT-75" x="127.832031"/>
     <use xlink:href="#ArialMT-65" x="183.447266"/>
     <use xlink:href="#ArialMT-20" x="239.0625"/>
     <use xlink:href="#ArialMT-3d" x="266.845703"/>
     <use xlink:href="#ArialMT-20" x="325.244141"/>
     <use xlink:href="#ArialMT-5b" x="353.027344"/>
     <use xlink:href="#ArialMT-36" x="380.810547"/>
     <use xlink:href="#ArialMT-2c" x="436.425781"/>
     <use xlink:href="#ArialMT-20" x="464.208984"/>
     <use xlink:href="#ArialMT-37" x="491.992188"/>
     <use xlink:href="#ArialMT-5d" x="547.607422"/>
    </g>
    <!-- class = 36 -->
    <g style="fill: #262626" transform="translate(706.419062 438.438937) scale(0.12 -0.12)">
     <use xlink:href="#ArialMT-63"/>
     <use xlink:href="#ArialMT-6c" x="50"/>
     <use xlink:href="#ArialMT-61" x="72.216797"/>
     <use xlink:href="#ArialMT-73" x="127.832031"/>
     <use xlink:href="#ArialMT-73" x="177.832031"/>
     <use xlink:href="#ArialMT-20" x="227.832031"/>
     <use xlink:href="#ArialMT-3d" x="255.615234"/>
     <use xlink:href="#ArialMT-20" x="314.013672"/>
     <use xlink:href="#ArialMT-33" x="341.796875"/>
     <use xlink:href="#ArialMT-36" x="397.412109"/>
    </g>
   </g>
   <g id="patch_22">
    <path d="M 595.314606 279.807033 
Q 619.990487 253.539159 645.431859 226.456409 
" style="fill: none; stroke: #262626; stroke-linecap: round"/>
    <path d="M 600.350283 277.951783 
L 595.314606 279.807033 
L 596.851812 274.665341 
" style="fill: none; stroke: #262626; stroke-linecap: round"/>
   </g>
   <g id="text_12">
    <g id="patch_23">
     <path d="M 522.141875 352.076437 
L 597.858125 352.076437 
Q 601.458125 352.076437 601.458125 348.476437 
L 601.458125 286.182937 
Q 601.458125 282.582937 597.858125 282.582937 
L 522.141875 282.582937 
Q 518.541875 282.582937 518.541875 286.182937 
L 518.541875 348.476437 
Q 518.541875 352.076437 522.141875 352.076437 
z
" style="fill: #fae6d7; stroke: #ffffff; stroke-linejoin: miter"/>
    </g>
    <!-- age &lt;= 54.5 -->
    <g style="fill: #262626" transform="translate(527.97125 294.912937) scale(0.12 -0.12)">
     <use xlink:href="#ArialMT-61"/>
     <use xlink:href="#ArialMT-67" x="55.615234"/>
     <use xlink:href="#ArialMT-65" x="111.230469"/>
     <use xlink:href="#ArialMT-20" x="166.845703"/>
     <use xlink:href="#ArialMT-3c" x="194.628906"/>
     <use xlink:href="#ArialMT-3d" x="253.027344"/>
     <use xlink:href="#ArialMT-20" x="311.425781"/>
     <use xlink:href="#ArialMT-35" x="339.208984"/>
     <use xlink:href="#ArialMT-34" x="394.824219"/>
     <use xlink:href="#ArialMT-2e" x="450.439453"/>
     <use xlink:href="#ArialMT-35" x="478.222656"/>
    </g>
    <!-- gini = 0.494 -->
    <g style="fill: #262626" transform="translate(528.809375 307.788562) scale(0.12 -0.12)">
     <use xlink:href="#ArialMT-67"/>
     <use xlink:href="#ArialMT-69" x="55.615234"/>
     <use xlink:href="#ArialMT-6e" x="77.832031"/>
     <use xlink:href="#ArialMT-69" x="133.447266"/>
     <use xlink:href="#ArialMT-20" x="155.664062"/>
     <use xlink:href="#ArialMT-3d" x="183.447266"/>
     <use xlink:href="#ArialMT-20" x="241.845703"/>
     <use xlink:href="#ArialMT-30" x="269.628906"/>
     <use xlink:href="#ArialMT-2e" x="325.244141"/>
     <use xlink:href="#ArialMT-34" x="353.027344"/>
     <use xlink:href="#ArialMT-39" x="408.642578"/>
     <use xlink:href="#ArialMT-34" x="464.257812"/>
    </g>
    <!-- samples = 18 -->
    <g style="fill: #262626" transform="translate(524.148125 320.664187) scale(0.12 -0.12)">
     <use xlink:href="#ArialMT-73"/>
     <use xlink:href="#ArialMT-61" x="50"/>
     <use xlink:href="#ArialMT-6d" x="105.615234"/>
     <use xlink:href="#ArialMT-70" x="188.916016"/>
     <use xlink:href="#ArialMT-6c" x="244.53125"/>
     <use xlink:href="#ArialMT-65" x="266.748047"/>
     <use xlink:href="#ArialMT-73" x="322.363281"/>
     <use xlink:href="#ArialMT-20" x="372.363281"/>
     <use xlink:href="#ArialMT-3d" x="400.146484"/>
     <use xlink:href="#ArialMT-20" x="458.544922"/>
     <use xlink:href="#ArialMT-31" x="486.328125"/>
     <use xlink:href="#ArialMT-38" x="541.943359"/>
    </g>
    <!-- value = [10, 8] -->
    <g style="fill: #262626" transform="translate(522.141875 333.399187) scale(0.12 -0.12)">
     <use xlink:href="#ArialMT-76"/>
     <use xlink:href="#ArialMT-61" x="50"/>
     <use xlink:href="#ArialMT-6c" x="105.615234"/>
     <use xlink:href="#ArialMT-75" x="127.832031"/>
     <use xlink:href="#ArialMT-65" x="183.447266"/>
     <use xlink:href="#ArialMT-20" x="239.0625"/>
     <use xlink:href="#ArialMT-3d" x="266.845703"/>
     <use xlink:href="#ArialMT-20" x="325.244141"/>
     <use xlink:href="#ArialMT-5b" x="353.027344"/>
     <use xlink:href="#ArialMT-31" x="380.810547"/>
     <use xlink:href="#ArialMT-30" x="436.425781"/>
     <use xlink:href="#ArialMT-2c" x="492.041016"/>
     <use xlink:href="#ArialMT-20" x="519.824219"/>
     <use xlink:href="#ArialMT-38" x="547.607422"/>
     <use xlink:href="#ArialMT-5d" x="603.222656"/>
    </g>
    <!-- class = 33 -->
    <g style="fill: #262626" transform="translate(532.819062 346.091437) scale(0.12 -0.12)">
     <use xlink:href="#ArialMT-63"/>
     <use xlink:href="#ArialMT-6c" x="50"/>
     <use xlink:href="#ArialMT-61" x="72.216797"/>
     <use xlink:href="#ArialMT-73" x="127.832031"/>
     <use xlink:href="#ArialMT-73" x="177.832031"/>
     <use xlink:href="#ArialMT-20" x="227.832031"/>
     <use xlink:href="#ArialMT-3d" x="255.615234"/>
     <use xlink:href="#ArialMT-20" x="314.013672"/>
     <use xlink:href="#ArialMT-33" x="341.796875"/>
     <use xlink:href="#ArialMT-33" x="397.412109"/>
    </g>
   </g>
   <g id="patch_24">
    <path d="M 704.339248 286.251457 
Q 676.636517 256.761454 648.168297 226.456574 
" style="fill: none; stroke: #262626; stroke-linecap: round"/>
    <path d="M 702.802041 281.109766 
L 704.339248 286.251457 
L 699.30357 284.396208 
" style="fill: none; stroke: #262626; stroke-linecap: round"/>
   </g>
   <g id="text_13">
    <g id="patch_25">
     <path d="M 699.078438 345.635062 
L 768.121563 345.635062 
Q 771.721563 345.635062 771.721563 342.035062 
L 771.721563 292.624312 
Q 771.721563 289.024312 768.121563 289.024312 
L 699.078438 289.024312 
Q 695.478438 289.024312 695.478438 292.624312 
L 695.478438 342.035062 
Q 695.478438 345.635062 699.078438 345.635062 
z
" style="fill: #399de5; stroke: #ffffff; stroke-linejoin: miter"/>
    </g>
    <!-- gini = 0.0 -->
    <g style="fill: #262626" transform="translate(709.0825 301.389937) scale(0.12 -0.12)">
     <use xlink:href="#ArialMT-67"/>
     <use xlink:href="#ArialMT-69" x="55.615234"/>
     <use xlink:href="#ArialMT-6e" x="77.832031"/>
     <use xlink:href="#ArialMT-69" x="133.447266"/>
     <use xlink:href="#ArialMT-20" x="155.664062"/>
     <use xlink:href="#ArialMT-3d" x="183.447266"/>
     <use xlink:href="#ArialMT-20" x="241.845703"/>
     <use xlink:href="#ArialMT-30" x="269.628906"/>
     <use xlink:href="#ArialMT-2e" x="325.244141"/>
     <use xlink:href="#ArialMT-30" x="353.027344"/>
    </g>
    <!-- samples = 7 -->
    <g style="fill: #262626" transform="translate(701.084687 314.222812) scale(0.12 -0.12)">
     <use xlink:href="#ArialMT-73"/>
     <use xlink:href="#ArialMT-61" x="50"/>
     <use xlink:href="#ArialMT-6d" x="105.615234"/>
     <use xlink:href="#ArialMT-70" x="188.916016"/>
     <use xlink:href="#ArialMT-6c" x="244.53125"/>
     <use xlink:href="#ArialMT-65" x="266.748047"/>
     <use xlink:href="#ArialMT-73" x="322.363281"/>
     <use xlink:href="#ArialMT-20" x="372.363281"/>
     <use xlink:href="#ArialMT-3d" x="400.146484"/>
     <use xlink:href="#ArialMT-20" x="458.544922"/>
     <use xlink:href="#ArialMT-37" x="486.328125"/>
    </g>
    <!-- value = [0, 7] -->
    <g style="fill: #262626" transform="translate(699.078438 326.957812) scale(0.12 -0.12)">
     <use xlink:href="#ArialMT-76"/>
     <use xlink:href="#ArialMT-61" x="50"/>
     <use xlink:href="#ArialMT-6c" x="105.615234"/>
     <use xlink:href="#ArialMT-75" x="127.832031"/>
     <use xlink:href="#ArialMT-65" x="183.447266"/>
     <use xlink:href="#ArialMT-20" x="239.0625"/>
     <use xlink:href="#ArialMT-3d" x="266.845703"/>
     <use xlink:href="#ArialMT-20" x="325.244141"/>
     <use xlink:href="#ArialMT-5b" x="353.027344"/>
     <use xlink:href="#ArialMT-30" x="380.810547"/>
     <use xlink:href="#ArialMT-2c" x="436.425781"/>
     <use xlink:href="#ArialMT-20" x="464.208984"/>
     <use xlink:href="#ArialMT-37" x="491.992188"/>
     <use xlink:href="#ArialMT-5d" x="547.607422"/>
    </g>
    <!-- class = 36 -->
    <g style="fill: #262626" transform="translate(706.419062 339.650062) scale(0.12 -0.12)">
     <use xlink:href="#ArialMT-63"/>
     <use xlink:href="#ArialMT-6c" x="50"/>
     <use xlink:href="#ArialMT-61" x="72.216797"/>
     <use xlink:href="#ArialMT-73" x="127.832031"/>
     <use xlink:href="#ArialMT-73" x="177.832031"/>
     <use xlink:href="#ArialMT-20" x="227.832031"/>
     <use xlink:href="#ArialMT-3d" x="255.615234"/>
     <use xlink:href="#ArialMT-20" x="314.013672"/>
     <use xlink:href="#ArialMT-33" x="341.796875"/>
     <use xlink:href="#ArialMT-36" x="397.412109"/>
    </g>
   </g>
   <g id="patch_26">
    <path d="M 502.479923 193.83105 
Q 530.173293 164.351011 558.632153 134.056095 
" style="fill: none; stroke: #262626; stroke-linecap: round"/>
    <path d="M 507.5156 191.975801 
L 502.479923 193.83105 
L 504.017129 188.689358 
" style="fill: none; stroke: #262626; stroke-linecap: round"/>
   </g>
   <g id="text_14">
    <g id="patch_27">
     <path d="M 435.341875 253.256437 
L 511.058125 253.256437 
Q 514.658125 253.256437 514.658125 249.656437 
L 514.658125 200.202937 
Q 514.658125 196.602937 511.058125 196.602937 
L 435.341875 196.602937 
Q 431.741875 196.602937 431.741875 200.202937 
L 431.741875 249.656437 
Q 431.741875 253.256437 435.341875 253.256437 
z
" style="fill: #399de5; stroke: #ffffff; stroke-linejoin: miter"/>
    </g>
    <!-- gini = 0.0 -->
    <g style="fill: #262626" transform="translate(448.6825 208.968562) scale(0.12 -0.12)">
     <use xlink:href="#ArialMT-67"/>
     <use xlink:href="#ArialMT-69" x="55.615234"/>
     <use xlink:href="#ArialMT-6e" x="77.832031"/>
     <use xlink:href="#ArialMT-69" x="133.447266"/>
     <use xlink:href="#ArialMT-20" x="155.664062"/>
     <use xlink:href="#ArialMT-3d" x="183.447266"/>
     <use xlink:href="#ArialMT-20" x="241.845703"/>
     <use xlink:href="#ArialMT-30" x="269.628906"/>
     <use xlink:href="#ArialMT-2e" x="325.244141"/>
     <use xlink:href="#ArialMT-30" x="353.027344"/>
    </g>
    <!-- samples = 36 -->
    <g style="fill: #262626" transform="translate(437.348125 221.844187) scale(0.12 -0.12)">
     <use xlink:href="#ArialMT-73"/>
     <use xlink:href="#ArialMT-61" x="50"/>
     <use xlink:href="#ArialMT-6d" x="105.615234"/>
     <use xlink:href="#ArialMT-70" x="188.916016"/>
     <use xlink:href="#ArialMT-6c" x="244.53125"/>
     <use xlink:href="#ArialMT-65" x="266.748047"/>
     <use xlink:href="#ArialMT-73" x="322.363281"/>
     <use xlink:href="#ArialMT-20" x="372.363281"/>
     <use xlink:href="#ArialMT-3d" x="400.146484"/>
     <use xlink:href="#ArialMT-20" x="458.544922"/>
     <use xlink:href="#ArialMT-33" x="486.328125"/>
     <use xlink:href="#ArialMT-36" x="541.943359"/>
    </g>
    <!-- value = [0, 36] -->
    <g style="fill: #262626" transform="translate(435.341875 234.579187) scale(0.12 -0.12)">
     <use xlink:href="#ArialMT-76"/>
     <use xlink:href="#ArialMT-61" x="50"/>
     <use xlink:href="#ArialMT-6c" x="105.615234"/>
     <use xlink:href="#ArialMT-75" x="127.832031"/>
     <use xlink:href="#ArialMT-65" x="183.447266"/>
     <use xlink:href="#ArialMT-20" x="239.0625"/>
     <use xlink:href="#ArialMT-3d" x="266.845703"/>
     <use xlink:href="#ArialMT-20" x="325.244141"/>
     <use xlink:href="#ArialMT-5b" x="353.027344"/>
     <use xlink:href="#ArialMT-30" x="380.810547"/>
     <use xlink:href="#ArialMT-2c" x="436.425781"/>
     <use xlink:href="#ArialMT-20" x="464.208984"/>
     <use xlink:href="#ArialMT-33" x="491.992188"/>
     <use xlink:href="#ArialMT-36" x="547.607422"/>
     <use xlink:href="#ArialMT-5d" x="603.222656"/>
    </g>
    <!-- class = 36 -->
    <g style="fill: #262626" transform="translate(446.019063 247.271437) scale(0.12 -0.12)">
     <use xlink:href="#ArialMT-63"/>
     <use xlink:href="#ArialMT-6c" x="50"/>
     <use xlink:href="#ArialMT-61" x="72.216797"/>
     <use xlink:href="#ArialMT-73" x="127.832031"/>
     <use xlink:href="#ArialMT-73" x="177.832031"/>
     <use xlink:href="#ArialMT-20" x="227.832031"/>
     <use xlink:href="#ArialMT-3d" x="255.615234"/>
     <use xlink:href="#ArialMT-20" x="314.013672"/>
     <use xlink:href="#ArialMT-33" x="341.796875"/>
     <use xlink:href="#ArialMT-36" x="397.412109"/>
    </g>
   </g>
   <g id="text_15">
    <!-- True   -->
    <g style="fill: #262626" transform="translate(485.71125 178.8) scale(0.12 -0.12)">
     <use xlink:href="#ArialMT-54"/>
     <use xlink:href="#ArialMT-72" x="57.333984"/>
     <use xlink:href="#ArialMT-75" x="90.634766"/>
     <use xlink:href="#ArialMT-65" x="146.25"/>
     <use xlink:href="#ArialMT-20" x="201.865234"/>
     <use xlink:href="#ArialMT-20" x="229.648438"/>
    </g>
   </g>
   <g id="patch_28">
    <path d="M 611.469907 187.390546 
Q 586.801567 161.1307 561.367736 134.055977 
" style="fill: none; stroke: #262626; stroke-linecap: round"/>
    <path d="M 609.9327 182.248855 
L 611.469907 187.390546 
L 606.43423 185.535297 
" style="fill: none; stroke: #262626; stroke-linecap: round"/>
   </g>
   <g id="text_16">
    <g id="patch_29">
     <path d="M 605.605312 259.69425 
L 687.994687 259.69425 
Q 691.594687 259.69425 691.594687 256.09425 
L 691.594687 193.765125 
Q 691.594687 190.165125 687.994687 190.165125 
L 605.605312 190.165125 
Q 602.005312 190.165125 602.005312 193.765125 
L 602.005312 256.09425 
Q 602.005312 259.69425 605.605312 259.69425 
z
" style="fill: #bddef6; stroke: #ffffff; stroke-linejoin: miter"/>
    </g>
    <!-- age &lt;= 72.0 -->
    <g style="fill: #262626" transform="translate(614.77125 202.53075) scale(0.12 -0.12)">
     <use xlink:href="#ArialMT-61"/>
     <use xlink:href="#ArialMT-67" x="55.615234"/>
     <use xlink:href="#ArialMT-65" x="111.230469"/>
     <use xlink:href="#ArialMT-20" x="166.845703"/>
     <use xlink:href="#ArialMT-3c" x="194.628906"/>
     <use xlink:href="#ArialMT-3d" x="253.027344"/>
     <use xlink:href="#ArialMT-20" x="311.425781"/>
     <use xlink:href="#ArialMT-37" x="339.208984"/>
     <use xlink:href="#ArialMT-32" x="394.824219"/>
     <use xlink:href="#ArialMT-2e" x="450.439453"/>
     <use xlink:href="#ArialMT-30" x="478.222656"/>
    </g>
    <!-- gini = 0.48 -->
    <g style="fill: #262626" transform="translate(618.945937 215.406375) scale(0.12 -0.12)">
     <use xlink:href="#ArialMT-67"/>
     <use xlink:href="#ArialMT-69" x="55.615234"/>
     <use xlink:href="#ArialMT-6e" x="77.832031"/>
     <use xlink:href="#ArialMT-69" x="133.447266"/>
     <use xlink:href="#ArialMT-20" x="155.664062"/>
     <use xlink:href="#ArialMT-3d" x="183.447266"/>
     <use xlink:href="#ArialMT-20" x="241.845703"/>
     <use xlink:href="#ArialMT-30" x="269.628906"/>
     <use xlink:href="#ArialMT-2e" x="325.244141"/>
     <use xlink:href="#ArialMT-34" x="353.027344"/>
     <use xlink:href="#ArialMT-38" x="408.642578"/>
    </g>
    <!-- samples = 25 -->
    <g style="fill: #262626" transform="translate(610.948125 228.282) scale(0.12 -0.12)">
     <use xlink:href="#ArialMT-73"/>
     <use xlink:href="#ArialMT-61" x="50"/>
     <use xlink:href="#ArialMT-6d" x="105.615234"/>
     <use xlink:href="#ArialMT-70" x="188.916016"/>
     <use xlink:href="#ArialMT-6c" x="244.53125"/>
     <use xlink:href="#ArialMT-65" x="266.748047"/>
     <use xlink:href="#ArialMT-73" x="322.363281"/>
     <use xlink:href="#ArialMT-20" x="372.363281"/>
     <use xlink:href="#ArialMT-3d" x="400.146484"/>
     <use xlink:href="#ArialMT-20" x="458.544922"/>
     <use xlink:href="#ArialMT-32" x="486.328125"/>
     <use xlink:href="#ArialMT-35" x="541.943359"/>
    </g>
    <!-- value = [10, 15] -->
    <g style="fill: #262626" transform="translate(605.605312 241.017) scale(0.12 -0.12)">
     <use xlink:href="#ArialMT-76"/>
     <use xlink:href="#ArialMT-61" x="50"/>
     <use xlink:href="#ArialMT-6c" x="105.615234"/>
     <use xlink:href="#ArialMT-75" x="127.832031"/>
     <use xlink:href="#ArialMT-65" x="183.447266"/>
     <use xlink:href="#ArialMT-20" x="239.0625"/>
     <use xlink:href="#ArialMT-3d" x="266.845703"/>
     <use xlink:href="#ArialMT-20" x="325.244141"/>
     <use xlink:href="#ArialMT-5b" x="353.027344"/>
     <use xlink:href="#ArialMT-31" x="380.810547"/>
     <use xlink:href="#ArialMT-30" x="436.425781"/>
     <use xlink:href="#ArialMT-2c" x="492.041016"/>
     <use xlink:href="#ArialMT-20" x="519.824219"/>
     <use xlink:href="#ArialMT-31" x="547.607422"/>
     <use xlink:href="#ArialMT-35" x="603.222656"/>
     <use xlink:href="#ArialMT-5d" x="658.837891"/>
    </g>
    <!-- class = 36 -->
    <g style="fill: #262626" transform="translate(619.619062 253.70925) scale(0.12 -0.12)">
     <use xlink:href="#ArialMT-63"/>
     <use xlink:href="#ArialMT-6c" x="50"/>
     <use xlink:href="#ArialMT-61" x="72.216797"/>
     <use xlink:href="#ArialMT-73" x="127.832031"/>
     <use xlink:href="#ArialMT-73" x="177.832031"/>
     <use xlink:href="#ArialMT-20" x="227.832031"/>
     <use xlink:href="#ArialMT-3d" x="255.615234"/>
     <use xlink:href="#ArialMT-20" x="314.013672"/>
     <use xlink:href="#ArialMT-33" x="341.796875"/>
     <use xlink:href="#ArialMT-36" x="397.412109"/>
    </g>
   </g>
   <g id="text_17">
    <!--   False -->
    <g style="fill: #262626" transform="translate(603.4 178.8) scale(0.12 -0.12)">
     <use xlink:href="#ArialMT-20"/>
     <use xlink:href="#ArialMT-20" x="27.783203"/>
     <use xlink:href="#ArialMT-46" x="55.566406"/>
     <use xlink:href="#ArialMT-61" x="116.650391"/>
     <use xlink:href="#ArialMT-6c" x="172.265625"/>
     <use xlink:href="#ArialMT-73" x="194.482422"/>
     <use xlink:href="#ArialMT-65" x="244.482422"/>
    </g>
   </g>
   <g id="patch_30">
    <path d="M 560 132.6 
Q 560 132.6 560 132.6 
" style="fill: none; stroke: #262626; stroke-linecap: round"/>
   </g>
   <g id="text_18">
    <g id="patch_31">
     <path d="M 499.95875 167.223937 
L 620.04125 167.223937 
Q 623.64125 167.223937 623.64125 163.623937 
L 623.64125 101.576062 
Q 623.64125 97.976062 620.04125 97.976062 
L 499.95875 97.976062 
Q 496.35875 97.976062 496.35875 101.576062 
L 496.35875 163.623937 
Q 496.35875 167.223937 499.95875 167.223937 
z
" style="fill: #60b0ea; stroke: #ffffff; stroke-linejoin: miter"/>
    </g>
    <!-- ohca_Unknown &lt;= 0.5 -->
    <g style="fill: #262626" transform="translate(499.95875 110.201062) scale(0.12 -0.12)">
     <defs>
      <path id="ArialMT-68" d="M 422 0 
L 422 4581 
L 984 4581 
L 984 2938 
Q 1378 3394 1978 3394 
Q 2347 3394 2619 3248 
Q 2891 3103 3008 2847 
Q 3125 2591 3125 2103 
L 3125 0 
L 2563 0 
L 2563 2103 
Q 2563 2525 2380 2717 
Q 2197 2909 1863 2909 
Q 1613 2909 1392 2779 
Q 1172 2650 1078 2428 
Q 984 2206 984 1816 
L 984 0 
L 422 0 
z
" transform="scale(0.015625)"/>
      <path id="ArialMT-55" d="M 3500 4581 
L 4106 4581 
L 4106 1934 
Q 4106 1244 3950 837 
Q 3794 431 3386 176 
Q 2978 -78 2316 -78 
Q 1672 -78 1262 144 
Q 853 366 678 786 
Q 503 1206 503 1934 
L 503 4581 
L 1109 4581 
L 1109 1938 
Q 1109 1341 1220 1058 
Q 1331 775 1601 622 
Q 1872 469 2263 469 
Q 2931 469 3215 772 
Q 3500 1075 3500 1938 
L 3500 4581 
z
" transform="scale(0.015625)"/>
      <path id="ArialMT-6b" d="M 425 0 
L 425 4581 
L 988 4581 
L 988 1969 
L 2319 3319 
L 3047 3319 
L 1778 2088 
L 3175 0 
L 2481 0 
L 1384 1697 
L 988 1316 
L 988 0 
L 425 0 
z
" transform="scale(0.015625)"/>
      <path id="ArialMT-77" d="M 1034 0 
L 19 3319 
L 600 3319 
L 1128 1403 
L 1325 691 
Q 1338 744 1497 1375 
L 2025 3319 
L 2603 3319 
L 3100 1394 
L 3266 759 
L 3456 1400 
L 4025 3319 
L 4572 3319 
L 3534 0 
L 2950 0 
L 2422 1988 
L 2294 2553 
L 1622 0 
L 1034 0 
z
" transform="scale(0.015625)"/>
     </defs>
     <use xlink:href="#ArialMT-6f"/>
     <use xlink:href="#ArialMT-68" x="55.615234"/>
     <use xlink:href="#ArialMT-63" x="111.230469"/>
     <use xlink:href="#ArialMT-61" x="161.230469"/>
     <use xlink:href="#ArialMT-5f" x="216.845703"/>
     <use xlink:href="#ArialMT-55" x="272.460938"/>
     <use xlink:href="#ArialMT-6e" x="344.677734"/>
     <use xlink:href="#ArialMT-6b" x="400.292969"/>
     <use xlink:href="#ArialMT-6e" x="450.292969"/>
     <use xlink:href="#ArialMT-6f" x="505.908203"/>
     <use xlink:href="#ArialMT-77" x="561.523438"/>
     <use xlink:href="#ArialMT-6e" x="633.740234"/>
     <use xlink:href="#ArialMT-20" x="689.355469"/>
     <use xlink:href="#ArialMT-3c" x="717.138672"/>
     <use xlink:href="#ArialMT-3d" x="775.537109"/>
     <use xlink:href="#ArialMT-20" x="833.935547"/>
     <use xlink:href="#ArialMT-30" x="861.71875"/>
     <use xlink:href="#ArialMT-2e" x="917.333984"/>
     <use xlink:href="#ArialMT-35" x="945.117188"/>
    </g>
    <!-- gini = 0.274 -->
    <g style="fill: #262626" transform="translate(528.809375 122.936062) scale(0.12 -0.12)">
     <use xlink:href="#ArialMT-67"/>
     <use xlink:href="#ArialMT-69" x="55.615234"/>
     <use xlink:href="#ArialMT-6e" x="77.832031"/>
     <use xlink:href="#ArialMT-69" x="133.447266"/>
     <use xlink:href="#ArialMT-20" x="155.664062"/>
     <use xlink:href="#ArialMT-3d" x="183.447266"/>
     <use xlink:href="#ArialMT-20" x="241.845703"/>
     <use xlink:href="#ArialMT-30" x="269.628906"/>
     <use xlink:href="#ArialMT-2e" x="325.244141"/>
     <use xlink:href="#ArialMT-32" x="353.027344"/>
     <use xlink:href="#ArialMT-37" x="408.642578"/>
     <use xlink:href="#ArialMT-34" x="464.257812"/>
    </g>
    <!-- samples = 61 -->
    <g style="fill: #262626" transform="translate(524.148125 135.811687) scale(0.12 -0.12)">
     <use xlink:href="#ArialMT-73"/>
     <use xlink:href="#ArialMT-61" x="50"/>
     <use xlink:href="#ArialMT-6d" x="105.615234"/>
     <use xlink:href="#ArialMT-70" x="188.916016"/>
     <use xlink:href="#ArialMT-6c" x="244.53125"/>
     <use xlink:href="#ArialMT-65" x="266.748047"/>
     <use xlink:href="#ArialMT-73" x="322.363281"/>
     <use xlink:href="#ArialMT-20" x="372.363281"/>
     <use xlink:href="#ArialMT-3d" x="400.146484"/>
     <use xlink:href="#ArialMT-20" x="458.544922"/>
     <use xlink:href="#ArialMT-36" x="486.328125"/>
     <use xlink:href="#ArialMT-31" x="541.943359"/>
    </g>
    <!-- value = [10, 51] -->
    <g style="fill: #262626" transform="translate(518.805313 148.546687) scale(0.12 -0.12)">
     <use xlink:href="#ArialMT-76"/>
     <use xlink:href="#ArialMT-61" x="50"/>
     <use xlink:href="#ArialMT-6c" x="105.615234"/>
     <use xlink:href="#ArialMT-75" x="127.832031"/>
     <use xlink:href="#ArialMT-65" x="183.447266"/>
     <use xlink:href="#ArialMT-20" x="239.0625"/>
     <use xlink:href="#ArialMT-3d" x="266.845703"/>
     <use xlink:href="#ArialMT-20" x="325.244141"/>
     <use xlink:href="#ArialMT-5b" x="353.027344"/>
     <use xlink:href="#ArialMT-31" x="380.810547"/>
     <use xlink:href="#ArialMT-30" x="436.425781"/>
     <use xlink:href="#ArialMT-2c" x="492.041016"/>
     <use xlink:href="#ArialMT-20" x="519.824219"/>
     <use xlink:href="#ArialMT-35" x="547.607422"/>
     <use xlink:href="#ArialMT-31" x="603.222656"/>
     <use xlink:href="#ArialMT-5d" x="658.837891"/>
    </g>
    <!-- class = 36 -->
    <g style="fill: #262626" transform="translate(532.819062 161.238937) scale(0.12 -0.12)">
     <use xlink:href="#ArialMT-63"/>
     <use xlink:href="#ArialMT-6c" x="50"/>
     <use xlink:href="#ArialMT-61" x="72.216797"/>
     <use xlink:href="#ArialMT-73" x="127.832031"/>
     <use xlink:href="#ArialMT-73" x="177.832031"/>
     <use xlink:href="#ArialMT-20" x="227.832031"/>
     <use xlink:href="#ArialMT-3d" x="255.615234"/>
     <use xlink:href="#ArialMT-20" x="314.013672"/>
     <use xlink:href="#ArialMT-33" x="341.796875"/>
     <use xlink:href="#ArialMT-36" x="397.412109"/>
    </g>
   </g>
  </g>
 </g>
</svg>
