<?xml version="1.0" encoding="utf-8" standalone="no"?>
<!DOCTYPE svg PUBLIC "-//W3C//DTD SVG 1.1//EN"
  "http://www.w3.org/Graphics/SVG/1.1/DTD/svg11.dtd">
<svg xmlns:xlink="http://www.w3.org/1999/xlink" width="720pt" height="576pt" viewBox="0 0 720 576" xmlns="http://www.w3.org/2000/svg" version="1.1">
 <metadata>
  <rdf:RDF xmlns:dc="http://purl.org/dc/elements/1.1/" xmlns:cc="http://creativecommons.org/ns#" xmlns:rdf="http://www.w3.org/1999/02/22-rdf-syntax-ns#">
   <cc:Work>
    <dc:type rdf:resource="http://purl.org/dc/dcmitype/StillImage"/>
    <dc:date>2024-12-27T11:22:07.352608</dc:date>
    <dc:format>image/svg+xml</dc:format>
    <dc:creator>
     <cc:Agent>
      <dc:title>Matplotlib v3.9.2, https://matplotlib.org/</dc:title>
     </cc:Agent>
    </dc:creator>
   </cc:Work>
  </rdf:RDF>
 </metadata>
 <defs>
  <style type="text/css">*{stroke-linejoin: round; stroke-linecap: butt}</style>
 </defs>
 <g id="figure_1">
  <g id="patch_1">
   <path d="M 0 576 
L 720 576 
L 720 0 
L 0 0 
L 0 576 
z
" style="fill: none"/>
  </g>
  <g id="axes_1">
   <g id="patch_2">
    <path d="M 90 512.64 
L 648 512.64 
L 648 69.12 
L 90 69.12 
L 90 512.64 
z
" style="fill: none"/>
   </g>
   <g id="matplotlib.axis_1">
    <g id="xtick_1">
     <g id="line2d_1">
      <defs>
       <path id="m360c30a8fb" d="M 0 0 
L 0 3.5 
" style="stroke: #000000; stroke-width: 0.8"/>
      </defs>
      <g>
       <use xlink:href="#m360c30a8fb" x="90" y="512.64" style="stroke: #000000; stroke-width: 0.8"/>
      </g>
     </g>
     <g id="text_1">
      <!-- 0.0 -->
      <g transform="translate(82.048438 527.238438) scale(0.1 -0.1)">
       <defs>
        <path id="DejaVuSans-30" d="M 2034 4250 
Q 1547 4250 1301 3770 
Q 1056 3291 1056 2328 
Q 1056 1369 1301 889 
Q 1547 409 2034 409 
Q 2525 409 2770 889 
Q 3016 1369 3016 2328 
Q 3016 3291 2770 3770 
Q 2525 4250 2034 4250 
z
M 2034 4750 
Q 2819 4750 3233 4129 
Q 3647 3509 3647 2328 
Q 3647 1150 3233 529 
Q 2819 -91 2034 -91 
Q 1250 -91 836 529 
Q 422 1150 422 2328 
Q 422 3509 836 4129 
Q 1250 4750 2034 4750 
z
" transform="scale(0.015625)"/>
        <path id="DejaVuSans-2e" d="M 684 794 
L 1344 794 
L 1344 0 
L 684 0 
L 684 794 
z
" transform="scale(0.015625)"/>
       </defs>
       <use xlink:href="#DejaVuSans-30"/>
       <use xlink:href="#DejaVuSans-2e" x="63.623047"/>
       <use xlink:href="#DejaVuSans-30" x="95.410156"/>
      </g>
     </g>
    </g>
    <g id="xtick_2">
     <g id="line2d_2">
      <g>
       <use xlink:href="#m360c30a8fb" x="201.6" y="512.64" style="stroke: #000000; stroke-width: 0.8"/>
      </g>
     </g>
     <g id="text_2">
      <!-- 0.2 -->
      <g transform="translate(193.648438 527.238438) scale(0.1 -0.1)">
       <defs>
        <path id="DejaVuSans-32" d="M 1228 531 
L 3431 531 
L 3431 0 
L 469 0 
L 469 531 
Q 828 903 1448 1529 
Q 2069 2156 2228 2338 
Q 2531 2678 2651 2914 
Q 2772 3150 2772 3378 
Q 2772 3750 2511 3984 
Q 2250 4219 1831 4219 
Q 1534 4219 1204 4116 
Q 875 4013 500 3803 
L 500 4441 
Q 881 4594 1212 4672 
Q 1544 4750 1819 4750 
Q 2544 4750 2975 4387 
Q 3406 4025 3406 3419 
Q 3406 3131 3298 2873 
Q 3191 2616 2906 2266 
Q 2828 2175 2409 1742 
Q 1991 1309 1228 531 
z
" transform="scale(0.015625)"/>
       </defs>
       <use xlink:href="#DejaVuSans-30"/>
       <use xlink:href="#DejaVuSans-2e" x="63.623047"/>
       <use xlink:href="#DejaVuSans-32" x="95.410156"/>
      </g>
     </g>
    </g>
    <g id="xtick_3">
     <g id="line2d_3">
      <g>
       <use xlink:href="#m360c30a8fb" x="313.2" y="512.64" style="stroke: #000000; stroke-width: 0.8"/>
      </g>
     </g>
     <g id="text_3">
      <!-- 0.4 -->
      <g transform="translate(305.248438 527.238438) scale(0.1 -0.1)">
       <defs>
        <path id="DejaVuSans-34" d="M 2419 4116 
L 825 1625 
L 2419 1625 
L 2419 4116 
z
M 2253 4666 
L 3047 4666 
L 3047 1625 
L 3713 1625 
L 3713 1100 
L 3047 1100 
L 3047 0 
L 2419 0 
L 2419 1100 
L 313 1100 
L 313 1709 
L 2253 4666 
z
" transform="scale(0.015625)"/>
       </defs>
       <use xlink:href="#DejaVuSans-30"/>
       <use xlink:href="#DejaVuSans-2e" x="63.623047"/>
       <use xlink:href="#DejaVuSans-34" x="95.410156"/>
      </g>
     </g>
    </g>
    <g id="xtick_4">
     <g id="line2d_4">
      <g>
       <use xlink:href="#m360c30a8fb" x="424.8" y="512.64" style="stroke: #000000; stroke-width: 0.8"/>
      </g>
     </g>
     <g id="text_4">
      <!-- 0.6 -->
      <g transform="translate(416.848438 527.238438) scale(0.1 -0.1)">
       <defs>
        <path id="DejaVuSans-36" d="M 2113 2584 
Q 1688 2584 1439 2293 
Q 1191 2003 1191 1497 
Q 1191 994 1439 701 
Q 1688 409 2113 409 
Q 2538 409 2786 701 
Q 3034 994 3034 1497 
Q 3034 2003 2786 2293 
Q 2538 2584 2113 2584 
z
M 3366 4563 
L 3366 3988 
Q 3128 4100 2886 4159 
Q 2644 4219 2406 4219 
Q 1781 4219 1451 3797 
Q 1122 3375 1075 2522 
Q 1259 2794 1537 2939 
Q 1816 3084 2150 3084 
Q 2853 3084 3261 2657 
Q 3669 2231 3669 1497 
Q 3669 778 3244 343 
Q 2819 -91 2113 -91 
Q 1303 -91 875 529 
Q 447 1150 447 2328 
Q 447 3434 972 4092 
Q 1497 4750 2381 4750 
Q 2619 4750 2861 4703 
Q 3103 4656 3366 4563 
z
" transform="scale(0.015625)"/>
       </defs>
       <use xlink:href="#DejaVuSans-30"/>
       <use xlink:href="#DejaVuSans-2e" x="63.623047"/>
       <use xlink:href="#DejaVuSans-36" x="95.410156"/>
      </g>
     </g>
    </g>
    <g id="xtick_5">
     <g id="line2d_5">
      <g>
       <use xlink:href="#m360c30a8fb" x="536.4" y="512.64" style="stroke: #000000; stroke-width: 0.8"/>
      </g>
     </g>
     <g id="text_5">
      <!-- 0.8 -->
      <g transform="translate(528.448438 527.238438) scale(0.1 -0.1)">
       <defs>
        <path id="DejaVuSans-38" d="M 2034 2216 
Q 1584 2216 1326 1975 
Q 1069 1734 1069 1313 
Q 1069 891 1326 650 
Q 1584 409 2034 409 
Q 2484 409 2743 651 
Q 3003 894 3003 1313 
Q 3003 1734 2745 1975 
Q 2488 2216 2034 2216 
z
M 1403 2484 
Q 997 2584 770 2862 
Q 544 3141 544 3541 
Q 544 4100 942 4425 
Q 1341 4750 2034 4750 
Q 2731 4750 3128 4425 
Q 3525 4100 3525 3541 
Q 3525 3141 3298 2862 
Q 3072 2584 2669 2484 
Q 3125 2378 3379 2068 
Q 3634 1759 3634 1313 
Q 3634 634 3220 271 
Q 2806 -91 2034 -91 
Q 1263 -91 848 271 
Q 434 634 434 1313 
Q 434 1759 690 2068 
Q 947 2378 1403 2484 
z
M 1172 3481 
Q 1172 3119 1398 2916 
Q 1625 2713 2034 2713 
Q 2441 2713 2670 2916 
Q 2900 3119 2900 3481 
Q 2900 3844 2670 4047 
Q 2441 4250 2034 4250 
Q 1625 4250 1398 4047 
Q 1172 3844 1172 3481 
z
" transform="scale(0.015625)"/>
       </defs>
       <use xlink:href="#DejaVuSans-30"/>
       <use xlink:href="#DejaVuSans-2e" x="63.623047"/>
       <use xlink:href="#DejaVuSans-38" x="95.410156"/>
      </g>
     </g>
    </g>
    <g id="xtick_6">
     <g id="line2d_6">
      <g>
       <use xlink:href="#m360c30a8fb" x="648" y="512.64" style="stroke: #000000; stroke-width: 0.8"/>
      </g>
     </g>
     <g id="text_6">
      <!-- 1.0 -->
      <g transform="translate(640.048437 527.238438) scale(0.1 -0.1)">
       <defs>
        <path id="DejaVuSans-31" d="M 794 531 
L 1825 531 
L 1825 4091 
L 703 3866 
L 703 4441 
L 1819 4666 
L 2450 4666 
L 2450 531 
L 3481 531 
L 3481 0 
L 794 0 
L 794 531 
z
" transform="scale(0.015625)"/>
       </defs>
       <use xlink:href="#DejaVuSans-31"/>
       <use xlink:href="#DejaVuSans-2e" x="63.623047"/>
       <use xlink:href="#DejaVuSans-30" x="95.410156"/>
      </g>
     </g>
    </g>
    <g id="text_7">
     <!-- False Positive Rate -->
     <g transform="translate(285.360469 546.995312) scale(0.18 -0.18)">
      <defs>
       <path id="DejaVuSans-46" d="M 628 4666 
L 3309 4666 
L 3309 4134 
L 1259 4134 
L 1259 2759 
L 3109 2759 
L 3109 2228 
L 1259 2228 
L 1259 0 
L 628 0 
L 628 4666 
z
" transform="scale(0.015625)"/>
       <path id="DejaVuSans-61" d="M 2194 1759 
Q 1497 1759 1228 1600 
Q 959 1441 959 1056 
Q 959 750 1161 570 
Q 1363 391 1709 391 
Q 2188 391 2477 730 
Q 2766 1069 2766 1631 
L 2766 1759 
L 2194 1759 
z
M 3341 1997 
L 3341 0 
L 2766 0 
L 2766 531 
Q 2569 213 2275 61 
Q 1981 -91 1556 -91 
Q 1019 -91 701 211 
Q 384 513 384 1019 
Q 384 1609 779 1909 
Q 1175 2209 1959 2209 
L 2766 2209 
L 2766 2266 
Q 2766 2663 2505 2880 
Q 2244 3097 1772 3097 
Q 1472 3097 1187 3025 
Q 903 2953 641 2809 
L 641 3341 
Q 956 3463 1253 3523 
Q 1550 3584 1831 3584 
Q 2591 3584 2966 3190 
Q 3341 2797 3341 1997 
z
" transform="scale(0.015625)"/>
       <path id="DejaVuSans-6c" d="M 603 4863 
L 1178 4863 
L 1178 0 
L 603 0 
L 603 4863 
z
" transform="scale(0.015625)"/>
       <path id="DejaVuSans-73" d="M 2834 3397 
L 2834 2853 
Q 2591 2978 2328 3040 
Q 2066 3103 1784 3103 
Q 1356 3103 1142 2972 
Q 928 2841 928 2578 
Q 928 2378 1081 2264 
Q 1234 2150 1697 2047 
L 1894 2003 
Q 2506 1872 2764 1633 
Q 3022 1394 3022 966 
Q 3022 478 2636 193 
Q 2250 -91 1575 -91 
Q 1294 -91 989 -36 
Q 684 19 347 128 
L 347 722 
Q 666 556 975 473 
Q 1284 391 1588 391 
Q 1994 391 2212 530 
Q 2431 669 2431 922 
Q 2431 1156 2273 1281 
Q 2116 1406 1581 1522 
L 1381 1569 
Q 847 1681 609 1914 
Q 372 2147 372 2553 
Q 372 3047 722 3315 
Q 1072 3584 1716 3584 
Q 2034 3584 2315 3537 
Q 2597 3491 2834 3397 
z
" transform="scale(0.015625)"/>
       <path id="DejaVuSans-65" d="M 3597 1894 
L 3597 1613 
L 953 1613 
Q 991 1019 1311 708 
Q 1631 397 2203 397 
Q 2534 397 2845 478 
Q 3156 559 3463 722 
L 3463 178 
Q 3153 47 2828 -22 
Q 2503 -91 2169 -91 
Q 1331 -91 842 396 
Q 353 884 353 1716 
Q 353 2575 817 3079 
Q 1281 3584 2069 3584 
Q 2775 3584 3186 3129 
Q 3597 2675 3597 1894 
z
M 3022 2063 
Q 3016 2534 2758 2815 
Q 2500 3097 2075 3097 
Q 1594 3097 1305 2825 
Q 1016 2553 972 2059 
L 3022 2063 
z
" transform="scale(0.015625)"/>
       <path id="DejaVuSans-20" transform="scale(0.015625)"/>
       <path id="DejaVuSans-50" d="M 1259 4147 
L 1259 2394 
L 2053 2394 
Q 2494 2394 2734 2622 
Q 2975 2850 2975 3272 
Q 2975 3691 2734 3919 
Q 2494 4147 2053 4147 
L 1259 4147 
z
M 628 4666 
L 2053 4666 
Q 2838 4666 3239 4311 
Q 3641 3956 3641 3272 
Q 3641 2581 3239 2228 
Q 2838 1875 2053 1875 
L 1259 1875 
L 1259 0 
L 628 0 
L 628 4666 
z
" transform="scale(0.015625)"/>
       <path id="DejaVuSans-6f" d="M 1959 3097 
Q 1497 3097 1228 2736 
Q 959 2375 959 1747 
Q 959 1119 1226 758 
Q 1494 397 1959 397 
Q 2419 397 2687 759 
Q 2956 1122 2956 1747 
Q 2956 2369 2687 2733 
Q 2419 3097 1959 3097 
z
M 1959 3584 
Q 2709 3584 3137 3096 
Q 3566 2609 3566 1747 
Q 3566 888 3137 398 
Q 2709 -91 1959 -91 
Q 1206 -91 779 398 
Q 353 888 353 1747 
Q 353 2609 779 3096 
Q 1206 3584 1959 3584 
z
" transform="scale(0.015625)"/>
       <path id="DejaVuSans-69" d="M 603 3500 
L 1178 3500 
L 1178 0 
L 603 0 
L 603 3500 
z
M 603 4863 
L 1178 4863 
L 1178 4134 
L 603 4134 
L 603 4863 
z
" transform="scale(0.015625)"/>
       <path id="DejaVuSans-74" d="M 1172 4494 
L 1172 3500 
L 2356 3500 
L 2356 3053 
L 1172 3053 
L 1172 1153 
Q 1172 725 1289 603 
Q 1406 481 1766 481 
L 2356 481 
L 2356 0 
L 1766 0 
Q 1100 0 847 248 
Q 594 497 594 1153 
L 594 3053 
L 172 3053 
L 172 3500 
L 594 3500 
L 594 4494 
L 1172 4494 
z
" transform="scale(0.015625)"/>
       <path id="DejaVuSans-76" d="M 191 3500 
L 800 3500 
L 1894 563 
L 2988 3500 
L 3597 3500 
L 2284 0 
L 1503 0 
L 191 3500 
z
" transform="scale(0.015625)"/>
       <path id="DejaVuSans-52" d="M 2841 2188 
Q 3044 2119 3236 1894 
Q 3428 1669 3622 1275 
L 4263 0 
L 3584 0 
L 2988 1197 
Q 2756 1666 2539 1819 
Q 2322 1972 1947 1972 
L 1259 1972 
L 1259 0 
L 628 0 
L 628 4666 
L 2053 4666 
Q 2853 4666 3247 4331 
Q 3641 3997 3641 3322 
Q 3641 2881 3436 2590 
Q 3231 2300 2841 2188 
z
M 1259 4147 
L 1259 2491 
L 2053 2491 
Q 2509 2491 2742 2702 
Q 2975 2913 2975 3322 
Q 2975 3731 2742 3939 
Q 2509 4147 2053 4147 
L 1259 4147 
z
" transform="scale(0.015625)"/>
      </defs>
      <use xlink:href="#DejaVuSans-46"/>
      <use xlink:href="#DejaVuSans-61" x="48.394531"/>
      <use xlink:href="#DejaVuSans-6c" x="109.673828"/>
      <use xlink:href="#DejaVuSans-73" x="137.457031"/>
      <use xlink:href="#DejaVuSans-65" x="189.556641"/>
      <use xlink:href="#DejaVuSans-20" x="251.080078"/>
      <use xlink:href="#DejaVuSans-50" x="282.867188"/>
      <use xlink:href="#DejaVuSans-6f" x="339.544922"/>
      <use xlink:href="#DejaVuSans-73" x="400.726562"/>
      <use xlink:href="#DejaVuSans-69" x="452.826172"/>
      <use xlink:href="#DejaVuSans-74" x="480.609375"/>
      <use xlink:href="#DejaVuSans-69" x="519.818359"/>
      <use xlink:href="#DejaVuSans-76" x="547.601562"/>
      <use xlink:href="#DejaVuSans-65" x="606.78125"/>
      <use xlink:href="#DejaVuSans-20" x="668.304688"/>
      <use xlink:href="#DejaVuSans-52" x="700.091797"/>
      <use xlink:href="#DejaVuSans-61" x="767.324219"/>
      <use xlink:href="#DejaVuSans-74" x="828.603516"/>
      <use xlink:href="#DejaVuSans-65" x="867.8125"/>
     </g>
    </g>
   </g>
   <g id="matplotlib.axis_2">
    <g id="ytick_1">
     <g id="line2d_7">
      <defs>
       <path id="m3d1c0e0502" d="M 0 0 
L -3.5 0 
" style="stroke: #000000; stroke-width: 0.8"/>
      </defs>
      <g>
       <use xlink:href="#m3d1c0e0502" x="90" y="512.64" style="stroke: #000000; stroke-width: 0.8"/>
      </g>
     </g>
     <g id="text_8">
      <!-- 0.0 -->
      <g transform="translate(67.096875 516.439219) scale(0.1 -0.1)">
       <use xlink:href="#DejaVuSans-30"/>
       <use xlink:href="#DejaVuSans-2e" x="63.623047"/>
       <use xlink:href="#DejaVuSans-30" x="95.410156"/>
      </g>
     </g>
    </g>
    <g id="ytick_2">
     <g id="line2d_8">
      <g>
       <use xlink:href="#m3d1c0e0502" x="90" y="428.16" style="stroke: #000000; stroke-width: 0.8"/>
      </g>
     </g>
     <g id="text_9">
      <!-- 0.2 -->
      <g transform="translate(67.096875 431.959219) scale(0.1 -0.1)">
       <use xlink:href="#DejaVuSans-30"/>
       <use xlink:href="#DejaVuSans-2e" x="63.623047"/>
       <use xlink:href="#DejaVuSans-32" x="95.410156"/>
      </g>
     </g>
    </g>
    <g id="ytick_3">
     <g id="line2d_9">
      <g>
       <use xlink:href="#m3d1c0e0502" x="90" y="343.68" style="stroke: #000000; stroke-width: 0.8"/>
      </g>
     </g>
     <g id="text_10">
      <!-- 0.4 -->
      <g transform="translate(67.096875 347.479219) scale(0.1 -0.1)">
       <use xlink:href="#DejaVuSans-30"/>
       <use xlink:href="#DejaVuSans-2e" x="63.623047"/>
       <use xlink:href="#DejaVuSans-34" x="95.410156"/>
      </g>
     </g>
    </g>
    <g id="ytick_4">
     <g id="line2d_10">
      <g>
       <use xlink:href="#m3d1c0e0502" x="90" y="259.2" style="stroke: #000000; stroke-width: 0.8"/>
      </g>
     </g>
     <g id="text_11">
      <!-- 0.6 -->
      <g transform="translate(67.096875 262.999219) scale(0.1 -0.1)">
       <use xlink:href="#DejaVuSans-30"/>
       <use xlink:href="#DejaVuSans-2e" x="63.623047"/>
       <use xlink:href="#DejaVuSans-36" x="95.410156"/>
      </g>
     </g>
    </g>
    <g id="ytick_5">
     <g id="line2d_11">
      <g>
       <use xlink:href="#m3d1c0e0502" x="90" y="174.72" style="stroke: #000000; stroke-width: 0.8"/>
      </g>
     </g>
     <g id="text_12">
      <!-- 0.8 -->
      <g transform="translate(67.096875 178.519219) scale(0.1 -0.1)">
       <use xlink:href="#DejaVuSans-30"/>
       <use xlink:href="#DejaVuSans-2e" x="63.623047"/>
       <use xlink:href="#DejaVuSans-38" x="95.410156"/>
      </g>
     </g>
    </g>
    <g id="ytick_6">
     <g id="line2d_12">
      <g>
       <use xlink:href="#m3d1c0e0502" x="90" y="90.24" style="stroke: #000000; stroke-width: 0.8"/>
      </g>
     </g>
     <g id="text_13">
      <!-- 1.0 -->
      <g transform="translate(67.096875 94.039219) scale(0.1 -0.1)">
       <use xlink:href="#DejaVuSans-31"/>
       <use xlink:href="#DejaVuSans-2e" x="63.623047"/>
       <use xlink:href="#DejaVuSans-30" x="95.410156"/>
      </g>
     </g>
    </g>
    <g id="text_14">
     <!-- True Positive Rate -->
     <g transform="translate(59.353437 371.033437) rotate(-90) scale(0.18 -0.18)">
      <defs>
       <path id="DejaVuSans-54" d="M -19 4666 
L 3928 4666 
L 3928 4134 
L 2272 4134 
L 2272 0 
L 1638 0 
L 1638 4134 
L -19 4134 
L -19 4666 
z
" transform="scale(0.015625)"/>
       <path id="DejaVuSans-72" d="M 2631 2963 
Q 2534 3019 2420 3045 
Q 2306 3072 2169 3072 
Q 1681 3072 1420 2755 
Q 1159 2438 1159 1844 
L 1159 0 
L 581 0 
L 581 3500 
L 1159 3500 
L 1159 2956 
Q 1341 3275 1631 3429 
Q 1922 3584 2338 3584 
Q 2397 3584 2469 3576 
Q 2541 3569 2628 3553 
L 2631 2963 
z
" transform="scale(0.015625)"/>
       <path id="DejaVuSans-75" d="M 544 1381 
L 544 3500 
L 1119 3500 
L 1119 1403 
Q 1119 906 1312 657 
Q 1506 409 1894 409 
Q 2359 409 2629 706 
Q 2900 1003 2900 1516 
L 2900 3500 
L 3475 3500 
L 3475 0 
L 2900 0 
L 2900 538 
Q 2691 219 2414 64 
Q 2138 -91 1772 -91 
Q 1169 -91 856 284 
Q 544 659 544 1381 
z
M 1991 3584 
L 1991 3584 
z
" transform="scale(0.015625)"/>
      </defs>
      <use xlink:href="#DejaVuSans-54"/>
      <use xlink:href="#DejaVuSans-72" x="46.333984"/>
      <use xlink:href="#DejaVuSans-75" x="87.447266"/>
      <use xlink:href="#DejaVuSans-65" x="150.826172"/>
      <use xlink:href="#DejaVuSans-20" x="212.349609"/>
      <use xlink:href="#DejaVuSans-50" x="244.136719"/>
      <use xlink:href="#DejaVuSans-6f" x="300.814453"/>
      <use xlink:href="#DejaVuSans-73" x="361.996094"/>
      <use xlink:href="#DejaVuSans-69" x="414.095703"/>
      <use xlink:href="#DejaVuSans-74" x="441.878906"/>
      <use xlink:href="#DejaVuSans-69" x="481.087891"/>
      <use xlink:href="#DejaVuSans-76" x="508.871094"/>
      <use xlink:href="#DejaVuSans-65" x="568.050781"/>
      <use xlink:href="#DejaVuSans-20" x="629.574219"/>
      <use xlink:href="#DejaVuSans-52" x="661.361328"/>
      <use xlink:href="#DejaVuSans-61" x="728.59375"/>
      <use xlink:href="#DejaVuSans-74" x="789.873047"/>
      <use xlink:href="#DejaVuSans-65" x="829.082031"/>
     </g>
    </g>
   </g>
   <g id="line2d_13">
    <path d="M 90 512.64 
L 90 487.792941 
L 90 413.251765 
L 102.681818 413.251765 
L 102.681818 313.863529 
L 128.045455 313.863529 
L 128.045455 289.016471 
L 153.409091 289.016471 
L 153.409091 239.322353 
L 178.772727 239.322353 
L 178.772727 214.475294 
L 191.454545 214.475294 
L 191.454545 164.781176 
L 204.136364 164.781176 
L 204.136364 139.934118 
L 242.181818 139.934118 
L 242.181818 115.087059 
L 292.909091 115.087059 
L 292.909091 90.24 
L 648 90.24 
" clip-path="url(#pd5ba88d8c5)" style="fill: none; stroke: #4f0433; stroke-width: 2; stroke-linecap: square"/>
   </g>
   <g id="line2d_14">
    <path clip-path="url(#pd5ba88d8c5)" style="fill: none; stroke: #ff876f; stroke-width: 2; stroke-linecap: square"/>
   </g>
   <g id="line2d_15">
    <path clip-path="url(#pd5ba88d8c5)" style="fill: none; stroke: #870052; stroke-width: 2; stroke-linecap: square"/>
   </g>
   <g id="line2d_16">
    <path clip-path="url(#pd5ba88d8c5)" style="fill: none; stroke: #ffddd6; stroke-width: 2; stroke-linecap: square"/>
   </g>
   <g id="line2d_17">
    <path clip-path="url(#pd5ba88d8c5)" style="fill: none; stroke: #4db5bc; stroke-width: 2; stroke-linecap: square"/>
   </g>
   <g id="line2d_18">
    <path d="M 90 512.64 
L 107.4375 316.525714 
L 113.25 308.982857 
L 142.3125 271.268571 
L 159.75 248.64 
L 194.625 226.011429 
L 200.4375 226.011429 
L 206.25 210.925714 
L 217.875 203.382857 
L 264.375 165.668571 
L 281.8125 150.582857 
L 299.25 150.582857 
L 648 90.24 
" clip-path="url(#pd5ba88d8c5)" style="fill: none; stroke: #ccebed; stroke-width: 2; stroke-linecap: square"/>
   </g>
   <g id="line2d_19">
    <path d="M 90 512.64 
L 90 414.582857 
L 90 391.954286 
L 90 376.868571 
L 95.8125 354.24 
L 95.8125 346.697143 
L 101.625 324.068571 
L 101.625 316.525714 
L 107.4375 301.44 
L 107.4375 293.897143 
L 113.25 293.897143 
L 119.0625 286.354286 
L 124.875 286.354286 
L 130.6875 278.811429 
L 130.6875 271.268571 
L 142.3125 271.268571 
L 142.3125 256.182857 
L 159.75 248.64 
L 159.75 233.554286 
L 183 233.554286 
L 194.625 233.554286 
L 194.625 226.011429 
L 194.625 203.382857 
L 223.6875 203.382857 
L 235.3125 195.84 
L 252.75 195.84 
L 258.5625 180.754286 
L 276 173.211429 
L 293.4375 173.211429 
L 310.875 165.668571 
L 316.6875 158.125714 
L 345.75 143.04 
L 369 127.954286 
L 392.25 120.411429 
L 444.5625 120.411429 
L 479.4375 105.325714 
L 537.5625 97.782857 
L 648 90.24 
" clip-path="url(#pd5ba88d8c5)" style="fill: none; stroke: #666666; stroke-width: 2; stroke-linecap: square"/>
   </g>
   <g id="line2d_20">
    <path d="M 90 512.64 
L 90 497.554286 
L 90 437.211429 
L 90 361.782857 
L 90 346.697143 
L 95.8125 339.154286 
L 107.4375 331.611429 
L 107.4375 308.982857 
L 119.0625 293.897143 
L 130.6875 278.811429 
L 130.6875 271.268571 
L 136.5 263.725714 
L 142.3125 263.725714 
L 148.125 256.182857 
L 165.5625 241.097143 
L 171.375 241.097143 
L 183 218.468571 
L 206.25 203.382857 
L 217.875 203.382857 
L 270.1875 180.754286 
L 270.1875 173.211429 
L 276 173.211429 
L 287.625 158.125714 
L 305.0625 143.04 
L 363.1875 143.04 
L 374.8125 143.04 
L 421.3125 143.04 
L 427.125 143.04 
L 427.125 135.497143 
L 432.9375 120.411429 
L 438.75 112.868571 
L 473.625 112.868571 
L 473.625 105.325714 
L 502.6875 105.325714 
L 514.3125 105.325714 
L 520.125 105.325714 
L 531.75 97.782857 
L 537.5625 97.782857 
L 549.1875 97.782857 
L 566.625 97.782857 
L 572.4375 97.782857 
L 584.0625 97.782857 
L 601.5 90.24 
L 618.9375 90.24 
L 630.5625 90.24 
L 648 90.24 
" clip-path="url(#pd5ba88d8c5)" style="fill: none; stroke: #f1f1f1; stroke-width: 2; stroke-linecap: square"/>
   </g>
   <g id="line2d_21">
    <path d="M 90 512.64 
L 90 505.097143 
L 90 497.554286 
L 90 474.925714 
L 90 422.125714 
L 90 407.04 
L 90 391.954286 
L 95.8125 391.954286 
L 95.8125 376.868571 
L 95.8125 361.782857 
L 95.8125 354.24 
L 95.8125 339.154286 
L 101.625 339.154286 
L 101.625 316.525714 
L 119.0625 316.525714 
L 119.0625 301.44 
L 124.875 301.44 
L 124.875 293.897143 
L 136.5 293.897143 
L 136.5 286.354286 
L 159.75 286.354286 
L 159.75 278.811429 
L 165.5625 278.811429 
L 165.5625 263.725714 
L 171.375 263.725714 
L 171.375 256.182857 
L 177.1875 256.182857 
L 177.1875 248.64 
L 183 248.64 
L 183 241.097143 
L 188.8125 241.097143 
L 188.8125 218.468571 
L 200.4375 218.468571 
L 200.4375 203.382857 
L 217.875 203.382857 
L 217.875 188.297143 
L 223.6875 188.297143 
L 223.6875 180.754286 
L 252.75 180.754286 
L 264.375 180.754286 
L 264.375 165.668571 
L 281.8125 165.668571 
L 281.8125 158.125714 
L 339.9375 158.125714 
L 339.9375 150.582857 
L 409.6875 150.582857 
L 409.6875 143.04 
L 421.3125 143.04 
L 432.9375 143.04 
L 432.9375 135.497143 
L 462 135.497143 
L 462 127.954286 
L 485.25 127.954286 
L 485.25 120.411429 
L 502.6875 120.411429 
L 502.6875 112.868571 
L 508.5 112.868571 
L 520.125 112.868571 
L 520.125 97.782857 
L 549.1875 97.782857 
L 549.1875 90.24 
L 560.8125 90.24 
L 572.4375 90.24 
L 595.6875 90.24 
L 607.3125 90.24 
L 624.75 90.24 
L 648 90.24 
" clip-path="url(#pd5ba88d8c5)" style="fill: none; stroke: #54b986; stroke-width: 2; stroke-linecap: square"/>
   </g>
   <g id="line2d_22">
    <path d="M 90 512.64 
L 90 505.097143 
L 113.25 505.097143 
L 113.25 482.468571 
L 119.0625 482.468571 
L 119.0625 474.925714 
L 119.0625 459.84 
L 119.0625 452.297143 
L 124.875 452.297143 
L 124.875 437.211429 
L 124.875 422.125714 
L 136.5 422.125714 
L 136.5 414.582857 
L 148.125 414.582857 
L 148.125 399.497143 
L 153.9375 399.497143 
L 153.9375 391.954286 
L 159.75 391.954286 
L 159.75 369.325714 
L 159.75 346.697143 
L 159.75 339.154286 
L 165.5625 339.154286 
L 165.5625 331.611429 
L 183 331.611429 
L 183 324.068571 
L 188.8125 324.068571 
L 188.8125 316.525714 
L 188.8125 301.44 
L 194.625 301.44 
L 194.625 293.897143 
L 206.25 293.897143 
L 212.0625 293.897143 
L 212.0625 286.354286 
L 223.6875 286.354286 
L 223.6875 278.811429 
L 229.5 278.811429 
L 229.5 271.268571 
L 252.75 271.268571 
L 252.75 256.182857 
L 270.1875 256.182857 
L 270.1875 248.64 
L 276 248.64 
L 276 241.097143 
L 299.25 241.097143 
L 299.25 233.554286 
L 322.5 233.554286 
L 322.5 226.011429 
L 339.9375 226.011429 
L 339.9375 218.468571 
L 345.75 218.468571 
L 345.75 195.84 
L 351.5625 195.84 
L 351.5625 188.297143 
L 363.1875 188.297143 
L 363.1875 180.754286 
L 369 180.754286 
L 369 165.668571 
L 380.625 165.668571 
L 380.625 158.125714 
L 398.0625 158.125714 
L 398.0625 150.582857 
L 409.6875 150.582857 
L 409.6875 143.04 
L 432.9375 143.04 
L 432.9375 135.497143 
L 450.375 135.497143 
L 450.375 127.954286 
L 473.625 127.954286 
L 473.625 120.411429 
L 496.875 120.411429 
L 496.875 112.868571 
L 537.5625 112.868571 
L 537.5625 105.325714 
L 613.125 105.325714 
L 613.125 97.782857 
L 630.5625 97.782857 
L 630.5625 90.24 
L 648 90.24 
" clip-path="url(#pd5ba88d8c5)" style="fill: none; stroke: #c7ecdc; stroke-width: 2; stroke-linecap: square"/>
   </g>
   <g id="line2d_23">
    <path d="M 90 512.64 
L 90 505.097143 
L 101.625 505.097143 
L 101.625 490.011429 
L 107.4375 490.011429 
L 107.4375 482.468571 
L 107.4375 467.382857 
L 107.4375 444.754286 
L 107.4375 422.125714 
L 107.4375 414.582857 
L 107.4375 399.497143 
L 107.4375 384.411429 
L 107.4375 369.325714 
L 107.4375 361.782857 
L 113.25 361.782857 
L 113.25 339.154286 
L 119.0625 339.154286 
L 119.0625 331.611429 
L 124.875 316.525714 
L 124.875 301.44 
L 153.9375 301.44 
L 153.9375 293.897143 
L 229.5 293.897143 
L 229.5 278.811429 
L 241.125 278.811429 
L 241.125 271.268571 
L 252.75 271.268571 
L 252.75 263.725714 
L 281.8125 263.725714 
L 281.8125 256.182857 
L 299.25 256.182857 
L 299.25 248.64 
L 305.0625 248.64 
L 316.6875 248.64 
L 334.125 248.64 
L 345.75 248.64 
L 345.75 241.097143 
L 351.5625 241.097143 
L 351.5625 233.554286 
L 363.1875 233.554286 
L 363.1875 226.011429 
L 398.0625 226.011429 
L 398.0625 195.84 
L 403.875 195.84 
L 403.875 188.297143 
L 444.5625 188.297143 
L 444.5625 180.754286 
L 456.1875 180.754286 
L 456.1875 173.211429 
L 467.8125 173.211429 
L 467.8125 165.668571 
L 485.25 165.668571 
L 485.25 150.582857 
L 502.6875 150.582857 
L 502.6875 135.497143 
L 508.5 135.497143 
L 508.5 120.411429 
L 514.3125 120.411429 
L 514.3125 112.868571 
L 543.375 112.868571 
L 543.375 97.782857 
L 613.125 97.782857 
L 613.125 90.24 
L 648 90.24 
" clip-path="url(#pd5ba88d8c5)" style="fill: none; stroke: #f59a00; stroke-width: 2; stroke-linecap: square"/>
   </g>
   <g id="line2d_24">
    <path d="M 90 512.64 
L 90 354.24 
L 90 339.154286 
L 95.8125 316.525714 
L 95.8125 308.982857 
L 101.625 308.982857 
L 107.4375 293.897143 
L 119.0625 293.897143 
L 119.0625 286.354286 
L 124.875 286.354286 
L 124.875 278.811429 
L 130.6875 278.811429 
L 130.6875 263.725714 
L 136.5 263.725714 
L 136.5 248.64 
L 159.75 248.64 
L 159.75 233.554286 
L 171.375 233.554286 
L 171.375 218.468571 
L 217.875 218.468571 
L 217.875 203.382857 
L 241.125 203.382857 
L 252.75 203.382857 
L 252.75 195.84 
L 276 195.84 
L 276 173.211429 
L 281.8125 173.211429 
L 287.625 165.668571 
L 305.0625 165.668571 
L 305.0625 158.125714 
L 316.6875 158.125714 
L 316.6875 143.04 
L 328.3125 143.04 
L 328.3125 135.497143 
L 328.3125 120.411429 
L 357.375 120.411429 
L 357.375 112.868571 
L 363.1875 112.868571 
L 369 105.325714 
L 369 97.782857 
L 380.625 97.782857 
L 421.3125 97.782857 
L 450.375 97.782857 
L 462 97.782857 
L 473.625 97.782857 
L 485.25 97.782857 
L 485.25 90.24 
L 508.5 90.24 
L 520.125 90.24 
L 531.75 90.24 
L 578.25 90.24 
L 584.0625 90.24 
L 601.5 90.24 
L 624.75 90.24 
L 648 90.24 
" clip-path="url(#pd5ba88d8c5)" style="fill: none; stroke: #ffc66d; stroke-width: 2; stroke-linecap: square"/>
   </g>
   <g id="line2d_25">
    <path d="M 90 512.64 
L 95.8125 399.497143 
L 95.8125 384.411429 
L 101.625 384.411429 
L 101.625 369.325714 
L 113.25 369.325714 
L 113.25 361.782857 
L 124.875 361.782857 
L 124.875 346.697143 
L 124.875 324.068571 
L 130.6875 324.068571 
L 130.6875 308.982857 
L 142.3125 308.982857 
L 142.3125 301.44 
L 148.125 301.44 
L 148.125 286.354286 
L 153.9375 286.354286 
L 153.9375 278.811429 
L 177.1875 278.811429 
L 177.1875 263.725714 
L 183 263.725714 
L 183 256.182857 
L 200.4375 256.182857 
L 200.4375 241.097143 
L 217.875 241.097143 
L 217.875 226.011429 
L 223.6875 226.011429 
L 223.6875 210.925714 
L 229.5 210.925714 
L 229.5 203.382857 
L 241.125 203.382857 
L 241.125 195.84 
L 276 195.84 
L 276 188.297143 
L 281.8125 188.297143 
L 281.8125 173.211429 
L 328.3125 173.211429 
L 328.3125 165.668571 
L 351.5625 165.668571 
L 351.5625 158.125714 
L 369 158.125714 
L 369 150.582857 
L 398.0625 150.582857 
L 398.0625 143.04 
L 432.9375 143.04 
L 648 90.24 
" clip-path="url(#pd5ba88d8c5)" style="fill: none; stroke: #094334; stroke-width: 2; stroke-linecap: square"/>
   </g>
   <g id="line2d_26">
    <path d="M 90 512.64 
L 648 90.24 
" clip-path="url(#pd5ba88d8c5)" style="fill: none; stroke-dasharray: 7.4,3.2; stroke-dashoffset: 0; stroke: #666666; stroke-width: 2"/>
   </g>
   <g id="patch_3">
    <path d="M 90 512.64 
L 90 69.12 
" style="fill: none; stroke: #000000; stroke-width: 0.8; stroke-linejoin: miter; stroke-linecap: square"/>
   </g>
   <g id="patch_4">
    <path d="M 90 512.64 
L 648 512.64 
" style="fill: none; stroke: #000000; stroke-width: 0.8; stroke-linejoin: miter; stroke-linecap: square"/>
   </g>
   <g id="text_15">
    <!-- Receiver Operating Characteristic (ROC) Curves Comparison -->
    <g transform="translate(66.101562 63.12) scale(0.2 -0.2)">
     <defs>
      <path id="DejaVuSans-63" d="M 3122 3366 
L 3122 2828 
Q 2878 2963 2633 3030 
Q 2388 3097 2138 3097 
Q 1578 3097 1268 2742 
Q 959 2388 959 1747 
Q 959 1106 1268 751 
Q 1578 397 2138 397 
Q 2388 397 2633 464 
Q 2878 531 3122 666 
L 3122 134 
Q 2881 22 2623 -34 
Q 2366 -91 2075 -91 
Q 1284 -91 818 406 
Q 353 903 353 1747 
Q 353 2603 823 3093 
Q 1294 3584 2113 3584 
Q 2378 3584 2631 3529 
Q 2884 3475 3122 3366 
z
" transform="scale(0.015625)"/>
      <path id="DejaVuSans-4f" d="M 2522 4238 
Q 1834 4238 1429 3725 
Q 1025 3213 1025 2328 
Q 1025 1447 1429 934 
Q 1834 422 2522 422 
Q 3209 422 3611 934 
Q 4013 1447 4013 2328 
Q 4013 3213 3611 3725 
Q 3209 4238 2522 4238 
z
M 2522 4750 
Q 3503 4750 4090 4092 
Q 4678 3434 4678 2328 
Q 4678 1225 4090 567 
Q 3503 -91 2522 -91 
Q 1538 -91 948 565 
Q 359 1222 359 2328 
Q 359 3434 948 4092 
Q 1538 4750 2522 4750 
z
" transform="scale(0.015625)"/>
      <path id="DejaVuSans-70" d="M 1159 525 
L 1159 -1331 
L 581 -1331 
L 581 3500 
L 1159 3500 
L 1159 2969 
Q 1341 3281 1617 3432 
Q 1894 3584 2278 3584 
Q 2916 3584 3314 3078 
Q 3713 2572 3713 1747 
Q 3713 922 3314 415 
Q 2916 -91 2278 -91 
Q 1894 -91 1617 61 
Q 1341 213 1159 525 
z
M 3116 1747 
Q 3116 2381 2855 2742 
Q 2594 3103 2138 3103 
Q 1681 3103 1420 2742 
Q 1159 2381 1159 1747 
Q 1159 1113 1420 752 
Q 1681 391 2138 391 
Q 2594 391 2855 752 
Q 3116 1113 3116 1747 
z
" transform="scale(0.015625)"/>
      <path id="DejaVuSans-6e" d="M 3513 2113 
L 3513 0 
L 2938 0 
L 2938 2094 
Q 2938 2591 2744 2837 
Q 2550 3084 2163 3084 
Q 1697 3084 1428 2787 
Q 1159 2491 1159 1978 
L 1159 0 
L 581 0 
L 581 3500 
L 1159 3500 
L 1159 2956 
Q 1366 3272 1645 3428 
Q 1925 3584 2291 3584 
Q 2894 3584 3203 3211 
Q 3513 2838 3513 2113 
z
" transform="scale(0.015625)"/>
      <path id="DejaVuSans-67" d="M 2906 1791 
Q 2906 2416 2648 2759 
Q 2391 3103 1925 3103 
Q 1463 3103 1205 2759 
Q 947 2416 947 1791 
Q 947 1169 1205 825 
Q 1463 481 1925 481 
Q 2391 481 2648 825 
Q 2906 1169 2906 1791 
z
M 3481 434 
Q 3481 -459 3084 -895 
Q 2688 -1331 1869 -1331 
Q 1566 -1331 1297 -1286 
Q 1028 -1241 775 -1147 
L 775 -588 
Q 1028 -725 1275 -790 
Q 1522 -856 1778 -856 
Q 2344 -856 2625 -561 
Q 2906 -266 2906 331 
L 2906 616 
Q 2728 306 2450 153 
Q 2172 0 1784 0 
Q 1141 0 747 490 
Q 353 981 353 1791 
Q 353 2603 747 3093 
Q 1141 3584 1784 3584 
Q 2172 3584 2450 3431 
Q 2728 3278 2906 2969 
L 2906 3500 
L 3481 3500 
L 3481 434 
z
" transform="scale(0.015625)"/>
      <path id="DejaVuSans-43" d="M 4122 4306 
L 4122 3641 
Q 3803 3938 3442 4084 
Q 3081 4231 2675 4231 
Q 1875 4231 1450 3742 
Q 1025 3253 1025 2328 
Q 1025 1406 1450 917 
Q 1875 428 2675 428 
Q 3081 428 3442 575 
Q 3803 722 4122 1019 
L 4122 359 
Q 3791 134 3420 21 
Q 3050 -91 2638 -91 
Q 1578 -91 968 557 
Q 359 1206 359 2328 
Q 359 3453 968 4101 
Q 1578 4750 2638 4750 
Q 3056 4750 3426 4639 
Q 3797 4528 4122 4306 
z
" transform="scale(0.015625)"/>
      <path id="DejaVuSans-68" d="M 3513 2113 
L 3513 0 
L 2938 0 
L 2938 2094 
Q 2938 2591 2744 2837 
Q 2550 3084 2163 3084 
Q 1697 3084 1428 2787 
Q 1159 2491 1159 1978 
L 1159 0 
L 581 0 
L 581 4863 
L 1159 4863 
L 1159 2956 
Q 1366 3272 1645 3428 
Q 1925 3584 2291 3584 
Q 2894 3584 3203 3211 
Q 3513 2838 3513 2113 
z
" transform="scale(0.015625)"/>
      <path id="DejaVuSans-28" d="M 1984 4856 
Q 1566 4138 1362 3434 
Q 1159 2731 1159 2009 
Q 1159 1288 1364 580 
Q 1569 -128 1984 -844 
L 1484 -844 
Q 1016 -109 783 600 
Q 550 1309 550 2009 
Q 550 2706 781 3412 
Q 1013 4119 1484 4856 
L 1984 4856 
z
" transform="scale(0.015625)"/>
      <path id="DejaVuSans-29" d="M 513 4856 
L 1013 4856 
Q 1481 4119 1714 3412 
Q 1947 2706 1947 2009 
Q 1947 1309 1714 600 
Q 1481 -109 1013 -844 
L 513 -844 
Q 928 -128 1133 580 
Q 1338 1288 1338 2009 
Q 1338 2731 1133 3434 
Q 928 4138 513 4856 
z
" transform="scale(0.015625)"/>
      <path id="DejaVuSans-6d" d="M 3328 2828 
Q 3544 3216 3844 3400 
Q 4144 3584 4550 3584 
Q 5097 3584 5394 3201 
Q 5691 2819 5691 2113 
L 5691 0 
L 5113 0 
L 5113 2094 
Q 5113 2597 4934 2840 
Q 4756 3084 4391 3084 
Q 3944 3084 3684 2787 
Q 3425 2491 3425 1978 
L 3425 0 
L 2847 0 
L 2847 2094 
Q 2847 2600 2669 2842 
Q 2491 3084 2119 3084 
Q 1678 3084 1418 2786 
Q 1159 2488 1159 1978 
L 1159 0 
L 581 0 
L 581 3500 
L 1159 3500 
L 1159 2956 
Q 1356 3278 1631 3431 
Q 1906 3584 2284 3584 
Q 2666 3584 2933 3390 
Q 3200 3197 3328 2828 
z
" transform="scale(0.015625)"/>
     </defs>
     <use xlink:href="#DejaVuSans-52"/>
     <use xlink:href="#DejaVuSans-65" x="64.982422"/>
     <use xlink:href="#DejaVuSans-63" x="126.505859"/>
     <use xlink:href="#DejaVuSans-65" x="181.486328"/>
     <use xlink:href="#DejaVuSans-69" x="243.009766"/>
     <use xlink:href="#DejaVuSans-76" x="270.792969"/>
     <use xlink:href="#DejaVuSans-65" x="329.972656"/>
     <use xlink:href="#DejaVuSans-72" x="391.496094"/>
     <use xlink:href="#DejaVuSans-20" x="432.609375"/>
     <use xlink:href="#DejaVuSans-4f" x="464.396484"/>
     <use xlink:href="#DejaVuSans-70" x="543.107422"/>
     <use xlink:href="#DejaVuSans-65" x="606.583984"/>
     <use xlink:href="#DejaVuSans-72" x="668.107422"/>
     <use xlink:href="#DejaVuSans-61" x="709.220703"/>
     <use xlink:href="#DejaVuSans-74" x="770.5"/>
     <use xlink:href="#DejaVuSans-69" x="809.708984"/>
     <use xlink:href="#DejaVuSans-6e" x="837.492188"/>
     <use xlink:href="#DejaVuSans-67" x="900.871094"/>
     <use xlink:href="#DejaVuSans-20" x="964.347656"/>
     <use xlink:href="#DejaVuSans-43" x="996.134766"/>
     <use xlink:href="#DejaVuSans-68" x="1065.958984"/>
     <use xlink:href="#DejaVuSans-61" x="1129.337891"/>
     <use xlink:href="#DejaVuSans-72" x="1190.617188"/>
     <use xlink:href="#DejaVuSans-61" x="1231.730469"/>
     <use xlink:href="#DejaVuSans-63" x="1293.009766"/>
     <use xlink:href="#DejaVuSans-74" x="1347.990234"/>
     <use xlink:href="#DejaVuSans-65" x="1387.199219"/>
     <use xlink:href="#DejaVuSans-72" x="1448.722656"/>
     <use xlink:href="#DejaVuSans-69" x="1489.835938"/>
     <use xlink:href="#DejaVuSans-73" x="1517.619141"/>
     <use xlink:href="#DejaVuSans-74" x="1569.71875"/>
     <use xlink:href="#DejaVuSans-69" x="1608.927734"/>
     <use xlink:href="#DejaVuSans-63" x="1636.710938"/>
     <use xlink:href="#DejaVuSans-20" x="1691.691406"/>
     <use xlink:href="#DejaVuSans-28" x="1723.478516"/>
     <use xlink:href="#DejaVuSans-52" x="1762.492188"/>
     <use xlink:href="#DejaVuSans-4f" x="1831.974609"/>
     <use xlink:href="#DejaVuSans-43" x="1910.685547"/>
     <use xlink:href="#DejaVuSans-29" x="1980.509766"/>
     <use xlink:href="#DejaVuSans-20" x="2019.523438"/>
     <use xlink:href="#DejaVuSans-43" x="2051.310547"/>
     <use xlink:href="#DejaVuSans-75" x="2121.134766"/>
     <use xlink:href="#DejaVuSans-72" x="2184.513672"/>
     <use xlink:href="#DejaVuSans-76" x="2225.626953"/>
     <use xlink:href="#DejaVuSans-65" x="2284.806641"/>
     <use xlink:href="#DejaVuSans-73" x="2346.330078"/>
     <use xlink:href="#DejaVuSans-20" x="2398.429688"/>
     <use xlink:href="#DejaVuSans-43" x="2430.216797"/>
     <use xlink:href="#DejaVuSans-6f" x="2500.041016"/>
     <use xlink:href="#DejaVuSans-6d" x="2561.222656"/>
     <use xlink:href="#DejaVuSans-70" x="2658.634766"/>
     <use xlink:href="#DejaVuSans-61" x="2722.111328"/>
     <use xlink:href="#DejaVuSans-72" x="2783.390625"/>
     <use xlink:href="#DejaVuSans-69" x="2824.503906"/>
     <use xlink:href="#DejaVuSans-73" x="2852.287109"/>
     <use xlink:href="#DejaVuSans-6f" x="2904.386719"/>
     <use xlink:href="#DejaVuSans-6e" x="2965.568359"/>
    </g>
   </g>
   <g id="legend_1">
    <g id="patch_5">
     <path d="M 362.33875 505.64 
L 638.2 505.64 
Q 641 505.64 641 502.84 
L 641 216.54875 
Q 641 213.74875 638.2 213.74875 
L 362.33875 213.74875 
Q 359.53875 213.74875 359.53875 216.54875 
L 359.53875 502.84 
Q 359.53875 505.64 362.33875 505.64 
z
" style="fill: #ffffff; opacity: 0.8; stroke: #cccccc; stroke-linejoin: miter"/>
    </g>
    <g id="line2d_27">
     <path d="M 365.13875 225.086562 
L 379.13875 225.086562 
L 393.13875 225.086562 
" style="fill: none; stroke: #4f0433; stroke-width: 2; stroke-linecap: square"/>
    </g>
    <g id="text_16">
     <!-- Neural Network (AUC = 0.90) -->
     <g transform="translate(404.33875 229.986562) scale(0.14 -0.14)">
      <defs>
       <path id="DejaVuSans-4e" d="M 628 4666 
L 1478 4666 
L 3547 763 
L 3547 4666 
L 4159 4666 
L 4159 0 
L 3309 0 
L 1241 3903 
L 1241 0 
L 628 0 
L 628 4666 
z
" transform="scale(0.015625)"/>
       <path id="DejaVuSans-77" d="M 269 3500 
L 844 3500 
L 1563 769 
L 2278 3500 
L 2956 3500 
L 3675 769 
L 4391 3500 
L 4966 3500 
L 4050 0 
L 3372 0 
L 2619 2869 
L 1863 0 
L 1184 0 
L 269 3500 
z
" transform="scale(0.015625)"/>
       <path id="DejaVuSans-6b" d="M 581 4863 
L 1159 4863 
L 1159 1991 
L 2875 3500 
L 3609 3500 
L 1753 1863 
L 3688 0 
L 2938 0 
L 1159 1709 
L 1159 0 
L 581 0 
L 581 4863 
z
" transform="scale(0.015625)"/>
       <path id="DejaVuSans-41" d="M 2188 4044 
L 1331 1722 
L 3047 1722 
L 2188 4044 
z
M 1831 4666 
L 2547 4666 
L 4325 0 
L 3669 0 
L 3244 1197 
L 1141 1197 
L 716 0 
L 50 0 
L 1831 4666 
z
" transform="scale(0.015625)"/>
       <path id="DejaVuSans-55" d="M 556 4666 
L 1191 4666 
L 1191 1831 
Q 1191 1081 1462 751 
Q 1734 422 2344 422 
Q 2950 422 3222 751 
Q 3494 1081 3494 1831 
L 3494 4666 
L 4128 4666 
L 4128 1753 
Q 4128 841 3676 375 
Q 3225 -91 2344 -91 
Q 1459 -91 1007 375 
Q 556 841 556 1753 
L 556 4666 
z
" transform="scale(0.015625)"/>
       <path id="DejaVuSans-3d" d="M 678 2906 
L 4684 2906 
L 4684 2381 
L 678 2381 
L 678 2906 
z
M 678 1631 
L 4684 1631 
L 4684 1100 
L 678 1100 
L 678 1631 
z
" transform="scale(0.015625)"/>
       <path id="DejaVuSans-39" d="M 703 97 
L 703 672 
Q 941 559 1184 500 
Q 1428 441 1663 441 
Q 2288 441 2617 861 
Q 2947 1281 2994 2138 
Q 2813 1869 2534 1725 
Q 2256 1581 1919 1581 
Q 1219 1581 811 2004 
Q 403 2428 403 3163 
Q 403 3881 828 4315 
Q 1253 4750 1959 4750 
Q 2769 4750 3195 4129 
Q 3622 3509 3622 2328 
Q 3622 1225 3098 567 
Q 2575 -91 1691 -91 
Q 1453 -91 1209 -44 
Q 966 3 703 97 
z
M 1959 2075 
Q 2384 2075 2632 2365 
Q 2881 2656 2881 3163 
Q 2881 3666 2632 3958 
Q 2384 4250 1959 4250 
Q 1534 4250 1286 3958 
Q 1038 3666 1038 3163 
Q 1038 2656 1286 2365 
Q 1534 2075 1959 2075 
z
" transform="scale(0.015625)"/>
      </defs>
      <use xlink:href="#DejaVuSans-4e"/>
      <use xlink:href="#DejaVuSans-65" x="74.804688"/>
      <use xlink:href="#DejaVuSans-75" x="136.328125"/>
      <use xlink:href="#DejaVuSans-72" x="199.707031"/>
      <use xlink:href="#DejaVuSans-61" x="240.820312"/>
      <use xlink:href="#DejaVuSans-6c" x="302.099609"/>
      <use xlink:href="#DejaVuSans-20" x="329.882812"/>
      <use xlink:href="#DejaVuSans-4e" x="361.669922"/>
      <use xlink:href="#DejaVuSans-65" x="436.474609"/>
      <use xlink:href="#DejaVuSans-74" x="497.998047"/>
      <use xlink:href="#DejaVuSans-77" x="537.207031"/>
      <use xlink:href="#DejaVuSans-6f" x="618.994141"/>
      <use xlink:href="#DejaVuSans-72" x="680.175781"/>
      <use xlink:href="#DejaVuSans-6b" x="721.289062"/>
      <use xlink:href="#DejaVuSans-20" x="779.199219"/>
      <use xlink:href="#DejaVuSans-28" x="810.986328"/>
      <use xlink:href="#DejaVuSans-41" x="850"/>
      <use xlink:href="#DejaVuSans-55" x="918.408203"/>
      <use xlink:href="#DejaVuSans-43" x="991.601562"/>
      <use xlink:href="#DejaVuSans-20" x="1061.425781"/>
      <use xlink:href="#DejaVuSans-3d" x="1093.212891"/>
      <use xlink:href="#DejaVuSans-20" x="1177.001953"/>
      <use xlink:href="#DejaVuSans-30" x="1208.789062"/>
      <use xlink:href="#DejaVuSans-2e" x="1272.412109"/>
      <use xlink:href="#DejaVuSans-39" x="1304.199219"/>
      <use xlink:href="#DejaVuSans-30" x="1367.822266"/>
      <use xlink:href="#DejaVuSans-29" x="1431.445312"/>
     </g>
    </g>
    <g id="line2d_28">
     <path d="M 365.13875 245.635937 
L 379.13875 245.635937 
L 393.13875 245.635937 
" style="fill: none; stroke: #ff876f; stroke-width: 2; stroke-linecap: square"/>
    </g>
    <g id="text_17">
     <!-- Decision Tree (AUC = 0.83) -->
     <g transform="translate(404.33875 250.535937) scale(0.14 -0.14)">
      <defs>
       <path id="DejaVuSans-44" d="M 1259 4147 
L 1259 519 
L 2022 519 
Q 2988 519 3436 956 
Q 3884 1394 3884 2338 
Q 3884 3275 3436 3711 
Q 2988 4147 2022 4147 
L 1259 4147 
z
M 628 4666 
L 1925 4666 
Q 3281 4666 3915 4102 
Q 4550 3538 4550 2338 
Q 4550 1131 3912 565 
Q 3275 0 1925 0 
L 628 0 
L 628 4666 
z
" transform="scale(0.015625)"/>
       <path id="DejaVuSans-33" d="M 2597 2516 
Q 3050 2419 3304 2112 
Q 3559 1806 3559 1356 
Q 3559 666 3084 287 
Q 2609 -91 1734 -91 
Q 1441 -91 1130 -33 
Q 819 25 488 141 
L 488 750 
Q 750 597 1062 519 
Q 1375 441 1716 441 
Q 2309 441 2620 675 
Q 2931 909 2931 1356 
Q 2931 1769 2642 2001 
Q 2353 2234 1838 2234 
L 1294 2234 
L 1294 2753 
L 1863 2753 
Q 2328 2753 2575 2939 
Q 2822 3125 2822 3475 
Q 2822 3834 2567 4026 
Q 2313 4219 1838 4219 
Q 1578 4219 1281 4162 
Q 984 4106 628 3988 
L 628 4550 
Q 988 4650 1302 4700 
Q 1616 4750 1894 4750 
Q 2613 4750 3031 4423 
Q 3450 4097 3450 3541 
Q 3450 3153 3228 2886 
Q 3006 2619 2597 2516 
z
" transform="scale(0.015625)"/>
      </defs>
      <use xlink:href="#DejaVuSans-44"/>
      <use xlink:href="#DejaVuSans-65" x="77.001953"/>
      <use xlink:href="#DejaVuSans-63" x="138.525391"/>
      <use xlink:href="#DejaVuSans-69" x="193.505859"/>
      <use xlink:href="#DejaVuSans-73" x="221.289062"/>
      <use xlink:href="#DejaVuSans-69" x="273.388672"/>
      <use xlink:href="#DejaVuSans-6f" x="301.171875"/>
      <use xlink:href="#DejaVuSans-6e" x="362.353516"/>
      <use xlink:href="#DejaVuSans-20" x="425.732422"/>
      <use xlink:href="#DejaVuSans-54" x="457.519531"/>
      <use xlink:href="#DejaVuSans-72" x="503.853516"/>
      <use xlink:href="#DejaVuSans-65" x="542.716797"/>
      <use xlink:href="#DejaVuSans-65" x="604.240234"/>
      <use xlink:href="#DejaVuSans-20" x="665.763672"/>
      <use xlink:href="#DejaVuSans-28" x="697.550781"/>
      <use xlink:href="#DejaVuSans-41" x="736.564453"/>
      <use xlink:href="#DejaVuSans-55" x="804.972656"/>
      <use xlink:href="#DejaVuSans-43" x="878.166016"/>
      <use xlink:href="#DejaVuSans-20" x="947.990234"/>
      <use xlink:href="#DejaVuSans-3d" x="979.777344"/>
      <use xlink:href="#DejaVuSans-20" x="1063.566406"/>
      <use xlink:href="#DejaVuSans-30" x="1095.353516"/>
      <use xlink:href="#DejaVuSans-2e" x="1158.976562"/>
      <use xlink:href="#DejaVuSans-38" x="1190.763672"/>
      <use xlink:href="#DejaVuSans-33" x="1254.386719"/>
      <use xlink:href="#DejaVuSans-29" x="1318.009766"/>
     </g>
    </g>
    <g id="line2d_29">
     <path d="M 365.13875 266.185313 
L 379.13875 266.185313 
L 393.13875 266.185313 
" style="fill: none; stroke: #870052; stroke-width: 2; stroke-linecap: square"/>
    </g>
    <g id="text_18">
     <!-- Random Forest (AUC = 0.84) -->
     <g transform="translate(404.33875 271.085312) scale(0.14 -0.14)">
      <defs>
       <path id="DejaVuSans-64" d="M 2906 2969 
L 2906 4863 
L 3481 4863 
L 3481 0 
L 2906 0 
L 2906 525 
Q 2725 213 2448 61 
Q 2172 -91 1784 -91 
Q 1150 -91 751 415 
Q 353 922 353 1747 
Q 353 2572 751 3078 
Q 1150 3584 1784 3584 
Q 2172 3584 2448 3432 
Q 2725 3281 2906 2969 
z
M 947 1747 
Q 947 1113 1208 752 
Q 1469 391 1925 391 
Q 2381 391 2643 752 
Q 2906 1113 2906 1747 
Q 2906 2381 2643 2742 
Q 2381 3103 1925 3103 
Q 1469 3103 1208 2742 
Q 947 2381 947 1747 
z
" transform="scale(0.015625)"/>
      </defs>
      <use xlink:href="#DejaVuSans-52"/>
      <use xlink:href="#DejaVuSans-61" x="67.232422"/>
      <use xlink:href="#DejaVuSans-6e" x="128.511719"/>
      <use xlink:href="#DejaVuSans-64" x="191.890625"/>
      <use xlink:href="#DejaVuSans-6f" x="255.367188"/>
      <use xlink:href="#DejaVuSans-6d" x="316.548828"/>
      <use xlink:href="#DejaVuSans-20" x="413.960938"/>
      <use xlink:href="#DejaVuSans-46" x="445.748047"/>
      <use xlink:href="#DejaVuSans-6f" x="499.642578"/>
      <use xlink:href="#DejaVuSans-72" x="560.824219"/>
      <use xlink:href="#DejaVuSans-65" x="599.6875"/>
      <use xlink:href="#DejaVuSans-73" x="661.210938"/>
      <use xlink:href="#DejaVuSans-74" x="713.310547"/>
      <use xlink:href="#DejaVuSans-20" x="752.519531"/>
      <use xlink:href="#DejaVuSans-28" x="784.306641"/>
      <use xlink:href="#DejaVuSans-41" x="823.320312"/>
      <use xlink:href="#DejaVuSans-55" x="891.728516"/>
      <use xlink:href="#DejaVuSans-43" x="964.921875"/>
      <use xlink:href="#DejaVuSans-20" x="1034.746094"/>
      <use xlink:href="#DejaVuSans-3d" x="1066.533203"/>
      <use xlink:href="#DejaVuSans-20" x="1150.322266"/>
      <use xlink:href="#DejaVuSans-30" x="1182.109375"/>
      <use xlink:href="#DejaVuSans-2e" x="1245.732422"/>
      <use xlink:href="#DejaVuSans-38" x="1277.519531"/>
      <use xlink:href="#DejaVuSans-34" x="1341.142578"/>
      <use xlink:href="#DejaVuSans-29" x="1404.765625"/>
     </g>
    </g>
    <g id="line2d_30">
     <path d="M 365.13875 286.734688 
L 379.13875 286.734688 
L 393.13875 286.734688 
" style="fill: none; stroke: #ffddd6; stroke-width: 2; stroke-linecap: square"/>
    </g>
    <g id="text_19">
     <!-- AdaBoost (AUC = 0.84) -->
     <g transform="translate(404.33875 291.634687) scale(0.14 -0.14)">
      <defs>
       <path id="DejaVuSans-42" d="M 1259 2228 
L 1259 519 
L 2272 519 
Q 2781 519 3026 730 
Q 3272 941 3272 1375 
Q 3272 1813 3026 2020 
Q 2781 2228 2272 2228 
L 1259 2228 
z
M 1259 4147 
L 1259 2741 
L 2194 2741 
Q 2656 2741 2882 2914 
Q 3109 3088 3109 3444 
Q 3109 3797 2882 3972 
Q 2656 4147 2194 4147 
L 1259 4147 
z
M 628 4666 
L 2241 4666 
Q 2963 4666 3353 4366 
Q 3744 4066 3744 3513 
Q 3744 3084 3544 2831 
Q 3344 2578 2956 2516 
Q 3422 2416 3680 2098 
Q 3938 1781 3938 1306 
Q 3938 681 3513 340 
Q 3088 0 2303 0 
L 628 0 
L 628 4666 
z
" transform="scale(0.015625)"/>
      </defs>
      <use xlink:href="#DejaVuSans-41"/>
      <use xlink:href="#DejaVuSans-64" x="66.658203"/>
      <use xlink:href="#DejaVuSans-61" x="130.134766"/>
      <use xlink:href="#DejaVuSans-42" x="191.414062"/>
      <use xlink:href="#DejaVuSans-6f" x="260.017578"/>
      <use xlink:href="#DejaVuSans-6f" x="321.199219"/>
      <use xlink:href="#DejaVuSans-73" x="382.380859"/>
      <use xlink:href="#DejaVuSans-74" x="434.480469"/>
      <use xlink:href="#DejaVuSans-20" x="473.689453"/>
      <use xlink:href="#DejaVuSans-28" x="505.476562"/>
      <use xlink:href="#DejaVuSans-41" x="544.490234"/>
      <use xlink:href="#DejaVuSans-55" x="612.898438"/>
      <use xlink:href="#DejaVuSans-43" x="686.091797"/>
      <use xlink:href="#DejaVuSans-20" x="755.916016"/>
      <use xlink:href="#DejaVuSans-3d" x="787.703125"/>
      <use xlink:href="#DejaVuSans-20" x="871.492188"/>
      <use xlink:href="#DejaVuSans-30" x="903.279297"/>
      <use xlink:href="#DejaVuSans-2e" x="966.902344"/>
      <use xlink:href="#DejaVuSans-38" x="998.689453"/>
      <use xlink:href="#DejaVuSans-34" x="1062.3125"/>
      <use xlink:href="#DejaVuSans-29" x="1125.935547"/>
     </g>
    </g>
    <g id="line2d_31">
     <path d="M 365.13875 307.284063 
L 379.13875 307.284063 
L 393.13875 307.284063 
" style="fill: none; stroke: #4db5bc; stroke-width: 2; stroke-linecap: square"/>
    </g>
    <g id="text_20">
     <!-- Extra Trees (AUC = 0.82) -->
     <g transform="translate(404.33875 312.184062) scale(0.14 -0.14)">
      <defs>
       <path id="DejaVuSans-45" d="M 628 4666 
L 3578 4666 
L 3578 4134 
L 1259 4134 
L 1259 2753 
L 3481 2753 
L 3481 2222 
L 1259 2222 
L 1259 531 
L 3634 531 
L 3634 0 
L 628 0 
L 628 4666 
z
" transform="scale(0.015625)"/>
       <path id="DejaVuSans-78" d="M 3513 3500 
L 2247 1797 
L 3578 0 
L 2900 0 
L 1881 1375 
L 863 0 
L 184 0 
L 1544 1831 
L 300 3500 
L 978 3500 
L 1906 2253 
L 2834 3500 
L 3513 3500 
z
" transform="scale(0.015625)"/>
      </defs>
      <use xlink:href="#DejaVuSans-45"/>
      <use xlink:href="#DejaVuSans-78" x="63.183594"/>
      <use xlink:href="#DejaVuSans-74" x="122.363281"/>
      <use xlink:href="#DejaVuSans-72" x="161.572266"/>
      <use xlink:href="#DejaVuSans-61" x="202.685547"/>
      <use xlink:href="#DejaVuSans-20" x="263.964844"/>
      <use xlink:href="#DejaVuSans-54" x="295.751953"/>
      <use xlink:href="#DejaVuSans-72" x="342.085938"/>
      <use xlink:href="#DejaVuSans-65" x="380.949219"/>
      <use xlink:href="#DejaVuSans-65" x="442.472656"/>
      <use xlink:href="#DejaVuSans-73" x="503.996094"/>
      <use xlink:href="#DejaVuSans-20" x="556.095703"/>
      <use xlink:href="#DejaVuSans-28" x="587.882812"/>
      <use xlink:href="#DejaVuSans-41" x="626.896484"/>
      <use xlink:href="#DejaVuSans-55" x="695.304688"/>
      <use xlink:href="#DejaVuSans-43" x="768.498047"/>
      <use xlink:href="#DejaVuSans-20" x="838.322266"/>
      <use xlink:href="#DejaVuSans-3d" x="870.109375"/>
      <use xlink:href="#DejaVuSans-20" x="953.898438"/>
      <use xlink:href="#DejaVuSans-30" x="985.685547"/>
      <use xlink:href="#DejaVuSans-2e" x="1049.308594"/>
      <use xlink:href="#DejaVuSans-38" x="1081.095703"/>
      <use xlink:href="#DejaVuSans-32" x="1144.71875"/>
      <use xlink:href="#DejaVuSans-29" x="1208.341797"/>
     </g>
    </g>
    <g id="line2d_32">
     <path d="M 365.13875 327.833438 
L 379.13875 327.833438 
L 393.13875 327.833438 
" style="fill: none; stroke: #ccebed; stroke-width: 2; stroke-linecap: square"/>
    </g>
    <g id="text_21">
     <!-- Decision Tree (AUC = 0.83) -->
     <g transform="translate(404.33875 332.733437) scale(0.14 -0.14)">
      <use xlink:href="#DejaVuSans-44"/>
      <use xlink:href="#DejaVuSans-65" x="77.001953"/>
      <use xlink:href="#DejaVuSans-63" x="138.525391"/>
      <use xlink:href="#DejaVuSans-69" x="193.505859"/>
      <use xlink:href="#DejaVuSans-73" x="221.289062"/>
      <use xlink:href="#DejaVuSans-69" x="273.388672"/>
      <use xlink:href="#DejaVuSans-6f" x="301.171875"/>
      <use xlink:href="#DejaVuSans-6e" x="362.353516"/>
      <use xlink:href="#DejaVuSans-20" x="425.732422"/>
      <use xlink:href="#DejaVuSans-54" x="457.519531"/>
      <use xlink:href="#DejaVuSans-72" x="503.853516"/>
      <use xlink:href="#DejaVuSans-65" x="542.716797"/>
      <use xlink:href="#DejaVuSans-65" x="604.240234"/>
      <use xlink:href="#DejaVuSans-20" x="665.763672"/>
      <use xlink:href="#DejaVuSans-28" x="697.550781"/>
      <use xlink:href="#DejaVuSans-41" x="736.564453"/>
      <use xlink:href="#DejaVuSans-55" x="804.972656"/>
      <use xlink:href="#DejaVuSans-43" x="878.166016"/>
      <use xlink:href="#DejaVuSans-20" x="947.990234"/>
      <use xlink:href="#DejaVuSans-3d" x="979.777344"/>
      <use xlink:href="#DejaVuSans-20" x="1063.566406"/>
      <use xlink:href="#DejaVuSans-30" x="1095.353516"/>
      <use xlink:href="#DejaVuSans-2e" x="1158.976562"/>
      <use xlink:href="#DejaVuSans-38" x="1190.763672"/>
      <use xlink:href="#DejaVuSans-33" x="1254.386719"/>
      <use xlink:href="#DejaVuSans-29" x="1318.009766"/>
     </g>
    </g>
    <g id="line2d_33">
     <path d="M 365.13875 348.382812 
L 379.13875 348.382812 
L 393.13875 348.382812 
" style="fill: none; stroke: #666666; stroke-width: 2; stroke-linecap: square"/>
    </g>
    <g id="text_22">
     <!-- Random Forest (AUC = 0.84) -->
     <g transform="translate(404.33875 353.282812) scale(0.14 -0.14)">
      <use xlink:href="#DejaVuSans-52"/>
      <use xlink:href="#DejaVuSans-61" x="67.232422"/>
      <use xlink:href="#DejaVuSans-6e" x="128.511719"/>
      <use xlink:href="#DejaVuSans-64" x="191.890625"/>
      <use xlink:href="#DejaVuSans-6f" x="255.367188"/>
      <use xlink:href="#DejaVuSans-6d" x="316.548828"/>
      <use xlink:href="#DejaVuSans-20" x="413.960938"/>
      <use xlink:href="#DejaVuSans-46" x="445.748047"/>
      <use xlink:href="#DejaVuSans-6f" x="499.642578"/>
      <use xlink:href="#DejaVuSans-72" x="560.824219"/>
      <use xlink:href="#DejaVuSans-65" x="599.6875"/>
      <use xlink:href="#DejaVuSans-73" x="661.210938"/>
      <use xlink:href="#DejaVuSans-74" x="713.310547"/>
      <use xlink:href="#DejaVuSans-20" x="752.519531"/>
      <use xlink:href="#DejaVuSans-28" x="784.306641"/>
      <use xlink:href="#DejaVuSans-41" x="823.320312"/>
      <use xlink:href="#DejaVuSans-55" x="891.728516"/>
      <use xlink:href="#DejaVuSans-43" x="964.921875"/>
      <use xlink:href="#DejaVuSans-20" x="1034.746094"/>
      <use xlink:href="#DejaVuSans-3d" x="1066.533203"/>
      <use xlink:href="#DejaVuSans-20" x="1150.322266"/>
      <use xlink:href="#DejaVuSans-30" x="1182.109375"/>
      <use xlink:href="#DejaVuSans-2e" x="1245.732422"/>
      <use xlink:href="#DejaVuSans-38" x="1277.519531"/>
      <use xlink:href="#DejaVuSans-34" x="1341.142578"/>
      <use xlink:href="#DejaVuSans-29" x="1404.765625"/>
     </g>
    </g>
    <g id="line2d_34">
     <path d="M 365.13875 368.932188 
L 379.13875 368.932188 
L 393.13875 368.932188 
" style="fill: none; stroke: #f1f1f1; stroke-width: 2; stroke-linecap: square"/>
    </g>
    <g id="text_23">
     <!-- AdaBoost (AUC = 0.84) -->
     <g transform="translate(404.33875 373.832188) scale(0.14 -0.14)">
      <use xlink:href="#DejaVuSans-41"/>
      <use xlink:href="#DejaVuSans-64" x="66.658203"/>
      <use xlink:href="#DejaVuSans-61" x="130.134766"/>
      <use xlink:href="#DejaVuSans-42" x="191.414062"/>
      <use xlink:href="#DejaVuSans-6f" x="260.017578"/>
      <use xlink:href="#DejaVuSans-6f" x="321.199219"/>
      <use xlink:href="#DejaVuSans-73" x="382.380859"/>
      <use xlink:href="#DejaVuSans-74" x="434.480469"/>
      <use xlink:href="#DejaVuSans-20" x="473.689453"/>
      <use xlink:href="#DejaVuSans-28" x="505.476562"/>
      <use xlink:href="#DejaVuSans-41" x="544.490234"/>
      <use xlink:href="#DejaVuSans-55" x="612.898438"/>
      <use xlink:href="#DejaVuSans-43" x="686.091797"/>
      <use xlink:href="#DejaVuSans-20" x="755.916016"/>
      <use xlink:href="#DejaVuSans-3d" x="787.703125"/>
      <use xlink:href="#DejaVuSans-20" x="871.492188"/>
      <use xlink:href="#DejaVuSans-30" x="903.279297"/>
      <use xlink:href="#DejaVuSans-2e" x="966.902344"/>
      <use xlink:href="#DejaVuSans-38" x="998.689453"/>
      <use xlink:href="#DejaVuSans-34" x="1062.3125"/>
      <use xlink:href="#DejaVuSans-29" x="1125.935547"/>
     </g>
    </g>
    <g id="line2d_35">
     <path d="M 365.13875 389.481562 
L 379.13875 389.481562 
L 393.13875 389.481562 
" style="fill: none; stroke: #54b986; stroke-width: 2; stroke-linecap: square"/>
    </g>
    <g id="text_24">
     <!-- Extra Trees (AUC = 0.82) -->
     <g transform="translate(404.33875 394.381562) scale(0.14 -0.14)">
      <use xlink:href="#DejaVuSans-45"/>
      <use xlink:href="#DejaVuSans-78" x="63.183594"/>
      <use xlink:href="#DejaVuSans-74" x="122.363281"/>
      <use xlink:href="#DejaVuSans-72" x="161.572266"/>
      <use xlink:href="#DejaVuSans-61" x="202.685547"/>
      <use xlink:href="#DejaVuSans-20" x="263.964844"/>
      <use xlink:href="#DejaVuSans-54" x="295.751953"/>
      <use xlink:href="#DejaVuSans-72" x="342.085938"/>
      <use xlink:href="#DejaVuSans-65" x="380.949219"/>
      <use xlink:href="#DejaVuSans-65" x="442.472656"/>
      <use xlink:href="#DejaVuSans-73" x="503.996094"/>
      <use xlink:href="#DejaVuSans-20" x="556.095703"/>
      <use xlink:href="#DejaVuSans-28" x="587.882812"/>
      <use xlink:href="#DejaVuSans-41" x="626.896484"/>
      <use xlink:href="#DejaVuSans-55" x="695.304688"/>
      <use xlink:href="#DejaVuSans-43" x="768.498047"/>
      <use xlink:href="#DejaVuSans-20" x="838.322266"/>
      <use xlink:href="#DejaVuSans-3d" x="870.109375"/>
      <use xlink:href="#DejaVuSans-20" x="953.898438"/>
      <use xlink:href="#DejaVuSans-30" x="985.685547"/>
      <use xlink:href="#DejaVuSans-2e" x="1049.308594"/>
      <use xlink:href="#DejaVuSans-38" x="1081.095703"/>
      <use xlink:href="#DejaVuSans-32" x="1144.71875"/>
      <use xlink:href="#DejaVuSans-29" x="1208.341797"/>
     </g>
    </g>
    <g id="line2d_36">
     <path d="M 365.13875 410.030938 
L 379.13875 410.030938 
L 393.13875 410.030938 
" style="fill: none; stroke: #c7ecdc; stroke-width: 2; stroke-linecap: square"/>
    </g>
    <g id="text_25">
     <!-- Logistic Regression (AUC = 0.71) -->
     <g transform="translate(404.33875 414.930938) scale(0.14 -0.14)">
      <defs>
       <path id="DejaVuSans-4c" d="M 628 4666 
L 1259 4666 
L 1259 531 
L 3531 531 
L 3531 0 
L 628 0 
L 628 4666 
z
" transform="scale(0.015625)"/>
       <path id="DejaVuSans-37" d="M 525 4666 
L 3525 4666 
L 3525 4397 
L 1831 0 
L 1172 0 
L 2766 4134 
L 525 4134 
L 525 4666 
z
" transform="scale(0.015625)"/>
      </defs>
      <use xlink:href="#DejaVuSans-4c"/>
      <use xlink:href="#DejaVuSans-6f" x="53.962891"/>
      <use xlink:href="#DejaVuSans-67" x="115.144531"/>
      <use xlink:href="#DejaVuSans-69" x="178.621094"/>
      <use xlink:href="#DejaVuSans-73" x="206.404297"/>
      <use xlink:href="#DejaVuSans-74" x="258.503906"/>
      <use xlink:href="#DejaVuSans-69" x="297.712891"/>
      <use xlink:href="#DejaVuSans-63" x="325.496094"/>
      <use xlink:href="#DejaVuSans-20" x="380.476562"/>
      <use xlink:href="#DejaVuSans-52" x="412.263672"/>
      <use xlink:href="#DejaVuSans-65" x="477.246094"/>
      <use xlink:href="#DejaVuSans-67" x="538.769531"/>
      <use xlink:href="#DejaVuSans-72" x="602.246094"/>
      <use xlink:href="#DejaVuSans-65" x="641.109375"/>
      <use xlink:href="#DejaVuSans-73" x="702.632812"/>
      <use xlink:href="#DejaVuSans-73" x="754.732422"/>
      <use xlink:href="#DejaVuSans-69" x="806.832031"/>
      <use xlink:href="#DejaVuSans-6f" x="834.615234"/>
      <use xlink:href="#DejaVuSans-6e" x="895.796875"/>
      <use xlink:href="#DejaVuSans-20" x="959.175781"/>
      <use xlink:href="#DejaVuSans-28" x="990.962891"/>
      <use xlink:href="#DejaVuSans-41" x="1029.976562"/>
      <use xlink:href="#DejaVuSans-55" x="1098.384766"/>
      <use xlink:href="#DejaVuSans-43" x="1171.578125"/>
      <use xlink:href="#DejaVuSans-20" x="1241.402344"/>
      <use xlink:href="#DejaVuSans-3d" x="1273.189453"/>
      <use xlink:href="#DejaVuSans-20" x="1356.978516"/>
      <use xlink:href="#DejaVuSans-30" x="1388.765625"/>
      <use xlink:href="#DejaVuSans-2e" x="1452.388672"/>
      <use xlink:href="#DejaVuSans-37" x="1484.175781"/>
      <use xlink:href="#DejaVuSans-31" x="1547.798828"/>
      <use xlink:href="#DejaVuSans-29" x="1611.421875"/>
     </g>
    </g>
    <g id="line2d_37">
     <path d="M 365.13875 430.580312 
L 379.13875 430.580312 
L 393.13875 430.580312 
" style="fill: none; stroke: #f59a00; stroke-width: 2; stroke-linecap: square"/>
    </g>
    <g id="text_26">
     <!-- SVM (AUC = 0.70) -->
     <g transform="translate(404.33875 435.480312) scale(0.14 -0.14)">
      <defs>
       <path id="DejaVuSans-53" d="M 3425 4513 
L 3425 3897 
Q 3066 4069 2747 4153 
Q 2428 4238 2131 4238 
Q 1616 4238 1336 4038 
Q 1056 3838 1056 3469 
Q 1056 3159 1242 3001 
Q 1428 2844 1947 2747 
L 2328 2669 
Q 3034 2534 3370 2195 
Q 3706 1856 3706 1288 
Q 3706 609 3251 259 
Q 2797 -91 1919 -91 
Q 1588 -91 1214 -16 
Q 841 59 441 206 
L 441 856 
Q 825 641 1194 531 
Q 1563 422 1919 422 
Q 2459 422 2753 634 
Q 3047 847 3047 1241 
Q 3047 1584 2836 1778 
Q 2625 1972 2144 2069 
L 1759 2144 
Q 1053 2284 737 2584 
Q 422 2884 422 3419 
Q 422 4038 858 4394 
Q 1294 4750 2059 4750 
Q 2388 4750 2728 4690 
Q 3069 4631 3425 4513 
z
" transform="scale(0.015625)"/>
       <path id="DejaVuSans-56" d="M 1831 0 
L 50 4666 
L 709 4666 
L 2188 738 
L 3669 4666 
L 4325 4666 
L 2547 0 
L 1831 0 
z
" transform="scale(0.015625)"/>
       <path id="DejaVuSans-4d" d="M 628 4666 
L 1569 4666 
L 2759 1491 
L 3956 4666 
L 4897 4666 
L 4897 0 
L 4281 0 
L 4281 4097 
L 3078 897 
L 2444 897 
L 1241 4097 
L 1241 0 
L 628 0 
L 628 4666 
z
" transform="scale(0.015625)"/>
      </defs>
      <use xlink:href="#DejaVuSans-53"/>
      <use xlink:href="#DejaVuSans-56" x="63.476562"/>
      <use xlink:href="#DejaVuSans-4d" x="131.884766"/>
      <use xlink:href="#DejaVuSans-20" x="218.164062"/>
      <use xlink:href="#DejaVuSans-28" x="249.951172"/>
      <use xlink:href="#DejaVuSans-41" x="288.964844"/>
      <use xlink:href="#DejaVuSans-55" x="357.373047"/>
      <use xlink:href="#DejaVuSans-43" x="430.566406"/>
      <use xlink:href="#DejaVuSans-20" x="500.390625"/>
      <use xlink:href="#DejaVuSans-3d" x="532.177734"/>
      <use xlink:href="#DejaVuSans-20" x="615.966797"/>
      <use xlink:href="#DejaVuSans-30" x="647.753906"/>
      <use xlink:href="#DejaVuSans-2e" x="711.376953"/>
      <use xlink:href="#DejaVuSans-37" x="743.164062"/>
      <use xlink:href="#DejaVuSans-30" x="806.787109"/>
      <use xlink:href="#DejaVuSans-29" x="870.410156"/>
     </g>
    </g>
    <g id="line2d_38">
     <path d="M 365.13875 451.129688 
L 379.13875 451.129688 
L 393.13875 451.129688 
" style="fill: none; stroke: #ffc66d; stroke-width: 2; stroke-linecap: square"/>
    </g>
    <g id="text_27">
     <!-- XGBoost (AUC = 0.86) -->
     <g transform="translate(404.33875 456.029688) scale(0.14 -0.14)">
      <defs>
       <path id="DejaVuSans-58" d="M 403 4666 
L 1081 4666 
L 2241 2931 
L 3406 4666 
L 4084 4666 
L 2584 2425 
L 4184 0 
L 3506 0 
L 2194 1984 
L 872 0 
L 191 0 
L 1856 2491 
L 403 4666 
z
" transform="scale(0.015625)"/>
       <path id="DejaVuSans-47" d="M 3809 666 
L 3809 1919 
L 2778 1919 
L 2778 2438 
L 4434 2438 
L 4434 434 
Q 4069 175 3628 42 
Q 3188 -91 2688 -91 
Q 1594 -91 976 548 
Q 359 1188 359 2328 
Q 359 3472 976 4111 
Q 1594 4750 2688 4750 
Q 3144 4750 3555 4637 
Q 3966 4525 4313 4306 
L 4313 3634 
Q 3963 3931 3569 4081 
Q 3175 4231 2741 4231 
Q 1884 4231 1454 3753 
Q 1025 3275 1025 2328 
Q 1025 1384 1454 906 
Q 1884 428 2741 428 
Q 3075 428 3337 486 
Q 3600 544 3809 666 
z
" transform="scale(0.015625)"/>
      </defs>
      <use xlink:href="#DejaVuSans-58"/>
      <use xlink:href="#DejaVuSans-47" x="68.505859"/>
      <use xlink:href="#DejaVuSans-42" x="145.996094"/>
      <use xlink:href="#DejaVuSans-6f" x="214.599609"/>
      <use xlink:href="#DejaVuSans-6f" x="275.78125"/>
      <use xlink:href="#DejaVuSans-73" x="336.962891"/>
      <use xlink:href="#DejaVuSans-74" x="389.0625"/>
      <use xlink:href="#DejaVuSans-20" x="428.271484"/>
      <use xlink:href="#DejaVuSans-28" x="460.058594"/>
      <use xlink:href="#DejaVuSans-41" x="499.072266"/>
      <use xlink:href="#DejaVuSans-55" x="567.480469"/>
      <use xlink:href="#DejaVuSans-43" x="640.673828"/>
      <use xlink:href="#DejaVuSans-20" x="710.498047"/>
      <use xlink:href="#DejaVuSans-3d" x="742.285156"/>
      <use xlink:href="#DejaVuSans-20" x="826.074219"/>
      <use xlink:href="#DejaVuSans-30" x="857.861328"/>
      <use xlink:href="#DejaVuSans-2e" x="921.484375"/>
      <use xlink:href="#DejaVuSans-38" x="953.271484"/>
      <use xlink:href="#DejaVuSans-36" x="1016.894531"/>
      <use xlink:href="#DejaVuSans-29" x="1080.517578"/>
     </g>
    </g>
    <g id="line2d_39">
     <path d="M 365.13875 471.679063 
L 379.13875 471.679063 
L 393.13875 471.679063 
" style="fill: none; stroke: #094334; stroke-width: 2; stroke-linecap: square"/>
    </g>
    <g id="text_28">
     <!-- k-NN (AUC = 0.79) -->
     <g transform="translate(404.33875 476.579063) scale(0.14 -0.14)">
      <defs>
       <path id="DejaVuSans-2d" d="M 313 2009 
L 1997 2009 
L 1997 1497 
L 313 1497 
L 313 2009 
z
" transform="scale(0.015625)"/>
      </defs>
      <use xlink:href="#DejaVuSans-6b"/>
      <use xlink:href="#DejaVuSans-2d" x="57.910156"/>
      <use xlink:href="#DejaVuSans-4e" x="93.994141"/>
      <use xlink:href="#DejaVuSans-4e" x="168.798828"/>
      <use xlink:href="#DejaVuSans-20" x="243.603516"/>
      <use xlink:href="#DejaVuSans-28" x="275.390625"/>
      <use xlink:href="#DejaVuSans-41" x="314.404297"/>
      <use xlink:href="#DejaVuSans-55" x="382.8125"/>
      <use xlink:href="#DejaVuSans-43" x="456.005859"/>
      <use xlink:href="#DejaVuSans-20" x="525.830078"/>
      <use xlink:href="#DejaVuSans-3d" x="557.617188"/>
      <use xlink:href="#DejaVuSans-20" x="641.40625"/>
      <use xlink:href="#DejaVuSans-30" x="673.193359"/>
      <use xlink:href="#DejaVuSans-2e" x="736.816406"/>
      <use xlink:href="#DejaVuSans-37" x="768.603516"/>
      <use xlink:href="#DejaVuSans-39" x="832.226562"/>
      <use xlink:href="#DejaVuSans-29" x="895.849609"/>
     </g>
    </g>
    <g id="line2d_40">
     <path d="M 365.13875 492.228438 
L 379.13875 492.228438 
L 393.13875 492.228438 
" style="fill: none; stroke-dasharray: 7.4,3.2; stroke-dashoffset: 0; stroke: #666666; stroke-width: 2"/>
    </g>
    <g id="text_29">
     <!-- Random Chance -->
     <g transform="translate(404.33875 497.128438) scale(0.14 -0.14)">
      <use xlink:href="#DejaVuSans-52"/>
      <use xlink:href="#DejaVuSans-61" x="67.232422"/>
      <use xlink:href="#DejaVuSans-6e" x="128.511719"/>
      <use xlink:href="#DejaVuSans-64" x="191.890625"/>
      <use xlink:href="#DejaVuSans-6f" x="255.367188"/>
      <use xlink:href="#DejaVuSans-6d" x="316.548828"/>
      <use xlink:href="#DejaVuSans-20" x="413.960938"/>
      <use xlink:href="#DejaVuSans-43" x="445.748047"/>
      <use xlink:href="#DejaVuSans-68" x="515.572266"/>
      <use xlink:href="#DejaVuSans-61" x="578.951172"/>
      <use xlink:href="#DejaVuSans-6e" x="640.230469"/>
      <use xlink:href="#DejaVuSans-63" x="703.609375"/>
      <use xlink:href="#DejaVuSans-65" x="758.589844"/>
     </g>
    </g>
   </g>
  </g>
 </g>
 <defs>
  <clipPath id="pd5ba88d8c5">
   <rect x="90" y="69.12" width="558" height="443.52"/>
  </clipPath>
 </defs>
</svg>
